<svg width="517" height="776" viewBox="0 0 517 776" fill="none" xmlns="http://www.w3.org/2000/svg">
<path d="M203.85 113.663L168.982 125.619V73.3271H200.622L203.85 113.663Z" fill="#FFB6B6"/>
<path d="M173.302 87.8013C192.49 87.8013 208.045 71.5968 208.045 51.6077C208.045 31.6185 192.49 15.4141 173.302 15.4141C154.114 15.4141 138.559 31.6185 138.559 51.6077C138.559 71.5968 154.114 87.8013 173.302 87.8013Z" fill="#FFB6B6"/>
<path d="M182.845 48.0172C177.029 47.8385 173.208 41.7142 170.947 36.126C168.686 30.5377 166.363 24.121 160.967 21.8142C156.554 19.9298 148.773 32.6821 145.295 29.2869C141.662 25.7455 145.202 7.56746 149.053 4.30224C152.905 1.03702 158.176 0.403463 163.135 0.159789C175.235 -0.425027 187.414 0.598402 199.281 3.18134C206.626 4.77334 214.173 7.17758 219.475 12.7008C226.181 19.7186 227.896 30.2941 228.379 40.1872C228.878 50.3078 228.317 60.8994 223.592 69.7529C218.867 78.6064 208.981 85.1368 199.5 82.8788C198.548 77.5179 199.515 72.0109 199.889 66.5526C200.248 61.1106 199.874 55.23 196.677 50.8926C193.496 46.5552 186.666 44.8332 182.954 48.6833" fill="#2F2E43"/>
<path d="M225.588 60.5583C229.066 57.9104 233.229 55.6849 237.502 56.2372C242.118 56.822 246.032 60.7857 247.217 65.4805C248.402 70.1753 247.077 75.3412 244.207 79.175C241.354 83.0087 237.096 85.543 232.605 86.8101C230.001 87.5411 227.148 87.8497 224.668 86.7451C221.019 85.1043 219.039 80.2471 220.473 76.3808" fill="#2F2E43"/>
<path d="M92.6347 401.1C90.3112 412.991 94.5683 423.859 102.116 425.37C109.663 426.881 117.663 418.45 119.971 406.558C120.953 401.815 120.797 396.909 119.519 392.23L148.258 205.82L112.314 198.77L98.4356 388.023C95.4884 391.857 93.508 396.34 92.6347 401.116V401.1Z" fill="#FFB6B6"/>
<path d="M168.608 101.625H144.079C126.738 104.371 122.029 114.004 118.084 131.808C112.065 158.97 104.377 195.131 105.905 195.667C108.353 196.512 150.114 216.98 171.399 212.302L168.608 101.625Z" fill="#E2E3E4"/>
<path d="M192.326 695.393H159.673V743.656H192.326V695.393Z" fill="#FFB6B6"/>
<path d="M127.877 772.864C124.446 772.864 121.39 772.783 119.082 772.556C110.412 771.727 102.131 765.051 97.9678 761.152C96.0965 759.397 95.5039 756.603 96.4708 754.199C97.1725 752.477 98.5604 751.177 100.291 750.674L123.214 743.851L160.328 717.762L160.749 718.541C160.905 718.834 164.554 725.673 165.77 730.287C166.238 732.041 166.113 733.503 165.411 734.64C164.928 735.42 164.242 735.875 163.696 736.135C164.367 736.866 166.472 738.36 172.959 739.432C182.424 740.992 184.42 730.774 184.498 730.352L184.561 730.01L184.841 729.815C189.348 726.794 192.124 725.413 193.075 725.705C193.668 725.884 194.666 726.209 197.363 754.037C197.628 754.914 199.515 761.314 198.237 767.439C196.849 774.099 168.904 771.808 163.306 771.289C163.15 771.305 142.223 772.864 127.892 772.864H127.877Z" fill="#2F2E43"/>
<path d="M285.307 657.473L257.6 675.474L282.117 716.426L309.824 698.425L285.307 657.473Z" fill="#FFB6B6"/>
<path d="M248.511 766.253C244.675 766.253 241.151 765.765 238.64 765.31C236.176 764.856 234.243 762.809 233.837 760.242C233.557 758.39 234.071 756.522 235.288 755.141L251.271 736.719L269.516 694.125L270.265 694.548C270.545 694.71 277.11 698.495 280.494 701.744C281.789 702.979 282.428 704.295 282.397 705.643C282.381 706.585 282.038 707.332 281.695 707.868C282.631 708.128 285.172 708.226 291.223 705.562C300.049 701.679 296.556 691.9 296.4 691.494L296.275 691.169L296.416 690.86C298.708 685.808 300.345 683.111 301.312 682.835C301.92 682.656 302.918 682.38 319.339 704.522C320.009 705.107 324.859 709.509 326.886 715.406C329.085 721.823 304.213 735.29 299.207 737.921C299.051 738.051 273.025 757.756 262.327 763.361C258.086 765.587 253.065 766.269 248.496 766.269L248.511 766.253Z" fill="#2F2E43"/>
<path d="M216.372 291.788H124.945L116.649 380.388L152.952 707.755H199.624L180.958 518.68L256.667 689.382L298.147 659.134L239.03 499.771C239.03 499.771 260.144 360.943 243.552 326.357C226.961 291.788 216.372 291.788 216.372 291.788Z" fill="#2F2E43"/>
<path d="M261.86 297.181H116.649L160.219 101.625H223.483L261.86 297.181Z" fill="#E2E3E4"/>
<path d="M274.927 401.1C277.251 412.991 272.994 423.859 265.446 425.37C257.899 426.881 249.899 418.45 247.591 406.558C246.609 401.815 246.765 396.909 248.043 392.23L219.304 205.82L255.248 198.77L269.126 388.023C272.074 391.857 274.054 396.34 274.927 401.116V401.1Z" fill="#FFB6B6"/>
<path d="M198.954 101.625H223.483C240.823 104.371 245.533 114.004 249.478 131.808C255.497 158.97 263.185 195.131 261.657 195.667C259.209 196.512 217.448 216.98 196.163 212.302L198.954 101.625Z" fill="#E2E3E4"/>
<path d="M0 774.297C0 775.163 0.374501 775.859 0.840858 775.859H516.159C516.626 775.859 517 775.163 517 774.297C517 773.43 516.626 772.734 516.159 772.734H0.840858C0.374501 772.734 0 773.43 0 774.297Z" fill="#3F3D58"/>
</svg>
