<svg width="548" height="479" viewBox="0 0 548 479" fill="none" xmlns="http://www.w3.org/2000/svg">
<g clip-path="url(#clip0_343_1392)">
<path d="M26.4418 163.228L0.0186487 148.365C-0.337771 132.462 3.19805 116.713 10.3191 102.485C16.4111 130.1 48.4711 143.238 63.2632 167.35C67.8191 174.905 70.6141 183.388 71.4413 192.168C72.2685 200.949 71.1066 209.804 68.0417 218.075L69.7795 239.486C56.1231 235.401 43.5158 228.407 32.8261 218.987C22.1365 209.568 13.6187 197.945 7.85966 184.921C4.70131 177.582 2.48085 169.876 1.25068 161.983C13.5703 163.292 26.4418 163.228 26.4418 163.228Z" fill="#F2F2F2"/>
<path d="M501.443 433.64L502.254 415.445C510.7 410.935 520.121 408.554 529.698 408.506C516.517 419.269 518.164 440.016 509.228 454.49C506.406 458.982 502.608 462.783 498.115 465.611C493.623 468.439 488.55 470.22 483.275 470.824L472.244 477.569C470.731 469.142 471.064 460.487 473.222 452.201C475.38 443.915 479.311 436.195 484.744 429.572C487.829 425.887 491.366 422.605 495.272 419.803C497.914 426.76 501.443 433.64 501.443 433.64Z" fill="#F2F2F2"/>
<path d="M473.022 468.205L463.034 468.205L458.282 429.729L473.024 429.73L473.022 468.205Z" fill="#FFB6B6"/>
<path d="M475.569 477.875L443.364 477.873V477.467C443.364 474.146 444.685 470.962 447.036 468.614C449.387 466.267 452.575 464.948 455.899 464.947L461.783 460.49L472.759 464.948L475.57 464.948L475.569 477.875Z" fill="#2F2E41"/>
<path d="M426.62 468.205L416.632 468.205L411.881 429.729L426.622 429.73L426.62 468.205Z" fill="#FFB6B6"/>
<path d="M429.167 477.875L396.962 477.873V477.467C396.962 474.146 398.283 470.962 400.634 468.614C402.984 466.267 406.173 464.948 409.497 464.947L415.381 460.49L426.356 464.948L429.168 464.948L429.167 477.875Z" fill="#2F2E41"/>
<path d="M422.296 257.854L487.262 259.477C499.6 266.17 499.788 280.656 495.745 297.855C495.745 297.855 497.11 308.078 494.38 310.804C491.651 313.53 490.286 313.53 491.651 318.301C493.016 323.071 485.805 330.863 486.681 331.738C487.556 332.613 489.604 337.383 489.604 337.383L482.78 376.23C482.78 376.23 478.003 443.7 476.638 445.063C475.274 446.426 473.909 445.063 475.274 448.47C476.638 451.878 478.003 450.515 476.638 451.878C475.429 453.18 474.29 454.545 473.226 455.967H456.728C456.728 455.967 455.485 449.152 455.485 448.47C455.485 447.789 454.12 443.7 454.12 443.018C454.12 442.337 455.326 441.132 455.326 441.132C455.743 439.747 456.024 438.324 456.167 436.885C456.167 435.522 460.261 383.045 460.261 383.045L452.073 314.893L432.284 381.682C432.284 381.682 432.284 440.292 430.919 441.655C429.554 443.018 429.554 442.337 430.236 445.063C430.919 447.789 433.648 447.107 431.601 449.152C429.554 451.196 428.872 447.789 429.554 451.197L430.236 454.604L409.765 454.897C409.765 454.897 407.035 449.152 408.4 447.107C409.765 445.063 409.683 445.621 408.018 442.275C406.353 438.929 405.671 438.248 406.353 437.566C407.035 436.885 407.035 433.26 407.035 433.26L410.447 368.051C410.447 368.051 411.13 299.218 411.13 297.174C411.181 296.122 410.987 295.072 410.563 294.108V291.333L413.177 281.499L422.296 257.854Z" fill="#2F2E41"/>
<path d="M461.323 122.94C472.471 122.94 481.508 113.914 481.508 102.78C481.508 91.6465 472.471 82.6207 461.323 82.6207C450.175 82.6207 441.138 91.6465 441.138 102.78C441.138 113.914 450.175 122.94 461.323 122.94Z" fill="#FFB6B6"/>
<path d="M451.23 136.264C446.881 138.846 444.28 143.59 442.787 148.418C440.022 157.355 438.358 166.596 437.831 175.935L436.254 203.896L416.72 263.433C433.649 277.74 497.285 266.684 497.285 266.684C497.285 266.684 499.238 266.034 497.285 264.083C495.331 262.132 493.43 263.861 495.383 261.91C497.336 259.959 495.99 262.132 495.339 260.181C494.688 258.23 495.339 259.531 495.99 258.881C496.641 258.23 490.949 252.378 490.949 252.378L496.158 218.203L502.67 149.27C494.856 139.515 479.142 133.765 479.142 133.765L475.081 126.466L454.78 128.088L451.23 136.264Z" fill="#E6E6E6"/>
<path d="M448.462 90.9491C449.243 90.9552 450.02 91.057 450.776 91.2524C452.267 91.6103 453.781 91.8639 455.307 92.0112C459.98 92.4503 464.37 94.4406 467.778 97.6643C471.185 100.888 473.413 105.159 474.104 109.795C475.277 108.774 477.946 106.895 480.134 108.641C480.167 108.669 480.187 108.683 480.264 108.647C481.716 107.959 484.295 99.4864 484.373 92.0266C484.415 88.0673 483.791 83.0113 480.584 81.4102L480.415 81.3259L480.371 81.1425C480.157 80.2519 477.763 78.7316 473.604 77.5483C466.045 75.3979 454.777 71.2089 448.432 77.3737C447.952 79.452 446.389 83.8996 444.811 84.4037C443.064 84.9617 441.555 85.4433 441.317 87.5841C441.118 90.6307 441.132 93.6875 441.36 96.7321C441.952 94.8691 443.114 93.2384 444.683 92.0698C445.799 91.3198 447.117 90.9287 448.462 90.9491Z" fill="#2F2E41"/>
<path d="M410.891 202.34L443.863 181.25L427.256 159.202L410.857 179.348L359.763 182.478C358.419 181.151 356.718 180.243 354.866 179.866C353.015 179.488 351.093 179.656 349.336 180.35C347.579 181.044 346.062 182.234 344.97 183.774C343.878 185.315 343.258 187.139 343.187 189.025C343.115 190.911 343.594 192.777 344.566 194.395C345.538 196.014 346.96 197.315 348.66 198.14C350.359 198.966 352.262 199.279 354.137 199.043C356.012 198.806 357.777 198.03 359.218 196.809L410.891 202.34Z" fill="#FFB6B6"/>
<path d="M474.467 151.813C476.381 163.38 440.242 185.467 440.242 185.467C440.241 182.752 418.672 203.248 417.698 200.996C414.931 194.597 412.985 179.44 409.119 177.014C406.908 175.626 422.436 162.593 422.436 162.593C422.436 162.593 430.565 154.414 441.232 144.099C444.193 141.126 447.859 138.951 451.889 137.774C455.919 136.598 460.182 136.459 464.28 137.37C464.28 137.37 472.553 140.246 474.467 151.813Z" fill="#E6E6E6"/>
<path d="M542.428 207.876L520.618 175.399L498.898 192.448L519.413 208.396L523.628 259.348C522.328 260.718 521.456 262.436 521.117 264.292C520.778 266.149 520.987 268.064 521.719 269.804C522.451 271.544 523.674 273.033 525.239 274.091C526.804 275.149 528.644 275.729 530.533 275.761C532.422 275.792 534.28 275.274 535.88 274.27C537.48 273.265 538.752 271.817 539.542 270.103C540.332 268.388 540.606 266.482 540.329 264.615C540.053 262.748 539.239 261.001 537.986 259.588L542.428 207.876Z" fill="#FFB6B6"/>
<path d="M490.502 145.465C502.041 143.309 524.916 178.926 524.916 178.926C522.199 178.984 543.173 200.088 540.939 201.107C534.592 204.006 519.46 206.269 517.113 210.182C515.771 212.419 502.395 197.189 502.395 197.189C502.395 197.189 494.036 189.246 483.484 178.814C480.446 175.92 478.19 172.305 476.927 168.306C475.664 164.307 475.435 160.054 476.26 155.942C476.26 155.942 478.964 147.62 490.502 145.465Z" fill="#E6E6E6"/>
<path d="M548 478.035C548.001 478.162 547.976 478.287 547.927 478.405C547.879 478.522 547.808 478.628 547.718 478.718C547.628 478.808 547.521 478.879 547.404 478.927C547.287 478.976 547.161 479 547.034 479H319.419C319.162 479 318.916 478.898 318.735 478.717C318.554 478.536 318.452 478.291 318.452 478.035C318.452 477.779 318.554 477.533 318.735 477.352C318.916 477.171 319.162 477.07 319.419 477.07H547.034C547.161 477.069 547.287 477.094 547.404 477.142C547.521 477.191 547.628 477.262 547.718 477.351C547.808 477.441 547.879 477.548 547.927 477.665C547.976 477.782 548.001 477.908 548 478.035Z" fill="#CCCCCC"/>
<path d="M337.141 185.56H60.8987C56.5828 185.565 52.4452 187.279 49.3934 190.327C46.3416 193.375 44.625 197.507 44.6201 201.818V373.587C44.625 377.897 46.3416 382.03 49.3934 385.077C52.4452 388.125 56.5829 389.84 60.8987 389.845H337.141C341.456 389.84 345.594 388.125 348.646 385.078C351.698 382.03 353.414 377.897 353.419 373.587V201.818C353.415 197.507 351.698 193.375 348.646 190.327C345.594 187.279 341.457 185.565 337.141 185.56Z" fill="#7C86BA"/>
<path d="M337.141 185.56H60.8987C56.5828 185.565 52.4452 187.279 49.3934 190.327C46.3416 193.375 44.625 197.507 44.6201 201.818V373.587C44.625 377.897 46.3416 382.03 49.3934 385.077C52.4452 388.125 56.5829 389.84 60.8987 389.845H337.141C341.456 389.84 345.594 388.125 348.646 385.078C351.698 382.03 353.414 377.897 353.419 373.587V201.818C353.415 197.507 351.698 193.375 348.646 190.327C345.594 187.279 341.457 185.565 337.141 185.56ZM342.483 308.944C342.417 326.431 335.491 343.195 323.191 355.641C310.891 368.087 294.197 375.223 276.69 375.517C248.66 375.881 292.199 376.023 258.393 376.023C181.09 376.023 100.484 375.286 70.409 374.807C66.4521 374.726 62.6838 373.103 59.9088 370.284C57.1337 367.466 55.5718 363.676 55.5566 359.723V201.831C55.5581 200.415 56.1209 199.058 57.1218 198.056C58.1228 197.054 59.4803 196.488 60.8976 196.483H337.13C338.547 196.485 339.905 197.047 340.908 198.046C341.912 199.046 342.478 200.401 342.483 201.816V308.944Z" fill="#514AA4"/>
<path d="M303.136 86.6499H92.6681C90.8059 86.6526 88.99 87.2292 87.4681 88.301C85.9463 89.3728 84.7927 90.8875 84.1649 92.6385L51.6597 183.718C51.1745 185.078 51.0233 186.534 51.2186 187.964C51.4139 189.394 51.95 190.756 52.782 191.936C53.6139 193.116 54.7173 194.079 55.9995 194.745C57.2817 195.411 58.7052 195.759 60.1502 195.761L342.422 196.262H342.434C343.928 196.261 345.398 195.891 346.714 195.184C348.029 194.476 349.148 193.454 349.97 192.209C350.792 190.963 351.292 189.533 351.425 188.047C351.558 186.561 351.32 185.066 350.731 183.694L311.433 92.1142C310.738 90.4916 309.581 89.1086 308.106 88.1372C306.631 87.1657 304.902 86.6485 303.136 86.6499Z" fill="#514AA4"/>
<path d="M351.463 185.672C351.462 186.893 351.213 188.102 350.732 189.224L311.436 259.72C310.736 261.339 309.577 262.719 308.103 263.688C306.628 264.658 304.902 265.176 303.136 265.178H92.6719C90.809 265.177 88.9921 264.601 87.469 263.53C85.9459 262.458 84.7909 260.944 84.1614 259.193L51.6623 189.2C51.264 188.085 51.0896 186.902 51.1491 185.72C51.2086 184.538 51.5009 183.378 52.0092 182.309C52.5175 181.239 53.2319 180.28 54.1115 179.487C54.9912 178.693 56.0188 178.08 57.1357 177.683C58.1018 177.335 59.1212 177.157 60.1485 177.156L94.629 177.091L108.702 177.067L293.887 176.743L307.968 176.718L342.424 176.653H342.432C344.827 176.654 347.124 177.604 348.817 179.295C350.511 180.987 351.462 183.28 351.463 185.672Z" fill="#514AA4"/>
<path d="M81.6076 314.406C85.7811 314.406 143.093 317.905 143.093 322.073C143.093 326.241 85.7811 329.501 81.6076 329.501C79.6034 329.501 77.6813 328.706 76.2641 327.29C74.8469 325.875 74.0508 323.955 74.0508 321.954C74.0508 319.952 74.8469 318.032 76.2641 316.617C77.6813 315.202 79.6034 314.406 81.6076 314.406Z" fill="#514AA4"/>
<path d="M290.029 31.2417H112.568C107.812 31.2472 103.252 33.1365 99.8891 36.4952C96.5261 39.8539 94.6344 44.4077 94.6289 49.1576V265.178H303.136C304.848 265.184 306.526 264.697 307.968 263.775V49.1576C307.962 44.4077 306.071 39.8539 302.708 36.4952C299.345 33.1365 294.785 31.2472 290.029 31.2417Z" fill="#E6E6E6"/>
<path d="M222.295 45.7675H125.041C120.71 45.7717 116.558 47.4911 113.495 50.5487C110.432 53.6063 108.709 57.7524 108.702 62.0775V265.179H293.887V117.269C293.865 98.3123 286.315 80.1383 272.894 66.7339C259.472 53.3295 241.275 45.7893 222.295 45.7675Z" fill="white"/>
<path d="M262.337 247.141H140.251C139.195 247.141 138.183 247.56 137.437 248.305C136.691 249.05 136.271 250.061 136.271 251.115C136.271 252.169 136.691 253.18 137.437 253.925C138.183 254.671 139.195 255.089 140.251 255.089H262.337C263.393 255.089 264.405 254.671 265.151 253.925C265.897 253.18 266.316 252.169 266.316 251.115C266.316 250.061 265.897 249.05 265.151 248.305C264.405 247.56 263.393 247.141 262.337 247.141Z" fill="#E4E4E4"/>
<path d="M262.337 231.423H140.251C139.194 231.423 138.181 231.842 137.434 232.588C136.687 233.334 136.268 234.346 136.268 235.401C136.268 236.456 136.687 237.468 137.434 238.214C138.181 238.96 139.194 239.379 140.251 239.379H262.337C263.394 239.379 264.407 238.96 265.154 238.214C265.901 237.468 266.321 236.456 266.321 235.401C266.321 234.346 265.901 233.334 265.154 232.588C264.407 231.842 263.394 231.423 262.337 231.423Z" fill="#E4E4E4"/>
<path d="M193.173 215.713H140.251C139.195 215.713 138.183 216.132 137.437 216.877C136.691 217.622 136.271 218.633 136.271 219.687C136.271 220.741 136.691 221.752 137.437 222.497C138.183 223.243 139.195 223.661 140.251 223.661H193.173C194.229 223.661 195.241 223.243 195.987 222.497C196.733 221.752 197.152 220.741 197.152 219.687C197.152 218.633 196.733 217.622 195.987 216.877C195.241 216.132 194.229 215.713 193.173 215.713Z" fill="#E4E4E4"/>
<path d="M262.337 182.801H140.251C139.194 182.801 138.181 183.22 137.434 183.966C136.687 184.712 136.268 185.724 136.268 186.779C136.268 187.834 136.687 188.846 137.434 189.592C138.181 190.338 139.194 190.757 140.251 190.757H262.337C263.394 190.757 264.407 190.338 265.154 189.592C265.901 188.846 266.321 187.834 266.321 186.779C266.321 185.724 265.901 184.712 265.154 183.966C264.407 183.22 263.394 182.801 262.337 182.801Z" fill="#E4E4E4"/>
<path d="M262.337 167.091H140.251C139.195 167.091 138.183 167.51 137.437 168.255C136.691 169.001 136.271 170.011 136.271 171.065C136.271 172.119 136.691 173.13 137.437 173.876C138.183 174.621 139.195 175.04 140.251 175.04H262.337C263.393 175.04 264.405 174.621 265.151 173.876C265.897 173.13 266.316 172.119 266.316 171.065C266.316 170.011 265.897 169.001 265.151 168.255C264.405 167.51 263.393 167.091 262.337 167.091Z" fill="#E4E4E4"/>
<path d="M193.173 151.373H140.251C139.194 151.373 138.181 151.792 137.434 152.538C136.687 153.285 136.268 154.296 136.268 155.351C136.268 156.407 136.687 157.418 137.434 158.164C138.181 158.91 139.194 159.33 140.251 159.33H193.173C194.23 159.33 195.243 158.91 195.99 158.164C196.737 157.418 197.157 156.407 197.157 155.351C197.157 154.296 196.737 153.285 195.99 152.538C195.243 151.792 194.23 151.373 193.173 151.373Z" fill="#E4E4E4"/>
<path d="M262.337 118.461H140.251C139.194 118.461 138.181 118.88 137.434 119.626C136.687 120.372 136.268 121.384 136.268 122.439C136.268 123.494 136.687 124.506 137.434 125.252C138.181 125.998 139.194 126.417 140.251 126.417H262.337C263.394 126.417 264.407 125.998 265.154 125.252C265.901 124.506 266.321 123.494 266.321 122.439C266.321 121.384 265.901 120.372 265.154 119.626C264.407 118.88 263.394 118.461 262.337 118.461Z" fill="#D24996"/>
<path d="M262.337 102.751H140.251C139.194 102.751 138.181 103.17 137.434 103.916C136.687 104.662 136.268 105.674 136.268 106.729C136.268 107.784 136.687 108.796 137.434 109.542C138.181 110.288 139.194 110.708 140.251 110.708H262.337C263.394 110.708 264.407 110.288 265.154 109.542C265.901 108.796 266.321 107.784 266.321 106.729C266.321 105.674 265.901 104.662 265.154 103.916C264.407 103.17 263.394 102.751 262.337 102.751Z" fill="#D24996"/>
<path d="M193.173 87.0332H140.251C139.194 87.0332 138.181 87.4523 137.434 88.1984C136.687 88.9444 136.268 89.9563 136.268 91.0114C136.268 92.0664 136.687 93.0783 137.434 93.8243C138.181 94.5704 139.194 94.9895 140.251 94.9895H193.173C194.23 94.9895 195.243 94.5704 195.99 93.8243C196.737 93.0783 197.157 92.0664 197.157 91.0114C197.157 89.9563 196.737 88.9444 195.99 88.1984C195.243 87.4523 194.23 87.0332 193.173 87.0332Z" fill="#D24996"/>
<path d="M301.314 61.9033C318.43 61.9033 332.305 48.0457 332.305 30.9516C332.305 13.8575 318.43 0 301.314 0C284.198 0 270.323 13.8575 270.323 30.9516C270.323 48.0457 284.198 61.9033 301.314 61.9033Z" fill="#D24996"/>
<path d="M297.087 47.0605C296.552 47.0605 296.024 46.936 295.545 46.6969C295.067 46.4578 294.651 46.1107 294.33 45.683L285.875 34.4241C285.602 34.0625 285.403 33.6506 285.289 33.2121C285.176 32.7736 285.15 32.317 285.214 31.8686C285.277 31.4201 285.429 30.9886 285.66 30.5987C285.89 30.2088 286.196 29.8683 286.559 29.5965C286.921 29.3248 287.334 29.1272 287.774 29.0151C288.213 28.903 288.67 28.8786 289.119 28.9433C289.568 29.008 290 29.1605 290.389 29.3921C290.779 29.6236 291.119 29.9297 291.39 30.2928L296.922 37.6581L311.129 16.3753C311.636 15.6156 312.424 15.0881 313.321 14.909C314.217 14.73 315.149 14.9139 315.909 15.4204C316.67 15.927 317.198 16.7145 317.377 17.61C317.557 18.5054 317.373 19.4352 316.865 20.195L299.956 45.5273C299.65 45.9854 299.238 46.3636 298.756 46.6302C298.274 46.8968 297.734 47.044 297.183 47.0594C297.151 47.0599 297.119 47.0605 297.087 47.0605Z" fill="white"/>
</g>
<defs>
<clipPath id="clip0_343_1392">
<rect width="548" height="479" fill="white"/>
</clipPath>
</defs>
</svg>
