<svg width="795" height="397" viewBox="0 0 795 397" fill="none" xmlns="http://www.w3.org/2000/svg">
<g clip-path="url(#clip0_343_1369)">
<path d="M187.024 345.457C184.984 361.536 177.864 376.362 169.927 390.624C169.534 391.336 169.141 392.037 168.737 392.749H65.9009C64.0736 392.101 62.2774 391.389 60.4926 390.624C53.9127 387.857 47.6644 384.36 41.8655 380.198C8.41571 356.095 -4.46224 310.546 1.36063 269.736C4.96238 244.368 16.0981 218.48 37.7641 204.823C49.5287 197.664 63.5602 195.204 77.058 197.937C77.4087 198.001 77.7594 198.075 78.1102 198.16C89.4368 200.711 99.5312 207.045 105.28 217.258C115.608 235.611 109.456 258.343 104.377 278.769C99.3082 299.206 96.5672 323.649 111.262 338.719C109.106 332.419 108.667 325.658 109.99 319.132C111.313 312.606 114.349 306.55 118.788 301.587C123.227 296.623 128.907 292.932 135.245 290.893C141.583 288.853 148.349 288.538 154.849 289.981C155.911 290.205 156.964 290.46 158.005 290.778C160.501 291.51 162.906 292.518 165.177 293.786C182.508 303.468 189.52 325.764 187.024 345.457Z" fill="#A7B4D4"/>
<path d="M119.975 390.624C122.271 391.399 124.587 392.101 126.914 392.749H116.851C114.981 392.09 113.125 391.382 111.283 390.624C110.88 390.464 110.465 390.294 110.061 390.124C94.8773 383.758 80.8942 374.193 70.3214 361.462C65.1405 355.302 60.914 348.398 57.7832 340.983C54.3783 332.606 52.2162 323.777 51.3653 314.775C49.4524 296.305 51.397 277.324 55.0522 259.183C58.8226 240.379 64.9116 222.116 73.1797 204.813C74.1784 202.74 75.2056 200.679 76.261 198.628C76.3355 198.461 76.4454 198.313 76.583 198.194C76.7207 198.075 76.8828 197.987 77.058 197.937C77.2394 197.903 77.4258 197.905 77.6064 197.943C77.787 197.981 77.9582 198.055 78.1101 198.16C78.4755 198.369 78.7465 198.711 78.8671 199.115C78.9877 199.518 78.9487 199.952 78.7582 200.328C70.2364 216.947 63.7777 234.546 59.5255 252.732C55.3603 270.48 52.9908 289.046 53.809 307.283C54.5738 324.329 59.0264 341.089 69.1312 355.032C78.5423 367.701 90.9234 377.862 105.184 384.619C109.977 386.944 114.918 388.95 119.975 390.624Z" fill="white"/>
<path d="M160.533 392.749H156.634C156.081 392.048 155.55 391.336 155.029 390.624C147.358 380.197 142.128 368.178 139.728 355.457C136.458 337.641 139.006 319.245 146.996 302.989C149.228 298.432 151.855 294.079 154.848 289.981C155.911 290.205 156.963 290.46 158.004 290.779C150.121 301.221 144.82 313.38 142.533 326.264C140.629 337.534 141.093 349.077 143.896 360.158C146.699 371.239 151.778 381.615 158.812 390.624C159.375 391.346 159.949 392.058 160.533 392.749Z" fill="white"/>
<path d="M359.883 197.946C360.298 196.329 360.354 194.641 360.046 193.001C359.738 191.36 359.074 189.807 358.101 188.451C357.128 187.095 355.87 185.969 354.415 185.152C352.96 184.335 351.343 183.847 349.679 183.722L284.739 102.518L268.671 117.497L337.272 195.066C337.248 197.876 338.256 200.597 340.104 202.714C341.952 204.831 344.512 206.196 347.299 206.551C350.086 206.906 352.906 206.226 355.226 204.64C357.545 203.054 359.202 200.672 359.883 197.946Z" fill="#FFB8B8"/>
<path d="M297.197 115.418L276.674 131.138C276.09 131.585 275.417 131.901 274.7 132.064C273.983 132.228 273.239 132.235 272.519 132.085C271.799 131.935 271.12 131.631 270.527 131.195C269.935 130.759 269.444 130.2 269.087 129.557L256.585 107.017C254.314 104.016 253.326 100.237 253.837 96.5077C254.348 92.7788 256.316 89.4047 259.31 87.1251C262.304 84.8456 266.08 83.8465 269.81 84.347C273.54 84.8476 276.919 86.8068 279.206 89.7952L297.649 107.68C298.177 108.192 298.589 108.812 298.855 109.497C299.122 110.183 299.238 110.918 299.195 111.652C299.152 112.387 298.952 113.103 298.607 113.753C298.262 114.403 297.781 114.971 297.197 115.418Z" fill="#CCCCCC"/>
<path d="M262.731 66.3953C277.144 66.3953 288.829 54.7089 288.829 40.2931C288.829 25.8773 277.144 14.1909 262.731 14.1909C248.317 14.1909 236.633 25.8773 236.633 40.2931C236.633 54.7089 248.317 66.3953 262.731 66.3953Z" fill="#FFB8B8"/>
<path d="M318.44 378.876H331.467L330.226 354.49L311 354.491L318.44 378.876Z" fill="#FFB8B8"/>
<path d="M315.117 374.623L340.772 374.622H340.773C342.92 374.622 345.046 375.044 347.029 375.866C349.013 376.688 350.815 377.892 352.333 379.411C353.852 380.929 355.056 382.732 355.878 384.716C356.699 386.7 357.122 388.826 357.122 390.973V391.505L315.118 391.506L315.117 374.623Z" fill="#2F2E41"/>
<path d="M179.548 360.429L190.63 367.276L202.39 345.878L188.978 337.486L179.548 360.429Z" fill="#FFB8B8"/>
<path d="M178.956 355.063L200.782 368.548C202.609 369.676 204.196 371.154 205.452 372.896C206.708 374.638 207.608 376.61 208.102 378.7C208.596 380.79 208.673 382.956 208.33 385.076C207.986 387.196 207.228 389.227 206.1 391.054L205.821 391.506L170.085 369.428L178.956 355.063Z" fill="#2F2E41"/>
<path d="M317.498 371.726C316.53 371.726 315.584 371.431 314.787 370.88C313.991 370.329 313.38 369.549 313.038 368.643L265.917 255.964C265.815 255.689 265.64 255.447 265.41 255.265C265.18 255.083 264.904 254.968 264.613 254.932C264.322 254.897 264.027 254.942 263.76 255.064C263.493 255.185 263.265 255.378 263.1 255.621L198.365 357.615C197.732 358.565 196.779 359.255 195.679 359.562C194.58 359.868 193.407 359.769 192.374 359.283L183.516 355.148C182.382 354.613 181.502 353.655 181.064 352.479C180.627 351.304 180.667 350.003 181.176 348.857L234.211 230.617C233.053 227.799 221.758 198.866 239.113 184.572L239.234 184.496L286.295 163.5L287.481 199.607L334.388 362.383C334.564 362.995 334.617 363.637 334.542 364.27C334.467 364.903 334.266 365.515 333.951 366.069C333.637 366.624 333.214 367.109 332.709 367.498C332.204 367.887 331.626 368.171 331.01 368.333L318.723 371.567C318.323 371.673 317.912 371.726 317.498 371.726Z" fill="#2F2E41"/>
<path d="M287.006 110.685C285.214 103.491 282.674 96.241 279.27 92.8937C278.018 91.6731 276.842 90.3776 275.748 89.0141C273.458 86.1294 270.578 83.7685 267.3 82.0902C268.499 81.4227 269.202 80.6265 269.202 79.7695C269.202 77.4218 263.969 75.5186 257.514 75.5186C251.059 75.5186 245.826 77.4218 245.826 79.7695C245.841 80.0422 245.911 80.3091 246.03 80.5549C246.149 80.8006 246.316 81.0204 246.52 81.2016C242.305 82.9202 238.642 85.7628 235.931 89.4198C233.219 93.0767 231.563 97.4078 231.143 101.941C229.633 118.112 229.193 138.782 234.483 151.856C238.921 162.668 239.274 174.725 235.476 185.778C235.218 186.548 235.187 187.375 235.385 188.162C235.583 188.949 236.003 189.663 236.595 190.219C237.186 190.775 237.924 191.149 238.722 191.298C239.52 191.447 240.343 191.364 241.095 191.059L287.792 172.239C288.578 171.922 289.252 171.377 289.726 170.674C290.2 169.972 290.454 169.143 290.454 168.296V139.711C290.491 129.931 289.333 120.183 287.006 110.685Z" fill="#CCCCCC"/>
<path d="M197.661 228.417C199.286 228.039 200.809 227.31 202.123 226.28C203.436 225.25 204.507 223.944 205.261 222.456C206.015 220.967 206.434 219.331 206.488 217.662C206.541 215.994 206.228 214.334 205.571 212.8L242.107 116.434L223.579 111.65L189.785 207.023C187.281 208.298 185.332 210.448 184.307 213.064C183.282 215.68 183.252 218.582 184.222 221.219C185.193 223.856 187.097 226.045 189.574 227.372C192.051 228.698 194.928 229.07 197.661 228.417Z" fill="#FFB8B8"/>
<path d="M241.954 134.72L218.542 123.759C217.876 123.447 217.285 122.995 216.809 122.434C216.333 121.873 215.984 121.216 215.785 120.508C215.586 119.8 215.542 119.057 215.655 118.33C215.769 117.604 216.038 116.91 216.444 116.297L230.673 94.805C232.289 91.4077 235.185 88.7896 238.728 87.5244C242.27 86.2591 246.17 86.4499 249.572 88.0548C252.974 89.6598 255.602 92.548 256.879 96.0868C258.156 99.6257 257.978 103.526 256.385 106.935L249.027 131.551C248.816 132.256 248.456 132.907 247.971 133.46C247.486 134.013 246.887 134.454 246.216 134.755C245.545 135.056 244.817 135.208 244.081 135.202C243.346 135.196 242.62 135.031 241.954 134.72Z" fill="#CCCCCC"/>
<path d="M286.703 33.8687C287.88 34.0081 289.072 33.7926 290.126 33.2498C292.051 31.9897 291.862 29.1256 291.211 26.9186C289.587 21.6283 286.658 16.8321 282.692 12.9728C278.727 9.11342 273.854 6.3152 268.522 4.83635C264.807 3.84874 260.105 3.88692 257.98 7.09089C252.639 3.53213 246.199 2.00561 239.829 2.78817C233.459 3.57073 227.58 6.61056 223.259 11.3564C218.9 16.1432 216.401 22.3831 215.107 28.7268C212.877 39.6542 203.326 62.1953 208.617 72.013C212.137 78.5461 228.338 73.4559 235.192 76.3014C242.045 79.147 250.374 78.8279 256.462 74.5841C262.549 70.3403 265.747 61.9608 263.137 55.0134C262.128 52.3266 260.378 49.9934 258.998 47.4771C257.617 44.9609 256.584 42.0522 257.2 39.2491C258.16 34.8839 278.758 33.7051 286.703 33.8687Z" fill="#2F2E41"/>
<path d="M506.846 391.686C506.847 391.826 506.82 391.964 506.767 392.094C506.713 392.223 506.635 392.34 506.536 392.439C506.438 392.538 506.32 392.616 506.191 392.669C506.062 392.722 505.924 392.75 505.784 392.749H1.06257C0.78076 392.749 0.51049 392.637 0.311219 392.438C0.111948 392.239 0 391.968 0 391.686C0 391.404 0.111948 391.134 0.311219 390.935C0.51049 390.736 0.78076 390.624 1.06257 390.624H505.784C505.924 390.623 506.062 390.65 506.191 390.703C506.32 390.757 506.438 390.835 506.536 390.934C506.635 391.033 506.713 391.15 506.767 391.279C506.82 391.408 506.847 391.547 506.846 391.686Z" fill="#3F3D56"/>
<path d="M583.192 397C603.731 397 620.382 394.145 620.382 390.624C620.382 387.102 603.731 384.247 583.192 384.247C562.652 384.247 546.002 387.102 546.002 390.624C546.002 394.145 562.652 397 583.192 397Z" fill="#B7629B"/>
<path d="M793.937 393.217H651.553C651.271 393.217 651.001 393.105 650.801 392.906C650.602 392.706 650.49 392.436 650.49 392.154C650.49 391.872 650.602 391.602 650.801 391.403C651.001 391.203 651.271 391.091 651.553 391.091H793.937C794.219 391.091 794.489 391.203 794.689 391.403C794.888 391.602 795 391.872 795 392.154C795 392.436 794.888 392.706 794.689 392.906C794.489 393.105 794.219 393.217 793.937 393.217Z" fill="#3F3D56"/>
<path d="M555.549 113.996C555.551 102.418 559.521 91.1903 566.796 82.1847C574.072 73.1791 584.214 66.9397 595.531 64.5067C588.152 62.9228 580.512 63.0097 573.171 64.7611C565.829 66.5125 558.973 69.884 553.103 74.6287C547.233 79.3734 542.498 85.3711 539.245 92.1828C535.993 98.9944 534.305 106.447 534.305 113.996C534.305 121.545 535.993 128.998 539.245 135.809C542.498 142.621 547.233 148.619 553.103 153.363C558.973 158.108 565.829 161.48 573.171 163.231C580.512 164.982 588.152 165.069 595.531 163.485C584.214 161.052 574.072 154.813 566.796 145.807C559.521 136.802 555.551 125.574 555.549 113.996Z" fill="#C669A7"/>
<path d="M500.473 113.996C500.475 86.3814 510.573 59.7207 528.864 39.036C547.156 18.3513 572.379 5.07037 599.782 1.69506C583.881 -0.25459 567.748 1.19457 552.448 5.94667C537.149 10.6988 523.033 18.6455 511.034 29.2613C499.035 39.8771 489.426 52.92 482.842 67.5272C476.259 82.1345 472.852 97.9733 472.846 113.996C472.846 164.748 547.471 307.868 575.499 359.831C576.517 361.722 578.028 363.302 579.871 364.403C581.714 365.504 583.822 366.086 585.969 366.086C588.116 366.086 590.223 365.504 592.066 364.403C593.91 363.302 595.421 361.722 596.438 359.831C597.487 357.886 598.609 355.799 599.782 353.608C569.609 297.269 500.473 162.849 500.473 113.996Z" fill="#C669A7"/>
<path d="M586.065 367.357C583.722 367.376 581.419 366.75 579.408 365.549C577.397 364.347 575.755 362.616 574.661 360.544C543.757 303.25 471.88 164.553 471.88 114.205C471.88 83.9159 483.91 54.8674 505.324 33.4498C526.738 12.0323 555.782 0 586.066 0C616.35 0 645.393 12.0323 666.807 33.4498C688.222 54.8674 700.252 83.9159 700.252 114.205C700.252 164.558 628.374 303.251 597.47 360.544C596.376 362.616 594.733 364.347 592.722 365.549C590.711 366.751 588.408 367.376 586.065 367.357ZM586.066 2.1255C556.356 2.15901 527.872 13.9781 506.864 34.9898C485.856 56.0016 474.039 84.4899 474.005 114.205C474.005 164.069 545.705 302.382 576.531 359.535C577.458 361.257 578.833 362.696 580.512 363.699C582.191 364.702 584.11 365.232 586.065 365.232C588.021 365.232 589.94 364.702 591.618 363.699C593.297 362.696 594.673 361.257 595.6 359.535C626.427 302.384 698.127 164.074 698.127 114.205C698.093 84.4899 686.276 56.0016 665.268 34.9898C644.26 13.9781 615.776 2.15902 586.066 2.1255Z" fill="#BC2481"/>
<path d="M586.066 165.884C575.846 165.884 565.856 162.853 557.359 157.175C548.862 151.496 542.239 143.425 538.328 133.982C534.417 124.539 533.394 114.148 535.387 104.123C537.381 94.0984 542.302 84.89 549.528 77.6625C556.755 70.435 565.961 65.513 575.984 63.5189C586.008 61.5248 596.397 62.5483 605.838 66.4597C615.28 70.3712 623.35 76.9951 629.027 85.4937C634.705 93.9923 637.735 103.984 637.735 114.205C637.72 127.906 632.271 141.042 622.585 150.73C612.898 160.418 599.765 165.868 586.066 165.884ZM586.066 64.6514C576.267 64.6513 566.687 67.5574 558.54 73.0023C550.392 78.4472 544.041 86.1863 540.291 95.241C536.541 104.296 535.56 114.259 537.472 123.872C539.383 133.484 544.102 142.314 551.031 149.244C557.96 156.174 566.788 160.894 576.399 162.806C586.01 164.718 595.972 163.737 605.025 159.986C614.078 156.236 621.816 149.885 627.26 141.736C632.704 133.587 635.61 124.006 635.61 114.205C635.595 101.067 630.371 88.4719 621.083 79.182C611.795 69.8921 599.201 64.6664 586.066 64.6514Z" fill="#BC2481"/>
</g>
<defs>
<clipPath id="clip0_343_1369">
<rect width="795" height="397" fill="white"/>
</clipPath>
</defs>
</svg>
