<?xml version="1.0" standalone="no"?>
<!DOCTYPE svg PUBLIC "-//W3C//DTD SVG 20010904//EN"
 "http://www.w3.org/TR/2001/REC-SVG-20010904/DTD/svg10.dtd">
<svg version="1.0" xmlns="http://www.w3.org/2000/svg"
 width="551.000000pt" height="180.000000pt" viewBox="0 0 551.000000 180.000000"
 preserveAspectRatio="xMidYMid meet">

<g transform="translate(0.000000,180.000000) scale(0.100000,-0.100000)"
fill="#ffffff" stroke="none">
<path d="M2918 1649 c-17 -9 -18 -55 -18 -734 0 -644 2 -725 16 -739 19 -19
25 -20 47 -3 16 11 17 64 19 637 l3 625 317 -631 318 -632 154 -7 c160 -8 201
-4 207 17 2 7 2 339 -1 738 l-5 725 -26 3 c-14 2 -31 -3 -37 -11 -9 -10 -13
-180 -14 -622 l-3 -609 -301 625 -300 624 -180 2 c-109 2 -186 -1 -196 -8z"/>
<path d="M4238 1649 c-17 -9 -18 -55 -18 -733 0 -782 -2 -752 52 -744 l23 3 5
630 5 630 317 -631 317 -631 113 -6 c191 -11 223 -10 243 13 21 23 69 -84
-431 954 l-250 521 -180 2 c-109 2 -186 -1 -196 -8z"/>
<path d="M1945 1643 c-209 -26 -397 -122 -513 -261 -288 -346 -219 -848 151
-1101 243 -166 565 -168 820 -5 400 257 454 826 109 1155 -78 75 -144 119
-231 154 -103 42 -256 69 -336 58z m-75 -135 c-28 -65 -58 -188 -76 -317 -12
-90 -15 -167 -11 -346 6 -287 21 -376 101 -590 18 -48 -69 67 -106 139 -142
281 -137 756 11 1033 27 50 84 123 96 123 2 0 -5 -19 -15 -42z m55 -64 c-50
-297 -44 -887 11 -1158 13 -62 -16 -12 -45 77 -51 161 -66 283 -65 542 0 234
13 355 50 485 18 63 55 152 61 147 2 -2 -3 -44 -12 -93z m-143 59 c-156 -222
-198 -684 -90 -1013 23 -73 72 -175 97 -204 13 -17 11 -16 -16 3 -72 50 -164
210 -205 356 -19 69 -22 104 -22 255 1 148 4 187 22 254 34 123 93 236 163
311 65 69 82 82 51 38z m207 -605 c-1 -550 -3 -624 -14 -568 -47 234 -49 836
-3 1128 6 39 12 72 14 72 2 0 3 -285 3 -632z m-329 551 c-105 -133 -164 -333
-163 -554 0 -203 47 -375 139 -512 24 -36 43 -68 40 -70 -2 -2 -33 28 -69 67
-74 80 -145 213 -171 320 -65 271 10 559 191 738 35 34 65 62 68 62 3 0 -13
-23 -35 -51z m-130 -54 c-97 -128 -148 -274 -157 -447 -12 -217 49 -416 171
-563 38 -46 39 -48 10 -28 -62 44 -138 142 -188 241 -85 168 -88 408 -8 585
40 87 83 148 155 219 32 32 60 58 62 58 3 0 -18 -29 -45 -65z"/>
<path d="M905 1298 l-345 -341 0 331 0 332 -180 0 -180 0 0 -720 0 -720 180 0
180 0 0 332 0 333 343 -343 c226 -226 349 -342 363 -342 24 0 44 18 44 41 0
10 -156 170 -347 357 l-347 340 347 342 c191 188 347 350 347 359 0 22 -19 41
-42 41 -11 0 -162 -142 -363 -342z"/>
</g>
</svg>
