<svg width="548" height="621" viewBox="0 0 548 621" fill="none" xmlns="http://www.w3.org/2000/svg">
<g clip-path="url(#clip0_314_1282)">
<path d="M352.311 459.769C353.541 460.426 354.943 460.688 356.328 460.522C357.712 460.356 359.012 459.769 360.052 458.841C361.091 457.912 361.819 456.687 362.138 455.332C362.456 453.976 362.35 452.556 361.833 451.262C361.971 450.574 362.071 450.08 362.209 449.392C364.87 446.913 368.212 445.283 371.806 444.712C375.4 444.141 379.083 444.655 382.383 446.187C385.683 447.72 388.449 450.202 390.328 453.314C392.206 456.427 393.11 460.029 392.925 463.658C392.083 484.126 393.095 506.212 379.471 522.713C441.655 471.975 470.008 385.541 451.018 307.802C441.7 294.837 437.353 277.614 441.532 262.007C446.776 267.099 456.997 265.731 455.435 256.915C454.597 253.431 453.73 249.958 452.892 246.474C488.708 232.519 498.059 285.694 455.634 307.344C459.075 322.123 460.96 337.222 461.258 352.393C466.047 338.713 474.021 326.364 484.522 316.362C494.69 307.221 508.135 301.846 520.642 295.713C535.862 288.231 552.753 303.064 546.761 318.9C536.629 317.606 529.46 329.697 538.654 336.195C522.506 363.275 491.543 380.486 460.083 380.759C456.902 411.658 447.161 441.525 431.511 468.369C451.608 437.856 490.5 446.641 521.236 445.341C523.276 445.084 525.346 445.426 527.194 446.323C529.042 447.221 530.589 448.637 531.645 450.398C532.701 452.158 533.222 454.188 533.143 456.239C533.063 458.289 532.388 460.273 531.199 461.947C527.156 461.71 523.099 461.875 519.088 462.439C517.202 462.718 515.448 463.573 514.067 464.886C512.686 466.2 511.746 467.907 511.375 469.775C511.004 471.643 511.221 473.58 511.996 475.32C512.771 477.06 514.066 478.518 515.703 479.494C488.741 504.174 446.961 509.48 414.171 493.731C404.476 505.924 393.539 517.078 381.535 527.014L332.785 503.811C332.868 503.187 332.978 502.554 333.079 501.938C337.456 504.369 342.115 506.256 346.951 507.556C341.75 487.76 335.955 476.165 352.309 459.769H352.311Z" fill="#E9CCEE"/>
<path d="M266.171 412.941C265.279 414.012 264.08 414.784 262.735 415.151C261.39 415.519 259.964 415.465 258.651 414.996C257.338 414.528 256.201 413.668 255.394 412.532C254.587 411.397 254.148 410.041 254.139 408.649C253.751 408.064 253.472 407.644 253.084 407.059C249.683 405.764 245.972 405.513 242.428 406.338C238.883 407.163 235.666 409.026 233.189 411.689C230.712 414.351 229.088 417.691 228.524 421.281C227.96 424.872 228.484 428.548 230.026 431.839C238.538 450.478 245.944 471.314 264.796 481.464C188.038 457.895 129.127 388.525 117.346 309.376C121.078 293.859 118.598 276.271 108.832 263.391C105.899 270.082 95.9151 272.665 94.0315 263.912C93.4915 260.37 92.9825 256.826 92.4422 253.284C54.0004 253.85 65.428 306.618 112.898 310.69C115.294 325.674 119.252 340.367 124.708 354.529C115.105 343.664 103.055 335.231 89.5504 329.922C76.6807 325.286 62.1988 325.372 48.2983 324.403C31.3762 323.206 21.3363 343.306 32.8684 355.714C41.7625 350.7 52.97 359.198 46.9098 368.679C72.0949 387.676 107.273 391.954 136.512 380.358C151.131 407.776 171.435 431.768 196.07 450.735C165.931 430.045 133.23 452.829 104.273 463.202C102.288 463.732 100.499 464.828 99.1269 466.356C97.7544 467.883 96.8568 469.777 96.5436 471.805C96.2305 473.834 96.5153 475.909 97.3634 477.779C98.2114 479.648 99.586 481.231 101.32 482.334C104.975 480.591 108.794 479.216 112.722 478.227C114.574 477.775 116.522 477.907 118.297 478.603C120.072 479.299 121.588 480.527 122.636 482.117C123.685 483.707 124.216 485.583 124.156 487.486C124.095 489.389 123.447 491.227 122.299 492.748C156.594 505.45 197.291 494.628 221.71 467.693C235.295 475.334 249.638 481.545 264.509 486.225L300.892 446.375C300.579 445.829 300.238 445.283 299.912 444.751C296.777 448.651 293.175 452.153 289.187 455.179C286.525 434.887 287.512 421.966 266.172 412.941L266.171 412.941Z" fill="#CAAED1"/>
<path d="M275.534 244.555C276.922 244.415 278.233 243.853 279.289 242.944C280.346 242.035 281.097 240.824 281.441 239.475C281.785 238.126 281.706 236.703 281.214 235.401C280.721 234.098 279.84 232.978 278.688 232.192C278.419 231.544 278.226 231.079 277.957 230.43C278.781 226.891 280.645 223.677 283.31 221.202C285.974 218.727 289.319 217.103 292.914 216.539C296.509 215.974 300.192 216.494 303.489 218.032C306.786 219.571 309.548 222.057 311.421 225.173C322.151 242.634 335.324 260.404 333.228 281.687C356.518 204.949 331.791 117.412 272.618 63.4493C257.643 57.8743 244.417 45.9966 239.171 30.7138C246.367 32.0219 254.089 25.1956 247.87 18.747C245.229 16.3213 242.569 13.9206 239.929 11.4948C261.869 -20.0288 299.323 18.9078 276.193 60.4992C287.303 70.8524 297.299 82.337 306.017 94.7656C302.354 80.7432 302.078 66.0528 305.211 51.903C308.547 38.6544 316.707 26.7076 323.665 14.6534C332.122 -0.0309172 354.427 2.87944 358.295 19.3613C349.161 23.9271 349.962 37.9562 361.223 38.2319C362.938 69.7014 346.845 101.227 320.882 118.968C335.495 146.389 344.086 176.605 346.083 207.603C345.728 171.084 382.92 156.725 407.709 138.535C409.259 137.187 411.168 136.318 413.204 136.034C415.24 135.75 417.314 136.065 419.174 136.938C421.034 137.812 422.599 139.207 423.679 140.953C424.758 142.7 425.305 144.722 425.253 146.774C421.764 148.828 418.488 151.224 415.473 153.925C414.063 155.207 413.085 156.893 412.672 158.752C412.259 160.611 412.432 162.552 413.167 164.309C413.903 166.066 415.164 167.553 416.779 168.566C418.394 169.579 420.283 170.068 422.187 169.967C413.586 205.466 381.865 233.129 345.851 238.31C344.611 253.829 341.76 269.178 337.343 284.109L283.917 291.986C283.638 291.422 283.375 290.835 283.115 290.268C288.106 289.849 293.027 288.822 297.768 287.209C282.397 273.671 271.112 267.272 275.533 244.556L275.534 244.555Z" fill="#E9CCEE"/>
<path d="M329.267 227.451C304.945 227.451 291.752 224.483 287.145 218.148C283.079 212.559 285.805 205.184 288.961 196.645C291.229 190.507 293.8 183.551 293.8 176.666C293.8 143.179 310.805 126.199 344.342 126.199C361.028 126.199 378.945 135.05 392.268 149.875C404.381 163.353 410.415 179.483 408.824 194.13C407.518 206.142 401.919 214.042 391.201 218.992L390.574 219.281L390.396 218.615C389.471 215.167 387.904 211.924 385.779 209.054C385.572 213.559 384.434 217.972 382.438 222.017L382.324 222.248L382.077 222.318C369.947 225.768 355.551 226.703 344.364 227.131C338.919 227.343 333.887 227.45 329.267 227.451Z" fill="#2F2E41"/>
<path d="M335.896 274.108C334.964 271.372 333.392 268.897 331.31 266.889C329.228 264.881 326.696 263.398 323.925 262.562C321.154 261.727 318.224 261.563 315.377 262.085C312.53 262.607 309.849 263.799 307.555 265.563L227.552 313.323L202.517 252.331C204.632 249.233 205.71 245.546 205.596 241.799C205.483 238.051 204.184 234.436 201.885 231.472C199.587 228.507 196.407 226.345 192.802 225.297C189.197 224.248 185.352 224.367 181.819 225.635C178.285 226.903 175.245 229.256 173.134 232.356C171.022 235.456 169.949 239.145 170.066 242.892C170.184 246.639 171.487 250.253 173.789 253.215C176.091 256.177 179.273 258.335 182.879 259.379C184.422 276.967 192.997 355.58 222.829 352.722C247.904 350.32 310.175 308.911 329.516 294.554C332.61 292.259 334.895 289.043 336.042 285.368C337.188 281.694 337.137 277.751 335.896 274.108Z" fill="#FFB6B6"/>
<path d="M396.186 621H326.554L314.877 563.353L311.089 621H246.406C246.431 575.729 248.793 530.489 253.482 485.461L254.284 482.734L255.55 478.372L256.352 475.634L269.737 429.739L270.794 426.096H351.395C356.033 430.446 360.311 435.164 364.187 440.203C365.5 441.874 366.871 443.684 368.277 445.633C369.253 447.014 370.264 448.464 371.275 449.983C380.256 463.334 386.969 478.072 391.143 493.605V493.616C391.852 496.273 392.479 498.992 393.025 501.772V501.784C393.513 504.255 393.943 506.761 394.28 509.325C394.536 511.193 394.757 513.084 394.919 514.998C395.888 525.603 395.548 536.287 393.908 546.809L396.186 621Z" fill="#2F2E41"/>
<path d="M26.9952 93.8795C31.5173 92.1316 34.196 88.1683 32.9783 85.0273C31.7606 81.8862 27.1075 80.7568 22.5854 82.5047C18.0633 84.2525 15.3846 88.2158 16.6024 91.3568C17.8201 94.4979 22.4731 95.6273 26.9952 93.8795Z" fill="#E6E6E6"/>
<path d="M83.9317 86.5867C88.4538 84.8389 91.1326 80.8756 89.9148 77.7345C88.6971 74.5935 84.044 73.4641 79.5219 75.2119C74.9998 76.9598 72.3212 80.923 73.5389 84.0641C74.7566 87.2052 79.4096 88.3346 83.9317 86.5867Z" fill="#3F3D56"/>
<path d="M22.0568 142.383C26.5789 140.635 29.2576 136.672 28.0399 133.531C26.8221 130.39 22.1691 129.26 17.647 131.008C13.1249 132.756 10.4462 136.719 11.6639 139.86C12.8816 143.001 17.5347 144.131 22.0568 142.383Z" fill="#FF6584"/>
<path d="M5.58597 163.778C7.66056 163.288 8.77015 160.476 8.06429 157.498C7.35842 154.521 5.10439 152.504 3.0298 152.995C0.955217 153.485 -0.154343 156.296 0.551523 159.274C1.25739 162.252 3.51139 164.268 5.58597 163.778Z" fill="#E6E6E6"/>
<path d="M5.2471 200.001C7.32169 199.51 8.43125 196.699 7.72538 193.721C7.01952 190.743 4.76552 188.727 2.69093 189.217C0.616349 189.708 -0.49321 192.519 0.212656 195.497C0.918521 198.474 3.17252 200.491 5.2471 200.001Z" fill="#3F3D56"/>
<path d="M55.2188 124.975C57.2934 124.485 58.4029 121.673 57.6971 118.696C56.9912 115.718 54.7372 113.702 52.6626 114.192C50.588 114.682 49.4785 117.493 50.1843 120.471C50.8902 123.449 53.1442 125.465 55.2188 124.975Z" fill="#E6E6E6"/>
<path d="M25.2315 117.704C27.3061 117.214 28.4156 114.402 27.7098 111.425C27.0039 108.447 24.7499 106.431 22.6753 106.921C20.6007 107.411 19.4912 110.223 20.197 113.2C20.9029 116.178 23.1569 118.194 25.2315 117.704Z" fill="#FF6584"/>
<path d="M57.0157 84.3492C59.0902 83.8589 60.1998 81.0475 59.4939 78.0697C58.7881 75.092 56.5341 73.0756 54.4595 73.5659C52.3849 74.0562 51.2753 76.8675 51.9812 79.8453C52.6871 82.823 54.9411 84.8394 57.0157 84.3492Z" fill="#3F3D56"/>
<path d="M71.7985 335.053C73.985 332.488 72.7641 327.865 69.0716 324.726C65.3791 321.588 60.6133 321.123 58.4268 323.688C56.2403 326.253 57.4611 330.876 61.1537 334.015C64.8462 337.153 69.612 337.618 71.7985 335.053Z" fill="#E6E6E6"/>
<path d="M38.2653 288.532C40.4518 285.968 39.2309 281.344 35.5384 278.206C31.8459 275.068 27.08 274.603 24.8936 277.167C22.7071 279.732 23.9279 284.356 27.6204 287.494C31.313 290.632 36.0788 291.097 38.2653 288.532Z" fill="#3F3D56"/>
<path d="M116.866 316.294C119.052 313.729 117.832 309.106 114.139 305.967C110.447 302.829 105.681 302.364 103.494 304.929C101.308 307.494 102.529 312.117 106.221 315.255C109.914 318.394 114.679 318.859 116.866 316.294Z" fill="#FF6584"/>
<path d="M139.255 316.807C141.542 314.77 142.244 311.831 140.825 310.243C139.405 308.654 136.401 309.019 134.114 311.056C131.828 313.094 131.125 316.033 132.545 317.621C133.965 319.21 136.969 318.845 139.255 316.807Z" fill="#E6E6E6"/>
<path d="M171.317 299.858C173.603 297.82 174.306 294.881 172.886 293.293C171.467 291.705 168.462 292.069 166.176 294.107C163.89 296.144 163.187 299.084 164.607 300.672C166.026 302.26 169.03 301.895 171.317 299.858Z" fill="#3F3D56"/>
<path d="M81.4487 291.704C83.735 289.666 84.4377 286.727 83.0181 285.139C81.5985 283.551 78.5942 283.915 76.3078 285.953C74.0214 287.99 73.3188 290.93 74.7384 292.518C76.158 294.106 79.1623 293.741 81.4487 291.704Z" fill="#E6E6E6"/>
<path d="M89.3237 321.495C91.61 319.458 92.3127 316.519 90.893 314.931C89.4734 313.342 86.4692 313.707 84.1828 315.744C81.8964 317.782 81.1938 320.721 82.6134 322.309C84.033 323.897 87.0373 323.533 89.3237 321.495Z" fill="#FF6584"/>
<path d="M44.8139 309.47C47.1003 307.432 47.8029 304.493 46.3833 302.905C44.9637 301.317 41.9594 301.681 39.673 303.719C37.3867 305.756 36.684 308.695 38.1036 310.283C39.5232 311.872 42.5275 311.507 44.8139 309.47Z" fill="#3F3D56"/>
<path d="M297.073 36.6871C300.1 35.2007 300.819 30.4736 298.679 26.1288C296.539 21.784 292.351 19.4669 289.324 20.9534C286.297 22.4398 285.578 27.1669 287.718 31.5117C289.858 35.8564 294.046 38.1736 297.073 36.6871Z" fill="#E6E6E6"/>
<path d="M309.338 92.6806C312.365 91.1941 313.084 86.467 310.944 82.1222C308.804 77.7774 304.615 75.4603 301.588 76.9468C298.561 78.4332 297.842 83.1603 299.982 87.5051C302.122 91.8498 306.311 94.167 309.338 92.6806Z" fill="#3F3D56"/>
<path d="M248.251 36.0255C251.278 34.5391 251.997 29.812 249.857 25.4672C247.717 21.1224 243.528 18.8053 240.501 20.2917C237.474 21.7781 236.755 26.5053 238.895 30.8501C241.035 35.1948 245.224 37.5119 248.251 36.0255Z" fill="#FF6584"/>
<path d="M222.589 18.256C225.498 17.293 227.312 14.8744 226.641 12.8538C225.97 10.8333 223.069 9.97596 220.16 10.939C217.251 11.902 215.436 14.3206 216.107 16.3411C216.778 18.3617 219.68 19.219 222.589 18.256Z" fill="#E6E6E6"/>
<path d="M186.421 21.0929C189.33 20.1299 191.144 17.7113 190.473 15.6907C189.803 13.6702 186.9 12.8129 183.992 13.7759C181.083 14.7389 179.268 17.1575 179.939 19.178C180.61 21.1986 183.512 22.0559 186.421 21.0929Z" fill="#3F3D56"/>
<path d="M265.65 64.2237C268.559 63.2607 270.373 60.8421 269.702 58.8216C269.031 56.801 266.129 55.9437 263.22 56.9067C260.311 57.8697 258.497 60.2884 259.168 62.3089C259.839 64.3294 262.741 65.1867 265.65 64.2237Z" fill="#E6E6E6"/>
<path d="M270.276 33.7599C273.185 32.7969 274.999 30.3782 274.328 28.3577C273.657 26.3372 270.755 25.4799 267.846 26.4429C264.937 27.4059 263.123 29.8245 263.794 31.845C264.465 33.8656 267.367 34.7228 270.276 33.7599Z" fill="#FF6584"/>
<path d="M306.338 62.4517C309.247 61.4888 311.061 59.0701 310.39 57.0496C309.72 55.0291 306.818 54.1718 303.909 55.1348C301 56.0978 299.185 58.5164 299.856 60.5369C300.527 62.5574 303.429 63.4147 306.338 62.4517Z" fill="#3F3D56"/>
<path d="M317.504 236.773L355.865 234.8L373.683 262.912C373.683 262.912 407.207 268.508 404.883 307.953C402.559 347.398 364.094 382.011 364.094 382.011L365.738 402.552L362.883 410.699L363.249 415.274L367.144 420.119L367.546 425.13L364.094 433.057L368.788 440.648L270.104 431.101L266.495 417.975L271.759 410.927L268.819 401.733L273.239 392.891L275.544 364.802C275.544 364.802 250.326 326.973 279.276 298.481L290.895 278.758L303.895 262.921L317.504 236.773Z" fill="#453B8F"/>
<path d="M336.575 228.836C359.024 228.836 377.223 210.664 377.223 188.249C377.223 165.833 359.024 147.662 336.575 147.662C314.125 147.662 295.927 165.833 295.927 188.249C295.927 210.664 314.125 228.836 336.575 228.836Z" fill="#FFB6B6"/>
<path d="M331.132 185.789C327.629 185.789 324.128 185.69 320.63 185.493L320.004 185.458L320.087 184.838C320.602 180.964 320.312 177.026 319.235 173.269C317.405 177.547 314.682 181.386 311.249 184.53L311.055 184.707L310.794 184.679C301.291 183.641 291.875 181.926 282.617 179.548L282.263 179.457L282.192 179.099C281.5 175.709 281.143 172.259 281.123 168.8C281.123 157.992 285.047 148.895 292.174 143.186C299.929 136.971 311.048 135.06 323.491 137.801H363.28C367.655 137.806 371.849 139.543 374.942 142.632C378.035 145.72 379.775 149.907 379.78 154.275V179.434L379.346 179.547C363.608 183.677 347.404 185.775 331.132 185.789Z" fill="#2F2E41"/>
<path d="M53.773 140.643C51.9918 141.293 50.5417 142.623 49.741 144.339C48.9402 146.056 48.8541 148.02 49.5015 149.8L92.4256 267.402C93.077 269.181 94.4084 270.628 96.1276 271.428C97.8468 272.228 99.8135 272.314 101.596 271.667L268.192 211.044C269.973 210.394 271.423 209.064 272.224 207.348C273.025 205.631 273.111 203.667 272.463 201.887L229.539 84.2849C228.888 82.5064 227.557 81.0585 225.837 80.2588C224.118 79.4592 222.151 79.3732 220.369 80.0196L53.773 140.643Z" fill="#CCCCCC"/>
<path d="M206.188 227.123L104.214 264.231C102.295 264.927 100.179 264.834 98.3284 263.974C96.4781 263.113 95.0452 261.555 94.3441 259.64L55.4123 152.976C54.7154 151.06 54.8081 148.947 55.67 147.099C56.5318 145.252 58.0925 143.821 60.0096 143.121L217.191 85.9232C219.11 85.2275 221.227 85.32 223.077 86.1807C224.928 87.0413 226.361 88.5997 227.062 90.5139L245.873 142.053C251.888 158.59 251.087 176.833 243.648 192.782C236.208 208.73 222.736 221.08 206.188 227.123Z" fill="white"/>
<path d="M132.813 150.067L108.581 158.885C108.277 158.996 107.954 159.046 107.631 159.032C107.308 159.018 106.991 158.94 106.697 158.804C106.404 158.668 106.141 158.475 105.922 158.237C105.704 157.999 105.534 157.72 105.423 157.417C105.313 157.113 105.263 156.791 105.277 156.468C105.291 156.146 105.368 155.829 105.505 155.536C105.641 155.244 105.834 154.981 106.073 154.762C106.311 154.544 106.59 154.375 106.894 154.264L131.126 145.446C131.74 145.223 132.418 145.252 133.01 145.527C133.602 145.803 134.06 146.302 134.284 146.915C134.508 147.527 134.478 148.204 134.202 148.795C133.927 149.386 133.427 149.844 132.813 150.067Z" fill="#07378E"/>
<path d="M190.583 139.751L112.03 168.336C111.726 168.447 111.403 168.497 111.08 168.483C110.756 168.47 110.439 168.392 110.145 168.256C109.852 168.12 109.588 167.927 109.369 167.689C109.15 167.451 108.98 167.172 108.87 166.868C108.759 166.565 108.709 166.242 108.723 165.919C108.737 165.596 108.815 165.279 108.952 164.986C109.089 164.694 109.282 164.431 109.521 164.212C109.759 163.994 110.039 163.825 110.343 163.715L188.897 135.129C189.201 135.019 189.523 134.969 189.847 134.983C190.17 134.997 190.487 135.074 190.78 135.211C191.073 135.347 191.337 135.54 191.555 135.778C191.774 136.016 191.943 136.294 192.054 136.598C192.165 136.901 192.215 137.224 192.201 137.546C192.187 137.869 192.109 138.186 191.973 138.478C191.836 138.771 191.643 139.034 191.405 139.252C191.166 139.471 190.887 139.64 190.583 139.751Z" fill="#DA4795"/>
<path d="M194.543 150.598L115.989 179.184C115.685 179.294 115.362 179.344 115.039 179.33C114.716 179.316 114.399 179.239 114.106 179.102C113.812 178.966 113.549 178.773 113.33 178.535C113.112 178.297 112.942 178.019 112.832 177.715C112.721 177.412 112.671 177.089 112.685 176.767C112.699 176.444 112.776 176.127 112.913 175.835C113.05 175.542 113.243 175.279 113.481 175.061C113.719 174.842 113.998 174.673 114.302 174.562L192.856 145.977C193.469 145.755 194.146 145.785 194.738 146.06C195.329 146.336 195.787 146.834 196.01 147.447C196.234 148.059 196.205 148.735 195.93 149.326C195.654 149.917 195.156 150.375 194.543 150.598Z" fill="#DA4795"/>
<path d="M198.502 161.446L119.949 190.032C119.645 190.143 119.322 190.193 118.998 190.179C118.675 190.166 118.358 190.088 118.064 189.952C117.771 189.816 117.507 189.623 117.288 189.385C117.069 189.147 116.899 188.868 116.789 188.564C116.678 188.26 116.628 187.938 116.642 187.615C116.656 187.292 116.734 186.975 116.871 186.682C117.007 186.389 117.201 186.126 117.44 185.908C117.678 185.69 117.958 185.521 118.262 185.41L196.816 156.825C197.12 156.715 197.442 156.665 197.765 156.679C198.089 156.693 198.406 156.77 198.699 156.906C198.992 157.043 199.256 157.236 199.474 157.474C199.693 157.712 199.862 157.99 199.973 158.294C200.084 158.597 200.134 158.919 200.12 159.242C200.106 159.565 200.028 159.881 199.892 160.174C199.755 160.467 199.562 160.73 199.324 160.948C199.085 161.167 198.806 161.336 198.502 161.446Z" fill="#DA4795"/>
<path d="M202.462 172.294L123.908 200.879C123.294 201.103 122.617 201.073 122.025 200.798C121.432 200.523 120.974 200.024 120.75 199.411C120.527 198.798 120.556 198.122 120.832 197.53C121.108 196.939 121.607 196.481 122.221 196.258L200.775 167.673C201.079 167.562 201.401 167.513 201.725 167.526C202.048 167.54 202.365 167.618 202.658 167.754C202.951 167.891 203.215 168.083 203.433 168.321C203.652 168.559 203.822 168.838 203.932 169.141C204.043 169.445 204.093 169.767 204.079 170.09C204.065 170.412 203.987 170.729 203.851 171.022C203.714 171.315 203.521 171.578 203.283 171.796C203.045 172.014 202.765 172.183 202.462 172.294Z" fill="#DA4795"/>
<path d="M451.712 202.421L408.704 305.186C406.869 309.535 403.395 312.989 399.032 314.802C394.669 316.616 389.767 316.644 385.384 314.881C383.116 313.968 381.058 312.605 379.336 310.872C377.613 309.14 376.262 307.076 375.364 304.805C374.467 302.534 374.042 300.105 374.116 297.665C374.189 295.225 374.76 292.826 375.792 290.613L423.745 185.232L450.18 119.973C447.896 117.698 446.368 114.776 445.805 111.604C445.242 108.432 445.67 105.164 447.031 102.244C448.393 99.3235 450.622 96.8925 453.416 95.2811C456.209 93.6697 459.432 92.956 462.646 93.2371C465.86 93.5181 468.909 94.7803 471.38 96.852C473.85 98.9238 475.622 101.705 476.454 104.817C477.287 107.929 477.14 111.222 476.033 114.248C474.926 117.273 472.913 119.886 470.267 121.729L451.712 202.421Z" fill="#FFB6B6"/>
</g>
<defs>
<clipPath id="clip0_314_1282">
<rect width="548" height="621" fill="white"/>
</clipPath>
</defs>
</svg>
