<svg width="669" height="647" viewBox="0 0 669 647" fill="none" xmlns="http://www.w3.org/2000/svg">
<g clip-path="url(#clip0_314_1237)">
<path d="M610.353 646.354V581.47C610.353 581.47 635.634 627.47 610.353 646.354Z" fill="#F1F1F1"/>
<path d="M611.914 646.343L564.125 602.464C564.125 602.464 615.103 614.945 611.914 646.343Z" fill="#F1F1F1"/>
<path d="M443.359 286.293L189.762 434.537C188.874 435.055 187.818 435.199 186.824 434.938C185.83 434.677 184.98 434.033 184.461 433.147L21.3814 154.075C20.864 153.187 20.7198 152.13 20.9804 151.136C21.2411 150.142 21.8852 149.292 22.7716 148.773L276.369 0.528967C277.256 0.0114756 278.313 -0.132756 279.307 0.127914C280.3 0.388585 281.15 1.03287 281.67 1.91943L444.749 280.991C445.266 281.879 445.41 282.936 445.15 283.93C444.889 284.924 444.245 285.774 443.359 286.293Z" fill="white"/>
<path d="M443.359 286.293L189.762 434.537C188.874 435.055 187.818 435.199 186.824 434.938C185.83 434.677 184.98 434.033 184.461 433.147L21.3814 154.075C20.864 153.187 20.7198 152.13 20.9804 151.136C21.2411 150.142 21.8852 149.292 22.7716 148.773L276.369 0.528967C277.256 0.0114756 278.313 -0.132756 279.307 0.127914C280.3 0.388585 281.15 1.03287 281.67 1.91943L444.749 280.991C445.266 281.879 445.41 282.936 445.15 283.93C444.889 284.924 444.245 285.774 443.359 286.293ZM23.5538 150.111C23.0219 150.423 22.6354 150.933 22.479 151.529C22.3227 152.126 22.4092 152.76 22.7197 153.293L185.799 432.364C186.111 432.896 186.621 433.283 187.217 433.439C187.813 433.596 188.447 433.509 188.98 433.199L442.577 284.955C443.108 284.643 443.495 284.133 443.651 283.536C443.808 282.94 443.721 282.306 443.411 281.773L280.331 2.70168C280.02 2.16972 279.51 1.78312 278.914 1.62672C278.317 1.47031 277.683 1.55687 277.151 1.86739L23.5538 150.111Z" fill="#3F3D56"/>
<path d="M186.567 177.903L123.669 214.671C122.782 215.188 121.725 215.332 120.731 215.072C119.738 214.811 118.888 214.167 118.368 213.28L81.607 150.372C81.0896 149.484 80.9454 148.427 81.206 147.433C81.4666 146.44 82.1108 145.59 82.9972 145.07L145.895 108.302C146.782 107.785 147.839 107.641 148.833 107.901C149.826 108.162 150.676 108.806 151.196 109.693L187.957 172.601C188.474 173.489 188.618 174.546 188.358 175.54C188.097 176.534 187.453 177.384 186.567 177.903ZM83.7794 146.409C83.2475 146.72 82.861 147.23 82.7046 147.827C82.5482 148.423 82.6348 149.057 82.9453 149.59L119.707 212.498C120.018 213.03 120.528 213.416 121.124 213.573C121.721 213.729 122.355 213.643 122.887 213.332L185.785 176.565C186.316 176.253 186.703 175.743 186.859 175.147C187.016 174.55 186.929 173.916 186.619 173.383L149.857 110.475C149.546 109.943 149.036 109.557 148.44 109.4C147.843 109.244 147.209 109.33 146.677 109.641L83.7794 146.409Z" fill="#F2F2F2"/>
<path d="M172.997 196.16L110.1 232.928C109.301 233.393 108.35 233.523 107.456 233.289C106.562 233.054 105.797 232.474 105.329 231.676L68.5679 168.768C68.1022 167.969 67.9724 167.018 68.207 166.123C68.4416 165.229 69.0213 164.464 69.8191 163.996L132.716 127.229C133.515 126.763 134.466 126.633 135.361 126.868C136.255 127.102 137.02 127.682 137.487 128.48L174.249 191.388C174.714 192.187 174.844 193.138 174.61 194.033C174.375 194.927 173.795 195.692 172.997 196.16Z" fill="#A5B4D5"/>
<path d="M324.812 148.716L128.09 263.712C127.292 264.179 126.34 264.31 125.446 264.075C124.551 263.84 123.786 263.26 123.319 262.461C122.853 261.662 122.722 260.711 122.957 259.816C123.192 258.921 123.772 258.156 124.571 257.689L321.292 142.692C321.688 142.461 322.125 142.31 322.578 142.248C323.032 142.186 323.494 142.214 323.937 142.33C324.38 142.446 324.796 142.648 325.16 142.925C325.525 143.202 325.832 143.548 326.063 143.944C326.294 144.339 326.445 144.777 326.507 145.23C326.57 145.684 326.542 146.146 326.426 146.589C326.309 147.032 326.107 147.448 325.83 147.813C325.553 148.178 325.207 148.484 324.812 148.716Z" fill="#CCCCCC"/>
<path d="M289.427 197.234L140.213 284.459C139.818 284.69 139.381 284.841 138.927 284.903C138.473 284.966 138.012 284.938 137.569 284.822C136.674 284.587 135.909 284.006 135.442 283.208C134.976 282.409 134.845 281.457 135.08 280.563C135.315 279.668 135.895 278.903 136.694 278.436L285.908 191.211C286.303 190.979 286.74 190.828 287.194 190.766C287.648 190.704 288.109 190.732 288.552 190.848C288.995 190.964 289.411 191.167 289.776 191.443C290.141 191.72 290.447 192.066 290.679 192.462C290.91 192.857 291.061 193.295 291.123 193.748C291.185 194.202 291.157 194.664 291.041 195.107C290.925 195.55 290.723 195.966 290.446 196.331C290.169 196.696 289.823 197.002 289.427 197.234Z" fill="#CCCCCC"/>
<path d="M279.559 72.8138L192.574 123.663C191.775 124.129 190.824 124.26 189.929 124.025C189.034 123.79 188.269 123.21 187.803 122.411C187.336 121.612 187.206 120.661 187.44 119.766C187.675 118.871 188.255 118.106 189.054 117.639L276.04 66.7906C276.838 66.3238 277.79 66.1934 278.684 66.4281C279.127 66.5443 279.543 66.7466 279.908 67.0235C280.273 67.3005 280.579 67.6466 280.811 68.042C281.042 68.4375 281.193 68.8747 281.255 69.3285C281.317 69.7823 281.289 70.244 281.173 70.6871C281.057 71.1302 280.855 71.546 280.578 71.9109C280.301 72.2758 279.955 72.5826 279.559 72.8138Z" fill="#CCCCCC"/>
<path d="M269.974 106.25L204.697 144.409C204.301 144.64 203.864 144.791 203.41 144.853C202.957 144.916 202.495 144.888 202.052 144.772C201.609 144.655 201.193 144.453 200.828 144.176C200.464 143.899 200.157 143.553 199.926 143.158C199.695 142.762 199.544 142.325 199.482 141.871C199.419 141.417 199.447 140.956 199.563 140.513C199.679 140.069 199.882 139.654 200.159 139.289C200.436 138.924 200.782 138.617 201.177 138.386L266.454 100.227C267.253 99.7603 268.204 99.6299 269.099 99.8646C269.993 100.099 270.758 100.68 271.225 101.479C271.692 102.277 271.822 103.229 271.587 104.124C271.353 105.018 270.772 105.783 269.974 106.25Z" fill="#CCCCCC"/>
<path d="M349.058 190.208L152.336 305.205C151.538 305.672 150.586 305.802 149.692 305.567C148.797 305.333 148.032 304.752 147.565 303.954C147.099 303.155 146.968 302.203 147.203 301.308C147.438 300.414 148.018 299.649 148.817 299.182L345.538 184.185C346.337 183.718 347.288 183.588 348.183 183.823C349.078 184.057 349.842 184.638 350.309 185.437C350.776 186.235 350.906 187.187 350.672 188.082C350.437 188.976 349.857 189.741 349.058 190.208Z" fill="#CCCCCC"/>
<path d="M313.674 238.726L164.46 325.952C164.065 326.183 163.628 326.334 163.174 326.396C162.72 326.458 162.259 326.43 161.816 326.314C161.373 326.198 160.957 325.996 160.592 325.719C160.227 325.442 159.921 325.096 159.689 324.7C159.458 324.305 159.307 323.868 159.245 323.414C159.183 322.96 159.211 322.498 159.327 322.055C159.443 321.612 159.645 321.196 159.922 320.831C160.199 320.467 160.545 320.16 160.941 319.929L310.155 232.703C310.55 232.472 310.987 232.321 311.441 232.259C311.895 232.197 312.356 232.224 312.799 232.341C313.242 232.457 313.658 232.659 314.023 232.936C314.388 233.213 314.694 233.559 314.926 233.955C315.157 234.35 315.308 234.787 315.37 235.241C315.432 235.695 315.404 236.157 315.288 236.6C315.172 237.043 314.97 237.459 314.693 237.824C314.416 238.188 314.07 238.495 313.674 238.726Z" fill="#CCCCCC"/>
<path d="M373.305 231.701L176.583 346.698C176.188 346.929 175.751 347.08 175.297 347.142C174.843 347.205 174.382 347.177 173.939 347.061C173.496 346.944 173.08 346.742 172.715 346.465C172.35 346.188 172.044 345.842 171.813 345.447C171.581 345.051 171.43 344.614 171.368 344.16C171.306 343.706 171.334 343.245 171.45 342.802C171.566 342.359 171.769 341.943 172.045 341.578C172.322 341.213 172.668 340.906 173.064 340.675L369.785 225.678C370.181 225.447 370.618 225.296 371.072 225.234C371.525 225.172 371.987 225.2 372.43 225.316C372.873 225.432 373.289 225.634 373.654 225.911C374.018 226.188 374.325 226.534 374.556 226.93C374.787 227.325 374.938 227.762 375 228.216C375.063 228.67 375.035 229.132 374.919 229.575C374.803 230.018 374.6 230.434 374.323 230.799C374.046 231.164 373.7 231.47 373.305 231.701Z" fill="#CCCCCC"/>
<path d="M385.428 252.448L188.706 367.444C188.311 367.675 187.874 367.826 187.42 367.889C186.966 367.951 186.505 367.923 186.062 367.807C185.619 367.691 185.203 367.488 184.838 367.211C184.473 366.934 184.167 366.588 183.936 366.193C183.704 365.797 183.553 365.36 183.491 364.906C183.429 364.453 183.457 363.991 183.573 363.548C183.689 363.105 183.892 362.689 184.168 362.324C184.445 361.959 184.791 361.652 185.187 361.421L381.908 246.424C382.304 246.193 382.741 246.042 383.195 245.98C383.648 245.918 384.11 245.946 384.553 246.062C384.996 246.178 385.412 246.38 385.777 246.657C386.141 246.934 386.448 247.28 386.679 247.676C386.91 248.071 387.061 248.508 387.124 248.962C387.186 249.416 387.158 249.878 387.042 250.321C386.926 250.764 386.723 251.18 386.446 251.545C386.17 251.91 385.823 252.216 385.428 252.448Z" fill="#CCCCCC"/>
<path d="M321.813 333.21C324.546 329.991 327.006 326.55 329.167 322.922C331.106 319.649 333.008 316.15 333.435 312.312C333.654 310.677 333.483 309.014 332.938 307.458C332.393 305.902 331.488 304.496 330.298 303.356C329.147 302.295 327.688 301.627 326.133 301.451C324.578 301.274 323.007 301.596 321.647 302.372C320.271 303.162 319.135 304.309 318.358 305.692C317.58 307.075 317.192 308.643 317.232 310.229C317.344 311.975 317.849 313.674 318.708 315.198C319.568 316.722 320.76 318.033 322.197 319.032C328.012 323.245 337.092 323.025 343.29 319.818C350.271 316.207 353.877 306.758 348.393 300.29C347.252 298.944 345.354 300.448 345.64 301.899C346.002 303.859 347.099 305.607 348.707 306.786C350.314 307.964 352.311 308.484 354.289 308.24C356.267 307.995 358.078 307.005 359.35 305.47C360.622 303.936 361.261 301.973 361.135 299.984L358.67 301.425C361.693 302.764 365.014 303.283 368.301 302.93C371.588 302.578 374.724 301.366 377.394 299.416C378.715 298.456 379.894 297.316 380.898 296.029C382.105 294.454 384.132 293.437 385.773 292.302L397.602 284.128C399.342 282.925 397.688 280.06 395.933 281.272L385.221 288.676C383.435 289.909 381.638 291.128 379.864 292.377C378.596 293.271 377.815 294.712 376.661 295.773C374.476 297.739 371.777 299.043 368.879 299.533C365.981 300.024 363.003 299.68 360.293 298.542C360.041 298.407 359.758 298.338 359.471 298.343C359.184 298.348 358.904 298.427 358.656 298.571C358.409 298.716 358.203 298.922 358.058 299.169C357.913 299.416 357.833 299.697 357.828 299.984C357.958 301.171 357.615 302.361 356.872 303.296C356.128 304.231 355.046 304.835 353.86 304.975C352.674 305.116 351.481 304.782 350.54 304.046C349.599 303.311 348.987 302.234 348.837 301.049L346.083 302.658C349.621 306.831 347.265 313.231 343.19 316.03C338.631 319.162 331.896 319.705 326.758 317.759C325.498 317.325 324.34 316.636 323.358 315.735C322.376 314.833 321.591 313.739 321.05 312.521C320.549 311.42 320.406 310.189 320.642 309.003C320.877 307.817 321.478 306.734 322.361 305.907C323.126 305.151 324.155 304.722 325.231 304.711C326.306 304.699 327.344 305.106 328.125 305.846C328.976 306.715 329.6 307.779 329.942 308.946C330.285 310.113 330.336 311.346 330.09 312.536C329.56 315.85 327.728 318.906 326.024 321.736C324.079 324.962 321.878 328.026 319.445 330.9C318.08 332.515 320.434 334.842 321.813 333.21Z" fill="#07378E"/>
<path d="M351.174 411.855C351.459 412.148 351.72 412.463 351.956 412.798L388.588 411.901L392.862 404.091L405.49 409.001L399.268 423.563C398.765 424.74 397.895 425.721 396.787 426.361C395.679 427 394.394 427.263 393.124 427.109L351.736 422.109C350.76 423.345 349.43 424.254 347.924 424.716C346.419 425.178 344.808 425.171 343.307 424.695C341.805 424.219 340.484 423.298 339.519 422.052C338.554 420.807 337.991 419.298 337.905 417.725C337.819 416.152 338.214 414.59 339.037 413.247C339.86 411.904 341.072 410.843 342.512 410.206C343.953 409.569 345.553 409.385 347.1 409.68C348.647 409.974 350.068 410.733 351.174 411.855Z" fill="#FFB7B7"/>
<path d="M470.59 634.365H458.545L452.814 587.897L470.591 587.898L470.59 634.365Z" fill="#FFB7B7"/>
<path d="M473.661 646.043L434.823 646.041V645.55C434.824 641.54 436.416 637.695 439.251 634.859C442.086 632.024 445.931 630.431 449.94 630.431H449.941L473.662 630.432L473.661 646.043Z" fill="#2F2E41"/>
<path d="M361.217 634.097L350.141 629.364L363.122 584.381L379.469 591.366L361.217 634.097Z" fill="#FFB7B7"/>
<path d="M359.455 646.043L323.74 630.782L323.933 630.331C325.508 626.643 328.483 623.733 332.204 622.239C335.925 620.745 340.086 620.791 343.773 622.366L343.774 622.366L365.587 631.687L359.455 646.043Z" fill="#2F2E41"/>
<path d="M412.043 421.921L411.171 436.038L436.631 438.763L463.271 441.615L455.43 420.179L412.043 421.921Z" fill="#FFB7B7"/>
<path d="M410.37 436.22L400.479 367.256L417.623 361.637L422.658 354.73L447.161 356.181L450.758 364.24L463.823 370.415L461.816 407.711L463.28 438.91L410.37 436.22Z" fill="#2F2E41"/>
<path d="M404.145 417.739L386.707 410.761L386.781 410.451C386.856 410.138 394.278 379.118 395.263 374.134C396.29 368.94 400.04 367.505 400.2 367.446L400.316 367.403L407.217 369.504L410.248 393.322L404.145 417.739Z" fill="#2F2E41"/>
<path d="M370.189 625.931L346.977 621.168L384.076 518.779L396.773 483.856C396.773 483.856 404.827 455.855 408.465 445.019L410.661 430.479L462.64 436.233C462.64 436.233 477.158 457.558 472.747 492.315L474.742 622.954L451.53 624.145L432.087 492.389L397.964 564.616C397.964 564.616 387.208 595.439 379.513 602.119L370.189 625.931Z" fill="#2F2E41"/>
<path d="M441.795 441.082C442.204 441.072 442.613 441.095 443.018 441.149L467.267 413.673L464.447 405.228L476.632 399.305L483.079 413.769C483.6 414.938 483.727 416.244 483.443 417.491C483.158 418.738 482.477 419.86 481.501 420.687L449.695 447.641C449.938 449.198 449.701 450.791 449.015 452.21C448.33 453.628 447.23 454.805 445.86 455.582C444.49 456.36 442.916 456.702 441.348 456.563C439.779 456.424 438.289 455.811 437.077 454.805C435.865 453.798 434.989 452.447 434.563 450.93C434.138 449.413 434.185 447.803 434.697 446.313C435.209 444.824 436.163 443.525 437.431 442.591C438.699 441.656 440.221 441.13 441.795 441.082Z" fill="#FFB7B7"/>
<path d="M465.331 416.347L455.216 392.549L459.161 375.972L463.412 370.601C463.723 370.467 464.059 370.4 464.398 370.403C464.736 370.407 465.071 370.48 465.379 370.619C466.947 371.25 468.282 373.184 469.348 376.368L478.828 403.375L465.331 416.347Z" fill="#2F2E41"/>
<path d="M412.85 345.912V327.971C412.85 321.594 415.382 315.479 419.89 310.97C424.398 306.462 430.512 303.929 436.887 303.929C443.262 303.929 449.376 306.462 453.884 310.97C458.392 315.479 460.925 321.594 460.925 327.971V345.912C460.924 346.768 460.583 347.589 459.978 348.195C459.373 348.8 458.552 349.141 457.696 349.142H416.079C415.222 349.141 414.402 348.8 413.796 348.195C413.191 347.589 412.851 346.768 412.85 345.912Z" fill="#2F2E41"/>
<path d="M431.948 348.724C441.681 348.724 449.571 340.832 449.571 331.097C449.571 321.362 441.681 313.471 431.948 313.471C422.215 313.471 414.324 321.362 414.324 331.097C414.324 340.832 422.215 348.724 431.948 348.724Z" fill="#FFB7B7"/>
<path d="M407.163 329.406C407.169 324.364 409.174 319.53 412.739 315.964C416.303 312.399 421.137 310.393 426.178 310.388H429.766C434.807 310.393 439.64 312.399 443.205 315.964C446.77 319.53 448.775 324.364 448.781 329.406V329.765H441.199L438.613 322.522L438.095 329.765H434.177L432.872 326.11L432.611 329.765H407.163L407.163 329.406Z" fill="#2F2E41"/>
<path d="M430.213 351.159C429.857 350.677 429.644 350.104 429.6 349.506C429.555 348.909 429.68 348.311 429.96 347.781C433.762 340.548 439.085 327.184 432.02 318.942L431.512 318.35H452.024V349.152L433.39 352.44C433.202 352.474 433.01 352.49 432.819 352.491C432.31 352.491 431.809 352.37 431.356 352.138C430.903 351.907 430.511 351.571 430.213 351.159Z" fill="#2F2E41"/>
<path d="M190.929 624.215L201.814 628.106L222 587.963L205.934 582.221L190.929 624.215Z" fill="#9F616A"/>
<path d="M184.381 633.777L189.422 619.668L210.86 627.331C214.48 628.63 217.438 631.312 219.084 634.789C220.73 638.266 220.929 642.254 219.639 645.878L219.48 646.322L184.381 633.777Z" fill="#2F2E41"/>
<path d="M261.714 634.983L273.273 634.983L278.773 590.388L261.712 590.389L261.714 634.983Z" fill="#9F616A"/>
<path d="M258.765 631.209L281.53 631.208H281.531C283.436 631.208 285.323 631.583 287.083 632.312C288.843 633.042 290.442 634.11 291.789 635.458C293.137 636.805 294.205 638.405 294.934 640.165C295.664 641.926 296.039 643.813 296.039 645.718V646.19L258.765 646.191L258.765 631.209Z" fill="#2F2E41"/>
<path d="M235.368 350.075L240.395 340.14C240.395 340.14 259.124 344.833 260.826 355.689L235.368 350.075Z" fill="#F1F1F1"/>
<path d="M214.625 463.681L228.297 539.987L191.995 604.197L213.682 612.685L250.456 550.443L255.17 533.467L257.998 622.115L277.557 621.522L286.524 538.746L272.141 461.795L214.625 463.681Z" fill="#2F2E41"/>
<path d="M240.577 481.72C220.493 481.72 207.74 477.878 207.455 477.817L206.992 477.718L217.454 429.207L217.925 384.459C217.925 365.497 230.403 351.516 232.134 350.226C232.426 349.075 232.965 348.002 233.715 347.081C234.464 346.16 235.405 345.413 236.473 344.894C240.635 343.005 245.721 345.271 245.935 345.369L261.201 351.094L261.273 351.305C261.457 351.848 281.565 417.871 281.565 417.871C281.565 417.871 280.348 475.557 279.924 477.447C279.924 477.447 251.737 481.72 240.577 481.72Z" fill="#912783"/>
<path d="M256.01 337.011C267.406 337.011 276.644 327.772 276.644 316.374C276.644 304.977 267.406 295.737 256.01 295.737C244.615 295.737 235.377 304.977 235.377 316.374C235.377 327.772 244.615 337.011 256.01 337.011Z" fill="#9F616A"/>
<path opacity="0.2" d="M233.005 388.119L269.103 438.492L274.434 414.968L233.005 388.119Z" fill="black"/>
<path d="M346.18 422.394C345.164 423.197 343.986 423.768 342.726 424.066C341.466 424.364 340.156 424.382 338.889 424.12C337.621 423.857 336.427 423.319 335.39 422.545C334.352 421.77 333.497 420.778 332.885 419.637L301.814 424.611L308.546 409.707L337.019 407.268C339.003 406.367 341.249 406.224 343.331 406.868C345.413 407.512 347.187 408.897 348.316 410.761C349.446 412.626 349.852 414.84 349.458 416.984C349.064 419.127 347.898 421.052 346.18 422.394Z" fill="#9F616A"/>
<path d="M310.146 408.858L321.31 407.763L324.403 423.339L310.355 423.588L310.146 408.858Z" fill="#F1F1F1"/>
<path d="M319.297 428.767L264.621 423.897L237.012 379.983L236.927 379.595C236.144 376.007 236.693 372.257 238.471 369.045C240.249 365.833 243.136 363.377 246.592 362.138C250.047 360.898 253.836 360.959 257.25 362.308C260.665 363.658 263.471 366.204 265.146 369.472L281.353 401.09L314.061 406.035L319.297 428.767Z" fill="#A52A84"/>
<path d="M238.436 334.292L255.562 334.907C256.606 334.944 259.439 323.676 259.81 321.339C260.103 319.817 260.94 318.454 262.164 317.504C263.389 316.554 264.917 316.083 266.464 316.178C267.746 316.299 270.978 313.903 274.314 311.067C280.647 305.682 280.318 295.568 273.361 291.017C273.171 290.893 272.984 290.779 272.801 290.677C268.412 288.22 263.278 287.395 258.249 287.332C253.69 287.275 249.002 287.849 244.985 290.007C237.785 293.876 233.953 302.332 233.616 310.5C233.28 318.668 235.898 326.656 238.869 334.272" fill="#2F2E41"/>
<path d="M667.747 647H0.896783C0.658941 647 0.43084 646.905 0.262661 646.737C0.0944815 646.569 0 646.341 0 646.103C0 645.865 0.0944815 645.637 0.262661 645.469C0.43084 645.301 0.658941 645.206 0.896783 645.206H668.103C668.341 645.206 668.569 645.301 668.737 645.469C668.905 645.637 669 645.865 669 646.103C669 646.598 668.242 647 667.747 647Z" fill="#CBCBCB"/>
</g>
<defs>
<clipPath id="clip0_314_1237">
<rect width="669" height="647" fill="white"/>
</clipPath>
</defs>
</svg>
