<svg width="458" height="399" viewBox="0 0 458 399" fill="none" xmlns="http://www.w3.org/2000/svg">
<g clip-path="url(#clip0_380_4984)">
<path d="M214.339 392.245C214.502 392.253 214.664 392.21 214.802 392.122C214.94 392.035 215.048 391.907 215.111 391.756C215.175 391.605 215.19 391.439 215.155 391.279C215.12 391.119 215.037 390.974 214.917 390.863L214.862 390.645L214.884 390.593C215.049 390.205 215.325 389.873 215.677 389.641C216.029 389.408 216.443 389.285 216.865 389.287C217.287 389.288 217.7 389.415 218.05 389.65C218.401 389.885 218.674 390.218 218.836 390.608C219.483 392.164 220.306 393.723 220.508 395.368C220.597 396.096 220.56 396.833 220.397 397.547C221.915 394.237 222.703 390.639 222.709 386.997C222.709 386.084 222.658 385.17 222.556 384.262C222.472 383.518 222.356 382.779 222.207 382.045C221.393 378.063 219.646 374.33 217.109 371.154C215.881 370.484 214.888 369.455 214.264 368.203C214.037 367.754 213.878 367.273 213.789 366.778C214.058 366.068 214.2 365.317 214.207 364.558C214.4 364.265 214.745 364.12 214.956 363.834C216.005 362.413 217.449 362.661 218.203 364.592C219.814 365.405 219.83 366.753 218.841 368.049C218.213 368.874 218.126 369.99 217.574 370.873C217.631 370.945 217.69 371.016 217.747 371.088C218.785 372.422 219.689 373.854 220.447 375.365C220.263 373.673 220.483 371.961 221.089 370.371C221.704 368.889 222.856 367.641 223.871 366.359C224.139 366.015 224.503 365.758 224.918 365.621C225.332 365.484 225.778 365.473 226.199 365.589C226.619 365.704 226.996 365.943 227.282 366.273C227.567 366.603 227.749 367.01 227.803 367.443L227.809 367.5C227.658 367.585 227.51 367.675 227.366 367.77C227.185 367.891 227.044 368.064 226.963 368.267C226.882 368.469 226.864 368.691 226.911 368.904C226.958 369.117 227.068 369.31 227.227 369.459C227.387 369.608 227.587 369.706 227.802 369.739L227.824 369.742C227.771 370.285 227.676 370.823 227.541 371.352C228.842 376.383 226.032 378.215 222.02 378.297C221.932 378.343 221.846 378.388 221.757 378.431C222.519 380.589 222.997 382.837 223.179 385.118C223.282 386.464 223.275 387.816 223.16 389.16L223.167 389.113C223.458 387.617 224.256 386.268 225.427 385.293C227.165 383.865 229.622 383.339 231.498 382.192C231.697 382.064 231.929 381.995 232.166 381.995C232.403 381.994 232.635 382.061 232.835 382.188C233.035 382.315 233.194 382.497 233.294 382.711C233.394 382.926 233.431 383.165 233.4 383.4L233.392 383.45C233.113 383.563 232.84 383.695 232.577 383.842C232.426 383.927 232.279 384.017 232.135 384.113C231.953 384.234 231.813 384.407 231.732 384.609C231.65 384.811 231.632 385.034 231.679 385.246C231.726 385.459 231.837 385.653 231.996 385.802C232.155 385.951 232.355 386.048 232.571 386.081L232.593 386.085L232.638 386.092C232.161 387.232 231.49 388.282 230.656 389.195C229.842 393.586 226.347 394.003 222.609 392.724H222.606C222.196 394.506 221.602 396.24 220.833 397.899H214.498C214.475 397.829 214.454 397.756 214.434 397.686C215.02 397.723 215.609 397.688 216.187 397.581C215.717 397.005 215.247 396.424 214.777 395.847C214.766 395.837 214.757 395.825 214.747 395.813C214.509 395.518 214.268 395.225 214.03 394.93C214.017 394.026 214.121 393.123 214.339 392.245Z" fill="#F2F2F2"/>
<path d="M56.4879 392.245C56.3245 392.253 56.1628 392.21 56.0245 392.122C55.8863 392.035 55.7784 391.907 55.7152 391.756C55.6521 391.605 55.6369 391.439 55.6717 391.279C55.7065 391.119 55.7896 390.974 55.9097 390.863L55.9644 390.645L55.9427 390.593C55.778 390.205 55.5022 389.873 55.1497 389.641C54.7973 389.408 54.384 389.285 53.9617 389.287C53.5395 389.288 53.1271 389.415 52.7764 389.65C52.4257 389.885 52.1523 390.218 51.9906 390.608C51.3442 392.164 50.5212 393.723 50.3186 395.368C50.2293 396.096 50.267 396.833 50.4298 397.547C48.9116 394.237 48.1233 390.639 48.1182 386.997C48.1179 386.084 48.1687 385.17 48.2704 384.262C48.3544 383.518 48.471 382.779 48.6201 382.045C49.4338 378.063 51.1809 374.33 53.7179 371.154C54.9458 370.484 55.9388 369.455 56.5631 368.203C56.7893 367.754 56.9491 367.273 57.0377 366.778C56.7686 366.068 56.6272 365.317 56.6199 364.558C56.4269 364.265 56.0814 364.12 55.8705 363.834C54.822 362.413 53.3775 362.661 52.6234 364.592C51.0124 365.405 50.9968 366.753 51.9853 368.049C52.6142 368.874 52.7006 369.99 53.2524 370.873C53.1956 370.945 53.1366 371.016 53.0798 371.088C52.0421 372.422 51.1376 373.854 50.3794 375.365C50.5638 373.673 50.3437 371.961 49.7373 370.371C49.1226 368.889 47.9707 367.641 46.9562 366.359C46.6879 366.015 46.3235 365.758 45.9091 365.621C45.4947 365.484 45.049 365.473 44.6282 365.589C44.2073 365.705 43.8304 365.943 43.5449 366.273C43.2594 366.603 43.0782 367.01 43.0242 367.443L43.0181 367.5C43.1688 367.585 43.3163 367.675 43.4606 367.77C43.6419 367.891 43.7824 368.064 43.8637 368.267C43.9449 368.469 43.9631 368.691 43.916 368.904C43.8688 369.117 43.7584 369.31 43.5993 369.459C43.4402 369.608 43.2398 369.706 43.0243 369.739L43.0023 369.742C43.056 370.285 43.1508 370.823 43.2861 371.352C41.9847 376.383 44.7944 378.215 48.8063 378.297C48.8948 378.343 48.9811 378.388 49.0697 378.431C48.3079 380.589 47.8301 382.837 47.6482 385.118C47.5452 386.464 47.5513 387.816 47.6664 389.16L47.6595 389.113C47.3689 387.617 46.5708 386.268 45.4001 385.293C43.6614 383.865 41.2049 383.339 39.3292 382.192C39.1298 382.064 38.898 381.995 38.6611 381.995C38.4242 381.994 38.1921 382.061 37.9922 382.188C37.7922 382.315 37.6327 382.497 37.5325 382.711C37.4324 382.926 37.3957 383.165 37.4268 383.4L37.4345 383.45C37.7141 383.563 37.9863 383.695 38.2496 383.842C38.4003 383.927 38.5478 384.017 38.6921 384.113C38.8734 384.234 39.0139 384.407 39.0952 384.609C39.1764 384.811 39.1946 385.034 39.1475 385.246C39.1003 385.459 38.9899 385.653 38.8308 385.802C38.6717 385.951 38.4713 386.048 38.2558 386.081L38.2337 386.085L38.1883 386.092C38.6661 387.232 39.3367 388.282 40.1707 389.195C40.9844 393.586 44.4795 394.003 48.2182 392.724H48.2204C48.6306 394.506 49.225 396.24 49.9939 397.899H56.3292C56.3519 397.829 56.3724 397.756 56.3929 397.686C55.8064 397.723 55.2177 397.688 54.6398 397.581C55.1099 397.005 55.5799 396.424 56.05 395.847C56.0604 395.837 56.0703 395.825 56.0795 395.813C56.3179 395.518 56.5586 395.225 56.797 394.93C56.8097 394.026 56.7057 393.123 56.4879 392.245Z" fill="#F2F2F2"/>
<path d="M152.238 51.9701C153.52 49.3906 155.568 47.2489 156.822 44.6553C158.075 42.0617 158.318 38.5904 156.231 36.6052C154.458 34.9196 151.681 34.896 149.562 33.675C144.161 30.5645 144.167 20.6846 137.993 19.831C134.99 19.4159 132.274 21.6665 130.459 24.0932C128.644 26.5199 127.198 29.3516 124.682 31.0399C121.833 32.9511 118.149 33.0342 114.986 34.3617C108.92 36.9069 105.74 43.4517 103.081 49.4663C101.368 53.341 99.616 57.5201 100.411 61.6811C98.6832 62.7555 99.4531 65.6455 101.178 66.7249C102.902 67.8043 105.067 67.7804 107.048 68.2479C111.209 69.2306 114.617 72.5421 116.232 76.4998C117.491 79.5844 117.749 82.9712 117.992 86.2939C118.413 92.0594 118.835 97.8249 119.256 103.59C119.444 106.155 119.69 108.881 121.252 110.925C122.814 112.969 126.196 113.825 127.952 111.945C129.63 110.149 128.874 107.304 128.84 104.847C128.806 102.389 131.029 99.3287 133.125 100.614L133.864 98.9382C138.65 97.225 142.842 94.1692 145.936 90.1366C149.031 86.1039 150.897 81.2654 151.312 76.2C151.848 68.0411 148.599 59.293 152.238 51.9701Z" fill="#E6E6E6"/>
<path d="M157.13 103.707C157.592 103.271 157.92 102.712 158.075 102.096C158.23 101.481 158.206 100.833 158.005 100.231C157.804 99.6281 157.435 99.0956 156.941 98.6959C156.448 98.2961 155.85 98.0459 155.219 97.9746L155.227 98.2515C154.326 98.7774 153.298 99.0473 152.255 99.0322C151.216 99.0158 150.181 99.1796 149.198 99.5162C148.709 99.694 148.285 100.016 147.982 100.439C147.68 100.862 147.512 101.366 147.502 101.886C147.559 102.285 147.712 102.664 147.946 102.991C148.181 103.318 148.492 103.583 148.851 103.765C149.573 104.12 150.348 104.356 151.146 104.462C153.202 104.848 155.608 105.141 157.13 103.707Z" fill="#E6E6E6"/>
<path d="M197.214 52.1054C198.075 51.5201 198.806 50.7635 199.361 49.883C199.63 49.4374 199.758 48.921 199.729 48.4014C199.699 47.8819 199.512 47.3835 199.194 46.9717C198.546 46.4096 197.712 46.1084 196.854 46.1267C194.524 45.9528 192.182 46.2288 189.957 46.9396C192.242 48.9633 194.527 50.9869 196.812 53.0106L197.214 52.1054Z" fill="#E6E6E6"/>
<path d="M185.787 57.3693C186.71 58.3883 186.416 59.9689 186.154 61.319C185.893 62.669 185.86 64.3559 187.021 65.0924C188.028 65.7308 189.441 65.2099 190.178 64.2726C190.836 63.2729 191.237 62.1262 191.345 60.9342C191.707 59.2019 191.871 57.4341 191.833 55.6648C191.789 53.8823 191.16 52.1637 190.042 50.7739C189.249 49.8701 188.193 49.237 187.022 48.9635C185.851 48.69 184.623 48.7897 183.511 49.2487L184.573 49.1964C183.801 50.1869 183.216 51.3095 182.846 52.5093C182.669 53.1121 182.656 53.7513 182.81 54.3605C182.963 54.9697 183.277 55.5268 183.719 55.9738C184.348 56.5217 185.226 56.7508 185.787 57.3693Z" fill="#E6E6E6"/>
<path d="M237.878 40.2783L238.067 39.6973C237.277 40.1538 236.669 40.8675 236.343 41.7189C236.017 42.5704 235.994 43.5079 236.277 44.3745C236.884 43.8958 237.352 43.2638 237.634 42.5438C237.915 41.8238 238 41.0418 237.878 40.2783Z" fill="#E6E6E6"/>
<path d="M227.617 48.5953C228.622 48.0263 229.48 47.2298 230.122 46.2697C230.763 45.3095 231.171 44.2125 231.312 43.0664C231.421 42.3538 231.339 41.6251 231.073 40.9549C230.937 40.6221 230.72 40.3282 230.443 40.0993C230.166 39.8703 229.836 39.7135 229.483 39.6426L229.053 40.319C228.437 39.7886 227.401 40.3341 227.142 41.1049C226.974 41.9051 227.044 42.7367 227.342 43.4981C227.639 44.2642 227.626 45.1159 227.304 45.8721C226.958 46.3168 226.568 46.7261 226.141 47.094C225.932 47.2839 225.795 47.5405 225.755 47.8197C225.714 48.099 225.772 48.3837 225.918 48.6251C226.323 49.0871 227.08 48.8932 227.617 48.5953Z" fill="#E6E6E6"/>
<path d="M223.241 44.8169C223.609 44.1549 223.782 43.4025 223.741 42.6463L222.801 42.3516C222.2 42.5951 221.667 42.9805 221.248 43.4747C221.12 43.6024 221.023 43.7567 220.962 43.9265C220.901 44.0963 220.879 44.2774 220.896 44.4569C220.914 44.6364 220.971 44.8098 221.063 44.9647C221.156 45.1196 221.281 45.2522 221.431 45.353C221.58 45.4537 221.75 45.5202 221.929 45.5475C222.107 45.5749 222.289 45.5626 222.462 45.5113C222.635 45.4601 222.795 45.3713 222.929 45.2512C223.064 45.1312 223.17 44.9828 223.241 44.8169Z" fill="#E6E6E6"/>
<path d="M269.197 40.0605C269.282 40.1317 269.367 40.2049 269.452 40.2767C269.527 40.261 269.598 40.2327 269.674 40.2234L269.197 40.0605Z" fill="#E6E6E6"/>
<path d="M267.691 48.3094C268.554 47.6113 269.418 46.9133 270.281 46.2153C270.739 45.8909 271.13 45.4802 271.432 45.0062C271.637 44.5574 271.726 44.0639 271.69 43.5715C271.653 43.0791 271.493 42.604 271.223 42.1905C270.745 41.4574 270.147 40.8105 269.453 40.2773C268.69 40.4577 268.021 40.9113 267.57 41.5522C267.12 42.193 266.92 42.9767 267.009 43.7548C267.165 44.7445 267.787 45.8028 267.28 46.6668C267.082 47.0032 266.742 47.2322 266.514 47.549C266.286 47.8657 266.212 48.3702 266.526 48.6031C266.873 48.8617 267.354 48.5818 267.691 48.3094Z" fill="#E6E6E6"/>
<path d="M269.579 52.5823C269.9 52.5995 270.221 52.5475 270.52 52.4298C270.819 52.3121 271.09 52.1315 271.313 51.9002C272.467 50.9551 273.476 49.8464 274.309 48.6094C272.367 49.2244 270.425 49.8394 268.482 50.4543L269.088 51.1622C268.55 51.5131 268.948 52.4615 269.579 52.5823Z" fill="#E6E6E6"/>
<path d="M275.022 56.5779C275.14 56.8807 275.355 57.1363 275.632 57.3058C275.91 57.4752 276.235 57.5491 276.559 57.5161C276.881 57.4732 277.19 57.3602 277.464 57.1849C277.738 57.0097 277.97 56.7766 278.144 56.502C278.439 56.0668 278.613 55.5607 278.647 55.036C278.681 54.5112 278.574 53.987 278.337 53.5174C278.1 53.0478 277.742 52.6499 277.3 52.365C276.858 52.08 276.348 51.9183 275.822 51.8965L276.359 52.7155C276.495 54.1134 274.594 55.2399 275.022 56.5779Z" fill="#E6E6E6"/>
<path d="M312.746 71.8882C313.271 72.2801 313.909 72.491 314.565 72.4895C315.22 72.4879 315.857 72.2739 316.381 71.8796C316.72 71.5898 316.996 71.2331 317.191 70.8318C317.386 70.4305 317.496 69.9933 317.514 69.5475C317.532 69.1017 317.458 68.657 317.297 68.2411C317.135 67.8253 316.889 67.4473 316.574 67.1309L315.582 67.6845C315.032 67.331 314.366 67.2047 313.725 67.3321C313.083 67.4594 312.516 67.8306 312.143 68.3674C311.808 68.9301 311.685 69.5936 311.795 70.2389C311.906 70.8841 312.243 71.4689 312.746 71.8882Z" fill="#E6E6E6"/>
<path d="M324.28 73.1942C324.763 73.0539 325.202 72.7921 325.555 72.4337C325.907 72.0754 326.162 71.6324 326.295 71.1474L324.366 70.894C323.83 70.489 323.206 70.2163 322.544 70.0982C322.212 70.0485 321.873 70.1143 321.584 70.2846C321.295 70.4548 321.073 70.7192 320.956 71.0334C320.915 71.3008 320.943 71.5741 321.038 71.8275C321.132 72.0809 321.29 72.3058 321.496 72.4808C321.861 72.8279 322.308 73.0757 322.795 73.2006C323.282 73.3255 323.793 73.3233 324.28 73.1942Z" fill="#E6E6E6"/>
<path d="M316.316 77.0486C316.35 77.3622 316.473 77.6597 316.67 77.9063C316.867 78.1528 317.13 78.3383 317.428 78.441C317.754 78.5956 318.119 78.6487 318.475 78.5935C318.832 78.5383 319.164 78.3773 319.428 78.1314C319.544 78 319.627 77.8427 319.671 77.6727C319.714 77.5026 319.717 77.3246 319.677 77.1535C319.638 76.9823 319.559 76.823 319.446 76.6888C319.332 76.5545 319.189 76.4492 319.027 76.3815L317.581 76.1186C317.022 75.8293 316.307 76.4197 316.316 77.0486Z" fill="#E6E6E6"/>
<path d="M232.399 87.2131L231.279 86.1914C231.577 86.6063 231.958 86.9543 232.399 87.2131Z" fill="#E6E6E6"/>
<path d="M223.85 81.1962C224.539 84.3952 227.986 87.0014 231.115 86.0401L231.28 86.1908C230.284 84.8278 230.115 82.8111 230.348 81.0572C230.78 78.0518 231.962 75.2036 233.785 72.7752C235.608 70.3469 238.014 68.4167 240.78 67.1627C241.538 66.9262 242.215 66.485 242.738 65.8877C243.184 65.2358 243.018 64.1179 242.249 63.9337C241.832 63.886 241.41 63.9835 241.056 64.2097L235.241 67.0707C232.304 68.5157 229.308 70.0021 227.001 72.3238C224.694 74.6455 223.161 77.9971 223.85 81.1962Z" fill="#E6E6E6"/>
<path d="M129.977 191.199C124.558 187.322 118.624 184.221 112.346 181.989C108.487 180.618 104.341 179.571 100.32 180.35C98.1153 180.806 96.0491 181.775 94.2895 183.179C92.5299 184.583 91.1264 186.383 90.1932 188.431C89.294 190.494 88.8711 192.733 88.956 194.981C89.0408 197.23 89.6311 199.43 90.6831 201.42C92.5371 204.893 95.7478 207.659 96.8212 211.446C97.5448 214 97.202 216.718 96.8537 219.349C96.1419 224.725 95.4301 230.102 94.7183 235.478C94.0702 240.373 93.4387 245.467 94.9892 250.155C96.5396 254.843 100.964 258.976 105.878 258.478L106.852 258.405C103.601 256.195 102.69 251.62 103.658 247.811C104.626 244.003 107.083 240.773 109.482 237.659C116.6 228.42 123.718 219.181 130.836 209.942C133.716 206.203 136.762 201.583 135.227 197.122C134.354 194.585 132.158 192.76 129.977 191.199Z" fill="#E6E6E6"/>
<path d="M81.4664 167.842C80.7455 167.598 79.9841 168.141 79.5602 168.773C79.2176 169.451 78.8151 170.098 78.3575 170.705C77.2486 171.848 75.2278 171.621 74.0319 170.57C72.836 169.519 72.3178 167.893 72.0857 166.318C71.8072 164.428 71.9274 162.32 73.175 160.874C74.4594 159.385 76.5704 158.985 78.5129 158.676C80.5195 158.356 82.7675 158.09 84.4113 159.283C85.4468 160.035 86.0503 161.248 87.0094 162.095C87.9686 162.942 89.6748 163.263 90.3967 162.207C90.5856 161.832 90.6811 161.418 90.6751 160.999C90.669 160.579 90.5616 160.168 90.362 159.799C89.9562 159.064 89.7121 158.251 89.646 157.415C89.6943 156.253 90.6272 155.331 91.5816 154.667C92.536 154.003 93.6139 153.43 94.24 152.451C95.0103 151.247 94.9285 149.695 95.4063 148.348C96.5627 145.086 100.69 143.636 101.892 140.391C102.182 139.709 102.214 138.944 101.984 138.24C101.48 136.947 100.12 137.201 100.037 135.621C99.9571 134.11 101.218 132.629 102.499 131.998C104.266 131.128 106.325 131.198 108.293 131.145C110.262 131.092 112.383 130.831 113.827 129.493C114.295 129.011 114.656 128.436 114.885 127.806C115.115 127.175 115.209 126.503 115.162 125.833C115.114 125.164 114.925 124.512 114.608 123.92C114.29 123.329 113.852 122.811 113.32 122.4C112.244 121.657 110.883 121.399 109.835 120.615C108.531 119.639 107.913 118.014 106.897 116.741C106.052 115.771 105.085 114.915 104.019 114.194C103.148 113.547 102.276 112.901 101.404 112.254C99.8276 111.085 98.1876 109.886 96.2696 109.469C94.3516 109.053 92.0676 109.642 91.107 111.353C90.7282 112.116 90.5213 112.952 90.5009 113.803C90.4134 115.807 90.497 117.815 90.7509 119.805C90.9092 121.406 91.0675 123.008 91.2258 124.61C91.3676 126.045 91.2153 127.938 89.8209 128.311C86.7276 129.138 87.7714 124.566 87.0854 123.165C86.0353 121.021 81.2104 119.992 79.1479 119.098C77.8597 118.54 76.5002 117.924 75.7224 116.756C74.7543 115.302 74.953 113.323 75.7122 111.75C76.4713 110.177 77.7082 108.896 78.8319 107.559C79.9774 106.195 81.0204 104.75 82.0622 103.306C83.2705 101.631 84.4788 99.9558 85.6871 98.2809C87.2368 96.1329 88.8659 93.5113 87.9856 91.0133C87.7949 90.6792 87.5097 90.4087 87.1658 90.2358C86.822 90.0628 86.4348 89.9952 86.0526 90.0412C85.6705 90.0873 85.3104 90.245 85.0175 90.4947C84.7247 90.7444 84.512 91.0748 84.4061 91.4448C84.0203 92.7933 85.0496 94.5151 84.065 95.5144C83.7277 95.786 83.3056 95.9303 82.8726 95.9222C82.4396 95.9141 82.0232 95.7541 81.6964 95.4701C81.0587 94.8814 80.573 94.1473 80.2807 93.3303C79.0878 90.6804 77.9256 88.0142 76.7011 85.3788C76.3141 84.5457 75.91 83.1192 74.737 83.2596C73.7186 83.3816 73.1686 84.865 73.204 85.7263C73.2555 86.9793 73.9484 88.099 74.4779 89.2359C75.0075 90.3729 75.3778 91.7382 74.7964 92.8495C74.0601 94.2566 72.1956 94.5727 70.6077 94.5262C67.6147 94.4356 64.6821 93.6621 62.034 92.2648C61.9648 93.7353 61.8956 95.2058 61.8264 96.6762C59.7188 95.7944 57.6111 94.9126 55.5035 94.0308C55.0941 93.8595 54.6848 93.6883 54.2754 93.517C52.4976 92.7731 50.7175 92.0284 48.8872 91.4246C47.8482 91.0818 46.7947 90.7849 45.7415 90.4882C45.1013 90.3078 44.4612 90.1274 43.821 89.9471C42.5578 89.4996 41.2179 89.3085 39.8799 89.3851C38.4741 89.5616 37.2202 90.3162 35.9202 90.8805C33.0196 92.1391 29.2679 90.8729 26.1595 90.8505C24.9265 89.0512 23.2619 87.5896 21.3179 86.5995C19.374 85.6093 17.2126 85.1222 15.0317 85.1826C12.8507 85.243 10.7197 85.849 8.83351 86.9452C6.94736 88.0415 5.36628 89.5929 4.23487 91.4577C3.68837 92.4025 3.20168 93.3807 2.77768 94.3864C2.35593 95.3312 1.93418 96.2759 1.51241 97.2207C0.893706 98.6067 0.261352 100.067 0.382962 101.58C0.504571 103.092 1.66476 104.638 3.18297 104.624C-0.397102 106.244 -1.14207 111.914 1.89801 114.403C2.73981 115.092 3.77209 115.543 4.52963 116.324C5.10218 116.914 5.48522 117.662 5.6296 118.471C5.77398 119.281 5.67311 120.115 5.33993 120.866C5.00675 121.618 4.45645 122.253 3.75968 122.69C3.06291 123.127 2.25145 123.345 1.42942 123.318C3.55039 124.137 5.88663 124.214 8.05652 123.534C10.2264 122.855 12.1017 121.46 13.376 119.578C14.6758 117.543 15.2407 115.002 17.0088 113.358C19.3504 111.181 23.2181 111.35 25.9188 113.062C28.6195 114.774 30.328 117.688 31.5032 120.661C33.0433 124.557 34.0289 129.009 37.3099 131.615C38.8963 132.875 40.9054 133.583 42.3076 135.045C44.3045 137.128 44.65 140.27 44.6049 143.154C44.5599 146.038 44.2491 149.031 45.3002 151.717C46.3512 154.403 49.3643 156.613 52.0662 155.6C51.2922 157.896 51.3159 160.385 52.1336 162.665C52.9512 164.946 54.5149 166.884 56.5715 168.165C56.0792 165.113 55.587 162.061 55.0947 159.009C57.5482 159.7 59.1383 162.078 60.0567 164.455C60.9751 166.832 61.4603 169.402 62.7915 171.574C64.8876 174.996 68.6835 176.47 72.545 176.457C76.7164 176.443 78.3002 174.455 81.0492 171.527C81.6014 171.027 82.0206 170.398 82.2689 169.696C82.3811 169.342 82.3617 168.96 82.2143 168.619C82.0668 168.279 81.8013 168.003 81.4664 167.842Z" fill="#E6E6E6"/>
<path d="M93.278 167.691C90.9464 167.324 88.6148 166.958 86.2832 166.592C87.5055 167.326 88.7278 168.061 89.9501 168.795C90.9693 169.473 92.0776 170.007 93.2433 170.381C93.8279 170.565 94.444 170.627 95.0534 170.563C95.6629 170.499 96.2527 170.31 96.7862 170.009L96.4877 169.438C96.0175 168.25 94.541 167.889 93.278 167.691Z" fill="#E6E6E6"/>
<path d="M91.6943 180.646L91.7105 180.605C91.5695 180.372 91.3617 180.185 91.114 180.071C90.8663 179.956 90.5898 179.918 90.3203 179.961C89.7831 180.057 89.2341 180.066 88.6941 179.988C88.3511 179.854 88.0452 179.64 87.802 179.363C87.5588 179.087 87.3853 178.756 87.296 178.399C87.0642 177.702 86.9956 176.956 86.7317 176.271C86.541 175.729 86.2044 175.25 85.7589 174.886C85.3134 174.523 84.7763 174.29 84.2066 174.212C83.635 174.166 83.0683 174.347 82.6291 174.716C82.1898 175.084 81.9133 175.611 81.8594 176.181C81.9042 176.769 82.091 177.337 82.4037 177.836C82.6551 178.32 82.9066 178.803 83.1582 179.287C83.3701 179.72 83.6139 180.137 83.8876 180.535C84.3328 181.148 84.9149 181.649 85.5876 181.998C86.2604 182.347 87.0053 182.534 87.7631 182.545C88.521 182.555 89.2709 182.389 89.9533 182.06C90.6357 181.73 91.2319 181.246 91.6943 180.646Z" fill="#E6E6E6"/>
<path d="M78.0773 56.618C79.8527 57.6643 82.076 58.3853 82.9196 60.265L83.4062 60.4222C82.8754 61.0815 82.3446 61.7409 81.8137 62.4002C81.1577 63.215 80.4679 64.1229 80.4832 65.1687C80.5044 66.6089 81.8904 67.6955 83.2908 68.0351C84.7852 68.3424 86.3406 68.0838 87.655 67.3094C88.9694 66.535 89.9491 65.3 90.4038 63.8442C90.5704 63.2371 90.6391 62.6073 90.7852 61.995C91.2109 60.5426 91.8534 59.1627 92.6911 57.902C97.4056 49.9738 102.12 42.0455 106.835 34.1172C107.422 33.1299 108.027 31.9487 107.585 30.8883C107.35 30.4397 106.985 30.072 106.539 29.8324C106.092 29.5929 105.584 29.4925 105.08 29.5442C104.074 29.6663 103.103 29.9926 102.227 30.5031C101.838 29.8201 101.289 29.2417 100.628 28.8175C99.9657 28.3934 99.2107 28.1361 98.4275 28.0679C96.8613 27.9471 95.2858 28.0842 93.7641 28.4739C90.3262 28.9924 87.0111 30.1308 83.9802 31.8336C82.3222 32.6715 80.4975 33.7062 80.0164 35.5001C79.4247 37.7066 81.3317 39.9555 83.5273 40.5897C85.7229 41.2238 88.0664 40.6913 90.2886 40.1575C90.5398 41.2343 90.4351 42.3634 89.9902 43.3758C89.5453 44.3881 88.7842 45.229 87.821 45.7725C86.8577 46.316 85.7442 46.5329 84.6473 46.3905C83.5503 46.2481 82.5291 45.7543 81.7366 44.9829C80.1438 43.4325 79.3636 40.7411 77.1767 40.341C74.9967 39.9422 73.2639 42.2663 72.7828 44.4288C72.3121 46.758 72.5674 49.1753 73.5141 51.3549C74.4609 53.5345 76.0535 55.3714 78.0773 56.618Z" fill="#E6E6E6"/>
<path d="M105.42 94.7677C104.37 91.8098 102.99 88.9795 101.307 86.3304C100.031 84.2358 98.4555 82.3385 96.6312 80.6985C94.964 79.2594 93.0476 78.1373 90.9765 77.3874C88.9661 76.6607 86.728 76.3017 84.6956 76.9643C82.6632 77.6269 80.9341 79.5158 80.9753 81.6523C81.0209 84.0146 83.0887 85.8622 85.2437 86.8329C87.3987 87.8035 89.796 88.226 91.8292 89.431C93.2116 90.2691 94.3668 91.4338 95.1935 92.8227C96.0201 94.2116 96.4928 95.7822 96.57 97.3965L97.082 98.2429C95.9219 98.6271 94.84 99.2159 93.8876 99.9814C93.4159 100.37 93.0554 100.877 92.8423 101.45C92.6293 102.023 92.5714 102.642 92.6744 103.245C93.0296 104.675 94.4909 105.496 95.8122 106.15C98.2537 107.359 100.695 108.568 103.137 109.776C101.893 106.071 105.964 102.623 106.189 98.7215C106.197 97.3656 105.936 96.0216 105.42 94.7677Z" fill="#E6E6E6"/>
<path d="M44.029 84.7631C45.51 85.9127 47.7871 85.375 49.1439 84.0811C50.5007 82.7872 51.1615 80.946 51.7778 79.1757C51.5527 80.9279 51.574 82.7031 51.8411 84.4494C51.9802 85.3227 52.2992 86.1576 52.7778 86.9012C53.2564 87.6449 53.8843 88.2812 54.6216 88.7697C55.2911 89.1368 56.0128 89.3994 56.7617 89.5485C60.243 90.3405 63.8813 90.0807 67.2147 88.802L67.2446 87.6626C65.57 87.8536 64.3028 86.0177 64.1923 84.3367C64.0817 82.6556 64.6921 81.0069 64.7457 79.3231C64.7994 77.6392 63.9875 75.6718 62.329 75.3722C62.6192 75.955 62.7251 76.6123 62.6324 77.2567C62.5398 77.9011 62.253 78.502 61.8103 78.9794C61.3676 79.4569 60.7899 79.7883 60.1541 79.9294C59.5183 80.0706 58.8546 80.0149 58.2513 79.7697C56.3315 78.9895 55.6341 76.6517 54.1505 75.2053C53.2339 74.3903 52.0966 73.8642 50.8817 73.6934C49.6668 73.5226 48.4285 73.7147 47.3225 74.2453C46.2305 74.8023 45.2725 75.5896 44.5147 76.5529C43.7569 77.5162 43.2174 78.6324 42.9334 79.8245C42.4829 81.5543 42.6166 83.6667 44.029 84.7631Z" fill="#E6E6E6"/>
<path d="M89.7391 72.765L89.8079 72.6534C89.3944 71.46 88.1128 70.7602 86.8619 70.5826C85.6008 70.4994 84.3347 70.5413 83.0819 70.7075C81.8176 70.871 80.5358 70.5888 79.4572 69.9095C78.5961 69.266 78.1055 68.2537 77.4171 67.4282C76.7287 66.6027 75.6146 65.9238 74.6147 66.3185C73.5321 66.7459 73.2433 68.2627 73.7686 69.3009C74.3875 70.2974 75.3212 71.0591 76.4218 71.4656C80.5899 73.3781 85.2798 73.8356 89.7391 72.765Z" fill="#E6E6E6"/>
<path d="M75.5121 76.3423C75.1659 76.5958 74.9311 76.9734 74.857 77.3959C74.7829 77.8185 74.8751 78.2534 75.1144 78.6096C75.3537 78.9657 75.7215 79.2156 76.1409 79.3069C76.5603 79.3982 76.9988 79.3238 77.3646 79.0993L77.7298 79.4597C78.2156 78.5902 78.4159 77.4253 77.7947 76.6467C77.5185 76.3239 77.1329 76.1143 76.7117 76.0581C76.2905 76.0019 75.8633 76.1031 75.5121 76.3423Z" fill="#E6E6E6"/>
<path d="M71.2365 79.4617C71.2418 79.151 71.1529 78.8461 70.9815 78.5868C70.8101 78.3276 70.5642 78.1264 70.2762 78.0095C70.0802 77.9759 69.8793 77.9823 69.6858 78.0283C69.4923 78.0743 69.3101 78.159 69.1502 78.2773C68.9903 78.3956 68.856 78.545 68.7554 78.7165C68.6548 78.8881 68.59 79.0782 68.5649 79.2754C68.5347 79.6773 68.5876 80.081 68.7201 80.4615C68.8526 80.8421 69.062 81.1913 69.3352 81.4876C69.4941 81.7262 69.7019 81.9285 69.9448 82.081C70.1876 82.2335 70.4601 82.3329 70.7441 82.3725C71.3165 82.3912 71.9001 81.7929 71.668 81.2695L70.794 81.2525C71.0633 80.6924 71.214 80.0827 71.2365 79.4617Z" fill="#E6E6E6"/>
<path d="M54.1444 70.5154C54.4654 70.7754 54.7864 71.0355 55.1074 71.2956C55.6634 71.776 56.264 72.2023 56.9011 72.5686C58.0153 73.1856 59.3258 73.346 60.556 73.0158C61.1634 72.8427 61.7174 72.5195 62.167 72.0761C62.6165 71.6326 62.9472 71.0832 63.1284 70.4784C63.5122 69.0328 62.8862 67.5318 62.2735 66.1673C62.1337 65.7769 61.903 65.4253 61.6004 65.1415C61.4454 65.0042 61.2477 64.9248 61.0408 64.9167C60.8338 64.9086 60.6305 64.9722 60.4652 65.0969C60.3453 65.2461 60.2656 65.4235 60.2336 65.6122C60.2016 65.8009 60.2184 65.9947 60.2824 66.1751C60.4141 66.5345 60.4744 66.9162 60.4597 67.2988C60.3986 67.6761 60.0024 68.0327 59.6534 67.8766L59.5978 69.161C57.9312 68.3177 57.0498 66.0745 55.195 65.8534C54.7787 65.8037 54.3568 65.8693 53.9753 66.043C53.5937 66.2166 53.2672 66.4917 53.0314 66.8381C52.7955 67.1846 52.6594 67.5891 52.6378 68.0077C52.6162 68.4262 52.7101 68.8426 52.909 69.2114C53.231 69.723 53.6508 70.1662 54.1444 70.5154Z" fill="#E6E6E6"/>
<path d="M50.1751 64.9695C50.5606 64.7053 50.8657 64.3398 51.0566 63.9133C51.2475 63.4868 51.3169 63.0159 51.2572 62.5525C51.211 62.328 51.116 62.1165 50.9788 61.9329C50.8416 61.7493 50.6656 61.5982 50.4633 61.4903C50.2611 61.3824 50.0376 61.3204 49.8086 61.3087C49.5797 61.2969 49.351 61.3358 49.1388 61.4224C48.6626 61.7783 48.3281 62.2914 48.1947 62.8705C47.7555 64.109 47.3162 65.3476 46.877 66.5861L47.6152 66.0491C48.5286 65.8525 49.3969 65.4863 50.1751 64.9695Z" fill="#E6E6E6"/>
<path d="M58.7296 57.3699C58.8615 57.2036 58.9553 57.0105 59.0045 56.8041C59.0537 56.5977 59.057 56.383 59.0142 56.1752C58.9714 55.9673 58.8836 55.7714 58.7569 55.6011C58.6302 55.4309 58.4677 55.2905 58.2809 55.1898L57.3578 55.1035C57.1479 55.1566 56.9534 55.2582 56.7899 55.4C56.6263 55.5419 56.4984 55.72 56.4162 55.9203C56.334 56.1205 56.2999 56.3372 56.3166 56.5529C56.3334 56.7687 56.4005 56.9775 56.5126 57.1627C56.6246 57.3479 56.7786 57.5042 56.962 57.6191C57.1455 57.7341 57.3533 57.8045 57.5689 57.8246C57.7844 57.8447 58.0017 57.8141 58.2033 57.7351C58.4049 57.6562 58.5851 57.5311 58.7296 57.3699Z" fill="#E6E6E6"/>
<path d="M67.2234 58.7934C68.0848 59.2053 69.1752 59.5979 69.9246 59.0063C70.1465 58.8055 70.3116 58.5498 70.4032 58.2649C70.4948 57.98 70.5097 57.676 70.4463 57.3835C70.3118 56.8 70.0519 56.2528 69.6846 55.7798C68.5386 54.1352 67.0826 52.7298 65.3982 51.6426L64.9817 52.1835C64.4 53.6934 63.8383 55.456 64.6497 56.8561C65.1968 57.7999 66.239 58.3226 67.2234 58.7934Z" fill="#E6E6E6"/>
<path d="M73.6406 60.1376L75.2514 60.8659C75.0935 60.5908 74.8529 60.3723 74.5637 60.2416C74.2746 60.1109 73.9516 60.0745 73.6406 60.1376Z" fill="#E6E6E6"/>
<path d="M69.2984 65.2028L68.5372 65.4534C67.89 66.5166 68.1708 67.876 68.4719 69.0836C68.6622 69.847 69.0727 70.7863 69.859 70.7516C70.6241 70.7179 70.9627 69.7905 71.1095 69.0391C71.3387 68.2229 71.3635 67.3629 71.1818 66.5348C71.0782 66.1249 70.8314 65.7654 70.4861 65.5212C70.1408 65.277 69.7196 65.1641 69.2984 65.2028Z" fill="#E6E6E6"/>
<path d="M57.1618 61.6255L57.725 61.8522C57.857 61.8333 57.9791 61.7715 58.0724 61.6762C58.1657 61.5809 58.225 61.4576 58.2411 61.3252C58.2571 61.1929 58.229 61.0589 58.1611 60.9441C58.0933 60.8293 57.9895 60.7401 57.8657 60.6903C57.742 60.6405 57.6053 60.6329 57.4768 60.6687C57.3483 60.7044 57.2352 60.7815 57.155 60.8881C57.0748 60.9946 57.032 61.1246 57.0332 61.2579C57.0345 61.3912 57.0796 61.5204 57.1618 61.6255Z" fill="#E6E6E6"/>
<path d="M85.5544 104.671C85.2816 104.678 85.0141 104.749 84.7744 104.879C84.5347 105.009 84.3297 105.195 84.1764 105.421C84.0231 105.647 83.926 105.906 83.8932 106.176C83.8605 106.447 83.893 106.722 83.988 106.978C84.5411 108.168 86.4458 108.173 87.2922 107.17C87.509 106.885 87.6644 106.558 87.7485 106.21C87.8325 105.862 87.8435 105.5 87.7807 105.147C87.7179 104.795 87.5826 104.459 87.3835 104.161C87.1844 103.864 86.9257 103.611 86.6237 103.418L85.5544 104.671Z" fill="#E6E6E6"/>
<path d="M112.987 132.87C112.766 132.929 112.558 133.032 112.378 133.173C112.197 133.313 112.046 133.488 111.934 133.688C111.822 133.888 111.751 134.108 111.725 134.336C111.7 134.563 111.721 134.794 111.786 135.013L113.367 135.123C113.902 134.854 114.438 134.586 114.973 134.317C114.941 134.09 114.863 133.872 114.745 133.676C114.627 133.48 114.471 133.309 114.286 133.174C114.101 133.039 113.89 132.943 113.667 132.891C113.444 132.839 113.213 132.832 112.987 132.87Z" fill="#E6E6E6"/>
<path d="M106.559 134.825C106.107 135.146 105.744 135.577 105.504 136.078C105.264 136.578 105.156 137.131 105.189 137.685C105.241 138.237 105.467 138.758 105.835 139.174C106.202 139.589 106.693 139.877 107.235 139.995C107.782 140.081 108.342 139.956 108.8 139.645C109.259 139.334 109.582 138.861 109.705 138.321C109.972 136.686 108.214 135.489 107.583 133.957L106.559 134.825Z" fill="#E6E6E6"/>
<path d="M167.975 124.029C168.142 125.257 167.036 126.332 166.995 127.57C166.946 129.038 168.545 130.181 170.008 130.037C170.735 129.911 171.422 129.619 172.016 129.183C172.61 128.746 173.095 128.179 173.432 127.523L173.464 127.386C172.751 126.581 172.038 125.775 171.326 124.97C170.45 123.981 169.523 122.856 169.557 121.536C169.574 120.885 169.83 120.255 169.816 119.604C169.782 119.136 169.677 118.676 169.506 118.239C169.313 117.663 169.05 117.015 168.475 116.82C167.755 116.577 167.028 117.215 166.684 117.893C166.375 118.518 166.224 119.21 166.246 119.907C166.268 120.604 166.462 121.285 166.809 121.889C167.225 122.596 167.865 123.217 167.975 124.029Z" fill="#E6E6E6"/>
<path d="M161.255 128.346C161.41 128.43 161.583 128.48 161.759 128.491C161.936 128.502 162.113 128.475 162.279 128.412C162.914 128.304 163.524 128.082 164.08 127.757C164.357 127.591 164.584 127.355 164.739 127.072C164.893 126.79 164.97 126.471 164.962 126.149C164.865 125.744 164.651 125.377 164.346 125.093C164.041 124.81 163.658 124.624 163.247 124.558C162.962 124.457 162.656 124.429 162.357 124.474C162.058 124.52 161.774 124.639 161.532 124.82C161.001 125.317 161.064 126.163 161.168 126.883L161.056 127.071C160.957 127.515 160.893 128.069 161.255 128.346Z" fill="#E6E6E6"/>
<path d="M273.428 180.798C273.274 180.415 273.12 180.032 272.966 179.648C272.754 180.169 272.833 180.701 273.428 180.798Z" fill="#E6E6E6"/>
<path d="M365.961 100.205C363.983 98.0595 362.771 96.8227 361.522 94.1636C360.842 92.697 359.81 91.4215 358.517 90.4509C357.224 89.4804 355.711 88.8449 354.112 88.6013C350.008 87.9255 345.815 88.9956 341.661 88.7812C335.008 88.4377 329.009 84.8708 322.638 82.9252C319.071 81.9262 315.438 81.1773 311.766 80.684C309.651 80.3495 307.535 80.0151 305.419 79.6807C298.485 78.5844 291.505 77.4849 284.486 77.6304C282.462 77.6725 279.642 77.0643 279.804 75.0471C280.005 72.5416 284.515 72.8705 285.382 70.5112C285.919 69.0518 284.635 67.5195 283.226 66.8596C281.818 66.1997 280.192 66.0013 278.914 65.1152C277.635 64.2293 276.935 62.1754 278.11 61.1562C274.853 62.8249 271.597 64.4936 268.341 66.1622C265.633 67.5495 262.609 69.3545 262.13 72.3578C260.499 72.7887 259.071 73.7801 258.098 75.158C256.266 75.1675 254.827 76.9253 254.525 78.7312C254.223 80.5371 254.772 82.3648 255.315 84.1135C254.65 82.8414 253.945 81.5208 252.774 80.6907C251.602 79.8606 249.82 79.7025 248.821 80.7337C247.797 81.7918 248.036 83.5672 248.761 84.8492C249.486 86.1313 250.599 87.166 251.283 88.4704C253.419 92.5441 249.549 98.2793 244.97 97.8256C245.277 93.619 245.584 89.4125 245.891 85.206C246.086 83.9121 245.977 82.5907 245.574 81.346C245.074 80.1418 243.795 79.1528 242.522 79.4372C240.234 79.9485 240.43 83.2992 241.382 85.4413C242.333 87.5833 243.282 90.5622 241.339 91.874C240.084 92.7211 238.383 92.198 237.028 91.5217C235.673 90.8456 234.224 90.0123 232.743 90.3282C231.262 90.6441 230.331 92.9069 231.639 93.6688C229.47 93.2919 227.3 92.915 225.13 92.5381C225.022 93.1765 224.782 93.7854 224.425 94.3252C224.067 94.8651 223.6 95.324 223.054 95.6722C222.508 96.0204 221.895 96.2503 221.255 96.3469C220.614 96.4435 219.961 96.4047 219.336 96.2331C219.123 95.3507 218.91 94.4682 218.697 93.5858C218.379 93.4974 218.062 93.4091 217.744 93.3207C218.741 93.5981 217.182 97.7997 215.784 101.009C213.904 100.789 211.158 100.747 210.844 100.208C209.344 97.6305 209.522 91.4901 206.915 90.0398C205.607 89.3125 204.266 88.6497 202.892 88.0516C202.17 87.7082 201.408 87.4579 200.622 87.3067C199.021 87.0545 197.407 87.5509 195.862 88.0414C194.036 88.6209 192.168 89.2222 190.656 90.3983C189.366 91.5176 188.259 92.833 187.377 94.2962C184.393 98.7117 181.408 103.127 178.423 107.543C177.534 108.722 176.834 110.032 176.35 111.427C176.121 112.121 176.045 112.856 176.126 113.581C176.208 114.307 176.445 115.006 176.822 115.632C177.219 116.245 177.811 116.707 178.502 116.944C179.194 117.18 179.945 117.176 180.634 116.934C181.499 116.56 182.366 115.712 183.223 116.103C183.872 116.4 184.035 117.253 183.966 117.963C183.801 118.659 183.788 119.382 183.928 120.083C184.319 121.189 185.82 121.573 186.891 121.095C187.932 120.527 188.712 119.577 189.067 118.446C190.099 115.801 189.994 112.874 190.251 110.046C190.508 107.218 191.281 104.194 193.511 102.436C194.179 101.91 195.16 101.53 195.847 102.031C196.104 102.264 196.282 102.573 196.356 102.912C196.429 103.252 196.395 103.606 196.258 103.925C195.97 104.557 195.596 105.145 195.145 105.673C194.383 106.745 193.849 107.962 193.578 109.248C193.307 110.535 193.303 111.863 193.568 113.151L194.024 113.433C195.763 112.982 198.09 113.789 200.399 114.564C198.723 115.062 197.247 116.076 196.183 117.462C193.514 121.205 191.582 124.747 186.303 124.703C185.051 124.692 183.809 124.445 182.557 124.442C181.292 124.364 180.047 124.778 179.082 125.598C178.133 126.528 177.839 127.943 177.027 128.994C175.959 130.376 174.174 130.938 172.543 131.566C171.352 132.025 170.096 132.644 169.548 133.797C169.204 134.742 169.124 135.764 169.319 136.751C169.502 138.498 169.827 140.484 171.309 141.426C171.863 141.715 172.469 141.891 173.092 141.944C173.715 141.996 174.342 141.925 174.937 141.733C176.479 141.358 177.986 140.652 179.569 140.758C182.055 140.923 184.102 143.308 184.127 145.798C184.14 147.058 183.772 148.504 184.607 149.448C185.393 150.335 186.95 150.177 187.764 149.316C188.142 148.858 188.402 148.314 188.522 147.732C188.641 147.151 188.617 146.548 188.449 145.978C188.104 144.843 187.573 143.773 186.877 142.811C187.704 142.597 188.58 142.676 189.356 143.034C190.132 143.393 190.759 144.009 191.132 144.778C191.684 146.004 191.505 147.418 191.681 148.751C191.858 150.084 192.669 151.566 194.012 151.643C194.451 151.655 194.881 151.513 195.227 151.242C195.572 150.971 195.812 150.587 195.904 150.158C195.918 149.482 195.881 148.805 195.794 148.134C195.84 147.474 196.137 146.856 196.624 146.407C197.111 145.959 197.751 145.713 198.413 145.721C198.005 146.476 197.872 147.349 198.037 148.191C198.203 149.033 198.656 149.791 199.319 150.336C200.341 151.126 201.692 151.303 202.965 151.524C204.238 151.745 205.596 152.094 206.418 153.091C207.787 154.751 206.112 155.499 205.851 156.905C205.531 158.632 206.974 161.181 207.528 162.833C210.075 166.394 212.621 169.955 215.167 173.515C215.736 174.381 216.406 175.176 217.164 175.882C219.678 178.04 223.822 177.827 226.232 175.554C227.401 174.372 228.16 172.847 228.398 171.202C228.635 169.557 228.339 167.88 227.553 166.416C226.063 163.705 223.111 162.026 221.654 159.298C224.08 161.306 227.058 162.53 230.195 162.81C235.746 163.937 241.019 166.148 245.714 169.315C245.934 174.218 247.816 178.9 251.05 182.592C251.632 178.408 253.583 174.534 256.6 171.576C258.562 169.663 261.242 168.122 263.934 168.636C266.625 169.15 268.667 172.581 267.039 174.784C268.403 174.886 269.767 174.987 271.131 175.088C271.743 176.609 272.355 178.129 272.967 179.649C273.075 179.33 273.284 179.054 273.561 178.861C273.839 178.669 274.17 178.57 274.508 178.58C275.785 178.773 276.68 179.96 277.895 180.399C280.185 181.225 282.633 178.936 282.929 176.52C283.225 174.105 282.075 171.773 280.958 169.611C283.425 170.067 285.972 169.795 288.287 168.827C290.601 167.859 292.583 166.238 293.99 164.161C295.397 162.085 296.168 159.643 296.208 157.136C296.248 154.628 295.556 152.163 294.216 150.043C296.87 147.256 299.994 144.957 303.445 143.251C306.638 141.674 310.132 140.591 312.923 138.379C315.713 136.167 317.671 132.326 316.328 129.028C315.38 126.698 313.001 125.117 312.29 122.705C311.259 119.212 314.389 115.6 317.926 114.728C321.462 113.855 325.155 114.928 328.639 115.992C328.103 112.409 332.258 109.05 335.651 110.322C337.073 109.747 338.494 109.172 339.915 108.596C338.268 112.227 334.698 114.537 332.073 117.538C329.448 120.54 327.885 125.428 330.627 128.323C334.557 124.762 338.487 121.201 342.418 117.64C346.529 113.915 350.64 110.191 354.751 106.466C354.554 105.89 354.358 105.313 354.162 104.737C358.051 103.26 362.24 102.039 365.961 100.205Z" fill="#E6E6E6"/>
<path d="M161.818 148.128C161.659 148.357 161.575 148.629 161.576 148.907C161.578 149.185 161.665 149.456 161.826 149.683C162.037 149.862 162.304 149.962 162.581 149.966C162.858 149.97 163.127 149.877 163.343 149.703C163.765 149.343 164.095 148.887 164.305 148.373C164.509 148.768 164.83 149.091 165.223 149.297C165.617 149.503 166.065 149.583 166.506 149.526C167.387 149.393 168.221 149.045 168.935 148.513C169.501 148.182 170.001 147.748 170.41 147.234C170.612 146.976 170.751 146.673 170.815 146.351C170.879 146.029 170.868 145.697 170.781 145.381C170.569 144.895 170.239 144.47 169.822 144.144C168.782 143.183 167.742 142.223 166.702 141.263L166.35 141.157C166.166 140.962 165.945 140.806 165.7 140.699C165.455 140.591 165.19 140.534 164.923 140.531C164.655 140.529 164.389 140.58 164.142 140.682C163.894 140.784 163.67 140.936 163.482 141.127C162.837 141.849 162.834 142.929 162.932 143.893C163.031 144.857 163.185 145.884 162.755 146.753C162.509 147.251 162.092 147.645 161.818 148.128Z" fill="#E6E6E6"/>
<path d="M222.156 180.93C218.115 180.031 214.415 177.993 211.495 175.06C208.575 172.126 206.556 168.417 205.677 164.373C205.294 162.464 205.12 160.379 203.85 158.903C202.62 157.475 200.611 156.959 198.726 156.959C196.841 156.96 194.982 157.393 193.1 157.511C189.811 157.716 186.325 156.847 183.972 154.539C182.858 153.446 182.015 152.058 180.714 151.196C178.965 150.038 176.646 150.039 174.654 150.695C172.435 151.426 170.658 153.427 168.232 153.151C165.708 152.865 162.783 151.973 161.793 155.295C161.508 156.252 161.605 157.301 161.245 158.231C160.689 159.665 159.213 160.474 158.045 161.475C155.693 163.493 154.443 166.559 154.022 169.628C153.601 172.697 153.927 175.814 154.253 178.895C154.429 180.557 154.66 182.345 155.802 183.566C157.394 185.267 160.065 185.201 162.387 185.009C165.085 184.787 167.784 184.564 170.482 184.341C171.936 184.221 173.593 184.17 174.629 185.198C175.249 185.814 175.512 186.706 176.057 187.389C176.547 187.97 177.22 188.368 177.965 188.518C178.71 188.669 179.485 188.562 180.162 188.216C179.614 189.193 179.316 190.29 179.294 191.409C179.272 192.529 179.526 193.636 180.035 194.634C180.543 195.632 181.289 196.489 182.208 197.13C183.127 197.77 184.189 198.175 185.302 198.307L185.51 198.438C183.782 201.395 181.99 204.715 182.706 208.063C183.321 210.934 185.699 213.236 186.088 216.146C186.445 218.816 185.051 221.546 185.668 224.168C186.292 226.824 188.975 228.675 191.697 228.873C194.418 229.07 197.093 227.863 199.201 226.131C201.309 224.399 202.939 222.169 204.545 219.964C205.537 218.602 206.554 217.185 206.895 215.535C207.257 213.78 206.837 211.835 207.691 210.259C208.676 208.442 211.013 207.76 212.193 206.063C213.721 203.865 212.821 200.872 213.159 198.216C213.994 191.646 222.346 187.551 222.156 180.93Z" fill="#E6E6E6"/>
<path d="M220.952 203.361C220.723 204.387 219.762 205.063 218.846 205.579C217.931 206.095 216.924 206.616 216.457 207.558C215.979 208.523 216.197 209.673 216.447 210.72C216.968 212.898 217.58 215.051 218.285 217.18C219.652 214.599 220.845 211.929 221.857 209.19C222.285 208.17 222.55 207.089 222.641 205.986C222.682 205.434 222.608 204.88 222.423 204.359C222.237 203.837 221.944 203.36 221.563 202.959L220.952 203.361Z" fill="#E6E6E6"/>
<path d="M277.155 191.934C276.007 190.61 274.86 189.286 273.712 187.961C272.927 187.056 272.032 186.089 270.843 185.938L270.354 186.25C271.349 188.618 272.344 190.987 273.339 193.355C273.691 194.437 274.311 195.411 275.141 196.189C276.032 196.889 277.476 197.023 278.219 196.168C278.459 195.848 278.61 195.47 278.657 195.073C278.704 194.676 278.646 194.273 278.489 193.905C278.165 193.174 277.713 192.507 277.155 191.934Z" fill="#E6E6E6"/>
<path d="M288.274 194.47C288.708 194.319 289.106 194.08 289.442 193.767C289.777 193.454 290.044 193.074 290.225 192.652C290.581 191.807 290.816 190.916 290.923 190.005C291.119 188.82 291.315 187.634 291.511 186.448L291.255 186.382C291.005 186.262 290.721 186.237 290.455 186.311C290.188 186.385 289.958 186.553 289.806 186.784C289.517 187.255 289.298 187.765 289.157 188.299C289.084 188.566 288.952 188.813 288.77 189.022C288.589 189.23 288.362 189.395 288.108 189.504C287.187 189.782 286.314 188.806 285.353 188.844C284.964 188.894 284.604 189.073 284.331 189.354C284.058 189.634 283.888 189.999 283.848 190.388C283.793 191.175 284.015 191.955 284.478 192.594C285.298 193.866 286.819 194.889 288.274 194.47Z" fill="#E6E6E6"/>
<path d="M294.619 196.719L297.264 189.756C296.192 190.533 295.371 191.606 294.901 192.843C294.431 194.08 294.333 195.427 294.619 196.719Z" fill="#E6E6E6"/>
<path d="M308.117 191.105L307.582 191.128C307.343 191.601 307.216 192.122 307.211 192.651C307.206 193.181 307.323 193.705 307.553 194.182C308.022 195.133 308.705 195.962 309.548 196.606C310.855 197.684 312.346 198.517 313.95 199.063C316.302 199.749 318.733 200.123 321.183 200.176C322.583 200.268 323.983 200.36 325.383 200.451C326.05 200.495 326.912 200.41 327.098 199.768C327.251 199.238 326.799 198.74 326.377 198.384C322.673 195.268 318.182 193.231 313.397 192.495C311.582 192.219 309.656 192.106 308.117 191.105Z" fill="#E6E6E6"/>
<path d="M323.061 209.583C322.054 208.607 321.047 207.631 320.04 206.655C319.061 205.706 317.594 204.7 316.471 205.475C315.826 205.92 315.627 206.789 315.081 207.351C314.748 207.649 314.346 207.86 313.911 207.963C313.476 208.067 313.022 208.06 312.59 207.944C311.73 207.702 310.917 207.317 310.186 206.805L307.687 205.255C306.825 204.72 305.963 204.185 305.101 203.65L303.155 205.541C303.239 204.61 301.999 204.006 301.14 204.374C300.732 204.603 300.38 204.921 300.112 205.304C299.844 205.687 299.665 206.126 299.59 206.588C299.447 207.511 299.197 208.415 298.846 209.281C297.858 211.171 295.46 211.731 293.35 212.048C291.239 212.364 288.849 212.81 287.719 214.62C286.779 216.127 287.06 218.063 287.375 219.811L288.564 226.427C288.62 227.228 288.942 227.988 289.478 228.586C290.523 229.508 292.141 228.948 293.416 228.386C296.082 227.104 298.942 226.275 301.88 225.934C304.844 225.602 307.826 226.366 310.266 228.081C311.778 229.231 312.931 230.825 314.534 231.847C315.637 232.511 316.878 232.914 318.161 233.026C319.444 233.138 320.736 232.956 321.938 232.493C324.347 231.534 326.341 229.757 327.569 227.473C328.66 225.46 329.207 223.198 329.157 220.909C329.107 218.62 328.462 216.383 327.285 214.419C326.083 212.638 324.664 211.014 323.061 209.583Z" fill="#E6E6E6"/>
<path d="M320.093 236.535C319.852 236.828 319.71 237.191 319.69 237.57C319.67 237.95 319.771 238.325 319.98 238.643C320.419 239.271 321.088 239.702 321.842 239.841C322.589 239.974 323.35 240.009 324.106 239.944L324.129 239.38C323.927 238.389 323.47 237.469 322.803 236.709C322.074 236.016 320.784 235.803 320.093 236.535Z" fill="#E6E6E6"/>
<path d="M346.021 237.14L345.66 237.008C344.801 238.302 343.942 239.597 343.083 240.891C342.62 241.588 342.138 242.424 342.42 243.211C342.754 244.142 343.988 244.415 344.946 244.169C345.678 243.97 346.337 243.568 346.848 243.007C347.358 242.447 347.698 241.753 347.828 241.007C347.934 240.256 347.82 239.492 347.499 238.805C347.178 238.119 346.664 237.54 346.021 237.14Z" fill="#E6E6E6"/>
<path d="M352.572 233.031L350.2 231.146C350.168 232.021 350.136 232.895 350.105 233.77L350.016 233.771C350.563 234.251 351.079 234.764 351.562 235.308C352.117 235.78 353.048 235.996 353.523 235.443C353.665 235.245 353.746 235.01 353.755 234.767C353.764 234.523 353.701 234.282 353.574 234.075C353.313 233.663 352.972 233.309 352.572 233.031Z" fill="#E6E6E6"/>
<path d="M309.718 151.025C308.723 150.994 307.622 150.933 306.85 151.563C306.596 151.789 306.374 152.049 306.188 152.334L305.916 152.715C305.509 153.247 305.155 153.818 304.857 154.418C304.701 154.699 304.608 155.011 304.583 155.331C304.558 155.652 304.602 155.974 304.713 156.276C304.776 156.42 304.871 156.549 304.99 156.653C305.109 156.756 305.249 156.833 305.401 156.876C305.553 156.92 305.712 156.929 305.868 156.905C306.024 156.88 306.173 156.821 306.303 156.732C306.729 156.338 306.629 155.624 306.951 155.142C307.092 154.96 307.274 154.814 307.482 154.714C307.69 154.615 307.918 154.565 308.148 154.569C308.608 154.581 309.066 154.632 309.516 154.724C310.764 154.895 312.034 154.705 313.178 154.177C314.321 153.649 315.289 152.806 315.969 151.745C316.648 150.685 317.009 149.453 317.01 148.194C317.011 146.935 316.651 145.702 315.973 144.641L315.893 144.397C315.204 144.37 314.528 144.586 313.981 145.007C313.435 145.428 313.054 146.027 312.904 146.7C312.681 147.859 313.153 149.206 312.45 150.154C311.858 150.954 310.714 151.056 309.718 151.025Z" fill="#E6E6E6"/>
<path d="M318.629 138.736L318.478 138.723C317.588 138.885 316.733 139.203 315.954 139.663C315.698 139.781 315.494 139.989 315.378 140.246C315.345 140.382 315.345 140.525 315.38 140.661C315.415 140.798 315.484 140.923 315.579 141.026C315.773 141.23 315.999 141.401 316.249 141.53C316.621 141.778 317.032 141.962 317.465 142.074C317.682 142.127 317.91 142.126 318.126 142.07C318.343 142.014 318.542 141.905 318.707 141.753C318.861 141.541 318.967 141.299 319.017 141.042C319.067 140.785 319.061 140.521 318.998 140.267C318.927 139.745 318.803 139.232 318.629 138.736Z" fill="#E6E6E6"/>
<path d="M303.289 151.322C303.527 150.941 303.696 150.521 303.788 150.081C303.881 149.74 303.974 149.399 304.067 149.058L303.075 148.455C302.601 148.702 302.164 149.013 301.776 149.381C301.583 149.566 301.43 149.789 301.328 150.035C301.225 150.282 301.175 150.548 301.18 150.815C301.194 151.082 301.297 151.337 301.474 151.537C301.651 151.738 301.891 151.873 302.154 151.92C302.379 151.927 302.601 151.875 302.8 151.77C302.999 151.666 303.167 151.511 303.289 151.322Z" fill="#E6E6E6"/>
<path d="M195.206 59.0976C194.813 59.3421 194.924 59.933 195.083 60.3669C195.266 60.865 195.449 61.3632 195.631 61.8613L195.887 60.8943C196.112 60.5193 196.211 60.0824 196.17 59.6473C196.081 59.2223 195.574 58.868 195.206 59.0976Z" fill="#E6E6E6"/>
<path d="M442.913 148.827H276.972C272.973 148.823 269.138 147.232 266.31 144.406C263.482 141.579 261.891 137.746 261.887 133.748V15.0794C261.891 11.0815 263.482 7.24862 266.31 4.42167C269.138 1.59472 272.973 0.00454811 276.972 0H442.913C446.913 0.00454638 450.747 1.59472 453.576 4.42167C456.404 7.24862 457.994 11.0815 457.999 15.0794V133.748C457.995 137.746 456.404 141.579 453.576 144.406C450.747 147.232 446.913 148.823 442.913 148.827Z" fill="white"/>
<path d="M442.913 148.827H276.972C272.973 148.823 269.138 147.232 266.31 144.406C263.482 141.579 261.891 137.746 261.887 133.748V15.0794C261.891 11.0815 263.482 7.24862 266.31 4.42167C269.138 1.59472 272.973 0.00454811 276.972 0H442.913C446.913 0.00454638 450.747 1.59472 453.576 4.42167C456.404 7.24862 457.994 11.0815 457.999 15.0794V133.748C457.995 137.746 456.404 141.579 453.576 144.406C450.747 147.232 446.913 148.823 442.913 148.827ZM276.972 1.31125C273.321 1.31535 269.819 2.76723 267.237 5.34837C264.655 7.92951 263.203 11.4291 263.199 15.0794V133.748C263.203 137.398 264.655 140.898 267.237 143.479C269.82 146.06 273.321 147.512 276.972 147.516H442.913C446.565 147.512 450.066 146.06 452.648 143.479C455.231 140.898 456.683 137.398 456.687 133.748V15.0794C456.683 11.4291 455.231 7.92951 452.648 5.34837C450.066 2.76723 446.565 1.31535 442.913 1.31125H276.972Z" fill="#3F3D56"/>
<path d="M322.121 18.0692H295.885C295.189 18.0692 294.522 17.7929 294.03 17.3011C293.538 16.8093 293.262 16.1423 293.262 15.4467C293.262 14.7512 293.538 14.0841 294.03 13.5923C294.522 13.1005 295.189 12.8242 295.885 12.8242H322.121C322.817 12.8242 323.484 13.1005 323.976 13.5923C324.468 14.0841 324.745 14.7512 324.745 15.4467C324.745 16.1423 324.468 16.8093 323.976 17.3011C323.484 17.7929 322.817 18.0692 322.121 18.0692Z" fill="#CCCCCC"/>
<path d="M379.184 77.0751H295.885C295.189 77.0751 294.522 76.7988 294.03 76.307C293.538 75.8152 293.262 75.1481 293.262 74.4526C293.262 73.7571 293.538 73.09 294.03 72.5982C294.522 72.1064 295.189 71.8301 295.885 71.8301H379.184C379.88 71.8301 380.547 72.1064 381.039 72.5982C381.531 73.09 381.807 73.7571 381.807 74.4526C381.807 75.1481 381.531 75.8152 381.039 76.307C380.547 76.7988 379.88 77.0751 379.184 77.0751Z" fill="#CCCCCC"/>
<path d="M310.641 60.5199C320.356 60.5199 328.231 52.6476 328.231 42.9367C328.231 33.2258 320.356 25.3535 310.641 25.3535C300.926 25.3535 293.051 33.2258 293.051 42.9367C293.051 52.6476 300.926 60.5199 310.641 60.5199Z" fill="#1D4496"/>
<path d="M297.197 127.156H293.262V128.468H297.197V127.156Z" fill="#3F3D56"/>
<path d="M412.746 128.468H404.492V127.156H412.746V128.468ZM396.239 128.468H387.985V127.156H396.239V128.468ZM379.732 128.468H371.478V127.156H379.732V128.468ZM363.225 128.468H354.972V127.156H363.225L363.225 128.468ZM346.718 128.468H338.465V127.156H346.718V128.468ZM330.211 128.468H321.958V127.156H330.212L330.211 128.468ZM313.705 128.468H305.451V127.156H313.705V128.468Z" fill="#3F3D56"/>
<path d="M424.933 127.156H420.998V128.468H424.933V127.156Z" fill="#3F3D56"/>
<path d="M360.057 103.955H356.777V126.246H360.057V103.955Z" fill="#6C63FF"/>
<path d="M393.508 103.955H390.229V126.246H393.508V103.955Z" fill="#D91678"/>
<path d="M409.904 116.412H406.625V126.247H409.904V116.412Z" fill="#6C63FF"/>
<path d="M376.455 94.1211H373.176V126.247H376.455V94.1211Z" fill="#D51678"/>
<path d="M48.9354 146.868C51.1088 146.868 52.8707 145.106 52.8707 142.934C52.8707 140.761 51.1088 139 48.9354 139C46.7619 139 45 140.761 45 142.934C45 145.106 46.7619 146.868 48.9354 146.868Z" fill="#6C63FF"/>
<path d="M226.935 120.868C229.109 120.868 230.871 119.106 230.871 116.934C230.871 114.761 229.109 113 226.935 113C224.762 113 223 114.761 223 116.934C223 119.106 224.762 120.868 226.935 120.868Z" fill="#6C63FF"/>
<path d="M195.935 147.868C198.109 147.868 199.871 146.106 199.871 143.934C199.871 141.761 198.109 140 195.935 140C193.762 140 192 141.761 192 143.934C192 146.106 193.762 147.868 195.935 147.868Z" fill="#D9AACE"/>
<path d="M94.6009 391.715L100.537 391.714L103.36 368.828L94.5996 368.829L94.6009 391.715Z" fill="#FFB6B6"/>
<path d="M94.3909 397.904L112.644 397.904V397.673C112.644 395.79 111.895 393.983 110.563 392.652C109.231 391.32 107.424 390.571 105.539 390.571L102.205 388.043L95.984 390.572L94.3906 390.572L94.3909 397.904Z" fill="#2F2E41"/>
<path d="M139.201 391.715L145.136 391.714L147.96 368.828L139.199 368.829L139.201 391.715Z" fill="#FFB6B6"/>
<path d="M138.993 397.904L157.246 397.904V397.673C157.246 395.79 156.497 393.983 155.165 392.652C153.832 391.32 152.025 390.571 150.141 390.571L146.806 388.043L140.586 390.572L138.992 390.572L138.993 397.904Z" fill="#2F2E41"/>
<path d="M94.3691 205.543L104.903 204.035C108.466 209.99 109.732 225.84 109.732 225.84L120.041 250.333C120.724 250.797 121.273 251.432 121.632 252.175C121.991 252.918 122.148 253.742 122.087 254.565C122.026 255.387 121.749 256.18 121.285 256.862C120.82 257.543 120.184 258.091 119.441 258.449C118.697 258.807 117.872 258.963 117.049 258.901C116.226 258.84 115.434 258.562 114.752 258.097C114.071 257.632 113.524 256.995 113.166 256.252C112.809 255.508 112.654 254.683 112.717 253.861L95.7902 225.352L94.3691 205.543Z" fill="#FFB6B6"/>
<path d="M100.08 176.31C98.4491 176.562 96.8944 177.171 95.5259 178.092C94.1574 179.013 93.0089 180.225 92.1621 181.64C91.3152 183.056 90.7909 184.64 90.6263 186.281C90.4617 187.922 90.661 189.579 91.21 191.135L93.4454 197.468C93.4454 197.468 90.6295 216.538 95.2702 221.922L109.51 220.633C109.51 220.633 106.907 211.012 108.906 206.357C110.13 203.506 110.062 193.659 108.856 185.649C107.935 179.533 106.194 175.363 100.08 176.31Z" fill="#E4A7CC"/>
<path d="M149.188 233.77C149.188 233.77 160.164 244.47 157.82 246.941C155.476 249.413 150.115 252.875 155.091 253.438C160.068 254.002 162.132 255.224 157.82 256.252C153.509 257.28 154.175 259.92 154.175 259.92C154.175 259.92 160.666 290.809 155.747 311.133C155.747 311.133 153.009 366.646 151.291 370.97C149.573 375.293 148.917 372.67 149.573 375.293C150.229 377.915 151.541 373.326 150.229 377.915C149.513 380.313 148.947 382.752 148.532 385.219L135.701 383.252C135.701 383.252 133.636 376.744 135.701 375.035C137.767 373.326 139.62 374.379 137.382 370.575C135.144 366.77 134.488 372.015 135.144 366.77C135.8 361.525 133.061 333.157 137.382 318.166L129.398 276.099L116.721 319.657C116.721 319.657 109.998 372.854 107.813 374.729C105.628 376.604 102.349 373.326 105.628 376.604C108.908 379.882 108.851 379.319 108.908 379.882C109.519 385.896 90.7407 379.319 90.7407 379.319C90.8451 377.791 90.8451 376.257 90.7407 374.729C90.5428 373.326 92.9062 372.877 90.7407 371.462C88.5752 370.048 91.7974 371.451 91.7974 371.451C91.7974 371.451 96.6398 332.205 100.324 320.312L104.587 262.396C104.587 262.396 104.858 263.552 104.587 260.744C104.317 257.936 102.349 259.903 104.317 257.936C106.284 255.969 107.596 254.967 106.284 253.501C104.973 252.035 101.354 249.07 103.491 247.274C105.628 245.479 109.834 233.77 109.834 233.77L150.828 234.097" fill="#2F2E41"/>
<path d="M133.774 168.749L126.382 160.43L114.703 161.727L107.225 172.187C103.245 173.102 99.7668 175.507 97.5063 178.907C95.2458 182.307 94.3749 186.443 95.0727 190.466C97.9745 207.168 107.836 223.367 104.58 231.608C99.6368 244.117 99.3352 249.219 111.167 247.465C122.999 245.711 162.637 241.668 154.952 233.986C147.267 226.305 145.579 213.468 145.579 213.468L145.271 184.099C145.598 182.328 145.554 180.508 145.143 178.755C144.732 177.001 143.963 175.351 142.883 173.91C141.803 172.468 140.436 171.265 138.868 170.377C137.301 169.489 135.566 168.935 133.774 168.749Z" fill="#D1ACCF"/>
<path d="M131.756 200.954L142.29 199.445C145.853 205.4 147.119 221.25 147.119 221.25L157.428 245.744C158.111 246.207 158.659 246.842 159.018 247.585C159.378 248.328 159.535 249.152 159.474 249.975C159.413 250.798 159.136 251.59 158.672 252.272C158.207 252.954 157.571 253.501 156.827 253.859C156.084 254.217 155.259 254.373 154.436 254.312C153.613 254.25 152.821 253.972 152.139 253.507C151.458 253.042 150.911 252.405 150.553 251.662C150.196 250.918 150.041 250.093 150.104 249.271L133.177 220.762L131.756 200.954Z" fill="#FFB6B6"/>
<path d="M137.464 171.72C135.834 171.972 134.279 172.581 132.911 173.502C131.542 174.423 130.394 175.635 129.547 177.05C128.7 178.466 128.176 180.05 128.011 181.691C127.847 183.332 128.046 184.989 128.595 186.545L130.83 192.878C130.83 192.878 128.014 211.949 132.655 217.332L146.895 216.043C146.895 216.043 144.292 206.422 146.29 201.767C147.515 198.916 147.447 189.069 146.24 181.059C145.319 174.943 143.579 170.773 137.464 171.72Z" fill="#E9A6CC"/>
<path d="M117.332 159.713C125.128 159.713 131.449 153.395 131.449 145.601C131.449 137.808 125.128 131.49 117.332 131.49C109.535 131.49 103.215 137.808 103.215 145.601C103.215 153.395 109.535 159.713 117.332 159.713Z" fill="#FFB6B6"/>
<path d="M114.735 159.414C118.666 158.43 118.8 157.307 122.732 156.322C123.984 156.008 125.434 155.515 125.805 154.279C125.894 153.827 125.876 153.361 125.753 152.917C125.63 152.473 125.406 152.064 125.098 151.721C124.479 151.043 123.899 150.33 123.36 149.586C123.004 148.988 122.798 148.313 122.761 147.618C122.724 146.923 122.857 146.229 123.149 145.597C123.44 144.965 123.881 144.414 124.434 143.99C124.986 143.567 125.634 143.284 126.32 143.166C127.536 142.958 128.79 143.281 130.014 143.125C131.693 142.911 134.162 136.685 133.086 135.38C132.038 134.109 130.319 133.351 129.741 131.809C129.363 130.8 129.57 129.672 129.402 128.609C129.152 127.032 125.959 131.398 126.384 129.859C127.427 126.083 109.788 125.489 107.951 130.333C107.265 132.143 105.407 132.431 103.978 133.738C103.041 134.594 100.801 137.335 100.476 138.812C100.207 140.306 100.259 141.84 100.628 143.312C102.093 150.213 104.514 156.329 110.959 159.204" fill="#2F2E41"/>
<path d="M3.41213 398.798L259.031 398.999C259.134 398.999 259.235 398.979 259.33 398.94C259.425 398.901 259.512 398.844 259.585 398.771C259.657 398.699 259.715 398.613 259.754 398.518C259.794 398.423 259.814 398.321 259.814 398.218C259.814 398.116 259.794 398.014 259.754 397.919C259.715 397.824 259.657 397.738 259.585 397.666C259.512 397.593 259.425 397.536 259.33 397.497C259.235 397.457 259.134 397.438 259.031 397.438L3.41213 397.236C3.30939 397.236 3.20759 397.256 3.11258 397.295C3.01757 397.334 2.9312 397.392 2.85844 397.464C2.78568 397.537 2.72796 397.623 2.68857 397.718C2.64919 397.813 2.62891 397.914 2.62891 398.017C2.62891 398.12 2.64919 398.221 2.68857 398.316C2.72796 398.411 2.78568 398.497 2.85844 398.57C2.9312 398.642 3.01757 398.7 3.11258 398.739C3.20759 398.778 3.30939 398.798 3.41213 398.798Z" fill="#CACACA"/>
</g>
<defs>
<clipPath id="clip0_380_4984">
<rect width="458" height="399" fill="white"/>
</clipPath>
</defs>
</svg>
