<svg width="445" height="267" viewBox="0 0 445 267" fill="none" xmlns="http://www.w3.org/2000/svg">
<g clip-path="url(#clip0_562_934)">
<path d="M27.9825 55.9651C22.4481 55.9651 17.038 54.3239 12.4363 51.2492C7.83458 48.1744 4.24799 43.8041 2.13006 38.691C0.0121244 33.5779 -0.542023 27.9515 0.537689 22.5234C1.6174 17.0953 4.28249 12.1093 8.19591 8.19591C12.1093 4.28248 17.0954 1.6174 22.5234 0.537689C27.9515 -0.542023 33.5779 0.0121244 38.691 2.13006C43.8041 4.24799 48.1744 7.83458 51.2492 12.4363C54.3239 17.038 55.9651 22.4481 55.9651 27.9825C55.9567 35.4014 53.0058 42.514 47.7599 47.7599C42.514 53.0058 35.4014 55.9567 27.9825 55.9651ZM27.9825 1.16595C22.6787 1.16595 17.494 2.73872 13.084 5.68536C8.67408 8.63201 5.23693 12.8202 3.20725 17.7203C1.17756 22.6204 0.646505 28.0123 1.68123 33.2142C2.71595 38.4161 5.26998 43.1944 9.02035 46.9447C12.7707 50.6951 17.549 53.2491 22.7509 54.2839C27.9528 55.3186 33.3447 54.7875 38.2448 52.7578C43.1449 50.7282 47.3331 47.291 50.2797 42.8811C53.2264 38.4711 54.7991 33.2864 54.7991 27.9825C54.7911 20.8728 51.9632 14.0566 46.9358 9.02925C41.9085 4.00191 35.0923 1.17401 27.9825 1.16595Z" fill="#F2F2F2"/>
<path d="M218.03 39.6417C215.263 39.6417 212.558 38.8211 210.257 37.2838C207.956 35.7464 206.163 33.5612 205.104 31.0047C204.045 28.4481 203.768 25.6349 204.308 22.9209C204.848 20.2069 206.18 17.7138 208.137 15.7571C210.094 13.8004 212.587 12.4679 215.301 11.928C218.015 11.3882 220.828 11.6652 223.385 12.7242C225.941 13.7832 228.126 15.5765 229.664 17.8773C231.201 20.1782 232.022 22.8832 232.022 25.6505C232.017 29.3599 230.542 32.9162 227.919 35.5391C225.296 38.1621 221.74 39.6375 218.03 39.6417ZM218.03 12.8251C215.494 12.8251 213.014 13.5773 210.905 14.9866C208.796 16.3959 207.152 18.3989 206.181 20.7424C205.211 23.0859 204.957 25.6647 205.451 28.1526C205.946 30.6404 207.168 32.9257 208.961 34.7193C210.755 36.513 213.04 37.7345 215.528 38.2293C218.016 38.7242 220.595 38.4702 222.938 37.4995C225.282 36.5288 227.285 34.8849 228.694 32.7758C230.103 30.6667 230.856 28.1871 230.856 25.6505C230.852 22.2501 229.499 18.9902 227.095 16.5858C224.691 14.1814 221.431 12.829 218.03 12.8251Z" fill="#F2F2F2"/>
<path d="M316.553 107.849C313.44 107.849 310.396 106.926 307.808 105.197C305.219 103.467 303.202 101.009 302.011 98.1328C300.819 95.2567 300.508 92.0919 301.115 89.0386C301.722 85.9853 303.221 83.1806 305.423 80.9793C307.624 78.778 310.429 77.2789 313.482 76.6716C316.535 76.0643 319.7 76.376 322.576 77.5673C325.452 78.7586 327.911 80.7761 329.64 83.3645C331.37 85.953 332.293 88.9962 332.293 92.1093C332.288 96.2824 330.628 100.283 327.677 103.234C324.727 106.185 320.726 107.845 316.553 107.849ZM316.553 77.5351C313.67 77.5351 310.852 78.3898 308.456 79.9913C306.059 81.5927 304.191 83.8689 303.088 86.532C301.985 89.1951 301.696 92.1255 302.258 94.9526C302.821 97.7797 304.209 100.377 306.247 102.415C308.285 104.453 310.882 105.841 313.709 106.404C316.537 106.966 319.467 106.677 322.13 105.574C324.793 104.471 327.069 102.603 328.671 100.206C330.272 97.8096 331.127 94.9918 331.127 92.1093C331.123 88.2453 329.586 84.5408 326.853 81.8086C324.121 79.0763 320.417 77.5394 316.553 77.5351Z" fill="#F2F2F2"/>
<path d="M444.255 267H313.087C312.932 267 312.784 266.938 312.675 266.829C312.565 266.72 312.504 266.572 312.504 266.417C312.504 266.262 312.565 266.114 312.675 266.005C312.784 265.895 312.932 265.834 313.087 265.834H444.255C444.41 265.834 444.558 265.895 444.667 266.005C444.777 266.114 444.838 266.262 444.838 266.417C444.838 266.572 444.777 266.72 444.667 266.829C444.558 266.938 444.41 267 444.255 267Z" fill="#CCCCCC"/>
<path d="M373.635 89.3383C381.543 89.3383 387.953 82.9278 387.953 75.02C387.953 67.1122 381.543 60.7017 373.635 60.7017C365.727 60.7017 359.316 67.1122 359.316 75.02C359.316 82.9278 365.727 89.3383 373.635 89.3383Z" fill="#FFB8B8"/>
<path d="M375.121 245.047L368.354 247.345L356.268 222.336L366.256 218.944L375.121 245.047Z" fill="#FFB8B8"/>
<path d="M362.862 247.054L375.913 242.621L378.705 250.838L357.436 258.062C357.069 256.983 356.919 255.842 356.993 254.705C357.067 253.568 357.365 252.456 357.869 251.434C358.373 250.412 359.073 249.499 359.93 248.747C360.787 247.996 361.783 247.42 362.862 247.054Z" fill="#2F2E41"/>
<path d="M390.411 259.174L383.273 259.532L378.492 232.171L389.028 231.641L390.411 259.174Z" fill="#FFB8B8"/>
<path d="M378.072 257.749L391.838 257.057L392.274 265.725L369.84 266.852C369.783 265.714 369.95 264.576 370.333 263.502C370.716 262.429 371.306 261.441 372.071 260.596C372.835 259.75 373.758 259.064 374.788 258.575C375.818 258.087 376.934 257.806 378.072 257.749Z" fill="#2F2E41"/>
<path d="M347.934 168.263C348.574 167.693 349.081 166.989 349.42 166.202C349.759 165.415 349.921 164.563 349.895 163.706C349.869 162.85 349.655 162.009 349.269 161.244C348.883 160.479 348.334 159.808 347.661 159.278L354.466 139.588L343.978 142.269L339.123 160.555C338.308 161.746 337.957 163.194 338.138 164.625C338.319 166.057 339.019 167.372 340.105 168.322C341.191 169.272 342.588 169.791 344.031 169.78C345.473 169.769 346.862 169.229 347.934 168.263Z" fill="#FFB8B8"/>
<path d="M389.744 250.924C389.652 250.924 389.56 250.919 389.468 250.909L379.779 249.883C379.183 249.823 378.627 249.56 378.203 249.138C377.778 248.717 377.512 248.162 377.448 247.567L369.96 180.811L364.542 199.078L374.644 234.979C374.746 235.345 374.769 235.729 374.709 236.104C374.649 236.479 374.508 236.836 374.297 237.152C374.085 237.467 373.807 237.733 373.483 237.93C373.159 238.128 372.795 238.253 372.418 238.296L362.596 239.425C361.971 239.494 361.341 239.337 360.821 238.983C360.301 238.629 359.925 238.1 359.761 237.492L349.029 197.091C348.941 196.759 348.919 196.413 348.964 196.072L353.788 159.812L389.765 162.697L392.367 248.22C392.377 248.572 392.318 248.921 392.191 249.249C392.064 249.576 391.872 249.875 391.628 250.127C391.383 250.379 391.09 250.58 390.767 250.717C390.443 250.853 390.096 250.924 389.744 250.924Z" fill="#2F2E41"/>
<path d="M377.308 168.897C365.255 168.897 351.608 164.24 350.782 163.954L350.543 163.871L364.141 94.0991L364.391 94.1094C369.78 94.328 384.485 94.4401 384.633 94.4413L384.897 94.4433L390.565 156.016L391.578 165.022L391.454 165.122C387.987 167.926 382.814 168.897 377.308 168.897Z" fill="#6C63FF"/>
<path d="M355.532 162.867L347.027 159.442L351.362 107.007C351.467 105.714 351.86 104.462 352.513 103.341C353.166 102.221 354.063 101.262 355.137 100.534L359.612 97.4884C359.485 97.0577 359.463 96.6032 359.546 96.1621C359.629 95.721 359.815 95.3059 360.09 94.9509C360.365 94.5958 360.72 94.311 361.126 94.1198C361.532 93.9286 361.978 93.8364 362.426 93.8508L363.708 93.8921C363.952 93.7278 364.239 93.641 364.533 93.6431C364.827 93.6452 365.113 93.7361 365.355 93.9038C365.596 94.0715 365.781 94.3083 365.885 94.583C365.989 94.8577 366.008 95.1575 365.939 95.4431L365.658 100.998L355.532 162.867Z" fill="#2F2E41"/>
<path d="M351.24 153.467L340.135 153L343.732 129.86L346.713 108.087C346.772 107.305 347.006 106.547 347.399 105.868C347.792 105.19 348.333 104.609 348.982 104.169C349.631 103.729 350.372 103.442 351.147 103.328C351.923 103.215 352.714 103.278 353.462 103.513C354.627 103.879 355.626 104.643 356.284 105.671C356.943 106.699 357.218 107.926 357.062 109.137L354.042 132.728L351.24 153.467Z" fill="#2F2E41"/>
<path d="M368.824 163.669L368.749 163.436C368.697 163.276 363.693 147.222 372.067 128.066L376.266 107.18L379.855 94.0666C379.922 93.8323 380.043 93.6168 380.208 93.4374C380.373 93.258 380.578 93.1195 380.806 93.0331C381.074 92.9403 381.363 92.9285 381.637 92.999C381.912 93.0696 382.16 93.2194 382.35 93.4298C384.851 92.6955 387.54 92.9644 389.846 94.1794L394.886 96.8342C396.007 97.4245 396.9 98.3699 397.425 99.5222C397.951 100.675 398.079 101.969 397.79 103.202L390.902 132.597L394.25 160.053L368.824 163.669Z" fill="#2F2E41"/>
<path d="M376.157 152.352C377.009 152.445 377.871 152.349 378.682 152.073C379.493 151.796 380.234 151.345 380.852 150.751C381.47 150.157 381.95 149.435 382.259 148.636C382.567 147.836 382.697 146.979 382.638 146.124L398.236 134.569L392.784 131.984L375.965 140.648C374.535 140.842 373.226 141.553 372.285 142.647C371.345 143.742 370.838 145.143 370.862 146.586C370.886 148.028 371.438 149.412 372.414 150.475C373.39 151.538 374.722 152.206 376.157 152.352Z" fill="#FFB8B8"/>
<path d="M385.936 147.18L380.668 137.345L393.661 128.794L387.32 106.053C387.066 105.142 387.003 104.189 387.134 103.253C387.265 102.317 387.587 101.418 388.081 100.612C388.575 99.8062 389.23 99.1108 390.005 98.5693C390.78 98.0278 391.658 97.6519 392.584 97.465C394.222 97.1387 395.922 97.4176 397.37 98.25C398.817 99.0825 399.913 100.412 400.455 101.991L409.009 127.138C409.186 127.656 409.196 128.216 409.038 128.74C408.88 129.264 408.562 129.726 408.128 130.06L385.936 147.18Z" fill="#2F2E41"/>
<path d="M374.647 78.0569C372.931 78.2802 371.636 76.5241 371.035 74.9007C370.435 73.2773 369.977 71.3874 368.485 70.5105C366.446 69.3125 363.838 70.7534 361.506 70.3581C358.873 69.9117 357.161 67.1213 357.027 64.4542C356.893 61.787 357.954 59.2218 358.996 56.7627L359.359 59.8188C359.311 58.783 359.529 57.7521 359.992 56.8246C360.456 55.8971 361.15 55.1041 362.008 54.5215L361.539 59.0058C361.639 58.3871 361.86 57.7942 362.189 57.2611C362.519 56.7281 362.95 56.2653 363.459 55.8994C363.968 55.5335 364.544 55.2716 365.154 55.1288C365.764 54.9861 366.396 54.9653 367.015 55.0675L366.941 57.7395C369.982 57.3779 373.05 57.0157 376.1 57.2912C379.15 57.5667 382.221 58.5318 384.533 60.5405C387.991 63.5452 389.254 68.4927 388.83 73.0541C388.406 77.6154 386.523 81.9005 384.56 86.0399C384.067 87.0813 383.384 88.2566 382.239 88.3892C381.21 88.5084 380.269 87.6485 379.949 86.6635C379.702 85.6528 379.712 84.5967 379.977 83.5906C380.266 82.0532 380.631 80.4817 380.359 78.9411C380.087 77.4005 378.978 75.8781 377.425 75.6892C375.872 75.5004 374.283 77.2756 375.03 78.6504L374.647 78.0569Z" fill="#2F2E41"/>
<path d="M187.314 235.273L181.74 232.926L177.917 204.986H127L122.856 232.812L117.869 235.306C117.631 235.425 117.439 235.621 117.326 235.863C117.213 236.104 117.185 236.377 117.247 236.637C117.308 236.896 117.455 237.128 117.664 237.293C117.873 237.459 118.132 237.549 118.399 237.549H186.854C187.128 237.549 187.393 237.454 187.604 237.281C187.816 237.108 187.961 236.867 188.015 236.599C188.069 236.331 188.029 236.053 187.901 235.811C187.773 235.569 187.566 235.379 187.314 235.273Z" fill="#E6E6E6"/>
<path d="M277.797 208.703H27.6805C26.3682 208.7 25.1107 208.177 24.1838 207.248C23.2569 206.319 22.7363 205.06 22.7363 203.748V168.478H282.741V203.748C282.741 205.06 282.22 206.319 281.293 207.248C280.366 208.177 279.109 208.7 277.797 208.703Z" fill="#CCCCCC"/>
<path d="M283.002 185.148H22.5078V34.2361C22.5096 32.6524 23.1396 31.1341 24.2595 30.0142C25.3794 28.8944 26.8978 28.2645 28.4815 28.2627H277.028C278.612 28.2645 280.13 28.8944 281.25 30.0142C282.37 31.1341 283 32.6524 283.002 34.2361V185.148Z" fill="#3F3D56"/>
<path d="M267.444 174.194H38.0662C36.8452 174.193 35.6747 173.707 34.8113 172.844C33.948 171.98 33.4623 170.81 33.4609 169.589V43.8207C33.4623 42.5997 33.9479 41.4292 34.8113 40.5658C35.6746 39.7024 36.8452 39.2167 38.0662 39.2153H267.444C268.665 39.2167 269.835 39.7024 270.699 40.5658C271.562 41.4292 272.048 42.5997 272.049 43.8207V169.589C272.048 170.81 271.562 171.98 270.699 172.844C269.835 173.707 268.665 174.193 267.444 174.194Z" fill="white"/>
<path d="M265.286 237.84H43.1748C43.0202 237.84 42.8719 237.779 42.7625 237.67C42.6532 237.56 42.5918 237.412 42.5918 237.257C42.5918 237.103 42.6532 236.954 42.7625 236.845C42.8719 236.736 43.0202 236.674 43.1748 236.674H265.286C265.441 236.674 265.589 236.736 265.698 236.845C265.808 236.954 265.869 237.103 265.869 237.257C265.869 237.412 265.808 237.56 265.698 237.67C265.589 237.779 265.441 237.84 265.286 237.84Z" fill="#CCCCCC"/>
<path d="M245.896 158.568H59.6162C59.4616 158.568 59.3133 158.506 59.2039 158.397C59.0946 158.288 59.0332 158.139 59.0332 157.985V68.7011C59.0332 68.5465 59.0946 68.3982 59.2039 68.2889C59.3133 68.1796 59.4616 68.1182 59.6162 68.1182C59.7708 68.1182 59.9191 68.1796 60.0284 68.2889C60.1377 68.3982 60.1991 68.5465 60.1991 68.7011V157.402H245.896C246.05 157.402 246.198 157.463 246.308 157.573C246.417 157.682 246.479 157.83 246.479 157.985C246.479 158.139 246.417 158.288 246.308 158.397C246.198 158.506 246.05 158.568 245.896 158.568Z" fill="#3F3D56"/>
<path d="M99.4156 152.155H82.4727C82.0139 152.154 81.5741 151.972 81.2497 151.648C80.9252 151.323 80.7427 150.883 80.7422 150.425V127.069C80.7427 126.61 80.9252 126.17 81.2497 125.846C81.5741 125.521 82.0139 125.339 82.4727 125.338H99.4156C99.8744 125.339 100.314 125.521 100.639 125.846C100.963 126.17 101.146 126.61 101.146 127.069V150.425C101.146 150.883 100.963 151.323 100.639 151.648C100.314 151.972 99.8744 152.154 99.4156 152.155Z" fill="#1E4495"/>
<path d="M130.312 152.155H113.369C112.91 152.154 112.471 151.972 112.146 151.648C111.822 151.323 111.639 150.883 111.639 150.425V104.916C111.639 104.457 111.822 104.017 112.146 103.693C112.471 103.369 112.91 103.186 113.369 103.186H130.312C130.771 103.186 131.211 103.369 131.535 103.693C131.86 104.017 132.042 104.457 132.043 104.916V150.425C132.042 150.883 131.86 151.323 131.535 151.648C131.211 151.972 130.771 152.154 130.312 152.155Z" fill="#802B86"/>
<path d="M161.209 152.155H144.266C143.807 152.154 143.367 151.972 143.043 151.648C142.718 151.323 142.536 150.883 142.535 150.425V127.069C142.536 126.61 142.718 126.17 143.043 125.846C143.367 125.521 143.807 125.339 144.266 125.338H161.209C161.667 125.339 162.107 125.521 162.432 125.846C162.756 126.17 162.939 126.61 162.939 127.069V150.425C162.939 150.883 162.756 151.323 162.432 151.648C162.107 151.972 161.667 152.154 161.209 152.155Z" fill="#7D2C86"/>
<path d="M192.107 152.155H175.164C174.716 152.165 174.282 151.996 173.958 151.687C173.633 151.377 173.445 150.952 173.434 150.503V96.0933C173.445 95.645 173.633 95.2194 173.958 94.9098C174.282 94.6001 174.716 94.4317 175.164 94.4413H192.107C192.555 94.4317 192.989 94.6001 193.314 94.9098C193.638 95.2194 193.826 95.645 193.838 96.0933V150.503C193.826 150.952 193.638 151.377 193.314 151.687C192.989 151.996 192.555 152.165 192.107 152.155Z" fill="#A42380"/>
<path d="M223.003 152.155H206.061C205.602 152.154 205.162 151.972 204.838 151.647C204.513 151.323 204.331 150.883 204.33 150.424V80.4311C204.331 79.9723 204.513 79.5325 204.838 79.2081C205.162 78.8837 205.602 78.7012 206.061 78.7007H223.003C223.462 78.7012 223.902 78.8837 224.227 79.2081C224.551 79.5325 224.733 79.9723 224.734 80.4311V150.424C224.733 150.883 224.551 151.323 224.227 151.647C223.902 151.972 223.462 152.154 223.003 152.155Z" fill="#D61678"/>
<path d="M90.9431 118.343C92.8749 118.343 94.4409 116.777 94.4409 114.845C94.4409 112.913 92.8749 111.347 90.9431 111.347C89.0113 111.347 87.4453 112.913 87.4453 114.845C87.4453 116.777 89.0113 118.343 90.9431 118.343Z" fill="#3F3D56"/>
<path d="M121.842 95.607C123.773 95.607 125.339 94.0409 125.339 92.1091C125.339 90.1774 123.773 88.6113 121.842 88.6113C119.91 88.6113 118.344 90.1774 118.344 92.1091C118.344 94.0409 119.91 95.607 121.842 95.607Z" fill="#3F3D56"/>
<path d="M152.738 118.343C154.67 118.343 156.236 116.777 156.236 114.845C156.236 112.913 154.67 111.347 152.738 111.347C150.806 111.347 149.24 112.913 149.24 114.845C149.24 116.777 150.806 118.343 152.738 118.343Z" fill="#3F3D56"/>
<path d="M183.635 84.5308C185.566 84.5308 187.132 82.9648 187.132 81.033C187.132 79.1012 185.566 77.5352 183.635 77.5352C181.703 77.5352 180.137 79.1012 180.137 81.033C180.137 82.9648 181.703 84.5308 183.635 84.5308Z" fill="#3F3D56"/>
<path d="M214.533 71.7051C216.465 71.7051 218.031 70.1391 218.031 68.2073C218.031 66.2755 216.465 64.7095 214.533 64.7095C212.601 64.7095 211.035 66.2755 211.035 68.2073C211.035 70.1391 212.601 71.7051 214.533 71.7051Z" fill="#3F3D56"/>
<path d="M152.812 115.628L121.841 92.4309L91.2933 115.311L90.5938 114.379L121.841 90.9741L152.665 114.061L183.295 80.5418L183.418 80.4917L214.315 68.043L214.751 69.1244L183.977 81.5235L152.812 115.628Z" fill="#3F3D56"/>
</g>
<defs>
<clipPath id="clip0_562_934">
<rect width="444.839" height="267" fill="white"/>
</clipPath>
</defs>
</svg>
