<svg width="474" height="288" viewBox="0 0 474 288" fill="none" xmlns="http://www.w3.org/2000/svg">
<g clip-path="url(#clip0_562_1093)">
<path d="M19.9835 262.956C21.9745 263.656 24.1123 263.831 26.1908 263.465C28.2693 263.099 30.2185 262.204 31.8506 260.866C36.0071 257.378 37.3105 251.633 38.3705 246.312L41.5069 230.574L34.9407 235.094C30.2185 238.345 25.3901 241.7 22.1208 246.409C18.8514 251.117 17.4251 257.545 20.0512 262.64" fill="#7E85BA"/>
<path d="M20.9981 283.103C20.1717 277.083 19.3213 270.986 19.9024 264.901C20.4174 259.498 22.0664 254.221 25.4234 249.892C27.2053 247.6 29.3735 245.635 31.8306 244.087C32.4712 243.683 33.0609 244.698 32.4231 245.101C28.1715 247.787 24.883 251.754 23.0317 256.429C20.9871 261.628 20.6588 267.296 21.011 272.819C21.2239 276.159 21.6762 279.476 22.1305 282.791C22.1664 282.94 22.144 283.098 22.0679 283.232C21.9918 283.366 21.8676 283.466 21.7205 283.512C21.5704 283.553 21.4104 283.532 21.2752 283.456C21.1401 283.379 21.0406 283.252 20.9985 283.102L20.9981 283.103Z" fill="#F2F2F2"/>
<path d="M26.9473 273.444C27.8011 274.742 28.9748 275.798 30.3554 276.511C31.7361 277.223 33.277 277.568 34.8297 277.513C38.8211 277.323 42.1472 274.54 45.141 271.896L53.9982 264.077L48.1365 263.797C43.9209 263.595 39.5966 263.405 35.5814 264.707C31.5663 266.008 27.8633 269.134 27.1292 273.29" fill="#7E85BA"/>
<path d="M18.6631 286.565C22.6419 279.527 27.2566 271.704 35.503 269.204C37.7957 268.511 40.1997 268.263 42.5856 268.473C43.3377 268.538 43.1499 269.696 42.3994 269.632C38.3999 269.3 34.4082 270.356 31.0961 272.622C27.9089 274.791 25.4273 277.806 23.3271 281.004C22.0405 282.962 20.8881 285.004 19.7357 287.043C19.3675 287.695 18.2906 287.224 18.6631 286.565Z" fill="#F2F2F2"/>
<path d="M418.002 9.01953H88.9453V165.13H418.002V9.01953Z" fill="#E6E6E6"/>
<path d="M408.59 22.4062H98.3516V152.654H408.59V22.4062Z" fill="white"/>
<path d="M417.862 0H88.8047V13.9764H417.862V0Z" fill="#7C85BA"/>
<path d="M99.1906 9.05595C100.622 9.05595 101.782 7.89615 101.782 6.46547C101.782 5.0348 100.622 3.875 99.1906 3.875C97.7596 3.875 96.5996 5.0348 96.5996 6.46547C96.5996 7.89615 97.7596 9.05595 99.1906 9.05595Z" fill="white"/>
<path d="M109.027 9.05595C110.458 9.05595 111.618 7.89615 111.618 6.46547C111.618 5.0348 110.458 3.875 109.027 3.875C107.596 3.875 106.436 5.0348 106.436 6.46547C106.436 7.89615 107.596 9.05595 109.027 9.05595Z" fill="white"/>
<path d="M118.862 9.05595C120.293 9.05595 121.454 7.89615 121.454 6.46547C121.454 5.0348 120.293 3.875 118.862 3.875C117.432 3.875 116.271 5.0348 116.271 6.46547C116.271 7.89615 117.432 9.05595 118.862 9.05595Z" fill="white"/>
<path d="M171.625 122.18H328.423V95.311C328.399 92.4778 327.81 89.6779 326.689 87.0756C325.568 84.4733 323.939 82.121 321.896 80.1568L321.854 80.1152C319.053 77.3058 309.694 70.1758 300.01 70.7803C294.895 71.0987 290.515 73.5634 286.994 78.1061C276.032 92.2514 261.632 87.4766 254.025 83.3715C247.32 79.7529 240.473 78.0546 233.672 78.3249C224.147 78.6972 210.741 82.2053 200.964 96.8035C197.23 102.375 189.109 109.937 171.625 114.381V122.18Z" fill="#E4E4E4"/>
<path d="M337.296 122.805H171.928C171.79 122.805 171.659 122.75 171.562 122.653C171.465 122.556 171.41 122.424 171.41 122.287V43.0428C171.41 42.9056 171.465 42.774 171.562 42.6769C171.659 42.5799 171.79 42.5254 171.928 42.5254C172.065 42.5254 172.197 42.5799 172.294 42.6769C172.391 42.774 172.445 42.9056 172.445 43.0428V121.77H337.296C337.433 121.77 337.564 121.824 337.662 121.921C337.759 122.018 337.813 122.15 337.813 122.287C337.813 122.424 337.759 122.556 337.662 122.653C337.564 122.75 337.433 122.805 337.296 122.805Z" fill="#3F3D56"/>
<path d="M203.384 92.332H202.369V122.077H203.384V92.332Z" fill="#3F3D56"/>
<path d="M233.771 78.4395H232.756V122.077H233.771V78.4395Z" fill="#3F3D56"/>
<path d="M264.224 87.5723H263.209V122.076H264.224V87.5723Z" fill="#3F3D56"/>
<path d="M294.673 70.8281H293.658V122.077H294.673V70.8281Z" fill="#3F3D56"/>
<path d="M325.124 82.498H324.109V122.076H325.124V82.498Z" fill="#3F3D56"/>
<path d="M233.328 82.2422C235.043 82.2422 236.433 80.8523 236.433 79.1377C236.433 77.4231 235.043 76.0332 233.328 76.0332C231.613 76.0332 230.223 77.4231 230.223 79.1377C230.223 80.8523 231.613 82.2422 233.328 82.2422Z" fill="#6C63FF"/>
<path d="M294.228 74.125C295.943 74.125 297.333 72.7351 297.333 71.0205C297.333 69.3059 295.943 67.916 294.228 67.916C292.513 67.916 291.123 69.3059 291.123 71.0205C291.123 72.7351 292.513 74.125 294.228 74.125Z" fill="#6C63FF"/>
<path d="M263.779 90.8692C265.494 90.8692 266.884 89.4792 266.884 87.7647C266.884 86.0501 265.494 84.6602 263.779 84.6602C262.064 84.6602 260.674 86.0501 260.674 87.7647C260.674 89.4792 262.064 90.8692 263.779 90.8692Z" fill="#6C63FF"/>
<path d="M202.875 95.4356C204.59 95.4356 205.98 94.0456 205.98 92.3311C205.98 90.6165 204.59 89.2266 202.875 89.2266C201.16 89.2266 199.77 90.6165 199.77 92.3311C199.77 94.0456 201.16 95.4356 202.875 95.4356Z" fill="#6C63FF"/>
<path d="M324.679 85.2871C326.394 85.2871 327.785 83.8972 327.785 82.1826C327.785 80.4681 326.394 79.0781 324.679 79.0781C322.964 79.0781 321.574 80.4681 321.574 82.1826C321.574 83.8972 322.964 85.2871 324.679 85.2871Z" fill="#6C63FF"/>
<path d="M69.4854 281.852H75.7076L78.6674 257.857L69.4844 257.858L69.4854 281.852Z" fill="#FFB6B6"/>
<path d="M67.8984 279.821L80.152 279.82C82.223 279.82 84.2096 280.643 85.674 282.107C87.1385 283.571 87.9612 285.557 87.9614 287.628V287.881L67.8988 287.882L67.8984 279.821Z" fill="#2F2E41"/>
<path d="M98.9229 281.852H105.145L108.105 257.857L98.9219 257.858L98.9229 281.852Z" fill="#FFB6B6"/>
<path d="M97.334 279.821L109.588 279.82C111.659 279.82 113.645 280.643 115.11 282.107C116.574 283.571 117.397 285.557 117.397 287.628V287.881L97.3344 287.882L97.334 279.821Z" fill="#2F2E41"/>
<path d="M110.534 172.156C111.06 171.557 111.448 170.85 111.671 170.085C111.894 169.32 111.947 168.516 111.825 167.728C111.704 166.941 111.411 166.189 110.967 165.527C110.524 164.865 109.941 164.308 109.259 163.895L99.1329 115.291L88.1016 119.636L101.524 166.047C100.906 167.238 100.748 168.614 101.078 169.915C101.408 171.215 102.204 172.349 103.314 173.103C104.425 173.856 105.773 174.175 107.104 174.001C108.434 173.826 109.655 173.17 110.534 172.156Z" fill="#FFB6B6"/>
<path d="M62.8137 162.797L58.2275 167.452C58.2275 167.452 53.3105 185.466 62.7195 207.684L69.0127 272.1L80.3354 272.952L83.7155 198.01L99.3115 222.886L96.5874 272.686L109.103 272.398L114.76 217.216L99.3115 159.633L62.8137 162.797Z" fill="#2F2E41"/>
<path d="M78.849 169.067C71.9431 169.019 65.046 168.563 58.1938 167.703L57.918 167.666L64.7525 137.635L62.3991 98.995L84.6221 98.2339C86.6339 98.1609 88.6017 98.8335 90.1477 100.123C91.6938 101.412 92.7091 103.226 92.9988 105.218L97.5471 136.046L101.754 163.396L101.698 163.479C98.6745 167.911 88.5656 169.067 78.849 169.067Z" fill="#D1ACCF"/>
<path d="M82.6016 104.626L87.1169 98.9664C87.1169 98.9664 95.0326 93.5543 97.5378 105.152C100.043 116.749 104.698 135.576 104.698 135.576L89.2193 136.829L82.6016 104.626Z" fill="#D8AACE"/>
<path d="M39.8122 172.664C39.2863 172.065 38.8981 171.358 38.675 170.593C38.4519 169.828 38.3993 169.024 38.5208 168.236C38.6424 167.448 38.9352 166.697 39.3786 166.035C39.822 165.373 40.4053 164.816 41.0873 164.403L51.213 115.799L62.2443 120.144L48.8224 166.554C49.4395 167.746 49.598 169.122 49.2679 170.423C48.9379 171.723 48.1421 172.857 47.0315 173.61C45.9209 174.363 44.5725 174.683 43.242 174.509C41.9114 174.334 40.6911 173.678 39.8122 172.664Z" fill="#FFB6B6"/>
<path d="M67.7464 105.131L63.2311 99.4722C63.2311 99.4722 55.3153 94.0602 52.8101 105.658C50.3049 117.255 45.6504 136.082 45.6504 136.082L61.1287 137.335L67.7464 105.131Z" fill="#D8AACE"/>
<path d="M86.7746 92.5822H57.3385C56.733 92.5815 56.1525 92.3407 55.7244 91.9127C55.2962 91.4846 55.0554 90.9042 55.0547 90.2988V77.6135C55.0547 73.1053 56.8459 68.7817 60.0344 65.5939C63.2229 62.4061 67.5474 60.6152 72.0565 60.6152C76.5657 60.6152 80.8902 62.4061 84.0787 65.5939C87.2671 68.7817 89.0584 73.1053 89.0584 77.6135V90.2988C89.0577 90.9042 88.8169 91.4846 88.3887 91.9127C87.9605 92.3407 87.3801 92.5815 86.7746 92.5822Z" fill="#2F2E41"/>
<path d="M75.307 91.8197C82.1913 91.8197 87.7721 86.24 87.7721 79.3571C87.7721 72.4742 82.1913 66.8945 75.307 66.8945C68.4226 66.8945 62.8418 72.4742 62.8418 79.3571C62.8418 86.24 68.4226 91.8197 75.307 91.8197Z" fill="#FFB6B6"/>
<path d="M93.0806 78.8837H75.0811L74.8965 76.3001L73.9737 78.8837H71.2021L70.8364 73.763L69.0073 78.8837H63.6445V78.63C63.6485 75.065 65.0668 71.6472 67.5881 69.1264C70.1094 66.6056 73.5279 65.1876 77.0936 65.1836H79.6313C83.1971 65.1876 86.6156 66.6056 89.1369 69.1264C91.6583 71.6472 93.0765 75.065 93.0806 78.63V78.8837Z" fill="#2F2E41"/>
<path d="M74.9338 94.9512C74.7983 94.9511 74.663 94.9392 74.5296 94.9156L61.3496 92.5906V70.8125H75.8582L75.499 71.2312C70.5014 77.0585 74.2665 86.5076 76.9557 91.6213C77.1539 91.9959 77.2422 92.4188 77.2106 92.8413C77.179 93.2639 77.0286 93.6689 76.7769 94.0097C76.566 94.3012 76.289 94.5386 75.9686 94.7022C75.6482 94.8659 75.2936 94.9512 74.9338 94.9512Z" fill="#2F2E41"/>
<path d="M438.659 281.852H432.437L429.477 257.857L438.66 257.858L438.659 281.852Z" fill="#9E616A"/>
<path d="M440.246 287.882L420.184 287.881V287.627C420.184 285.557 421.006 283.571 422.471 282.107C423.935 280.643 425.922 279.82 427.993 279.82L440.247 279.821L440.246 287.882Z" fill="#2F2E41"/>
<path d="M416.328 281.852H410.107L407.146 257.857L416.33 257.858L416.328 281.852Z" fill="#9E616A"/>
<path d="M417.916 287.882L397.854 287.881V287.627C397.854 285.557 398.676 283.571 400.141 282.107C401.605 280.643 403.591 279.82 405.662 279.82L417.916 279.821L417.916 287.882Z" fill="#2F2E41"/>
<path d="M343.863 113.719C344.36 114.402 345.001 114.969 345.741 115.378C346.481 115.787 347.302 116.029 348.145 116.087C348.989 116.145 349.835 116.017 350.624 115.712C351.412 115.408 352.125 114.934 352.711 114.325L365.022 119.132L369.769 112.364L352.287 105.82C351.198 104.904 349.81 104.419 348.387 104.457C346.964 104.496 345.604 105.055 344.566 106.028C343.527 107.002 342.882 108.322 342.753 109.74C342.623 111.157 343.018 112.573 343.863 113.719Z" fill="#9E616A"/>
<path d="M416.249 154.723L400.039 160.009L405.454 274.784L417.965 275.093L424.367 194.153L425.821 274.774L441.29 275.626L446.992 154.723H416.249Z" fill="#7886BA"/>
<path d="M405.312 87.0649L446.915 78.0273L451.542 113.843L447.689 130.956L449.233 156.963C449.233 156.963 416.336 173.333 400.039 160.009C400.039 160.009 413.138 125.612 405.545 109.51L405.312 87.0649Z" fill="#3F3D56"/>
<path d="M412.518 92.1309L405.313 87.0649C405.313 87.0649 404.887 86.4756 398.883 93.4935C392.879 100.511 380.698 111.674 380.698 111.674L360.398 104.063L356.699 117.725L380.293 128.718L413.696 106.414L412.518 92.1309Z" fill="#3F3D56"/>
<path d="M449.239 170.387C450.004 170.026 450.68 169.502 451.22 168.851C451.76 168.201 452.151 167.44 452.364 166.622C452.578 165.804 452.61 164.949 452.458 164.118C452.306 163.286 451.973 162.498 451.483 161.809L458.501 150.611L452.734 144.688L443.047 160.641C441.943 161.54 441.208 162.813 440.981 164.218C440.754 165.623 441.05 167.062 441.813 168.264C442.576 169.465 443.754 170.345 445.123 170.736C446.491 171.128 447.956 171.003 449.239 170.387Z" fill="#9E616A"/>
<path d="M440.428 85.0836L446.917 78.028C446.917 78.028 454.147 75.5107 460.054 88.5188C465.961 101.527 472.559 127.912 472.559 127.912L457.133 157.62L445.153 152.268L457.133 127.703L444.456 109.51L440.428 85.0836Z" fill="#3F3D56"/>
<path d="M429.424 75.0893C435.968 71.5125 438.374 63.3088 434.796 56.7658C431.219 50.2227 423.013 47.8181 416.469 51.3948C409.924 54.9716 407.519 63.1753 411.097 69.7183C414.674 76.2614 422.88 78.666 429.424 75.0893Z" fill="#9E616A"/>
<path d="M435.649 52.448L436.303 51.1305L433.009 49.4941C433.009 49.4941 429.375 43.5823 422.799 45.2436C416.223 46.905 413.264 47.8993 413.264 47.8993L409.978 49.5523L411.628 51.1929L408.669 52.1872L410.645 53.169L408.346 54.4906L409.584 61.2655C409.584 61.2655 411.64 56.127 415.593 58.0907C419.546 60.0543 426.777 57.0756 426.777 57.0756L433.059 69.2307C433.059 69.2307 434.355 64.9697 436.666 66.1059C436.666 66.1059 442.569 56.7067 435.649 52.448Z" fill="#2F2E41"/>
<path d="M152.255 287.999H0.507518C0.372916 287.999 0.243826 287.946 0.148648 287.851C0.0534701 287.755 0 287.626 0 287.492C0 287.357 0.0534701 287.228 0.148648 287.133C0.243826 287.038 0.372916 286.984 0.507518 286.984H152.255C152.39 286.984 152.519 287.038 152.614 287.133C152.709 287.228 152.763 287.357 152.763 287.492C152.763 287.626 152.709 287.755 152.614 287.851C152.519 287.946 152.39 287.999 152.255 287.999Z" fill="#CACACA"/>
<path d="M472.499 287.999H356.277C356.142 287.999 356.013 287.946 355.918 287.851C355.823 287.755 355.77 287.626 355.77 287.492C355.77 287.357 355.823 287.228 355.918 287.133C356.013 287.038 356.142 286.984 356.277 286.984H472.499C472.633 286.984 472.762 287.038 472.858 287.133C472.953 287.228 473.006 287.357 473.006 287.492C473.006 287.626 472.953 287.755 472.858 287.851C472.762 287.946 472.633 287.999 472.499 287.999Z" fill="#CACACA"/>
</g>
<defs>
<clipPath id="clip0_562_1093">
<rect width="473.007" height="288" fill="white"/>
</clipPath>
</defs>
</svg>
