<svg width="464" height="395" viewBox="0 0 464 395" fill="none" xmlns="http://www.w3.org/2000/svg">
<g clip-path="url(#clip0_562_1178)">
<path d="M407.936 380.157C413.009 390.021 424.097 394.428 424.097 394.428C424.097 394.428 426.959 382.842 421.885 372.978C416.812 363.114 405.724 358.707 405.724 358.707C405.724 358.707 402.862 370.293 407.936 380.157Z" fill="#F1F1F1"/>
<path d="M411.615 377.016C421.005 382.917 424.444 394.345 424.444 394.345C424.444 394.345 412.659 396.204 403.269 390.302C393.879 384.401 390.439 372.973 390.439 372.973C390.439 372.973 402.225 371.114 411.615 377.016Z" fill="#F1F1F1"/>
<path d="M279.665 387.6H273.08L269.947 362.193L279.666 362.194L279.665 387.6Z" fill="#FFB7B7"/>
<path d="M281.344 393.983L260.111 393.982V393.714C260.111 391.521 260.982 389.419 262.532 387.869C264.082 386.318 266.184 385.447 268.376 385.447L281.344 385.448L281.344 393.983Z" fill="#2F2E41"/>
<path d="M320.487 387.6H313.902L310.77 362.193L320.488 362.194L320.487 387.6Z" fill="#FFB7B7"/>
<path d="M322.166 393.983L300.934 393.982V393.714C300.934 391.521 301.805 389.419 303.354 387.869C304.904 386.318 307.006 385.447 309.198 385.447L322.167 385.448L322.166 393.983Z" fill="#2F2E41"/>
<path d="M301.366 244.493L288.41 218.413L291.746 196.781L276.17 192.482L274.559 221.495L294.759 248.954C294.613 249.983 294.769 251.031 295.208 251.973C295.646 252.914 296.348 253.708 297.229 254.259C298.109 254.809 299.13 255.093 300.169 255.075C301.207 255.056 302.217 254.737 303.078 254.156C303.939 253.575 304.612 252.757 305.017 251.8C305.423 250.844 305.542 249.791 305.361 248.768C305.179 247.745 304.705 246.797 303.996 246.038C303.287 245.279 302.374 244.743 301.366 244.493Z" fill="#FFB7B7"/>
<path d="M329.394 244.493L342.35 218.413L339.013 196.781L354.589 192.482L356.201 221.495L336.001 248.954C336.146 249.983 335.99 251.031 335.552 251.973C335.113 252.914 334.411 253.708 333.531 254.259C332.65 254.809 331.629 255.093 330.591 255.075C329.553 255.056 328.542 254.737 327.681 254.156C326.821 253.575 326.147 252.757 325.742 251.8C325.337 250.844 325.218 249.791 325.399 248.768C325.58 247.745 326.054 246.797 326.763 246.038C327.472 245.279 328.386 244.743 329.394 244.493Z" fill="#FFB7B7"/>
<path d="M320.745 155.36C328.572 155.36 334.916 149.013 334.916 141.185C334.916 133.356 328.572 127.01 320.745 127.01C312.919 127.01 306.574 133.356 306.574 141.185C306.574 149.013 312.919 155.36 320.745 155.36Z" fill="#FFB9B9"/>
<path d="M306.681 141.109C306.681 141.109 305.144 138.802 305.735 136.317C306.088 134.907 306.228 133.451 306.149 131.999C306.81 129.847 307.641 127.751 308.633 125.729C309.874 123.481 309.283 122.535 313.186 121.825C317.089 121.115 315.492 116.028 325.782 121.529C326.129 122.014 326.612 122.385 327.17 122.596C327.727 122.806 328.335 122.847 328.916 122.712C331.045 122.298 331.814 125.256 331.814 125.256C331.814 125.256 333.233 124.428 333.765 125.611C334.297 126.794 338.092 124.901 338.092 132.886C338.092 140.872 333.774 148.005 333.774 148.005C333.774 148.005 330.741 157.576 323.704 156.215C316.667 154.855 315.647 155.678 310.813 146.545C309.824 149.4 308.304 138.56 306.681 141.109Z" fill="#2F2E41"/>
<path d="M289.596 232.777L287.953 239.222C287.953 239.222 280.214 242.962 277.117 276.553L272.945 326.921L266.578 379.705L279.814 380.733L288.991 347.291L308.818 276.975L312.578 330.17L308.395 378.378L322.36 378.916L332.028 325.188C332.028 325.188 346.839 246.492 337.285 244.201L336.325 236.001L289.596 232.777Z" fill="#2F2E41"/>
<path d="M286.533 172.207L309.331 159.641L328.679 160.674L351.789 174.356L342.157 234.527C342.157 234.527 347.678 240.702 330.991 238.889C314.305 237.076 287.335 235.605 287.335 235.605C287.335 235.605 285.165 231.3 289.798 230.696C294.431 230.091 290.557 230.233 290.557 230.233C290.557 230.233 287.758 221.24 290.557 219.487L291.912 201.019L286.533 172.207Z" fill="#3F3D56"/>
<path d="M292.82 173.14L286.533 172.207L273.215 195.974L294.854 205.518L292.82 173.14Z" fill="#3F3D56"/>
<path d="M344.383 177.438L351.788 174.355L359.153 207.794L339.166 211.58L344.383 177.438Z" fill="#3F3D56"/>
<path d="M173.409 394.847H463.407C463.565 394.847 463.716 394.784 463.827 394.673C463.938 394.562 464 394.411 464 394.253C464 394.096 463.938 393.945 463.827 393.834C463.716 393.723 463.565 393.66 463.407 393.66H173.409C173.252 393.66 173.101 393.723 172.99 393.834C172.879 393.945 172.816 394.096 172.816 394.253C172.816 394.411 172.879 394.562 172.99 394.673C173.101 394.784 173.252 394.847 173.409 394.847Z" fill="#CBCBCB"/>
<path d="M142.33 235.865H67.0137V273.831H142.33V235.865Z" fill="white"/>
<path d="M133.431 245.584H75.9121V247.534H133.431V245.584Z" fill="#6C63FF"/>
<path d="M133.431 253.873H75.9121V255.823H133.431V253.873Z" fill="#6C63FF"/>
<path d="M133.431 262.162H75.9121V264.112H133.431V262.162Z" fill="#6C63FF"/>
<path d="M142.924 274.424H66.4219V235.271H142.924V274.424ZM67.608 273.237H141.738V236.458H67.608V273.237Z" fill="#3F3D56"/>
<path d="M88.2065 188.709C72.2613 188.722 56.629 184.283 43.069 175.891L42.7246 175.678L42.9376 175.333L87.9804 102.414H174.071V102.82C174.071 150.179 135.552 188.709 88.2065 188.709Z" fill="#BBB2D3"/>
<path d="M32.9737 157.749L32.697 157.578C17.4997 148.178 6.54387 133.244 2.13843 115.923C-2.267 98.6022 0.222042 80.2468 9.081 64.7254L9.24257 64.4434L69.3775 98.8159L32.9737 157.749Z" fill="#F1F1F1"/>
<path d="M174.072 90.911H87.7031L106.322 6.53711L106.718 6.62403C125.814 10.8461 142.899 21.4608 155.146 36.7133C167.393 51.9657 174.07 70.9424 174.072 90.5055V90.911Z" fill="#6C63FF"/>
<path d="M73.9458 77.6217L15.4258 44.1721L15.5831 43.8975C22.6777 31.5006 33.5444 21.6937 46.6 15.9058C59.6555 10.1179 74.2177 8.65132 88.1646 11.7198L88.4736 11.7878L73.9458 77.6217Z" fill="#F1F1F1"/>
<path d="M292.965 0.59375H217.648V38.5594H292.965V0.59375Z" fill="white"/>
<path d="M284.066 10.3125H226.547V12.2629H284.066V10.3125Z" fill="#DB4795"/>
<path d="M284.066 18.6016H226.547V20.5519H284.066V18.6016Z" fill="#D71679"/>
<path d="M284.066 26.8906H226.547V28.841H284.066V26.8906Z" fill="#D71679"/>
<path d="M293.557 39.152H217.055V0H293.557V39.152ZM218.241 37.9656H292.371V1.18643H218.241V37.9656Z" fill="#3F3D56"/>
<path d="M105.426 137.607H104.24V235.273H105.426V137.607Z" fill="#3F3D56"/>
<path d="M217.356 19.6196L128.316 59.9043L128.805 60.9853L217.845 20.7006L217.356 19.6196Z" fill="#3F3D56"/>
</g>
<defs>
<clipPath id="clip0_562_1178">
<rect width="464" height="394.846" fill="white"/>
</clipPath>
</defs>
</svg>
