<svg width="449" height="266" viewBox="0 0 449 266" fill="none" xmlns="http://www.w3.org/2000/svg">
<g clip-path="url(#clip0_245_435)">
<path opacity="0.1" d="M449 170.668C449.008 177.867 448.103 185.041 446.305 192.029C445.7 194.384 444.997 196.69 444.197 198.947C443.217 201.732 442.082 204.465 440.796 207.133C440.148 208.483 439.463 209.806 438.741 211.102C438.753 218.485 437.174 225.789 434.102 232.555C428.55 244.693 418.649 254.508 406.205 260.21C398.424 263.782 389.921 265.661 381.3 265.712H85.2352C72.0627 265.739 59.1176 262.41 47.7162 256.062L47.5409 255.967C45.9169 255.052 44.3336 254.084 42.7909 253.062C39.3201 250.755 36.0591 248.168 33.0433 245.33C28.9615 241.492 25.3646 237.204 22.3274 232.555C15.1942 221.657 11.4153 209.038 11.4286 196.159C4.20459 183.964 -0.0078125 169.355 -0.0078125 153.656C-0.0078125 133.85 6.68628 115.782 17.6843 102.105C19.9771 99.2475 22.4887 96.5588 25.198 94.0615C27.8712 91.5901 30.7444 89.3273 33.7905 87.2943C36.2276 85.666 38.7747 84.1956 41.4148 82.8929C42.5165 82.3537 43.622 81.8439 44.7466 81.3708C45.7339 80.949 46.7327 80.5565 47.7429 80.1861C48.9552 79.7435 50.1827 79.3363 51.4254 78.9647C52.6682 78.593 53.8944 78.2678 55.1041 77.989C56.8831 77.5709 58.6926 77.231 60.5326 76.9694C62.0574 76.753 63.5823 76.6026 65.1071 76.4889C66.3194 76.4009 67.5431 76.3532 68.7744 76.3385H69.4415C70.7987 76.3385 72.1481 76.3899 73.4862 76.4779C73.6273 76.2065 73.7797 75.9314 73.9208 75.6636C74.4545 74.6843 75.0072 73.7087 75.5638 72.755C75.5626 72.7465 75.5626 72.7379 75.5638 72.7294C75.6591 72.5606 75.7544 72.3956 75.8535 72.2342C76.3034 71.453 76.7723 70.679 77.2526 69.9125C77.4737 69.5457 77.691 69.2009 77.9159 68.8561C77.9635 68.7705 78.0157 68.6872 78.0722 68.6067C78.3009 68.2399 78.5335 67.8732 78.7698 67.5064C79.9465 65.6969 81.1702 63.9192 82.4409 62.1734L82.7649 61.7259C82.9632 61.4545 83.1461 61.1904 83.3672 60.919C83.8933 60.2111 84.4346 59.4995 84.9798 58.8026C85.361 58.3038 85.7422 57.8086 86.1539 57.3355C87.1451 56.1129 88.1616 54.8903 89.2036 53.6677C90.2456 52.4451 91.3282 51.2383 92.4515 50.0475C92.604 49.8825 92.7565 49.7211 92.9166 49.5597L94.5444 47.8505C94.6245 47.7698 94.6931 47.6964 94.7693 47.6231C94.9637 47.4214 95.1505 47.2196 95.3602 47.0252C96.2332 46.134 97.129 45.261 98.0287 44.3917C102.607 40.0041 107.485 35.9152 112.629 32.1522C112.831 31.9981 113.037 31.8514 113.239 31.7047C114.207 31.0042 115.191 30.3109 116.174 29.6287C121.584 25.8947 127.239 22.501 133.104 19.4689C133.508 19.2451 133.92 19.0361 134.335 18.8307C139.593 16.1543 145.001 13.7592 150.533 11.6564C153.549 10.5084 156.633 9.43001 159.736 8.44336C161.802 7.79049 163.876 7.17063 165.976 6.58744C169.26 5.67782 172.566 4.86234 175.895 4.141C185.703 2.02351 195.682 0.715462 205.721 0.231099C208.771 0.0819412 211.855 0.00491783 214.973 2.7395e-05C230.02 -0.0191384 245.008 1.80499 259.575 5.42841C259.726 5.64741 259.932 5.82595 260.174 5.94722C260.416 6.06849 260.686 6.12851 260.959 6.12163H262.24C262.796 6.26834 263.349 6.41506 263.906 6.5691C267.014 7.42982 270.078 8.37001 273.097 9.38966L273.859 9.65375C281.311 12.2032 288.562 15.2677 295.554 18.8233C301.857 22.0208 307.926 25.6285 313.719 29.6214C314.611 30.2376 315.49 30.8587 316.357 31.4847C317.409 30.8367 318.479 30.2156 319.567 29.6214C323.767 27.3196 328.229 25.4896 332.863 24.1673C342.553 21.4085 352.806 21.0227 362.689 23.045C375.365 25.6308 386.839 32.0495 396.107 41.1787C399.88 44.914 403.239 49.0172 406.129 53.4219C406.338 53.7374 406.548 54.0565 406.75 54.3792C409.234 58.2777 411.369 62.3723 413.132 66.6188C413.196 66.7765 413.261 66.9232 413.318 67.0773C414.946 71.0536 416.258 75.1426 417.245 79.3094C417.291 79.5222 417.344 79.7312 417.39 79.944C418.312 83.9765 418.939 88.0664 419.265 92.1835C419.265 92.3302 419.265 92.4806 419.296 92.6347C419.456 94.7645 419.537 96.9163 419.54 99.09C419.54 101.034 419.471 102.963 419.345 104.878C419.345 105.087 419.315 105.303 419.296 105.52C419.261 106.074 419.212 106.62 419.162 107.178C422.074 109.437 424.799 111.911 427.313 114.576C428.423 115.742 429.498 116.952 430.538 118.207C433.704 122.025 436.486 126.123 438.848 130.446C445.295 142.154 449 155.927 449 170.668Z" fill="#2C4194"/>
<path opacity="0.1" d="M405.923 258.853C405.923 261.358 396.953 263.706 381.3 265.723H85.2353C72.0628 265.75 59.1178 262.421 47.7164 256.073L47.541 255.978C52.0393 254.401 60.1592 252.93 71.2105 251.602L71.7061 251.543C76.6619 250.96 82.2009 250.406 88.2545 249.882C88.407 249.882 88.5633 249.86 88.7158 249.841C93.5191 249.431 98.6286 249.045 104.044 248.686C104.216 248.686 104.384 248.657 104.555 248.649C106.644 248.505 108.777 248.368 110.952 248.239L111.791 248.187C127.63 247.241 145.635 246.485 165.16 245.987H165.183C167.918 245.913 170.682 245.848 173.475 245.792C176.58 245.721 179.724 245.659 182.906 245.605C185.334 245.554 187.793 245.517 190.259 245.48H190.317C201.444 245.319 212.942 245.238 224.698 245.238C253.77 245.238 281.247 245.748 305.595 246.665H305.664C309.408 246.804 313.082 246.958 316.666 247.116L319.716 247.256C323.759 247.441 327.698 247.641 331.533 247.853C376.631 250.322 405.923 254.331 405.923 258.853Z" fill="#6C63FF"/>
<g opacity="0.2">
<path d="M259.332 243.555C259.32 243.95 259.273 244.344 259.191 244.732C256.538 244.326 253.869 243.959 251.186 243.632C251.186 243.529 251.186 243.423 251.186 243.316C251.21 242.216 251.539 241.143 252.139 240.206C252.924 239.01 254.117 238.262 255.432 238.302C256.747 238.343 257.887 239.161 258.593 240.397C259.126 241.368 259.381 242.458 259.332 243.555Z" fill="#3F3D56"/>
<path d="M259.551 237.287C259.644 234.45 257.894 232.095 255.643 232.027C253.391 231.959 251.49 234.203 251.397 237.039C251.304 239.876 253.054 242.231 255.305 242.299C257.557 242.368 259.458 240.124 259.551 237.287Z" fill="#3F3D56"/>
<path d="M259.758 231.008C259.851 228.171 258.102 225.816 255.85 225.748C253.598 225.679 251.697 227.923 251.604 230.76C251.511 233.596 253.261 235.951 255.512 236.02C257.764 236.088 259.665 233.844 259.758 231.008Z" fill="#3F3D56"/>
<path d="M259.963 224.728C260.056 221.892 258.307 219.537 256.055 219.468C253.803 219.4 251.902 221.644 251.809 224.48C251.716 227.317 253.466 229.672 255.718 229.74C257.969 229.809 259.87 227.565 259.963 224.728Z" fill="#3F3D56"/>
<path d="M260.166 218.449C260.259 215.612 258.51 213.257 256.258 213.188C254.006 213.12 252.106 215.364 252.012 218.201C251.919 221.037 253.669 223.392 255.921 223.461C258.172 223.529 260.073 221.285 260.166 218.449Z" fill="#3F3D56"/>
<path d="M242.215 174.878C241.678 174.179 241.194 173.444 240.767 172.678L251.54 171.31L239.943 171.042C238.908 168.68 238.385 166.14 238.406 163.577C238.426 161.014 238.989 158.482 240.061 156.136L255.356 164.37L241.346 153.792C242.759 151.593 244.629 149.697 246.838 148.224C249.046 146.752 251.547 145.733 254.184 145.231C256.82 144.73 259.536 144.757 262.161 145.311C264.786 145.865 267.264 146.934 269.44 148.45C271.617 149.967 273.445 151.899 274.81 154.126C276.176 156.353 277.05 158.827 277.377 161.394C277.704 163.96 277.477 166.564 276.711 169.043C275.946 171.521 274.657 173.821 272.926 175.799C273.761 176.887 274.47 178.059 275.042 179.294L260.902 185.823L275.895 181.484C276.84 184.482 276.992 187.658 276.338 190.727C275.685 193.795 274.246 196.658 272.152 199.057C274.329 201.898 275.63 205.272 275.908 208.792C276.186 212.312 275.429 215.836 273.723 218.961C272.017 222.086 269.431 224.686 266.262 226.464C263.092 228.242 259.467 229.126 255.8 229.015C252.133 228.904 248.572 227.802 245.525 225.835C242.478 223.869 240.068 221.117 238.57 217.895C237.073 214.672 236.548 211.109 237.055 207.613C237.563 204.117 239.083 200.829 241.441 198.125C238.841 194.729 237.502 190.591 237.64 186.375C237.779 182.159 239.386 178.11 242.204 174.878H242.215Z" fill="#6C63FF"/>
<path opacity="0.1" d="M276.727 187.562C276.593 191.78 274.981 195.831 272.152 199.057C274.329 201.898 275.63 205.272 275.908 208.792C276.186 212.312 275.429 215.836 273.723 218.961C272.017 222.086 269.431 224.686 266.262 226.464C263.092 228.242 259.467 229.126 255.8 229.015C252.133 228.904 248.572 227.802 245.525 225.835C242.478 223.869 240.068 221.117 238.57 217.895C237.073 214.672 236.548 211.109 237.055 207.613C237.563 204.117 239.083 200.829 241.441 198.125C238.937 194.85 276.795 185.453 276.727 187.562Z" fill="black"/>
</g>
<g opacity="0.2">
<path d="M201.387 243.555C201.375 243.95 201.327 244.344 201.246 244.732C198.592 244.326 195.924 243.959 193.24 243.632C193.24 243.529 193.24 243.423 193.24 243.316C193.265 242.216 193.594 241.143 194.193 240.206C194.979 239.01 196.172 238.262 197.487 238.302C198.802 238.343 199.942 239.161 200.647 240.397C201.181 241.368 201.436 242.458 201.387 243.555Z" fill="#3F3D56"/>
<path d="M201.602 237.289C201.695 234.452 199.945 232.097 197.694 232.029C195.442 231.96 193.541 234.204 193.448 237.041C193.355 239.877 195.105 242.232 197.356 242.301C199.608 242.369 201.509 240.125 201.602 237.289Z" fill="#3F3D56"/>
<path d="M201.809 231.009C201.902 228.172 200.152 225.818 197.901 225.749C195.649 225.681 193.748 227.925 193.655 230.761C193.562 233.598 195.312 235.953 197.563 236.021C199.815 236.09 201.716 233.846 201.809 231.009Z" fill="#3F3D56"/>
<path d="M202.014 224.73C202.107 221.893 200.357 219.538 198.106 219.47C195.854 219.401 193.953 221.645 193.86 224.482C193.767 227.318 195.517 229.673 197.768 229.742C200.02 229.81 201.921 227.566 202.014 224.73Z" fill="#3F3D56"/>
<path d="M202.217 218.45C202.31 215.614 200.56 213.259 198.309 213.19C196.057 213.122 194.156 215.366 194.063 218.202C193.97 221.039 195.72 223.394 197.971 223.462C200.223 223.531 202.124 221.287 202.217 218.45Z" fill="#3F3D56"/>
<path d="M184.27 174.878C183.733 174.179 183.249 173.444 182.821 172.678L193.594 171.31L181.998 171.042C180.963 168.68 180.44 166.14 180.46 163.577C180.481 161.014 181.044 158.482 182.116 156.136L197.41 164.37L183.401 153.792C184.814 151.593 186.684 149.697 188.892 148.224C191.101 146.752 193.602 145.733 196.238 145.231C198.875 144.73 201.59 144.757 204.215 145.311C206.84 145.865 209.319 146.934 211.495 148.45C213.672 149.967 215.5 151.899 216.865 154.126C218.231 156.353 219.104 158.827 219.431 161.394C219.758 163.96 219.532 166.564 218.766 169.043C218 171.521 216.712 173.821 214.981 175.799C215.816 176.887 216.525 178.059 217.096 179.294L202.957 185.823L217.95 181.484C218.894 184.482 219.047 187.658 218.393 190.727C217.739 193.795 216.3 196.658 214.207 199.057C216.383 201.898 217.685 205.272 217.963 208.792C218.241 212.312 217.483 215.836 215.778 218.961C214.072 222.086 211.486 224.686 208.317 226.464C205.147 228.242 201.522 229.126 197.854 229.015C194.187 228.904 190.627 227.802 187.58 225.835C184.533 223.869 182.123 221.117 180.625 217.895C179.127 214.672 178.602 211.109 179.11 207.613C179.618 204.117 181.138 200.829 183.496 198.125C180.896 194.729 179.557 190.591 179.695 186.375C179.833 182.159 181.441 178.11 184.259 174.878H184.27Z" fill="#6C63FF"/>
<path opacity="0.1" d="M218.781 187.562C218.648 191.78 217.036 195.831 214.207 199.057C216.383 201.898 217.685 205.272 217.963 208.792C218.241 212.312 217.483 215.836 215.778 218.961C214.072 222.086 211.486 224.686 208.317 226.464C205.147 228.242 201.522 229.126 197.854 229.015C194.187 228.904 190.627 227.802 187.58 225.835C184.533 223.869 182.123 221.117 180.625 217.895C179.127 214.672 178.602 211.109 179.11 207.613C179.618 204.117 181.138 200.829 183.496 198.125C180.992 194.85 218.85 185.453 218.781 187.562Z" fill="black"/>
</g>
<g opacity="0.2">
<path d="M359.667 247.567C359.638 248.317 359.545 249.063 359.388 249.797C354.28 249.012 349.135 248.311 343.953 247.692C343.953 247.494 343.953 247.292 343.953 247.087C344.002 244.969 344.636 242.901 345.791 241.097C347.315 238.798 349.603 237.356 352.13 237.429C354.658 237.503 356.857 239.084 358.23 241.464C359.264 243.339 359.761 245.446 359.667 247.567Z" fill="#3F3D56"/>
<path d="M360.081 235.492C360.261 230.029 356.89 225.494 352.553 225.362C348.216 225.23 344.555 229.551 344.376 235.014C344.196 240.477 347.567 245.012 351.904 245.144C356.241 245.276 359.902 240.954 360.081 235.492Z" fill="#3F3D56"/>
<path d="M360.478 223.402C360.657 217.94 357.287 213.404 352.95 213.273C348.613 213.141 344.952 217.462 344.772 222.925C344.593 228.387 347.963 232.922 352.3 233.054C356.637 233.186 360.298 228.865 360.478 223.402Z" fill="#3F3D56"/>
<path d="M360.878 211.313C361.058 205.85 357.687 201.315 353.35 201.183C349.013 201.051 345.352 205.373 345.173 210.835C344.993 216.298 348.364 220.833 352.701 220.965C357.038 221.097 360.699 216.776 360.878 211.313Z" fill="#3F3D56"/>
<path d="M360.827 198.674C360.997 193.208 357.618 188.676 353.279 188.551C348.939 188.426 345.284 192.755 345.113 198.22C344.943 203.685 348.322 208.217 352.661 208.343C357.001 208.468 360.656 204.139 360.827 198.674Z" fill="#3F3D56"/>
<path d="M326.711 115.357C325.682 114.01 324.751 112.597 323.924 111.128L344.662 108.494L322.342 107.977C320.348 103.431 319.34 98.541 319.378 93.6067C319.416 88.6725 320.5 83.7975 322.563 79.2801L352.012 95.1288L325.045 74.765C327.772 70.5412 331.373 66.9029 335.625 64.077C339.877 61.251 344.689 59.298 349.76 58.3396C354.831 57.3812 360.053 57.438 365.1 58.5064C370.147 59.5748 374.912 61.6319 379.096 64.5495C383.281 67.4672 386.796 71.1828 389.423 75.4649C392.05 79.747 393.732 84.5037 394.364 89.4386C394.997 94.3735 394.566 99.3809 393.099 104.149C391.632 108.916 389.16 113.342 385.837 117.15C387.443 119.246 388.809 121.503 389.912 123.881L362.69 136.458L391.551 128.095C393.37 133.859 393.666 139.968 392.413 145.87C391.16 151.771 388.396 157.279 384.373 161.894C388.563 167.365 391.068 173.859 391.602 180.635C392.136 187.411 390.678 194.195 387.394 200.211C384.11 206.227 379.132 211.233 373.031 214.655C366.929 218.078 359.95 219.779 352.891 219.565C345.832 219.351 338.977 217.23 333.112 213.444C327.247 209.659 322.607 204.361 319.723 198.158C316.84 191.955 315.828 185.096 316.805 178.366C317.782 171.636 320.707 165.306 325.247 160.101C320.243 153.563 317.667 145.598 317.933 137.483C318.198 129.369 321.29 121.575 326.711 115.353V115.357Z" fill="#D51779"/>
<path opacity="0.1" d="M393.157 139.77C392.906 147.886 389.817 155.684 384.389 161.902C388.578 167.372 391.084 173.867 391.618 180.643C392.152 187.418 390.694 194.202 387.41 200.218C384.125 206.234 379.148 211.24 373.047 214.662C366.945 218.085 359.966 219.786 352.906 219.572C345.847 219.358 338.993 217.237 333.128 213.451C327.262 209.666 322.623 204.369 319.739 198.166C316.855 191.962 315.844 185.104 316.821 178.374C317.797 171.644 320.723 165.314 325.263 160.108C320.406 153.796 393.29 135.71 393.157 139.77Z" fill="black"/>
</g>
<path d="M60.1621 248.213L64.161 248.202H69.7992L76.9278 136.781L147.525 23.4337L144.456 20.2647V12.2395L68.1066 134.154L60.1621 248.213Z" fill="#F1C0C0"/>
<path opacity="0.1" d="M64.5898 248.202H69.801L76.9297 136.781L147.527 23.4338L144.458 20.2648L71.6385 135.082L64.5898 248.202Z" fill="black"/>
<path d="M48.3789 249.141L231.304 262.609L231.46 262.62L408.492 252.145L408.625 252.137V244.945L213.558 241.501L50.8149 241.35H49.6255L49.4959 242.157L48.3789 249.141Z" fill="#F1C0C0"/>
<path opacity="0.1" d="M48.3789 249.141L231.304 262.609L231.46 262.62L408.492 252.145L408.625 252.005V245.095H408.469L231.304 250.788L50.8149 241.35H50.7882L50.468 241.552L49.4959 242.157L48.3789 249.141Z" fill="black"/>
<path opacity="0.1" d="M48.3789 249.141L231.304 262.609V250.788L50.468 241.552L49.4959 242.157L48.3789 249.141Z" fill="black"/>
<path d="M144.434 20.1143L225.079 103.396L222.586 249.889L229.436 250.685L229.551 250.7H236.401L237.221 109.686L388.231 158.219L390.777 244.633L396.289 245.227L398.157 245.429L393.834 152.226L235.974 98.9029L149.416 12.3239H144.434V20.1143Z" fill="#F1C0C0"/>
<path opacity="0.1" d="M236.6 106.99L237.221 109.686L388.231 158.219L390.777 244.633L396.29 245.227L391.967 156.422L236.6 106.99Z" fill="black"/>
<path opacity="0.1" d="M144.434 20.1144L225.079 103.396L222.586 249.889L229.436 250.685L231.304 98.6023L144.434 12.324V20.1144Z" fill="black"/>
<path d="M236.893 165.782L292.279 176.276L292.298 176.279L389.305 194.666L393.746 192.953L393.731 192.653L393.441 186.692L236.95 156.268L236.893 165.782Z" fill="#F1C0C0"/>
<path opacity="0.1" d="M292.299 176.279L389.306 194.666L393.747 192.953L393.732 192.653L292.299 176.279Z" fill="black"/>
<path d="M296.008 128.579L297.506 207.929L298.28 248.638L305.1 248.418L309.392 248.279L308.058 129.727L305.1 128.781L304.452 128.579H296.008Z" fill="#F1C0C0"/>
<path opacity="0.1" d="M296.068 128.561V128.579L297.506 207.929L298.279 248.638L305.099 248.418V128.561H296.068Z" fill="black"/>
<path d="M189.181 148.844C189.581 149.053 189.964 149.292 190.325 149.559C190.752 149.919 191.136 150.324 191.469 150.766C193.104 152.802 194.614 155.167 194.454 157.735C194.457 158.108 194.384 158.479 194.238 158.825C194.092 159.171 193.876 159.486 193.603 159.752C192.929 160.306 191.96 160.332 191.076 160.332C190.115 160.332 189.105 160.332 188.274 159.855C187.443 159.378 186.749 158.45 185.766 158.472C185.627 158.494 185.485 158.494 185.346 158.472C185.007 158.366 184.938 157.937 184.717 157.665C184.336 157.177 183.532 157.298 182.933 157.511C182.335 157.724 181.671 158.043 181.081 157.797C180.738 157.623 180.457 157.353 180.276 157.023C178.862 154.823 178.561 152.178 178.294 149.622C178.13 148.067 176.88 142.763 180.33 143.97C181.854 144.498 183.28 145.554 184.668 146.328L189.181 148.844Z" fill="#3F3D56"/>
<path d="M185.772 149.369C186.08 149.582 186.454 149.69 186.833 149.675C187.212 149.66 187.575 149.524 187.865 149.288C188.432 148.794 188.794 148.119 188.883 147.388C189.264 147.274 189.458 147.755 189.702 148.048C190.129 148.547 190.998 148.54 191.387 149.071C191.658 149.438 191.597 149.948 191.787 150.363C192.035 150.898 192.649 151.177 193.068 151.61C193.464 152.082 193.75 152.632 193.907 153.22L194.532 155.024C194.831 155.775 195.024 156.561 195.104 157.361C195.143 157.761 195.1 158.164 194.975 158.548C194.851 158.931 194.649 159.287 194.38 159.594C193.541 160.464 192.165 160.555 190.949 160.53C190.543 160.538 190.137 160.492 189.744 160.394C188.665 160.071 187.975 159.026 187.689 157.973C187.404 156.921 187.434 155.817 187.266 154.738C187.085 153.679 186.765 152.646 186.313 151.665C185.978 150.902 185.055 149.765 185.07 148.954C185.345 148.954 185.543 149.196 185.772 149.369Z" fill="#3F3D56"/>
<path d="M187.142 145.653C186.963 145.132 186.859 144.591 186.833 144.043C186.833 142.942 187.355 141.908 187.881 140.925L183.524 141.494C182.998 141.563 182.411 141.666 182.113 142.088C182 142.297 181.941 142.529 181.941 142.765C181.941 143 182 143.232 182.113 143.441C182.332 143.86 182.505 144.298 182.632 144.751C182.642 145.146 182.689 145.541 182.773 145.928C182.908 146.213 183.099 146.47 183.333 146.687C184.58 148.015 185.514 149.581 186.444 151.133C186.417 151.089 189.07 149.112 188.964 148.466C188.903 148.099 188.136 147.659 187.892 147.307C187.555 146.796 187.302 146.238 187.142 145.653Z" fill="#BE6F72"/>
<path d="M224.499 131.323V134.936L160.2 147.003L156.864 148.947H145.355V146.911L208.53 132.225L224.499 131.323Z" fill="#F1C0C0"/>
<path opacity="0.1" d="M224.499 134.936L160.2 147.003L156.864 148.947H145.355L208.999 135.842L224.499 134.936Z" fill="black"/>
<path d="M172.877 233.883C172.16 233.048 171.171 232.471 170.071 232.246C168.97 232.021 167.823 232.161 166.815 232.643C166.6 232.741 166.41 232.883 166.259 233.061C165.878 233.575 166.122 234.282 166.156 234.917C166.244 236.465 164.963 237.723 163.811 238.805C163.194 239.384 162.565 240.004 162.287 240.793C162.008 241.581 162.214 242.583 162.961 242.994C163.287 243.151 163.642 243.246 164.006 243.272C165.224 243.501 166.474 243.534 167.704 243.371C168.92 243.148 170.113 242.484 170.639 241.405C170.74 241.113 170.908 240.846 171.131 240.624C171.802 240.114 172.831 240.712 173.593 240.349C174.222 240.048 174.249 239.575 174.257 238.952C174.28 237.228 174.013 235.276 172.877 233.883Z" fill="#6C63FF"/>
<path d="M182.026 233.817C182.495 235.005 182.56 236.3 182.621 237.569C182.655 238.302 182.678 239.087 182.266 239.707C181.855 240.327 181.05 240.653 180.28 240.807C178.691 241.123 176.849 240.826 175.824 239.612C175.039 238.684 174.875 237.411 175.02 236.208C175.142 235.221 175.401 234.066 174.665 233.365C174.474 233.178 174.227 233.046 174.051 232.845C173.67 232.397 173.731 231.722 173.937 231.172C174.205 230.646 174.406 230.091 174.535 229.518C174.566 229.247 179.697 229.709 180.17 229.932C180.814 230.237 180.715 230.747 180.909 231.363C181.18 232.221 181.698 232.995 182.026 233.817Z" fill="#6C63FF"/>
<path d="M182.967 181.125C183.974 181.752 184.363 182.984 184.519 184.129C184.95 187.265 184.195 190.434 184.138 193.599C184.084 198.033 185.419 202.548 184.279 206.843C183.596 209.411 184.176 212.345 183.535 214.938C183.345 215.709 182.994 216.435 182.811 217.205C182.43 218.874 182.83 220.62 183.368 222.252C183.539 222.692 183.648 223.152 183.692 223.62C183.666 224.34 183.476 225.047 183.135 225.689L180.848 230.893C180.592 231.477 179.586 231.572 178.942 231.649C177.73 231.788 176.376 231.887 175.412 231.165C174.447 230.442 174.215 229.232 174.066 228.102C173.781 225.933 173.654 223.748 173.685 221.562C173.727 220.992 173.674 220.419 173.529 219.864C173.319 219.237 172.858 218.694 172.732 218.03C172.572 217.172 173.025 216.328 173.193 215.463C173.308 214.672 173.295 213.869 173.155 213.082C173.006 211.909 172.835 210.735 172.64 209.569C172.366 207.936 172.759 206.326 173.022 204.69C173.269 203.154 172.953 201.587 172.64 200.062C172.667 201.3 172.507 202.536 172.164 203.729C171.962 204.313 171.672 204.87 171.497 205.464C170.715 208.131 172.381 210.929 172.145 213.691C172.034 214.982 171.508 216.259 171.657 217.531C171.76 218.463 172.21 219.318 172.518 220.205C172.827 221.093 172.987 222.109 172.518 222.938C171.279 225.19 172.206 228.253 173.315 230.563C173.54 230.973 173.736 231.397 173.902 231.832C174.23 232.874 173.956 233.993 174.043 235.078C173.724 235.129 173.397 235.108 173.087 235.019C172.777 234.929 172.493 234.773 172.255 234.561C172.088 234.392 171.95 234.194 171.786 234.018C171.328 233.598 170.786 233.273 170.193 233.061C169.845 232.873 169.448 232.786 169.049 232.808C168.63 232.921 168.253 233.146 167.963 233.457C167.586 233.776 167.186 234.069 166.766 234.334C166.587 234.466 166.378 234.555 166.156 234.594C166.044 234.611 165.93 234.593 165.83 234.544C165.729 234.494 165.647 234.416 165.596 234.319C165.572 234.258 165.558 234.194 165.554 234.128C165.412 233.021 165.337 231.906 165.329 230.791C165.329 228.872 162.942 227.552 162.641 225.656C162.401 224.126 162.847 222.567 162.698 221.027C162.626 220.235 162.397 219.457 162.412 218.665C162.412 218.151 162.534 217.649 162.576 217.139C162.611 216.573 162.602 216.005 162.55 215.441L162.431 213.669C162.317 211.92 162.191 210.133 161.475 208.534C160.625 206.667 160.122 204.671 159.988 202.636C159.912 201.353 159.961 200.069 159.809 198.782C159.671 197.619 159.367 196.463 159.454 195.297C159.527 194.395 159.835 193.522 159.908 192.62C160.057 190.885 159.37 189.197 158.833 187.536C158.295 185.874 157.899 184.033 158.604 182.43C158.705 182.167 158.873 181.933 159.092 181.748C159.362 181.576 159.67 181.466 159.992 181.425C166.532 180.103 173.236 179.692 179.899 180.204C180.985 180.263 182.039 180.579 182.967 181.125Z" fill="#3F3D56"/>
<path d="M161.326 142.169C164.699 142.169 167.433 139.538 167.433 136.293C167.433 133.048 164.699 130.417 161.326 130.417C157.953 130.417 155.219 133.048 155.219 136.293C155.219 139.538 157.953 142.169 161.326 142.169Z" fill="#BE6F72"/>
<path d="M160.143 143.632C160.231 143.968 160.231 144.319 160.143 144.655C160.047 144.89 159.912 145.108 159.743 145.301C159.152 146.035 158.497 146.719 157.787 147.348C158.149 148.125 158.8 148.744 159.613 149.082C160.42 149.413 161.266 149.646 162.133 149.776C162.565 149.885 163.016 149.915 163.46 149.864C163.869 149.765 164.256 149.596 164.603 149.365L167.996 147.41C168.508 147.143 168.982 146.814 169.406 146.431C170.029 145.815 170.381 144.993 170.39 144.135C170.406 143.981 170.362 143.827 170.268 143.702C170.138 143.593 169.975 143.527 169.803 143.515C168.61 143.262 167.668 142.33 167.134 141.274C166.652 140.191 166.34 139.045 166.208 137.874L162.59 139.707C162.053 139.983 161.519 140.258 160.963 140.496C160.608 140.65 159.891 140.778 159.64 141.09C159.159 141.666 160.017 142.939 160.143 143.632Z" fill="#BE6F72"/>
<path d="M157.81 146.28C157.295 146.687 156.893 147.21 156.639 147.802C156.403 148.536 156.639 149.31 156.853 150.036C157.853 153.131 158.618 156.293 159.14 159.495C159.46 161.696 159.579 163.93 159.735 166.156C160.055 170.697 160.52 177.937 161.142 182.449C163.429 182.548 165.659 181.906 167.927 181.671C172.166 181.238 176.531 182.229 180.683 181.304C179.676 177.479 178.67 170.946 177.663 167.124C177.218 165.619 176.909 164.079 176.741 162.521C176.653 161.403 176.707 160.28 176.722 159.154C176.756 156.954 176.63 154.753 176.505 152.552C176.36 149.985 176.215 147.417 175.582 144.905C175.538 144.585 175.382 144.288 175.14 144.065C174.759 143.797 174.263 143.892 173.809 143.951C172.42 144.121 171.014 143.8 169.852 143.049C169.349 142.719 168.674 142.315 168.205 142.682C168.005 142.903 167.873 143.174 167.824 143.463C167.617 143.982 167.297 144.453 166.885 144.843C166.474 145.233 165.98 145.534 165.438 145.726C164.352 146.105 163.214 146.33 162.06 146.394C161.707 146.467 161.339 146.427 161.012 146.28C160.471 145.961 160.433 144.813 159.75 144.736C159.152 144.67 158.214 145.91 157.81 146.28Z" fill="#3F3D56"/>
<path d="M166.829 155.237C165.423 153.942 164.805 152.064 163.779 150.469C163.081 149.396 162.189 148.452 161.145 147.681C160.621 147.348 160.139 146.955 159.712 146.511C159.35 146.082 159.075 145.51 158.526 145.345C158.3 145.298 158.064 145.304 157.84 145.363C157.617 145.423 157.411 145.533 157.242 145.686C156.906 145.994 156.587 146.32 156.289 146.662C154.672 148.272 151.832 148.496 150.551 150.359C150.206 150.754 149.971 151.227 149.869 151.734C149.5 154.446 150.229 157.191 151.905 159.4C152.229 159.912 152.727 160.301 153.315 160.5C153.235 161.184 153.33 161.877 153.59 162.518C154.296 164.839 155.163 167.112 156.186 169.322C155.941 170.186 155.77 171.068 155.675 171.959C155.408 174.2 155.656 176.474 155.404 178.719C155.198 180.552 154.642 182.339 154.623 184.176C154.623 184.47 154.649 184.818 154.912 184.969C155.052 185.038 155.209 185.069 155.366 185.06L160.055 185.196C162.777 185.273 165.525 185.35 168.205 184.866C168.562 184.815 168.908 184.71 169.231 184.554C170.138 184.066 170.439 182.966 170.584 181.987C170.773 180.716 170.849 179.433 170.809 178.15C171.377 179.878 172.052 181.664 173.767 182.412C174.675 182.808 175.711 182.779 176.706 182.753C178.851 182.661 180.988 182.449 183.107 182.119C183.238 182.134 183.37 182.12 183.494 182.078C183.618 182.035 183.73 181.965 183.821 181.874C183.911 181.782 183.979 181.671 184.017 181.55C184.055 181.429 184.063 181.301 184.041 181.176L184.064 179.173C184.11 175.106 183.061 171.218 182.653 167.169C182.524 165.892 182.535 164.601 182.211 163.35C182.078 162.826 181.883 162.312 181.765 161.784C181.663 161.267 181.6 160.744 181.575 160.218L181.277 156.183C181.136 154.317 180.934 152.516 180.785 150.652C180.704 148.838 180.43 147.036 179.97 145.275C179.638 144.175 178.948 142.928 177.755 142.792C177.118 142.723 176.501 142.99 175.894 143.177C174.405 143.629 172.806 143.622 171.32 143.159C170.861 142.985 170.382 142.862 169.894 142.792C169.648 142.76 169.398 142.791 169.169 142.883C168.94 142.974 168.74 143.123 168.59 143.313C168.442 143.6 168.373 143.918 168.388 144.237C168.209 147.901 167.878 151.676 166.829 155.237Z" fill="#6C63FF"/>
<path d="M160.696 155.347C158.938 153.565 157.135 151.749 154.871 150.616C153.979 150.168 152.965 149.831 151.977 149.999C150.99 150.168 150.071 150.993 150.117 151.958C150.147 152.556 150.525 153.084 150.643 153.671C150.78 154.331 150.582 155.035 150.795 155.674C150.969 156.094 151.228 156.477 151.558 156.8L154.257 159.877C155.4 161.161 156.544 162.463 158.016 163.35C159.487 164.238 161.393 164.652 163.009 164.022C164.159 163.507 165.116 162.663 165.747 161.604C166.418 160.577 166.89 159.455 167.519 158.395C168.498 156.701 169.79 155.194 171.331 153.946C170.538 153.748 169.543 153.469 169.044 152.846C168.902 152.647 168.781 152.436 168.682 152.215L168.064 150.931C167.854 150.921 167.644 150.952 167.448 151.023C167.251 151.095 167.071 151.204 166.921 151.346C166.656 151.64 166.372 151.918 166.071 152.178C165.533 152.567 164.805 152.673 164.317 153.117C164.128 153.308 163.957 153.514 163.806 153.733C163.437 154.2 162.969 154.585 162.432 154.864C161.896 155.142 161.304 155.307 160.696 155.347Z" fill="#3F3D56"/>
<path d="M171.473 147.678C172.796 145.356 172.735 142.572 173.113 139.95C173.154 139.255 173.407 138.588 173.841 138.031C174.603 137.202 175.949 137.191 177.1 137.298C177.439 137.334 177.863 137.488 177.844 137.815C177.817 137.932 177.758 138.04 177.672 138.127C176.556 139.512 175.9 141.189 175.789 142.939C176.387 143.339 177.314 142.517 177.889 142.939C178.271 143.247 178.095 143.856 177.866 144.296C177.335 145.316 176.788 146.328 176.223 147.333C175.773 148.219 175.186 149.034 174.481 149.75C173.997 150.197 173.429 150.55 172.937 150.99C171.794 152.02 171.104 153.477 169.922 154.481C169.822 154.586 169.687 154.652 169.541 154.669C169.39 154.658 169.249 154.597 169.14 154.496C168.55 154.034 168.06 153.465 167.699 152.82C167.25 152.02 167.318 151.786 168.027 151.221C169.354 150.212 170.646 149.13 171.473 147.678Z" fill="#BE6F72"/>
<path d="M158.485 153.77C158.714 153.906 158.996 154.06 159.247 153.946C159.35 153.886 159.438 153.805 159.503 153.708C159.939 153.148 160.302 152.54 160.586 151.896C160.634 151.805 160.662 151.705 160.666 151.602C160.666 151.368 160.448 151.195 160.246 151.059C159.164 150.396 158 149.863 156.781 149.475C155.775 149.108 154.723 148.789 153.655 148.881C153.254 148.907 152.863 149.01 152.504 149.186C152.146 149.361 151.828 149.604 151.57 149.9C150.807 150.843 152.085 151.129 152.885 151.47C154.738 152.281 156.743 152.75 158.485 153.77Z" fill="#6C63FF"/>
<path opacity="0.1" d="M157.285 160.005C157.272 160.089 157.28 160.174 157.308 160.255C157.336 160.335 157.383 160.408 157.445 160.467C157.556 159.947 157.411 159.396 157.526 158.872C157.693 158.083 158.49 157.489 158.559 156.697C157.099 156.422 157.297 159.154 157.285 160.005Z" fill="black"/>
<path opacity="0.2" d="M224.5 131.323V134.936L209 135.842L208.531 132.225L224.5 131.323Z" fill="black"/>
<path d="M155.827 137.166C156.796 136.406 156.235 134.815 156.891 133.795C157.272 133.237 157.917 132.944 158.549 132.695C159.313 132.351 160.131 132.133 160.97 132.049C161.39 132.01 161.814 132.063 162.21 132.203C162.606 132.344 162.964 132.568 163.257 132.86C163.505 133.131 163.673 133.461 163.905 133.744C164.193 134.073 164.569 134.321 164.992 134.462C165.414 134.603 165.869 134.631 166.307 134.543C166.814 134.433 167.34 134.063 167.306 133.564C167.249 133.26 167.088 132.984 166.848 132.779L165.758 131.616C164.519 130.296 163.143 128.895 161.325 128.565C160.059 128.334 158.763 128.66 157.543 129.052C157.051 129.21 156.498 129.445 156.361 129.925C156.27 130.255 156.407 130.615 156.327 130.949C156.171 131.613 155.286 131.836 154.874 132.394C154.463 132.951 154.589 133.612 154.47 134.228C154.352 134.844 154.009 135.445 153.967 136.084C153.94 136.469 154.143 137.184 154.592 137.323C155.042 137.463 155.549 136.707 155.827 137.166Z" fill="#3F3D56"/>
<path d="M166.936 133.036C166.615 131.422 165.922 129.898 164.908 128.576C164.007 127.34 162.753 126.382 161.298 125.817C160.571 125.544 159.789 125.433 159.01 125.492C158.232 125.551 157.477 125.779 156.804 126.159C155.803 126.845 155.025 127.79 154.558 128.884C153.571 130.93 153.205 133.432 154.352 135.398C154.81 134.862 155.595 135.104 156.289 134.91C157.158 134.672 157.894 134.114 158.721 133.766C161.218 132.706 164.268 133.564 166.936 133.036Z" fill="#FED253"/>
<path opacity="0.1" d="M154.937 132.922C154.849 132.262 154.792 131.495 155.28 131.026C155.304 130.997 155.335 130.974 155.37 130.959C155.405 130.943 155.443 130.936 155.482 130.938C155.516 130.948 155.547 130.966 155.574 130.988C155.601 131.011 155.623 131.039 155.638 131.07C155.92 131.497 156.16 131.949 156.355 132.419C156.071 132.356 155.774 132.377 155.502 132.478C155.23 132.58 154.996 132.757 154.83 132.988" fill="black"/>
<path opacity="0.1" d="M163.845 131.059L163.708 129.749C163.686 129.641 163.695 129.53 163.735 129.427C163.792 129.34 163.881 129.277 163.984 129.25C164.086 129.223 164.196 129.234 164.291 129.28C164.479 129.38 164.633 129.529 164.737 129.709C165.055 130.178 165.318 130.678 165.523 131.202C164.909 131.088 164.277 131.096 163.666 131.224" fill="black"/>
<path opacity="0.1" d="M167.256 184.202V187.195L164.63 187.364H150.814V184.202H167.256Z" fill="black"/>
<path d="M167.258 184.202V187.364H150.816L107.137 134.719V132.232H116.293L167.258 184.202Z" fill="#F1C0C0"/>
<path opacity="0.1" d="M167.258 184.202V187.364H150.816L107.137 134.719V132.232H116.293L167.258 184.202Z" fill="black"/>
<path opacity="0.1" d="M167.258 184.202V187.364H150.816L107.137 134.719V132.232L151.052 184.202H167.258Z" fill="black"/>
<path d="M112.861 236.967C112.89 237.116 112.886 237.269 112.851 237.416C112.815 237.564 112.749 237.703 112.655 237.824C112.561 237.946 112.442 238.047 112.306 238.123C112.17 238.198 112.019 238.245 111.862 238.262C110.802 238.607 109.678 238.948 108.927 239.729C108.176 240.51 108.027 241.959 108.927 242.594C109.387 242.86 109.915 242.999 110.452 242.993C112.179 243.107 113.978 243.085 115.545 242.381C116.666 241.882 117.721 241.031 118.953 241.108C119.589 241.145 120.268 241.431 120.836 241.152C121.404 240.873 121.564 240.096 121.568 239.447C121.582 238.091 121.37 236.743 120.939 235.452C120.882 235.276 118.457 235.141 118.167 235.086L115.228 234.719C114.672 234.649 113.471 234.246 113.033 234.693C112.594 235.141 112.861 236.435 112.861 236.967Z" fill="#6C63FF"/>
<path d="M130.401 227.812C130.525 228.473 130.727 229.118 131.003 229.734C131.411 230.732 131.933 231.792 132.932 232.276C133.839 232.713 134.952 232.555 135.875 232.14C136.26 231.987 136.597 231.741 136.855 231.425C137.152 230.926 137.285 230.352 137.236 229.778C137.236 228.359 137.148 226.892 136.473 225.63C135.894 224.53 134.884 223.583 134.869 222.366L131.396 223.011C131.21 223.028 131.033 223.096 130.885 223.206C130.775 223.317 130.698 223.455 130.664 223.605C130.293 224.978 130.204 226.407 130.401 227.812Z" fill="#6C63FF"/>
<path d="M88.9283 192.968C88.7835 194.149 88.8445 195.414 89.4849 196.434C90.1254 197.454 91.4748 198.129 92.6414 197.721C92.7011 197.707 92.7572 197.681 92.8063 197.645C92.8554 197.609 92.8966 197.564 92.9273 197.512C92.9583 197.388 92.9407 197.258 92.8777 197.146C92.3627 195.823 92.4051 194.36 92.9959 193.067C93.0721 192.898 93.2361 192.7 93.4152 192.766C93.4902 192.803 93.5505 192.862 93.5868 192.935C93.7713 193.242 93.8637 193.593 93.8536 193.947C93.7998 194.269 93.7895 194.595 93.8231 194.919C93.8955 195.235 94.2463 195.532 94.5512 195.396C94.6394 195.344 94.7156 195.275 94.7753 195.194C94.8349 195.112 94.8767 195.02 94.8981 194.923C95.7482 192.557 95.3632 189.971 94.9744 187.496C94.9776 187.439 94.9679 187.382 94.9458 187.329C94.9237 187.276 94.8898 187.229 94.8465 187.19C94.8033 187.151 94.7517 187.122 94.6954 187.104C94.6391 187.087 94.5795 187.081 94.5207 187.088C92.7214 186.916 91.7379 186.502 90.7086 188.112C89.8242 189.469 88.9283 191.336 88.9283 192.968Z" fill="#6C63FF"/>
<path d="M109.965 186.949C109.431 189.084 108.894 191.244 108.859 193.438C108.869 194.804 108.976 196.168 109.18 197.52L109.58 200.696C109.717 201.767 109.851 202.834 110.045 203.894C110.169 204.441 110.237 204.997 110.247 205.556C110.21 206.107 110.119 206.653 109.976 207.188C109.737 208.311 109.603 209.453 109.576 210.599C109.534 212.433 109.77 214.267 109.919 216.101C110.216 219.756 110.171 223.428 109.786 227.075C109.632 228.06 109.854 229.064 110.411 229.903C110.637 230.168 110.823 230.461 110.964 230.776C111.25 231.616 110.582 232.456 110.411 233.318C110.301 233.99 110.473 234.676 110.889 235.227C111.305 235.777 111.931 236.146 112.63 236.252C115.679 236.6 118.813 236.443 121.561 237.785C121.851 236.971 121.218 236.047 121.508 235.218C121.691 234.704 122.194 234.37 122.537 233.938C122.998 233.278 123.228 232.494 123.193 231.7C123.206 230.664 123.015 229.635 122.629 228.667C122.305 227.86 121.84 227.064 121.866 226.199C121.866 225.773 122.023 225.326 121.843 224.933C121.721 224.708 121.554 224.507 121.352 224.343C120.212 223.142 119.512 221.615 119.358 219.996C119.209 218.389 119.263 216.771 119.518 215.177C119.705 213.658 119.956 212.055 120.959 210.871C120.494 207.278 120.767 203.633 121.763 200.142C121.863 199.82 122.019 199.445 122.362 199.368C122.498 199.355 122.636 199.373 122.763 199.422C122.891 199.47 123.004 199.548 123.094 199.647C123.692 200.186 123.978 200.968 124.237 201.716C124.523 202.526 124.813 203.392 124.596 204.221C124.504 204.588 124.321 204.91 124.215 205.263C123.983 205.97 124.023 206.734 124.329 207.416C124.478 207.665 124.571 207.941 124.603 208.226C124.568 208.471 124.491 208.709 124.375 208.93C124.233 209.364 124.188 209.822 124.243 210.274C124.297 210.726 124.45 211.162 124.691 211.553C125.177 212.332 125.777 213.04 126.471 213.655C126.139 215.062 126.225 216.532 126.719 217.895C126.755 217.956 126.778 218.024 126.786 218.093C126.795 218.163 126.789 218.234 126.769 218.302C126.7 218.441 126.525 218.492 126.388 218.591C126.006 218.892 126.243 219.461 126.498 219.853C127.198 220.93 127.971 221.962 128.812 222.942C129.574 223.818 129.506 225.509 130.642 225.824C131.119 225.924 131.613 225.924 132.09 225.824C133.211 225.659 134.462 225.348 135.011 224.394C135.235 224.002 135.327 223.525 135.678 223.231C136.028 222.938 136.482 222.886 136.676 222.534C136.871 222.182 136.654 221.72 136.718 221.313C136.783 220.906 137.153 220.579 137.271 220.15C137.553 219.16 136.352 218.346 136.189 217.333C135.952 215.866 137.873 214.766 137.793 213.299C137.626 210.111 137.519 206.909 137.347 203.722C137.132 200.867 137.102 198.002 137.256 195.143C137.389 193.364 137.637 191.501 136.959 189.847C135.983 187.514 133.291 186.205 130.688 185.955C128.084 185.706 125.488 186.3 122.907 186.689C118.624 187.324 114.272 187.411 109.965 186.949Z" fill="#3F3D56"/>
<path d="M117.703 151.892C121.076 151.892 123.81 149.261 123.81 146.016C123.81 142.771 121.076 140.14 117.703 140.14C114.33 140.14 111.596 142.771 111.596 146.016C111.596 149.261 114.33 151.892 117.703 151.892Z" fill="#FBBEBE"/>
<path d="M115.218 152.989C115.011 153.453 114.662 153.847 114.218 154.117C113.773 154.388 113.254 154.522 112.729 154.503C112.508 155.384 113.038 156.271 113.644 156.965C114.903 158.374 116.529 159.434 118.356 160.037C120.182 160.64 122.143 160.763 124.036 160.394C124.772 160.267 125.471 159.987 126.083 159.572C126.908 158.91 127.462 157.987 127.646 156.968C127.821 155.957 127.871 154.929 127.794 153.906C127.816 153.704 127.756 153.501 127.627 153.341C127.474 153.227 127.286 153.168 127.093 153.172C125.805 153.062 124.459 153.014 123.327 152.405C122.194 151.797 121.39 150.421 121.935 149.292C121.848 149.468 119.621 149.552 119.328 149.589C118.409 149.713 117.49 149.853 116.575 150.014C116.136 150.037 115.701 150.116 115.283 150.249C114.73 150.524 114.936 150.388 115.066 150.887C115.26 151.65 115.546 152.196 115.218 152.989Z" fill="#FBBEBE"/>
<path d="M119.864 156.561C119.041 156.57 118.221 156.483 117.42 156.301C116.612 156.119 115.9 155.662 115.415 155.013C115.133 154.602 114.95 154.085 114.5 153.854C113.764 153.487 112.926 154.107 112.339 154.676C111.804 155.237 111.185 155.716 110.501 156.099C109.685 156.513 108.732 156.66 107.962 157.148C107.361 157.585 106.845 158.122 106.438 158.732L101.036 165.811C98.8667 168.658 96.9797 171.713 95.0469 174.717C93.3734 177.317 92.4966 180.31 91.2348 183.116C91.1349 183.288 91.0935 183.485 91.1166 183.681C91.1624 183.872 91.4025 184.026 91.5703 183.916C91.0023 184.459 91.5017 185.383 91.3682 186.146C91.2166 186.68 90.9002 187.157 90.4609 187.514C91.3 187.409 92.1518 187.447 92.9769 187.628C93.8297 187.86 94.6344 188.232 95.3557 188.728C95.817 188.658 95.775 187.87 96.1181 187.576C96.324 187.404 96.629 187.426 96.8996 187.375C97.9175 187.184 98.3215 186.006 99.103 185.343C99.7549 184.789 100.677 184.609 101.367 184.088C102.488 183.241 102.728 181.733 103.315 180.483C103.815 179.423 104.6 178.498 105.039 177.413C105.324 176.708 105.462 175.946 105.87 175.296C106.521 174.247 107.749 173.69 108.919 173.187C109.659 172.868 110.444 172.538 111.241 172.59C111.199 174.295 110.974 175.975 111.359 177.64C111.492 178.227 111.679 178.799 111.839 179.382C112.567 182.008 112.739 184.745 112.773 187.452C114.525 187.066 116.314 186.859 118.11 186.835C119.525 186.795 120.935 186.971 122.349 186.945C124.027 186.916 125.685 186.604 127.362 186.494C129.04 186.384 130.793 186.494 132.276 187.228C132.156 184.903 132.223 182.573 132.478 180.259L132.882 176.613C132.973 175.554 133.143 174.502 133.389 173.466C133.61 172.63 133.931 171.823 134.175 170.99C135.032 168.056 134.876 164.924 134.712 161.868C134.628 160.299 133.999 158.754 133.26 157.357C132.992 156.838 132.686 156.338 132.345 155.861C131.451 154.676 130.26 153.728 128.883 153.106C127.506 152.484 125.987 152.208 124.469 152.303C124.275 152.309 124.084 152.348 123.905 152.42C123.583 152.618 123.332 152.906 123.184 153.245C122.396 154.609 121.251 155.752 119.864 156.561Z" fill="#3F3D56"/>
<path d="M112.332 147.964C112.504 147.597 112.965 147.461 113.247 147.168C113.788 146.61 113.545 145.719 113.628 144.967C113.766 143.867 114.715 142.946 115.801 142.554C116.909 142.212 118.088 142.14 119.232 142.345C119.783 142.383 120.315 142.554 120.78 142.84C120.978 142.979 121.161 143.159 121.348 143.287C121.688 143.485 122.096 143.548 122.483 143.46C122.871 143.373 123.208 143.144 123.422 142.822C122.072 141.259 120.578 139.609 118.527 139.128C117.823 138.99 117.106 138.925 116.388 138.934C115.439 138.915 114.459 138.901 113.583 139.249C112.389 139.722 111.551 140.812 111.12 141.985C110.743 143.175 110.542 144.41 110.522 145.653C110.443 146.483 110.443 147.318 110.522 148.147C110.669 149.28 111.106 150.36 111.795 151.291C111.888 151.435 112.019 151.553 112.176 151.632C113.914 152.365 112.191 148.268 112.332 147.964Z" fill="#3F3D56"/>
<path d="M123.222 141.916C123.013 140.188 121.732 138.761 120.371 137.613C119.274 136.618 117.967 135.861 116.54 135.394C115.102 134.987 113.448 135.075 112.217 135.9C111.226 136.564 110.597 137.621 110.112 138.684C109.476 139.939 109.161 141.323 109.194 142.719C109.289 144.105 109.99 145.51 111.241 146.211C111.691 145.572 112.472 145.242 113.223 144.982C116.496 143.787 119.834 142.763 123.222 141.916Z" fill="#FED253"/>
<path opacity="0.1" d="M111.661 141.197C111.783 141.197 111.863 141.318 111.924 141.417C112.234 141.882 112.501 142.373 112.72 142.884C112.274 142.975 111.508 143.078 111.287 142.7C111.169 142.51 111.31 141.178 111.661 141.197Z" fill="black"/>
<path opacity="0.1" d="M120.349 140.368C120.258 140.452 120.151 140.28 120.151 140.155V138.732C120.148 138.692 120.158 138.653 120.177 138.618C120.193 138.601 120.213 138.587 120.234 138.576C120.256 138.566 120.279 138.561 120.303 138.559C120.612 138.526 120.867 138.78 121.066 139.022C121.367 139.414 121.628 139.833 121.847 140.272L120.235 140.225" fill="black"/>
<path d="M140.472 163.933C140.823 163.613 141.198 163.318 141.593 163.05C142.649 162.371 143.926 162.103 145.112 161.67C146.297 161.238 147.502 160.537 147.963 159.4C148.194 158.689 148.269 157.94 148.184 157.199C148.195 156.889 148.138 156.581 148.016 156.293C147.871 156.04 147.665 155.823 147.414 155.663C145.805 154.518 143.648 154.426 141.65 154.544C137.246 154.807 132.93 155.843 128.914 157.603C128.701 157.67 128.515 157.798 128.38 157.97C128.302 158.129 128.267 158.304 128.277 158.479C128.206 159.561 128.352 160.646 128.708 161.674C129.234 162.98 130.317 164.033 130.77 165.364C130.976 165.962 131.045 166.596 131.224 167.198C131.371 167.819 131.753 168.366 132.295 168.731C133.801 169.597 135.223 168.434 136.267 167.532L140.472 163.933Z" fill="#3F3D56"/>
<path d="M120.752 169.013L118.82 164.957C118.536 164.395 118.292 163.815 118.088 163.222C117.867 162.514 117.76 161.78 117.554 161.069C116.875 158.7 115.164 156.726 114.329 154.404C114.276 154.195 114.169 154.002 114.016 153.843C113.895 153.76 113.755 153.704 113.608 153.679C113.461 153.654 113.311 153.66 113.166 153.697C112 153.891 111.089 154.746 110.021 155.23C109.526 155.45 108.992 155.597 108.496 155.85C108.249 155.962 108.029 156.125 107.853 156.327C107.677 156.529 107.548 156.765 107.475 157.02C107.357 157.581 107.646 158.12 107.89 158.666C108.927 160.919 109.164 163.435 109.209 165.899C109.244 167.557 109.156 169.336 108.138 170.668C106.182 173.235 107.433 177.006 108.165 180.112C108.252 180.479 108.355 180.875 108.416 181.264C108.481 181.75 108.51 182.241 108.504 182.731C108.504 184.378 108.409 186.076 107.692 187.569C108.4 187.931 109.179 188.144 109.979 188.192C112.193 188.464 114.415 188.655 116.647 188.765C117.346 188.828 118.051 188.793 118.74 188.662C119.558 188.449 120.279 187.98 120.789 187.329C121.299 186.679 121.569 185.883 121.557 185.067C121.679 186.083 121.904 187.188 122.67 187.892C123.436 188.596 124.553 188.702 125.594 188.757C128.531 188.907 131.476 188.827 134.4 188.519C134.586 188.511 134.77 188.47 134.941 188.398C135.505 188.126 135.536 187.378 135.49 186.777C135.406 185.651 135.319 184.525 135.178 183.406C135.058 182.693 134.997 181.972 134.995 181.249C135.053 180.506 135.18 179.77 135.376 179.049C135.887 176.76 136.291 174.423 136.119 172.08C136.051 171.509 136.027 170.934 136.047 170.36C136.146 169.065 136.855 167.832 136.721 166.545C136.34 162.76 136.031 158.876 134.934 155.222C134.735 154.57 134.484 153.869 133.893 153.495C133.13 153.003 132.059 153.26 131.186 152.948C130.777 152.765 130.387 152.543 130.024 152.284C129.234 151.809 128.328 151.541 127.397 151.507C126.696 151.481 125.914 151.632 125.491 152.174C125.295 152.48 125.165 152.821 125.11 153.176C124.557 155.413 123.909 157.625 123.261 159.837L122.639 161.957L120.974 167.649C120.81 168.254 120.92 168.441 120.752 169.013Z" fill="#6C63FF"/>
<path d="M130.5 146.805L167.375 184.088V187.25H150.933L123.223 152.453" fill="#F1C0C0"/>
<path opacity="0.1" d="M130.5 146.805L167.375 184.088V187.25H150.933L123.223 152.453" fill="black"/>
<path opacity="0.1" d="M123.81 151.962L123.928 152.002L151.169 184.088H167.375V187.25H150.933L123.223 152.453L123.81 151.962Z" fill="black"/>
<path d="M128.052 152.747C126.718 153.308 125.235 154.027 124.835 155.376C124.756 155.613 124.739 155.865 124.785 156.11C124.883 156.398 125.069 156.65 125.319 156.834C125.568 157.018 125.87 157.125 126.184 157.141C126.812 157.155 127.436 157.045 128.018 156.818L135.89 154.316C136.104 154.25 136.348 154.151 136.401 153.95C136.415 153.823 136.388 153.695 136.325 153.583C136.081 153.011 135.841 151.841 135.33 151.441C134.91 151.118 134.079 151.232 133.572 151.239C131.621 151.254 129.787 152.013 128.052 152.747Z" fill="#6C63FF"/>
<path d="M135.072 154.614C136.398 154.61 137.717 154.807 138.979 155.197C140.248 155.593 141.371 156.331 142.216 157.324C142.462 157.602 142.637 157.931 142.727 158.285C142.803 158.652 144.046 158.872 143.771 159.121C144.606 158.993 144.408 159.371 145.254 159.363C146.1 159.356 147.015 159.147 147.522 158.498C147.874 157.964 148.031 157.333 147.968 156.704C147.979 156.269 147.894 155.836 147.717 155.435C147.335 154.665 146.459 154.25 145.65 153.895L138.842 150.898C138.447 150.696 138.023 150.551 137.584 150.469C137.214 150.435 136.842 150.444 136.475 150.495L133.391 150.836C134.065 151.256 134.614 151.837 134.984 152.524C135.353 153.21 135.531 153.977 135.499 154.749" fill="#3F3D56"/>
</g>
<defs>
<clipPath id="clip0_245_435">
<rect width="449" height="265.723" fill="white"/>
</clipPath>
</defs>
</svg>
