<svg width="527" height="464" viewBox="0 0 527 464" fill="none" xmlns="http://www.w3.org/2000/svg">
<g clip-path="url(#clip0_562_970)">
<path d="M434.226 226.637L456.473 199.725L438.266 183.748L429.272 205.862L388.465 220.854C387.089 219.975 385.514 219.559 383.93 219.658C382.346 219.758 380.822 220.367 379.544 221.413C378.267 222.459 377.29 223.895 376.734 225.548C376.178 227.2 376.066 228.996 376.412 230.718C376.758 232.44 377.547 234.012 378.682 235.244C379.818 236.476 381.252 237.314 382.808 237.655C384.365 237.996 385.977 237.827 387.448 237.167C388.919 236.507 390.186 235.385 391.094 233.938L434.226 226.637Z" fill="#FFB6B6"/>
<path d="M475.008 165.831C479.04 175.831 454.437 204.399 454.437 204.399C447.709 210.45 446.642 225.597 438.302 227.283C415.804 231.832 429.796 227.072 423.985 229.558C418.516 231.897 423.553 211.876 419.894 210.604C417.802 209.876 429.439 201.506 429.439 201.506C429.439 201.506 439.926 178.633 446.375 166.77C448.142 163.378 450.652 160.539 453.671 158.516C456.69 156.493 460.121 155.353 463.643 155.201C463.643 155.201 470.975 155.831 475.008 165.831Z" fill="#E6E6E6"/>
<path d="M370.847 463.101H115.216C109.158 463.094 103.349 460.414 99.0644 455.649C94.7801 450.885 92.3701 444.425 92.3633 437.687V25.4145C92.3701 18.6765 94.7801 12.2167 99.0644 7.45215C103.349 2.68765 109.158 0.00760938 115.216 0H370.847C376.906 0.00761139 382.715 2.68765 386.999 7.45215C391.284 12.2167 393.694 18.6765 393.701 25.4145V437.687C393.694 444.425 391.284 450.885 386.999 455.649C382.715 460.414 376.906 463.094 370.847 463.101Z" fill="#3F3D56"/>
<path d="M371.298 446.886H114.767C112.9 446.884 111.109 446.058 109.788 444.589C108.468 443.12 107.725 441.129 107.723 439.052V24.0492C107.725 21.9721 108.468 19.9808 109.788 18.5121C111.109 17.0434 112.9 16.2172 114.767 16.2148H371.298C373.166 16.2172 374.957 17.0434 376.277 18.5121C377.598 19.9808 378.341 21.9721 378.343 24.0492V439.052C378.341 441.129 377.598 443.12 376.277 444.589C374.957 446.058 373.166 446.884 371.298 446.886Z" fill="white"/>
<path d="M127.281 207.177C127.997 196.364 129.179 183.07 138.8 177.293C143.339 174.567 148.146 175.532 152.71 177.656C157.12 179.71 161.275 182.157 166.024 183.122C174.212 184.693 182.637 183.288 190.05 179.115C197.517 174.986 203.508 168.168 207.046 159.771C208.868 155.5 210.373 150.872 213.057 147.145C214.407 145.188 216.197 143.661 218.247 142.718C220.296 141.775 222.533 141.448 224.732 141.772C234.819 143.157 241.513 152.986 249.555 158.773C253.423 161.555 257.864 163.587 262.547 163.338C267.35 163.083 271.705 160.554 275.386 157.253C283.197 150.248 287.467 139.415 295.665 132.888C299.551 129.87 304.061 127.996 308.774 127.439C313.488 126.882 318.251 127.66 322.621 129.702C331.022 133.732 336.971 142.763 338.542 152.7C338.918 155.149 339.016 157.64 338.831 160.116C338.729 161.575 340.775 161.568 340.877 160.116C341.183 154.965 340.415 149.806 338.633 145.04C336.85 140.274 334.1 136.031 330.599 132.642C323.347 125.684 313.215 123.423 303.999 126.1C299.307 127.484 294.994 130.135 291.444 133.818C287.653 137.707 284.662 142.418 281.462 146.884C278.34 151.241 274.895 155.448 270.513 158.262C268.415 159.684 266.063 160.581 263.622 160.89C261.18 161.198 258.708 160.912 256.376 160.05C251.646 158.275 247.638 154.619 243.853 151.119C239.952 147.51 236.069 143.9 231.38 141.608C227.02 139.476 222.02 138.442 217.481 140.541C213.389 142.434 210.681 146.363 208.673 150.612C206.636 154.926 205.185 159.577 202.807 163.69C200.508 167.627 197.557 171.042 194.111 173.755C187.112 179.316 178.602 182.02 170.018 181.41C165.354 181.042 161.113 179.403 156.89 177.256C152.228 174.886 147.319 172.421 142.074 173.569C137.55 174.56 133.743 177.978 131.101 182.061C128.049 186.776 126.709 192.556 126.009 198.232C125.643 201.202 125.434 204.189 125.236 207.177C125.139 208.637 127.185 208.631 127.281 207.177Z" fill="#E4E4E4"/>
<path d="M488.812 452.146L479.101 452.145L474.48 410.487L488.814 410.488L488.812 452.146Z" fill="#FFB6B6"/>
<path d="M488.553 448.615L478.191 443.934L477.885 443.795L472.163 448.615C469.023 448.615 466.004 449.963 463.736 452.378C461.468 454.793 460.126 458.089 459.99 461.577C459.975 461.769 459.975 461.97 459.975 462.17V462.615H491.289V448.615H488.553Z" fill="#2F2E41"/>
<path d="M466.07 442.094L456.908 445.678L440.117 408.088L453.638 402.798L466.07 442.094Z" fill="#FFB6B6"/>
<path d="M464.771 438.86L453.6 438.27L453.27 438.251L449.311 444.91C446.348 446.069 443.903 448.454 442.484 451.57C441.066 454.685 440.783 458.289 441.696 461.63C441.739 461.817 441.799 462.006 441.858 462.195L441.991 462.615L471.53 451.056L467.352 437.851L464.771 438.86Z" fill="#2F2E41"/>
<path d="M492.244 272.526C501.128 272.143 490.122 350.882 490.122 350.882C490.122 350.882 493.342 420.012 492.659 423.639C491.977 427.267 492.573 437.051 492.573 437.051C490.833 433.528 472.874 436.187 472.874 436.187L470.431 366.125L457.957 309.988L440.664 347.617L457.239 405.376C457.239 405.376 463.951 412.283 463.237 415.013C462.523 417.742 444.942 423.898 441.711 424.037C438.48 424.177 439.939 419.616 439.782 415.125C439.626 410.633 424.423 369.008 419.075 354.846C413.728 340.683 417.885 320.712 420.615 306.201C423.344 291.69 437.705 264.457 437.705 264.457C455.53 242.099 483.359 272.909 492.244 272.526Z" fill="#2F2E41"/>
<path d="M467.382 141.707C476.741 141.707 484.328 133.27 484.328 122.862C484.328 112.454 476.741 104.017 467.382 104.017C458.023 104.017 450.436 112.454 450.436 122.862C450.436 133.27 458.023 141.707 467.382 141.707Z" fill="#FFB6B6"/>
<path d="M458.908 154.162C455.257 156.576 453.073 161.011 451.82 165.524C449.499 173.879 448.102 182.517 447.659 191.248L442.837 243.337L433.529 268.983C453.433 267.062 497.573 276.081 497.573 276.081C497.573 276.081 499.213 275.473 497.573 273.649C495.933 271.825 494.336 273.441 495.976 271.617C497.616 269.794 496.486 271.825 495.939 270.002C495.392 268.178 495.939 269.394 496.486 268.786C497.032 268.178 492.254 262.707 492.254 262.707L496.627 230.76L502.093 166.321C495.533 157.202 482.341 151.826 482.341 151.826L478.932 145.003L461.888 146.519L458.908 154.162Z" fill="#E6E6E6"/>
<path d="M508.514 226.206L504.309 198.639L489.674 201.588L490.96 225.701L484.554 275.892C483.063 276.492 481.76 277.562 480.805 278.971C479.851 280.381 479.286 282.068 479.179 283.828C479.072 285.589 479.428 287.345 480.203 288.885C480.978 290.424 482.14 291.679 483.545 292.497C484.951 293.315 486.54 293.66 488.119 293.491C489.698 293.322 491.199 292.645 492.438 291.544C493.678 290.443 494.602 288.964 495.099 287.289C495.596 285.613 495.644 283.813 495.236 282.108L508.514 226.206Z" fill="#FFB6B6"/>
<path d="M496.423 161.7C505.893 164.733 509.624 204.071 509.624 204.071C513.913 223.057 505.795 231.052 503.735 230.969C497.879 230.731 494.635 225.157 491.399 227.443C489.549 228.75 489.203 213.731 489.203 213.731C489.203 213.731 482.562 199.758 478.58 186.622C477.392 182.931 477.063 178.966 477.623 175.096C478.184 171.226 479.616 167.577 481.786 164.488C481.786 164.488 486.953 158.668 496.423 161.7Z" fill="#E6E6E6"/>
<path d="M486.772 117.102C486.716 114.041 486.404 110.125 484.476 107.001C482.849 104.374 479.567 102.292 476.507 103.333C476.542 102.652 476.406 101.975 476.115 101.375C475.823 100.776 475.388 100.278 474.858 99.9368C473.685 99.2697 472.391 98.9073 471.074 98.8771C467.97 98.5549 464.755 98.2202 461.612 98.8833C458.085 99.627 455.199 101.647 453.7 104.43L453.666 104.516L453.36 106.165C453.319 106.386 453.235 106.594 453.115 106.776C452.995 106.958 452.841 107.109 452.663 107.218C452.485 107.329 452.288 107.395 452.085 107.411C451.881 107.427 451.677 107.393 451.487 107.311C451.279 107.224 451.055 107.2 450.835 107.239C450.616 107.278 450.41 107.381 450.237 107.536C450.064 107.691 449.931 107.894 449.85 108.124C449.769 108.354 449.744 108.604 449.777 108.848L449.86 109.505L448.974 109.319C448.752 109.271 448.522 109.29 448.308 109.374C448.095 109.458 447.905 109.604 447.759 109.796C447.613 109.989 447.516 110.222 447.478 110.47C447.44 110.718 447.462 110.973 447.542 111.209L447.787 111.959C447.604 111.962 447.424 112.005 447.256 112.087C447.089 112.169 446.938 112.288 446.812 112.436C446.633 112.652 446.521 112.926 446.491 113.218C446.46 113.509 446.515 113.804 446.645 114.06C447.638 115.945 449.045 117.518 450.735 118.633C451.495 119.142 452.314 119.532 453.17 119.792C453.349 119.848 453.532 119.897 453.722 119.941C460.564 121.58 467.617 121.816 474.535 120.635C474.127 122.152 473.971 123.74 474.072 125.32C474.132 126.216 474.412 127.076 474.88 127.808C475.349 128.54 475.989 129.115 476.73 129.472C477.046 129.59 477.37 129.677 477.7 129.732C478.016 129.789 478.327 129.874 478.631 129.986C479.079 130.168 479.476 130.479 479.781 130.887C480.086 131.295 480.29 131.786 480.37 132.309C480.45 132.832 480.405 133.37 480.238 133.867C480.072 134.364 479.79 134.804 479.422 135.142C479.422 135.142 480.882 136.486 481.066 136.418C481.783 136.066 482.384 135.472 482.782 134.72C485.563 130.271 486.906 124.347 486.772 117.102Z" fill="#2F2E41"/>
<path d="M42.8135 401.344L40.8227 412.451C40.6727 413.301 40.516 414.165 40.3455 415.022C38.6817 414.638 36.9565 414.745 35.3414 415.332C36.6228 417.369 37.7711 419.505 38.7775 421.724C37.523 426.023 35.6823 429.995 32.6007 432.869C30.5426 434.745 28.0844 436 25.4633 436.513C22.8421 437.026 20.1464 436.778 17.6361 435.795L17.7247 435.356C14.4114 428.206 16.2112 419.192 20.3291 412.588C22.4293 409.33 24.9178 406.405 27.7261 403.892C30.5077 401.314 33.5143 399.001 36.4936 396.719C37.1627 396.208 37.9539 395.929 38.7659 395.92C39.578 395.911 40.374 396.171 41.0524 396.668C41.7308 397.164 42.2607 397.874 42.5744 398.707C42.8881 399.54 42.9713 400.458 42.8135 401.344Z" fill="#E4E4E4"/>
<path d="M18.3444 462.521C17.5065 455.733 16.6448 448.859 17.2325 441.998C17.7547 435.906 19.4257 429.955 22.829 425.075C24.6354 422.49 26.8334 420.275 29.3242 418.53C29.9739 418.075 30.5711 419.219 29.9248 419.672C25.6152 422.701 22.2819 427.174 20.4054 432.445C18.3328 438.307 18.0001 444.698 18.3601 450.925C18.5762 454.691 19.0337 458.431 19.4952 462.168C19.5324 462.338 19.51 462.516 19.4327 462.667C19.3554 462.819 19.229 462.932 19.0793 462.983C18.9271 463.028 18.7648 463.006 18.6278 462.919C18.4907 462.832 18.3898 462.689 18.3471 462.52L18.3444 462.521Z" fill="#F2F2F2"/>
<path d="M242.059 9.94512C243.133 9.94512 244.003 8.97715 244.003 7.78311C244.003 6.58906 243.133 5.62109 242.059 5.62109C240.986 5.62109 240.115 6.58906 240.115 7.78311C240.115 8.97715 240.986 9.94512 242.059 9.94512Z" fill="white"/>
<path d="M355.726 207.918H125.126C124.935 207.918 124.751 207.834 124.616 207.683C124.48 207.533 124.404 207.329 124.404 207.116L124.755 206.223L355.726 206.313C355.917 206.312 356.101 206.396 356.237 206.546C356.373 206.696 356.449 206.9 356.45 207.113C356.451 207.326 356.375 207.53 356.24 207.681C356.106 207.832 355.922 207.917 355.731 207.918L355.726 207.918Z" fill="#3F3D56"/>
<path d="M168.99 202.304H167.574V206.789H168.99V202.304Z" fill="#3F3D56"/>
<path d="M211.365 176.525H209.949V206.788H211.365V176.525Z" fill="#3F3D56"/>
<path d="M253.828 140.134H252.412V206.789H253.828V140.134Z" fill="#3F3D56"/>
<path d="M296.29 109.048H294.875V206.788H296.29V109.048Z" fill="#3F3D56"/>
<path d="M338.753 180.316H337.338V206.788H338.753V180.316Z" fill="#3F3D56"/>
<path d="M295.67 103.6C298.061 103.6 300 101.444 300 98.7851C300 96.1256 298.061 93.9697 295.67 93.9697C293.278 93.9697 291.34 96.1256 291.34 98.7851C291.34 101.444 293.278 103.6 295.67 103.6Z" fill="#C71A7B"/>
<path d="M253.889 131.847C256.28 131.847 258.219 129.692 258.219 127.032C258.219 124.373 256.28 122.217 253.889 122.217C251.497 122.217 249.559 124.373 249.559 127.032C249.559 129.692 251.497 131.847 253.889 131.847Z" fill="#6C63FF"/>
<path d="M338.133 176.262C340.524 176.262 342.463 174.106 342.463 171.446C342.463 168.787 340.524 166.631 338.133 166.631C335.741 166.631 333.803 168.787 333.803 171.446C333.803 174.106 335.741 176.262 338.133 176.262Z" fill="#6C63FF"/>
<path d="M209.527 374.923V318.107C209.527 317.378 210.289 316.787 211.23 316.787H218.826C219.766 316.787 220.528 317.378 220.528 318.107V375.071L209.527 374.923Z" fill="#3F3D56"/>
<path d="M234.615 375.113V331.701C234.615 331.001 235.377 330.434 236.317 330.434H243.914C244.854 330.434 245.616 331.001 245.616 331.701V375.02L234.615 375.113Z" fill="#3F3D56"/>
<path d="M284.795 375.013V352.934C284.729 352.67 285.488 352.441 286.497 352.421H294.093C295.103 352.441 295.862 352.67 295.796 352.934V375.071L284.795 375.013Z" fill="#AA217F"/>
<path d="M184.438 375.013V352.934C184.438 352.651 185.2 352.421 186.14 352.421H193.736C194.676 352.421 195.438 352.651 195.438 352.934V375.071L184.438 375.013Z" fill="#3F3D56"/>
<path d="M259.705 374.793V268.174C259.705 266.807 260.467 265.698 261.407 265.698H269.003C269.944 265.698 270.706 266.807 270.706 268.174V375.071L259.705 374.793Z" fill="#6C63FF"/>
<path d="M328.532 376.052H156.729C156.548 376.052 156.374 375.973 156.247 375.83C156.119 375.688 156.047 375.495 156.047 375.294C156.047 375.093 156.119 374.9 156.247 374.758C156.374 374.616 156.548 374.536 156.729 374.536H328.532C328.713 374.536 328.886 374.616 329.014 374.758C329.142 374.9 329.214 375.093 329.214 375.294C329.214 375.495 329.142 375.688 329.014 375.83C328.886 375.973 328.713 376.052 328.532 376.052Z" fill="#3F3D56"/>
<path d="M526.318 464H0.681759C0.500946 464 0.327537 463.92 0.199682 463.778C0.0718275 463.635 0 463.443 0 463.242C0 463.04 0.0718275 462.848 0.199682 462.705C0.327537 462.563 0.500946 462.483 0.681759 462.483H526.318C526.499 462.483 526.672 462.563 526.8 462.705C526.928 462.848 527 463.04 527 463.242C527 463.443 526.928 463.635 526.8 463.778C526.672 463.92 526.499 464 526.318 464Z" fill="#CACACA"/>
<path d="M168.475 197.317C170.866 197.317 172.805 195.161 172.805 192.502C172.805 189.842 170.866 187.687 168.475 187.687C166.083 187.687 164.145 189.842 164.145 192.502C164.145 195.161 166.083 197.317 168.475 197.317Z" fill="#6C63FF"/>
<path d="M210.744 170.781C213.136 170.781 215.074 168.625 215.074 165.966C215.074 163.306 213.136 161.15 210.744 161.15C208.353 161.15 206.414 163.306 206.414 165.966C206.414 168.625 208.353 170.781 210.744 170.781Z" fill="#6C63FF"/>
</g>
<defs>
<clipPath id="clip0_562_970">
<rect width="527" height="464" fill="white"/>
</clipPath>
</defs>
</svg>
