<svg width="21" height="18" viewBox="0 0 21 18" fill="none" xmlns="http://www.w3.org/2000/svg">
<path d="M1.83623 3.59518L1.81239 3.56894V3.60439V11.9913C1.81239 12.4672 2.17627 12.7963 2.55652 12.7963H9.31305C9.80976 12.7963 10.2124 13.199 10.2124 13.6957C10.2124 14.1924 9.80976 14.595 9.31305 14.595H2.55652C1.12166 14.595 0.0136957 13.3983 0.0136957 11.9913V2.6174C0.0136957 2.04357 0.196044 1.50828 0.508112 1.07436C0.964513 0.439735 1.70711 0.0136957 2.55652 0.0136957H15.7044C16.5538 0.0136957 17.2964 0.439735 17.7528 1.07436C18.0649 1.50828 18.2472 2.04358 18.2472 2.6174V7.42606C18.2472 7.92277 17.8446 8.32541 17.3478 8.32541C16.8511 8.32541 16.4485 7.92277 16.4485 7.42606V3.60439V3.56894L16.4247 3.59518L11.1477 9.40391C10.0663 10.5943 8.19458 10.5943 7.11315 9.40391L1.83623 3.59518ZM2.67769 1.81239H2.64674L2.66755 1.8353L8.4445 8.19438C8.81222 8.59918 9.44869 8.59918 9.81642 8.19438L15.5933 1.8353L15.6141 1.81239H15.5832H2.67769ZM17.8827 12.7963H17.9158L17.8924 12.7729L16.7119 11.5925C16.3607 11.2413 16.3607 10.6718 16.7119 10.3206C17.0631 9.96941 17.6326 9.96941 17.9838 10.3206L20.7229 13.0597C21.0741 13.4109 21.0741 13.9804 20.7229 14.3316L17.9838 17.0707C17.6326 17.4219 17.0631 17.4219 16.7119 17.0707C16.3607 16.7195 16.3607 16.1501 16.7119 15.7989L17.8924 14.6184L17.9158 14.595H17.8827H13.6957C13.199 14.595 12.7963 14.1924 12.7963 13.6957C12.7963 13.199 13.199 12.7963 13.6957 12.7963H17.8827Z" fill="white" stroke="white" stroke-width="0.0273913"/>
</svg>
