<svg width="17" height="17" viewBox="0 0 17 17" fill="none" xmlns="http://www.w3.org/2000/svg">
<path d="M6.41873 2.04769C6.16562 1.41492 5.55278 1 4.87127 1H2.57895C1.70692 1 1 1.70675 1 2.57878C1 9.99102 7.00901 16 14.4213 16C15.2933 16 16 15.293 16 14.421L16.0004 12.1284C16.0004 11.4468 15.5856 10.8341 14.9529 10.5809L12.7558 9.70243C12.1874 9.4751 11.5403 9.57743 11.0699 9.96935L10.5029 10.4423C9.84077 10.9941 8.86635 10.9502 8.25685 10.3407L6.66019 8.7426C6.05067 8.13301 6.00562 7.15943 6.55747 6.49724L7.03026 5.93026C7.42218 5.45997 7.52543 4.81264 7.2981 4.24425L6.41873 2.04769Z" stroke="white" stroke-width="1.66667" stroke-linecap="round" stroke-linejoin="round"/>
</svg>
