<svg width="332" height="399" viewBox="0 0 332 399" fill="none" xmlns="http://www.w3.org/2000/svg">
<g clip-path="url(#clip0_318_1957)">
<path d="M2.37031 190.836C3.58836 192.869 5.23762 194.609 7.20192 195.936C9.16621 197.263 11.3978 198.143 13.7394 198.515C16.081 198.886 18.4758 198.741 20.7549 198.088C23.0341 197.435 25.1423 196.291 26.931 194.736L76.9262 223.383L75.0629 193.519L27.8722 170.894C25.0584 168.065 21.3037 166.365 17.3195 166.117C13.3354 165.87 9.39856 167.09 6.25512 169.548C3.11167 172.007 0.979982 175.531 0.263989 179.455C-0.452005 183.378 0.29744 187.428 2.37031 190.836Z" fill="#FFB8B8"/>
<path d="M147.111 305.597C132.281 326.334 132.811 361.029 136.949 399H207.067L210.115 391.893L214.18 399H280.233C280.233 399 275.152 302.551 266.007 299.505C256.861 296.46 147.111 305.597 147.111 305.597Z" fill="#2F2E41"/>
<path d="M207.067 88.9346C226.71 88.9346 242.634 73.0255 242.634 53.4007C242.634 33.776 226.71 17.8669 207.067 17.8669C187.424 17.8669 171.5 33.776 171.5 53.4007C171.5 73.0255 187.424 88.9346 207.067 88.9346Z" fill="#FFB8B8"/>
<path d="M232.774 98.1538L239.729 111.472L287.837 132.898L275.191 255.16L269.869 267.821L272.744 278.816L265.812 286.93C272.771 293.221 273.655 299.806 269.869 306.618L247.715 311.688C247.715 311.688 124.536 322.632 134.917 303.566C146.26 282.735 149.148 221.214 124.108 188.339C102.849 160.428 119.17 124.212 119.17 124.212L169.596 109.156L188.144 98.1538L232.774 98.1538Z" fill="#3F3D56"/>
<path d="M222.857 1.3493C223.024 0.996001 223.293 0.700676 223.63 0.501252C223.966 0.301827 224.354 0.207407 224.745 0.230123C208.462 -0.742984 191.31 1.1531 177.688 10.1179C174.387 12.2898 171.276 14.8803 167.685 16.4558C167.515 16.5319 167.368 16.6505 167.258 16.8001C167.148 16.9497 167.079 17.1252 167.056 17.3095C167.034 17.4938 167.06 17.6807 167.132 17.8521C167.203 18.0234 167.318 18.1734 167.465 18.2874L167.859 18.5965C168.015 18.7184 168.134 18.8806 168.204 19.0655C168.273 19.2504 168.291 19.4508 168.255 19.6451C168.218 19.8393 168.13 20.0199 167.998 20.1672C167.866 20.3144 167.696 20.4228 167.507 20.4804C167.31 20.5404 167.134 20.6555 167 20.8122C166.866 20.9688 166.78 21.1603 166.751 21.3643C166.723 21.5683 166.753 21.7762 166.839 21.9635C166.925 22.1508 167.062 22.3097 167.235 22.4215L170.258 24.3734C170.41 24.47 170.536 24.6032 170.623 24.7609C170.71 24.9185 170.757 25.0955 170.758 25.2757C170.759 25.4559 170.714 25.6334 170.629 25.792C170.543 25.9506 170.419 26.0852 170.268 26.1834C170.012 26.3414 169.743 26.4776 169.464 26.5906C169.291 26.6557 169.137 26.7644 169.018 26.9062C168.898 27.048 168.818 27.218 168.783 27.4C168.749 27.582 168.762 27.7698 168.821 27.9452C168.881 28.1207 168.984 28.2779 169.122 28.4017C170.431 29.5659 171.435 31.0324 172.047 32.6732C173.054 35.2905 173.235 38.1409 173.406 40.9398C174.447 36.9013 178.858 34.5239 183.026 34.2824C187.193 34.0408 191.257 35.4145 195.313 36.402C204.146 38.5466 213.321 38.8992 222.293 37.4389C219.246 43.5474 221.816 50.8335 224.402 57.1503L232.774 53.5655C244.271 47.0818 236.262 74.5091 231.964 78.2744C240.74 81.3142 263.711 47.5759 256.321 34.7781C252.477 28.1209 255.206 19.5347 247.648 13.2208C243.944 9.32535 236.549 11.0568 232.774 7.81915C231.287 6.54488 233.553 3.13575 231.51 2.39279C230.832 2.14602 222.969 1.10059 222.857 1.3493Z" fill="#2F2E41"/>
<path d="M162.612 112.596C156.086 141.543 139.346 209.132 122.364 223.267C121.287 224.283 119.995 225.045 118.585 225.497C58.8908 240.025 39.7637 202.965 39.7637 202.965C39.7637 202.965 55.7609 195.177 56.1666 179.953L88.4277 189.953L116.55 126.725L120.689 122.868L120.712 122.845L162.612 112.596Z" fill="#3F3D56"/>
<path d="M289.889 379.913C291.598 378.271 292.926 376.275 293.78 374.065C294.633 371.855 294.992 369.485 294.829 367.122C294.667 364.759 293.988 362.46 292.84 360.387C291.692 358.314 290.103 356.518 288.186 355.125L304.92 300.025L276.207 308.536L264.718 359.555C262.589 362.929 261.773 366.965 262.425 370.9C263.076 374.835 265.15 378.394 268.252 380.903C271.355 383.413 275.271 384.698 279.259 384.515C283.247 384.333 287.029 382.695 289.889 379.913Z" fill="#FFB8B8"/>
<path d="M274.573 129.815L287.837 132.898C287.837 132.898 342.658 239.463 329.448 259.768C316.237 280.073 300.053 347.297 300.053 347.297C300.053 347.297 276.117 342.543 266.971 330.36L283.719 250.63L266.443 183.624L274.573 129.815Z" fill="#3F3D56"/>
<path d="M22.9409 288.061L23.4172 116.432C23.4308 112.958 24.823 109.631 27.2885 107.182C29.7539 104.732 33.0912 103.36 36.5682 103.365L166.308 103.725C169.785 103.738 173.114 105.129 175.566 107.592C178.018 110.056 179.392 113.39 179.386 116.864L178.91 288.493C178.896 291.967 177.504 295.293 175.038 297.743C172.573 300.192 169.236 301.565 165.759 301.559L36.0192 301.2C32.5422 301.186 29.2126 299.795 26.7608 297.332C24.309 294.869 22.9352 291.535 22.9409 288.061Z" fill="#E6E6E6"/>
<path d="M33.0367 236.249L33.3429 125.91C33.3555 122.657 34.6594 119.541 36.9683 117.247C39.2773 114.953 42.4029 113.668 45.6592 113.673L157.159 113.982C160.416 113.995 163.534 115.297 165.83 117.604C168.127 119.911 169.413 123.034 169.408 126.287L168.984 279.014C168.972 282.267 167.668 285.382 165.358 287.677C163.049 289.971 159.924 291.256 156.667 291.25L87.5954 291.059C73.0905 291.003 59.2002 285.2 48.972 274.925C38.7438 264.65 33.0129 250.74 33.0367 236.249Z" fill="white"/>
<path d="M144.383 162.141H57.4416C56.0581 162.141 54.7313 161.591 53.753 160.614C52.7747 159.637 52.2251 158.311 52.2251 156.929C52.2251 155.547 52.7747 154.221 53.753 153.244C54.7313 152.266 56.0581 151.717 57.4416 151.717H144.383C145.767 151.717 147.093 152.266 148.072 153.244C149.05 154.221 149.6 155.547 149.6 156.929C149.6 158.311 149.05 159.637 148.072 160.614C147.093 161.591 145.767 162.141 144.383 162.141Z" fill="#CAAED1"/>
<path d="M76.5687 138.11H57.4416C56.0581 138.11 54.7313 137.56 53.753 136.583C52.7747 135.606 52.2251 134.28 52.2251 132.898C52.2251 131.516 52.7747 130.19 53.753 129.213C54.7313 128.235 56.0581 127.686 57.4416 127.686H76.5687C77.9522 127.686 79.279 128.235 80.2573 129.213C81.2356 130.19 81.7852 131.516 81.7852 132.898C81.7852 134.28 81.2356 135.606 80.2573 136.583C79.279 137.56 77.9522 138.11 76.5687 138.11Z" fill="#CAAED1"/>
<path d="M144.383 186.172H57.4416C56.0581 186.172 54.7313 185.623 53.753 184.646C52.7747 183.668 52.2251 182.343 52.2251 180.961C52.2251 179.578 52.7747 178.253 53.753 177.275C54.7313 176.298 56.0581 175.749 57.4416 175.749H144.383C145.767 175.749 147.093 176.298 148.072 177.275C149.05 178.253 149.6 179.578 149.6 180.961C149.6 182.343 149.05 183.668 148.072 184.646C147.093 185.623 145.767 186.172 144.383 186.172Z" fill="#E9CCEE"/>
<path d="M144.383 210.203H57.4416C56.0581 210.203 54.7313 209.654 53.753 208.677C52.7747 207.7 52.2251 206.374 52.2251 204.992C52.2251 203.61 52.7747 202.284 53.753 201.307C54.7313 200.329 56.0581 199.78 57.4416 199.78H144.383C145.767 199.78 147.093 200.329 148.072 201.307C149.05 202.284 149.6 203.61 149.6 204.992C149.6 206.374 149.05 207.7 148.072 208.677C147.093 209.654 145.767 210.203 144.383 210.203Z" fill="#E9CCEE"/>
<path d="M137.348 273.525C148.812 273.525 158.105 264.241 158.105 252.788C158.105 241.335 148.812 232.051 137.348 232.051C125.885 232.051 116.592 241.335 116.592 252.788C116.592 264.241 125.885 273.525 137.348 273.525Z" fill="#254395"/>
<path d="M134.517 263.581C134.158 263.581 133.805 263.497 133.484 263.337C133.164 263.177 132.885 262.944 132.67 262.658L127.007 255.115C126.825 254.872 126.692 254.596 126.617 254.303C126.541 254.009 126.524 253.704 126.567 253.403C126.61 253.103 126.711 252.815 126.866 252.554C127.02 252.293 127.225 252.065 127.468 251.883C127.71 251.701 127.987 251.569 128.281 251.494C128.574 251.419 128.88 251.402 129.181 251.445C129.481 251.488 129.77 251.59 130.031 251.745C130.292 251.899 130.52 252.104 130.702 252.347L134.406 257.281L143.921 243.022C144.089 242.769 144.305 242.552 144.557 242.382C144.809 242.213 145.092 242.095 145.39 242.035C145.688 241.975 145.995 241.974 146.293 242.033C146.591 242.091 146.874 242.208 147.127 242.376C147.38 242.545 147.597 242.761 147.766 243.014C147.935 243.266 148.052 243.549 148.111 243.847C148.17 244.145 148.17 244.451 148.11 244.749C148.051 245.046 147.933 245.329 147.764 245.581L136.438 262.553C136.233 262.86 135.958 263.114 135.635 263.292C135.312 263.471 134.95 263.57 134.581 263.58C134.56 263.58 134.538 263.581 134.517 263.581Z" fill="white"/>
<path d="M93.0873 63.4098C98.5291 63.4098 102.941 59.0024 102.941 53.5656C102.941 48.1288 98.5291 43.7214 93.0873 43.7214C87.6454 43.7214 83.2339 48.1288 83.2339 53.5656C83.2339 59.0024 87.6454 63.4098 93.0873 63.4098Z" fill="#F2F2F2"/>
<path d="M57.1517 346.574C62.5936 346.574 67.0051 342.166 67.0051 336.73C67.0051 331.293 62.5936 326.885 57.1517 326.885C51.7098 326.885 47.2983 331.293 47.2983 336.73C47.2983 342.166 51.7098 346.574 57.1517 346.574Z" fill="#F2F2F2"/>
<path d="M283.779 101.628C289.221 101.628 293.633 97.2209 293.633 91.7841C293.633 86.3473 289.221 81.9399 283.779 81.9399C278.337 81.9399 273.926 86.3473 273.926 91.7841C273.926 97.2209 278.337 101.628 283.779 101.628Z" fill="#F2F2F2"/>
</g>
<defs>
<clipPath id="clip0_318_1957">
<rect width="331.502" height="399" fill="white"/>
</clipPath>
</defs>
</svg>
