<svg width="522" height="330" viewBox="0 0 522 330" fill="none" xmlns="http://www.w3.org/2000/svg">
<g clip-path="url(#clip0_318_1722)">
<path d="M459.56 301.797L460.069 290.362C465.367 287.528 471.277 286.031 477.285 286.001C469.016 292.765 470.05 305.804 464.444 314.9C460.858 320.62 454.867 324.398 448.163 325.166L441.243 329.405C439.321 318.687 442.187 307.664 449.085 299.241C451.02 296.925 453.239 294.862 455.689 293.1C457.346 297.473 459.56 301.797 459.56 301.797Z" fill="#F2F2F2"/>
<path d="M109.764 289.266L93.0656 284.207C90.8756 275.305 90.8906 266.002 93.1093 257.107C99.9857 271.882 119.634 275.265 130.958 286.98C138.055 294.437 141.378 304.718 139.988 314.921L143.643 326.75C127.088 325.554 111.886 317.165 102.043 303.793C99.3511 300.06 97.1399 296.001 95.4614 291.715C102.544 290.911 109.764 289.266 109.764 289.266Z" fill="#F2F2F2"/>
<path d="M401.699 327.535C401.697 327.881 401.559 328.213 401.316 328.459C401.072 328.702 400.743 328.837 400.399 328.836H395.171C394.455 328.839 393.873 328.26 393.871 327.544V169.346C393.871 165.859 392.7 163.029 391.263 163.023H65.8252C64.3817 163.029 63.2177 165.859 63.2112 169.346V326.566C63.209 327.235 62.7005 327.795 62.0343 327.86C60.9809 327.964 59.9275 328.056 58.8806 328.14C58.8546 328.14 58.8286 328.147 58.8026 328.147C58.2304 328.199 57.6582 328.238 57.086 328.283H57.0795C56.7804 327.743 56.4943 327.19 56.2016 326.637C56.1078 326.449 56.0589 326.242 56.0586 326.032V161.142C56.0586 160.179 56.0976 159.21 56.1626 158.254C56.2554 156.94 56.4182 155.633 56.6503 154.337C57.7492 148.293 60.2331 144.201 63.0552 144.188H394.027C394.439 144.19 394.846 144.277 395.223 144.441C395.778 144.687 396.279 145.038 396.699 145.476C397.269 146.069 397.757 146.736 398.149 147.46C399.541 149.913 400.536 153.569 400.887 157.824C400.887 157.863 400.893 157.902 400.893 157.941C400.984 158.995 401.03 160.069 401.023 161.142L401.114 175.085L401.173 183.4L401.348 209.489L401.413 218.754L401.699 327.535Z" fill="#E6E6E6"/>
<path d="M280.919 95.9556H247.753C246.776 95.957 245.985 96.7505 245.986 97.728V150.15H282.69V97.728C282.691 96.7496 281.898 95.9561 280.92 95.9556H280.919ZM264.447 125.741C262.289 125.731 260.541 123.982 260.531 121.823V115.776C260.531 113.612 262.284 111.858 264.447 111.858C266.61 111.858 268.364 113.612 268.364 115.776V121.823C268.354 123.982 266.606 125.731 264.447 125.741Z" fill="#CCCCCC"/>
<path d="M245.872 148.473V153.531C245.873 154.076 246.315 154.518 246.86 154.52H281.816C282.36 154.517 282.801 154.076 282.804 153.531V148.473H245.872Z" fill="#3F3D56"/>
<path d="M335.838 14.1453H194.067C191.531 14.1493 189.476 16.2053 189.472 18.7427V114.464C189.475 117.003 191.53 119.06 194.067 119.062H335.838C338.375 119.06 340.43 117.003 340.433 114.464V18.7427C340.429 16.2053 338.374 14.1493 335.838 14.1453Z" fill="#E6E6E6"/>
<path d="M334.655 17.4663H195.252C193.894 17.4693 192.795 18.5715 192.794 19.9302V113.279C192.797 114.636 193.896 115.736 195.252 115.738H334.655C336.011 115.736 337.11 114.636 337.112 113.279V19.9301C337.112 18.5715 336.013 17.4693 334.655 17.4663Z" fill="white"/>
<path d="M307.501 156.279H224.564C223.722 156.279 223.039 155.596 223.039 154.753C223.039 154.647 223.05 154.542 223.071 154.438L224.358 148.323C224.509 147.618 225.13 147.113 225.851 147.111H306.215C306.935 147.113 307.557 147.618 307.707 148.323L308.994 154.438C309.168 155.263 308.64 156.073 307.816 156.247C307.712 156.268 307.607 156.279 307.501 156.279Z" fill="#CCCCCC"/>
<path d="M228.676 148.212H226.757C226.582 148.212 226.439 148.355 226.439 148.53V149.428C226.439 149.604 226.582 149.746 226.757 149.746H228.676C228.852 149.746 228.994 149.604 228.994 149.428V148.53C228.994 148.355 228.852 148.212 228.676 148.212Z" fill="#E6E6E6"/>
<path d="M233.785 148.212H231.866C231.69 148.212 231.548 148.355 231.548 148.53V149.428C231.548 149.604 231.69 149.746 231.866 149.746H233.785C233.961 149.746 234.103 149.604 234.103 149.428V148.53C234.103 148.355 233.961 148.212 233.785 148.212Z" fill="#E6E6E6"/>
<path d="M238.894 148.212H236.975C236.799 148.212 236.657 148.355 236.657 148.53V149.428C236.657 149.604 236.799 149.746 236.975 149.746H238.894C239.07 149.746 239.212 149.604 239.212 149.428V148.53C239.212 148.355 239.07 148.212 238.894 148.212Z" fill="#E6E6E6"/>
<path d="M244.003 148.212H242.084C241.908 148.212 241.766 148.355 241.766 148.53V149.428C241.766 149.604 241.908 149.746 242.084 149.746H244.003C244.178 149.746 244.321 149.604 244.321 149.428V148.53C244.321 148.355 244.178 148.212 244.003 148.212Z" fill="#E6E6E6"/>
<path d="M249.112 148.212H247.192C247.017 148.212 246.875 148.355 246.875 148.53V149.428C246.875 149.604 247.017 149.746 247.192 149.746H249.112C249.287 149.746 249.429 149.604 249.429 149.428V148.53C249.429 148.355 249.287 148.212 249.112 148.212Z" fill="#E6E6E6"/>
<path d="M254.221 148.212H252.301C252.126 148.212 251.984 148.355 251.984 148.53V149.428C251.984 149.604 252.126 149.746 252.301 149.746H254.221C254.396 149.746 254.538 149.604 254.538 149.428V148.53C254.538 148.355 254.396 148.212 254.221 148.212Z" fill="#E6E6E6"/>
<path d="M259.329 148.212H257.41C257.234 148.212 257.092 148.355 257.092 148.53V149.428C257.092 149.604 257.234 149.746 257.41 149.746H259.329C259.505 149.746 259.647 149.604 259.647 149.428V148.53C259.647 148.355 259.505 148.212 259.329 148.212Z" fill="#E6E6E6"/>
<path d="M264.438 148.212H262.519C262.343 148.212 262.201 148.355 262.201 148.53V149.428C262.201 149.604 262.343 149.746 262.519 149.746H264.438C264.613 149.746 264.756 149.604 264.756 149.428V148.53C264.756 148.355 264.613 148.212 264.438 148.212Z" fill="#E6E6E6"/>
<path d="M269.547 148.212H267.627C267.452 148.212 267.31 148.355 267.31 148.53V149.428C267.31 149.604 267.452 149.746 267.627 149.746H269.547C269.722 149.746 269.864 149.604 269.864 149.428V148.53C269.864 148.355 269.722 148.212 269.547 148.212Z" fill="#E6E6E6"/>
<path d="M274.655 148.212H272.736C272.561 148.212 272.418 148.355 272.418 148.53V149.428C272.418 149.604 272.561 149.746 272.736 149.746H274.655C274.831 149.746 274.973 149.604 274.973 149.428V148.53C274.973 148.355 274.831 148.212 274.655 148.212Z" fill="#E6E6E6"/>
<path d="M279.764 148.212H277.845C277.669 148.212 277.527 148.355 277.527 148.53V149.428C277.527 149.604 277.669 149.746 277.845 149.746H279.764C279.94 149.746 280.082 149.604 280.082 149.428V148.53C280.082 148.355 279.94 148.212 279.764 148.212Z" fill="#E6E6E6"/>
<path d="M284.873 148.212H282.954C282.778 148.212 282.636 148.355 282.636 148.53V149.428C282.636 149.604 282.778 149.746 282.954 149.746H284.873C285.048 149.746 285.191 149.604 285.191 149.428V148.53C285.191 148.355 285.048 148.212 284.873 148.212Z" fill="#E6E6E6"/>
<path d="M289.982 148.212H288.063C287.887 148.212 287.745 148.355 287.745 148.53V149.428C287.745 149.604 287.887 149.746 288.063 149.746H289.982C290.157 149.746 290.299 149.604 290.299 149.428V148.53C290.299 148.355 290.157 148.212 289.982 148.212Z" fill="#E6E6E6"/>
<path d="M295.091 148.212H293.171C292.996 148.212 292.854 148.355 292.854 148.53V149.428C292.854 149.604 292.996 149.746 293.171 149.746H295.091C295.266 149.746 295.408 149.604 295.408 149.428V148.53C295.408 148.355 295.266 148.212 295.091 148.212Z" fill="#E6E6E6"/>
<path d="M300.199 148.212H298.28C298.105 148.212 297.962 148.355 297.962 148.53V149.428C297.962 149.604 298.105 149.746 298.28 149.746H300.199C300.375 149.746 300.517 149.604 300.517 149.428V148.53C300.517 148.355 300.375 148.212 300.199 148.212Z" fill="#E6E6E6"/>
<path d="M305.308 148.212H303.389C303.213 148.212 303.071 148.355 303.071 148.53V149.428C303.071 149.604 303.213 149.746 303.389 149.746H305.308C305.484 149.746 305.626 149.604 305.626 149.428V148.53C305.626 148.355 305.484 148.212 305.308 148.212Z" fill="#E6E6E6"/>
<path d="M228.616 150.768H226.697C226.522 150.768 226.379 150.91 226.379 151.086V151.984C226.379 152.159 226.522 152.302 226.697 152.302H228.616C228.792 152.302 228.934 152.159 228.934 151.984V151.086C228.934 150.91 228.792 150.768 228.616 150.768Z" fill="#E6E6E6"/>
<path d="M233.725 150.768H231.806C231.63 150.768 231.488 150.91 231.488 151.086V151.984C231.488 152.159 231.63 152.302 231.806 152.302H233.725C233.901 152.302 234.043 152.159 234.043 151.984V151.086C234.043 150.91 233.901 150.768 233.725 150.768Z" fill="#E6E6E6"/>
<path d="M238.834 150.768H236.915C236.739 150.768 236.597 150.91 236.597 151.086V151.984C236.597 152.159 236.739 152.302 236.915 152.302H238.834C239.009 152.302 239.152 152.159 239.152 151.984V151.086C239.152 150.91 239.009 150.768 238.834 150.768Z" fill="#E6E6E6"/>
<path d="M243.943 150.768H242.023C241.848 150.768 241.706 150.91 241.706 151.086V151.984C241.706 152.159 241.848 152.302 242.023 152.302H243.943C244.118 152.302 244.26 152.159 244.26 151.984V151.086C244.26 150.91 244.118 150.768 243.943 150.768Z" fill="#E6E6E6"/>
<path d="M249.051 150.768H247.132C246.957 150.768 246.814 150.91 246.814 151.086V151.984C246.814 152.159 246.957 152.302 247.132 152.302H249.051C249.227 152.302 249.369 152.159 249.369 151.984V151.086C249.369 150.91 249.227 150.768 249.051 150.768Z" fill="#E6E6E6"/>
<path d="M254.16 150.768H252.24C252.065 150.768 251.923 150.91 251.923 151.086V151.984C251.923 152.159 252.065 152.302 252.24 152.302H254.16C254.335 152.302 254.477 152.159 254.477 151.984V151.086C254.477 150.91 254.335 150.768 254.16 150.768Z" fill="#E6E6E6"/>
<path d="M259.269 150.768H257.349C257.174 150.768 257.032 150.91 257.032 151.086V151.984C257.032 152.159 257.174 152.302 257.349 152.302H259.269C259.444 152.302 259.586 152.159 259.586 151.984V151.086C259.586 150.91 259.444 150.768 259.269 150.768Z" fill="#E6E6E6"/>
<path d="M264.378 150.768H262.458C262.283 150.768 262.141 150.91 262.141 151.086V151.984C262.141 152.159 262.283 152.302 262.458 152.302H264.378C264.553 152.302 264.695 152.159 264.695 151.984V151.086C264.695 150.91 264.553 150.768 264.378 150.768Z" fill="#E6E6E6"/>
<path d="M269.486 150.768H267.567C267.392 150.768 267.25 150.91 267.25 151.086V151.984C267.25 152.159 267.392 152.302 267.567 152.302H269.486C269.662 152.302 269.804 152.159 269.804 151.984V151.086C269.804 150.91 269.662 150.768 269.486 150.768Z" fill="#E6E6E6"/>
<path d="M274.595 150.768H272.676C272.501 150.768 272.358 150.91 272.358 151.086V151.984C272.358 152.159 272.501 152.302 272.676 152.302H274.595C274.771 152.302 274.913 152.159 274.913 151.984V151.086C274.913 150.91 274.771 150.768 274.595 150.768Z" fill="#E6E6E6"/>
<path d="M279.704 150.768H277.785C277.609 150.768 277.467 150.91 277.467 151.086V151.984C277.467 152.159 277.609 152.302 277.785 152.302H279.704C279.88 152.302 280.022 152.159 280.022 151.984V151.086C280.022 150.91 279.88 150.768 279.704 150.768Z" fill="#E6E6E6"/>
<path d="M284.813 150.768H282.894C282.718 150.768 282.576 150.91 282.576 151.086V151.984C282.576 152.159 282.718 152.302 282.894 152.302H284.813C284.988 152.302 285.131 152.159 285.131 151.984V151.086C285.131 150.91 284.988 150.768 284.813 150.768Z" fill="#E6E6E6"/>
<path d="M289.922 150.768H288.002C287.827 150.768 287.685 150.91 287.685 151.086V151.984C287.685 152.159 287.827 152.302 288.002 152.302H289.922C290.097 152.302 290.239 152.159 290.239 151.984V151.086C290.239 150.91 290.097 150.768 289.922 150.768Z" fill="#E6E6E6"/>
<path d="M295.03 150.768H293.111C292.936 150.768 292.793 150.91 292.793 151.086V151.984C292.793 152.159 292.936 152.302 293.111 152.302H295.03C295.206 152.302 295.348 152.159 295.348 151.984V151.086C295.348 150.91 295.206 150.768 295.03 150.768Z" fill="#E6E6E6"/>
<path d="M300.139 150.768H298.219C298.044 150.768 297.902 150.91 297.902 151.086V151.984C297.902 152.159 298.044 152.302 298.219 152.302H300.139C300.314 152.302 300.456 152.159 300.456 151.984V151.086C300.456 150.91 300.314 150.768 300.139 150.768Z" fill="#E6E6E6"/>
<path d="M305.248 150.768H303.328C303.153 150.768 303.011 150.91 303.011 151.086V151.984C303.011 152.159 303.153 152.302 303.328 152.302H305.248C305.423 152.302 305.565 152.159 305.565 151.984V151.086C305.565 150.91 305.423 150.768 305.248 150.768Z" fill="#E6E6E6"/>
<path d="M271.019 153.835H251.219C251.043 153.835 250.901 153.977 250.901 154.153V155.051C250.901 155.226 251.043 155.368 251.219 155.368H271.019C271.194 155.368 271.336 155.226 271.336 155.051V154.153C271.336 153.977 271.194 153.835 271.019 153.835Z" fill="#E6E6E6"/>
<path d="M327.647 30.3276H197.208C196.922 30.3213 196.694 30.0838 196.701 29.7972C196.707 29.5194 196.931 29.2957 197.208 29.2896H327.647C327.933 29.2959 328.161 29.5333 328.154 29.82C328.148 30.0977 327.925 30.3215 327.647 30.3276Z" fill="#CACACA"/>
<path d="M206.087 26.6395C207.766 26.6395 209.127 25.2474 209.127 23.5301C209.127 21.8128 207.766 20.4207 206.087 20.4207C204.408 20.4207 203.047 21.8128 203.047 23.5301C203.047 25.2474 204.408 26.6395 206.087 26.6395Z" fill="#CCCCCC"/>
<path d="M216.589 26.6395C218.268 26.6395 219.629 25.2474 219.629 23.5301C219.629 21.8128 218.268 20.4207 216.589 20.4207C214.91 20.4207 213.549 21.8128 213.549 23.5301C213.549 25.2474 214.91 26.6395 216.589 26.6395Z" fill="#CCCCCC"/>
<path d="M227.091 26.6395C228.77 26.6395 230.131 25.2474 230.131 23.5301C230.131 21.8128 228.77 20.4207 227.091 20.4207C225.412 20.4207 224.051 21.8128 224.051 23.5301C224.051 25.2474 225.412 26.6395 227.091 26.6395Z" fill="#CCCCCC"/>
<path d="M262.294 38.1973L261.873 36.9657L315.75 8.95581L316.171 10.1874L262.294 38.1973Z" fill="#3F3D56"/>
<path d="M424.853 90.0777L424.432 88.8461L456.852 60.978L457.272 62.209L424.853 90.0777Z" fill="#3F3D56"/>
<path d="M362.567 96.565L308.69 68.5551L309.111 67.3235L362.988 95.3334L362.567 96.565Z" fill="#3F3D56"/>
<path d="M390.147 77.0742L358.562 25.1909L359.56 24.3562L391.145 76.2395L390.147 77.0742Z" fill="#3F3D56"/>
<path d="M414.796 9.46892L384.036 9.32709V8.02588L414.796 8.16771V9.46892Z" fill="#3F3D56"/>
<path d="M470.52 17.54H436.058C431.389 17.54 427.604 13.7533 427.604 9.08216C427.604 4.411 431.389 0.624268 436.058 0.624268H470.52C475.189 0.624268 478.973 4.411 478.973 9.08216C478.973 13.7533 475.189 17.54 470.52 17.54Z" fill="#6C63FF"/>
<path d="M513.436 66.9861H478.973C474.305 66.9861 470.52 63.1994 470.52 58.5282C470.52 53.857 474.305 50.0703 478.973 50.0703H513.436C518.104 50.0703 521.889 53.857 521.889 58.5282C521.889 63.1994 518.104 66.9861 513.436 66.9861Z" fill="#6C63FF"/>
<path d="M457.712 101.855L426.951 101.713V100.412L457.712 100.553V101.855Z" fill="#3F3D56"/>
<path d="M513.436 109.926H478.973C474.305 109.926 470.52 106.139 470.52 101.468C470.52 96.797 474.305 93.0103 478.973 93.0103H513.436C518.104 93.0103 521.889 96.797 521.889 101.468C521.889 106.139 518.104 109.926 513.436 109.926Z" fill="#6C63FF"/>
<path d="M412.649 104.097H378.186C373.518 104.097 369.733 100.31 369.733 95.639C369.733 90.9679 373.518 87.1812 378.186 87.1812H412.649C417.317 87.1812 421.102 90.9679 421.102 95.639C421.102 100.31 417.317 104.097 412.649 104.097Z" fill="#6C63FF"/>
<path d="M365.832 16.9158H331.369C326.701 16.9158 322.916 13.1291 322.916 8.45789C322.916 3.78673 326.701 0 331.369 0H365.832C370.5 0 374.285 3.78673 374.285 8.45789C374.285 13.1291 370.5 16.9158 365.832 16.9158Z" fill="#6C63FF"/>
<path d="M201.108 162.118H162.094C159.221 162.118 156.892 164.448 156.892 167.323C156.892 170.198 159.221 172.528 162.094 172.528H176.399V212.865H186.803V172.528H201.108C203.981 172.528 206.31 170.198 206.31 167.323C206.31 164.448 203.981 162.118 201.108 162.118Z" fill="#3F3D56"/>
<path d="M226.858 235.205H122.506C101.595 235.129 83.9035 219.721 80.9449 199.008L77.2511 185.414C69.6057 157.242 57.9602 130.314 42.6705 105.452C35.6822 94.0964 32.0853 83.1044 40.255 72.5213C40.3245 72.4312 40.393 72.3424 40.4602 72.2548C47.0128 63.7213 79.6269 61.874 90.259 61.5147C90.6791 61.5004 91.1007 61.4933 91.524 61.4934H156.43C156.854 61.4934 157.275 61.5005 157.695 61.5147C169.372 61.8553 179.92 68.5821 185.158 79.0296C190.748 89.6962 190.035 102.572 183.301 112.555C160.502 146.823 153.521 168.31 160.668 182.225C167.581 195.685 188.771 202.566 227.355 203.881C237.724 204.234 242.483 212.313 242.516 219.669C242.549 226.835 237.973 234.747 227.852 235.185C227.523 235.198 227.191 235.205 226.858 235.205Z" fill="#3F3D56"/>
<path d="M140.233 327.917H179.247C182.12 327.917 184.449 325.587 184.449 322.712C184.449 319.838 182.12 317.507 179.247 317.507H164.942V229.675H154.538V317.507H140.233C137.36 317.507 135.031 319.838 135.031 322.712C135.031 325.587 137.36 327.917 140.233 327.917Z" fill="#3F3D56"/>
<path d="M175.544 292.508L182.265 296.16L200.057 271.547L190.137 266.156L175.544 292.508Z" fill="#A0616A"/>
<path d="M178.78 283.737L190.981 287.56L189.039 292.674L197.405 304.824C198.476 306.378 198.084 308.506 196.531 309.577C195.607 310.214 194.429 310.357 193.38 309.958L179.176 304.558L178.649 298.569L175.772 303.264L170.417 301.229L178.78 283.737Z" fill="#2F2E41"/>
<path d="M192.525 44.2903C193.128 48.4198 190.27 52.2558 186.143 52.8582C185.702 52.9224 185.258 52.9476 184.813 52.9335L158.9 108.102L150.773 96.7621L177.448 44.5956C177.858 40.4198 181.574 37.3671 185.747 37.7772C189.239 38.1203 192.042 40.8129 192.525 44.2903Z" fill="#A0616A"/>
<path d="M106.532 119.257C106.532 119.257 105.837 128.895 116.731 130.785C127.624 132.675 156.746 114.25 161.529 111.421C166.311 108.591 175.224 72.9954 175.224 72.9954L167.473 59.8779C157.903 71.9902 150.388 83.1593 149.932 91.0875L106.532 119.257Z" fill="#6C63FF"/>
<path d="M119.108 152.455L121.461 162.569C121.461 162.569 121.484 171.896 123.134 173.615C124.774 175.327 160.819 171.89 160.819 171.89C160.819 171.89 156.998 156.862 157.048 145.49L119.108 152.455Z" fill="#A0616A"/>
<path d="M195.256 281.83L182.251 274.673C182.003 257.742 192.182 234.828 204.255 210.828C177.255 215.474 151.783 216.962 129.751 211.342C122.225 209.353 117.689 201.687 119.566 194.128C119.652 193.772 119.751 193.419 119.864 193.07C122.501 185.02 116.588 179.974 122.026 171.121C136.329 166.233 149.916 164.853 162.341 169.169L170.126 186.391L208.713 181.395C216.515 180.462 223.597 186.034 224.529 193.841C224.534 193.877 224.538 193.912 224.542 193.948C224.594 194.367 224.628 194.788 224.643 195.21C216.841 231.809 208.092 264.74 195.256 281.83Z" fill="#2F2E41"/>
<path d="M113.87 88.4206L128.735 87.5424C130.02 87.4665 131.212 88.2145 131.703 89.4052L135.903 99.5948L153.362 114.033C153.362 114.033 160.275 122.835 160.291 134.201C160.307 145.568 162.744 171.878 162.744 171.878C162.744 171.878 152.655 157.669 146.428 161.448C145.369 162.091 144.996 163.406 143.887 164.071C143.333 164.402 142.054 164.08 141.495 164.412C132.915 169.508 123.966 174.487 123.13 173.614C121.489 171.9 119.497 163.141 119.497 163.141L105.89 113.118C104.396 107.789 105.362 102.07 108.523 97.5282C109.474 96.189 110.47 95.1928 111.395 95.028C113.474 94.5852 112.368 89.9247 113.87 88.4206Z" fill="#6C63FF"/>
<path d="M240.321 313.697L246.596 309.332L232.381 282.498L223.12 288.94L240.321 313.697Z" fill="#A0616A"/>
<path d="M241.27 295.692L231.436 304.487C215.799 287.054 203.978 262.604 193.96 234.838C167.713 227.146 147.919 214.742 130.639 200.013C124.777 195.05 120.382 188.674 125.382 182.628C125.616 182.345 125.86 182.072 126.114 181.808C132.017 175.738 146.987 176.895 155.755 171.333L175.341 192.281L174.109 197.896L210.898 210.365C218.304 212.962 222.203 221.075 219.608 228.485C219.595 228.521 219.582 228.557 219.569 228.593C219.431 228.993 219.277 229.385 219.105 229.772L241.27 295.692Z" fill="#2F2E41"/>
<path d="M236.663 311.927L246.707 304.013L249.828 308.505L264.574 308.46C266.461 308.454 267.995 309.979 268.001 311.867C268.004 312.99 267.456 314.043 266.534 314.684L254.058 323.361L248.821 320.413L251.068 325.441L246.364 328.713L236.663 311.927Z" fill="#2F2E41"/>
<path d="M135.821 214.488C131.981 212.857 130.19 208.421 131.819 204.58C131.993 204.17 132.203 203.777 132.446 203.404L98.793 152.59L112.699 151.533L143.392 201.439C146.745 203.958 147.422 208.721 144.904 212.076C142.797 214.883 139.042 215.88 135.821 214.488Z" fill="#A0616A"/>
<path d="M116.471 102.022C116.471 102.022 108.601 96.4219 101.328 104.754C94.0549 113.085 94.6622 147.555 94.5939 153.114C94.5725 154.854 97.0846 158.61 100.546 162.949C102.099 164.896 103.844 166.961 105.637 169.014C106.675 170.202 105.781 172.675 106.823 173.829C107.859 174.978 110.831 174.808 111.816 175.874C116.494 180.933 120.295 184.784 120.295 184.784L135.523 184.971C135.695 173.644 127.943 163.533 117.983 153.761L116.471 102.022Z" fill="#6C63FF"/>
<path d="M101.121 52.704C99.6794 53.7453 98.1626 54.818 96.4033 55.076C94.644 55.334 92.5844 54.483 92.0975 52.7719C91.5022 50.6797 93.3904 48.7748 95.0874 47.4151L100.469 43.1035C101.454 42.229 102.567 41.5093 103.768 40.969C104.99 40.4309 106.391 40.4777 107.575 41.0964C108.751 41.891 109.431 43.2389 109.371 44.6575C109.295 46.0558 108.834 47.4057 108.039 48.5584C106.02 51.7065 102.805 53.8936 99.1362 54.6134" fill="#2F2E41"/>
<path d="M141.936 164.721H102.922C100.049 164.721 97.7197 167.051 97.7197 169.926C97.7197 172.8 100.049 175.13 102.922 175.13H117.227V215.468H127.631V175.13H141.936C144.809 175.13 147.138 172.8 147.138 169.926C147.138 167.051 144.809 164.721 141.936 164.721Z" fill="#3F3D56"/>
<path d="M103.512 41.7842C103.669 37.8818 99.5125 34.7917 95.6179 35.036C91.7233 35.2803 88.3754 38.0213 86.1668 41.2414C83.9589 44.4587 82.6325 48.1853 80.893 51.6786C79.1536 55.1718 76.8372 58.5921 73.3807 60.4024C69.9248 62.2099 65.1143 61.8874 62.7256 58.8012C61.2193 61.0869 60.8917 63.954 61.8435 66.5209C62.8214 69.0546 64.6451 71.1719 67.0053 72.5136C67.9447 73.071 68.9482 73.5125 69.9938 73.8284C70.4249 72.6641 71.0315 71.5726 71.7925 70.5917C71.4487 71.7529 71.3175 72.9666 71.4052 74.1745C73.0167 74.4835 74.6746 74.4574 76.2756 74.0977C79.4634 73.3842 82.1288 71.2093 83.4684 68.2284C84.9291 64.7686 84.1852 60.8239 84.4976 57.0814C84.8073 53.3382 87.0616 49.0651 90.8153 49.004C93.674 48.957 93.2956 49.1928 95.1069 51.4059" fill="#2F2E41"/>
<path d="M129.47 62.2905C129.47 71.6329 121.901 79.2063 112.564 79.2063C103.227 79.2063 94.3569 68.3798 94.3569 59.0375C94.3569 49.6952 103.227 45.3748 112.564 45.3748C121.901 45.3748 129.47 52.9482 129.47 62.2905Z" fill="#2F2E41"/>
<path d="M120.894 82.5619C129.622 80.7751 135.249 72.248 133.463 63.5159C131.677 54.7839 123.155 49.1536 114.428 50.9404C105.701 52.7271 100.074 61.2543 101.859 69.9863C103.645 78.7183 112.167 84.3486 120.894 82.5619Z" fill="#A0616A"/>
<path d="M137.923 64.242C133.148 65.5465 128.327 66.9139 126.465 64.242C126.104 62.4704 125.418 60.7809 124.443 59.2584C124.26 60.9634 123.86 62.6381 123.253 64.242C117.221 65.5539 111.583 65.8675 106.711 64.242C106.041 65.4543 105.653 66.8017 105.573 68.1847C105.332 68.0333 105.08 67.9006 104.819 67.7878C104.506 67.6106 104.131 67.5774 103.792 67.6967C103.557 67.8386 103.401 68.0812 103.369 68.3538C103.337 68.6252 103.35 68.9001 103.408 69.1671C103.476 70.0977 103.754 71.0007 104.221 71.8086C104.594 72.3712 105.186 72.7512 105.853 72.856C106.529 76.6621 111.913 81.8084 111.913 81.8084C95.6572 82.459 95.6572 71.4247 95.6572 60.989L97.6079 57.0853H104.11V48.6274H122.317C130.935 48.6297 137.92 55.6193 137.923 64.242Z" fill="#2F2E41"/>
<path d="M286.07 329.8L0.778268 330C0.350678 330.002 0.00224108 329.657 1.07586e-05 329.23C-0.00221956 328.802 0.342602 328.453 0.770192 328.451H0.778268L286.07 328.251C286.498 328.252 286.844 328.6 286.842 329.028C286.841 329.454 286.496 329.799 286.07 329.8Z" fill="#CACACA"/>
<path d="M476.59 329.8L329.149 330C328.721 330.002 328.373 329.657 328.371 329.23C328.368 328.802 328.713 328.453 329.141 328.451H329.149L476.59 328.251C477.018 328.25 477.366 328.595 477.367 329.023C477.369 329.451 477.023 329.799 476.595 329.8H476.59Z" fill="#CACACA"/>
<path d="M292.591 96.2899H236.701C231.846 96.2845 227.913 92.3484 227.907 87.4914V50.4374C227.913 45.5804 231.846 41.6443 236.701 41.6389H292.591C297.445 41.6443 301.379 45.5804 301.384 50.4374V87.4914C301.379 92.3485 297.445 96.2845 292.591 96.2899ZM236.701 42.9401C232.564 42.9448 229.212 46.2987 229.208 50.4374V87.4914C229.212 91.6301 232.564 94.984 236.701 94.9887H292.591C296.727 94.984 300.079 91.6301 300.084 87.4914V50.4374C300.079 46.2987 296.727 42.9448 292.591 42.9401L236.701 42.9401Z" fill="#E6E6E6"/>
<path d="M253.261 53.3499H238.311V54.6511H253.261V53.3499Z" fill="#E6E6E6"/>
<path d="M271.473 58.5547H238.311V59.8559H271.473V58.5547Z" fill="#E6E6E6"/>
<path d="M271.473 63.1089H238.311V64.4101H271.473V63.1089Z" fill="#E6E6E6"/>
<path d="M280.577 67.6633H238.311V68.9645H280.577V67.6633Z" fill="#E6E6E6"/>
<path d="M260.419 72.2173H238.311V73.5185H260.419V72.2173Z" fill="#E6E6E6"/>
<path d="M278.626 76.7715H238.311V78.0727H278.626V76.7715Z" fill="#E6E6E6"/>
<path d="M245.464 81.3257H238.311V82.6269H245.464V81.3257Z" fill="#E6E6E6"/>
<path d="M237.824 25.3465C237.761 25.3465 237.698 25.322 237.65 25.2733L236.263 23.8542C236.17 23.7596 236.17 23.6085 236.263 23.514L237.65 22.095C237.744 21.999 237.898 21.9975 237.994 22.0912C238.09 22.1852 238.092 22.3393 237.998 22.4353L236.777 23.6841L237.998 24.9331C238.092 25.0291 238.09 25.1831 237.994 25.2771C237.947 25.3234 237.885 25.3465 237.824 25.3465Z" fill="#CCCCCC"/>
<path d="M240.156 25.3464C240.094 25.3464 240.033 25.3234 239.986 25.277C239.89 25.1831 239.888 25.0291 239.982 24.933L241.203 23.684L239.982 22.4352C239.888 22.3392 239.89 22.1851 239.986 22.0912C240.082 21.9971 240.236 21.9989 240.33 22.095L241.717 23.5139C241.809 23.6085 241.809 23.7596 241.717 23.8541L240.33 25.2732C240.282 25.3219 240.219 25.3464 240.156 25.3464Z" fill="#CCCCCC"/>
<path d="M312.737 21.8245H310.157C309.863 21.8245 309.625 22.0629 309.625 22.3573V24.9409C309.625 25.2353 309.863 25.4737 310.157 25.4737H312.737C313.031 25.4737 313.272 25.2353 313.272 24.9409V22.3573C313.272 22.0629 313.031 21.8245 312.737 21.8245Z" fill="#CCCCCC"/>
<path d="M306.416 21.8245H303.836C303.542 21.8245 303.303 22.0629 303.303 22.3573V24.9409C303.303 25.2353 303.542 25.4737 303.836 25.4737H306.416C306.71 25.4737 306.95 25.2353 306.95 24.9409V22.3573C306.95 22.0629 306.71 21.8245 306.416 21.8245Z" fill="#CCCCCC"/>
<path d="M318.694 21.9463H316.115C315.82 21.9463 315.582 22.1847 315.582 22.4791V25.0628C315.582 25.3571 315.82 25.5956 316.115 25.5956H318.694C318.989 25.5956 319.229 25.3571 319.229 25.0628V22.4791C319.229 22.1847 318.989 21.9463 318.694 21.9463Z" fill="#CCCCCC"/>
<path d="M279.81 22.929H259.189C258.829 22.929 258.54 23.2209 258.54 23.5785C258.54 23.9362 258.829 24.2281 259.189 24.2281H279.81C280.167 24.2281 280.459 23.9362 280.459 23.5785C280.459 23.2209 280.167 22.929 279.81 22.929Z" fill="#CCCCCC"/>
</g>
<defs>
<clipPath id="clip0_318_1722">
<rect width="521.889" height="330" fill="white"/>
</clipPath>
</defs>
</svg>
