<svg width="539" height="289" viewBox="0 0 539 289" fill="none" xmlns="http://www.w3.org/2000/svg">
<g clip-path="url(#clip0_318_2044)">
<path d="M327.059 160.622H11.0647C8.13116 160.619 5.31873 159.548 3.24442 157.645C1.1701 155.742 0.0033024 153.162 0 150.471V10.1508C0.0033024 7.45959 1.1701 4.87945 3.24442 2.97645C5.31873 1.07346 8.13116 0.00302964 11.0647 0H327.059C329.993 0.00302964 332.805 1.07346 334.879 2.97645C336.954 4.87945 338.121 7.45959 338.124 10.1508V150.471C338.121 153.162 336.954 155.742 334.879 157.645C332.805 159.548 329.993 160.619 327.059 160.622ZM11.0647 1.19421C8.47629 1.1969 5.99474 2.1414 4.16446 3.82051C2.33419 5.49962 1.30466 7.77621 1.30173 10.1508V150.471C1.30466 152.846 2.33419 155.122 4.16446 156.801C5.99474 158.48 8.47629 159.425 11.0647 159.428H327.059C329.648 159.425 332.129 158.48 333.959 156.801C335.79 155.122 336.819 152.846 336.822 150.471V10.1508C336.819 7.77621 335.79 5.49962 333.959 3.82051C332.129 2.1414 329.648 1.1969 327.059 1.19421H11.0647Z" fill="#3F3D56"/>
<path d="M60.6927 34.9308C63.9279 34.9308 66.5505 32.5248 66.5505 29.5568C66.5505 26.5889 63.9279 24.1829 60.6927 24.1829C57.4576 24.1829 54.835 26.5889 54.835 29.5568C54.835 32.5248 57.4576 34.9308 60.6927 34.9308Z" fill="#CCCCCC"/>
<path d="M60.6927 55.2323C63.9279 55.2323 66.5505 52.8263 66.5505 49.8583C66.5505 46.8904 63.9279 44.4844 60.6927 44.4844C57.4576 44.4844 54.835 46.8904 54.835 49.8583C54.835 52.8263 57.4576 55.2323 60.6927 55.2323Z" fill="#CCCCCC"/>
<path d="M60.6927 75.5341C63.9279 75.5341 66.5505 73.1281 66.5505 70.1601C66.5505 67.1921 63.9279 64.7861 60.6927 64.7861C57.4576 64.7861 54.835 67.1921 54.835 70.1601C54.835 73.1281 57.4576 75.5341 60.6927 75.5341Z" fill="#CCCCCC"/>
<path d="M60.6927 95.8356C63.9279 95.8356 66.5505 93.4296 66.5505 90.4616C66.5505 87.4937 63.9279 85.0876 60.6927 85.0876C57.4576 85.0876 54.835 87.4937 54.835 90.4616C54.835 93.4296 57.4576 95.8356 60.6927 95.8356Z" fill="#CCCCCC"/>
<path d="M159.299 136.439C162.534 136.439 165.156 134.033 165.156 131.065C165.156 128.097 162.534 125.691 159.299 125.691C156.064 125.691 153.441 128.097 153.441 131.065C153.441 134.033 156.064 136.439 159.299 136.439Z" fill="#CCCCCC"/>
<path d="M116.993 136.439C120.228 136.439 122.85 134.033 122.85 131.065C122.85 128.097 120.228 125.691 116.993 125.691C113.757 125.691 111.135 128.097 111.135 131.065C111.135 134.033 113.757 136.439 116.993 136.439Z" fill="#CCCCCC"/>
<path d="M246.515 136.439C249.75 136.439 252.372 134.033 252.372 131.065C252.372 128.097 249.75 125.691 246.515 125.691C243.279 125.691 240.657 128.097 240.657 131.065C240.657 134.033 243.279 136.439 246.515 136.439Z" fill="#CCCCCC"/>
<path d="M202.256 136.439C205.491 136.439 208.114 134.033 208.114 131.065C208.114 128.097 205.491 125.691 202.256 125.691C199.021 125.691 196.398 128.097 196.398 131.065C196.398 134.033 199.021 136.439 202.256 136.439Z" fill="#CCCCCC"/>
<path d="M282.638 30.1539H89.9819C89.8093 30.1539 89.6437 30.091 89.5217 29.979C89.3996 29.8671 89.3311 29.7152 89.3311 29.5568C89.3311 29.3985 89.3996 29.2466 89.5217 29.1346C89.6437 29.0226 89.8093 28.9597 89.9819 28.9597H282.638C282.81 28.9597 282.976 29.0226 283.098 29.1346C283.22 29.2466 283.289 29.3985 283.289 29.5568C283.289 29.7152 283.22 29.8671 283.098 29.979C282.976 30.091 282.81 30.1539 282.638 30.1539Z" fill="#CCCCCC"/>
<path d="M282.638 50.4557H89.9819C89.8093 50.4557 89.6437 50.3928 89.5217 50.2808C89.3996 50.1688 89.3311 50.0169 89.3311 49.8586C89.3311 49.7002 89.3996 49.5484 89.5217 49.4364C89.6437 49.3244 89.8093 49.2615 89.9819 49.2615H282.638C282.81 49.2615 282.976 49.3244 283.098 49.4364C283.22 49.5484 283.289 49.7002 283.289 49.8586C283.289 50.0169 283.22 50.1688 283.098 50.2808C282.976 50.3928 282.81 50.4557 282.638 50.4557Z" fill="#CCCCCC"/>
<path d="M282.638 70.7572H89.9819C89.8093 70.7572 89.6437 70.6943 89.5217 70.5823C89.3996 70.4703 89.3311 70.3185 89.3311 70.1601C89.3311 70.0017 89.3996 69.8499 89.5217 69.7379C89.6437 69.6259 89.8093 69.563 89.9819 69.563H282.638C282.81 69.563 282.976 69.6259 283.098 69.7379C283.22 69.8499 283.289 70.0017 283.289 70.1601C283.289 70.3185 283.22 70.4703 283.098 70.5823C282.976 70.6943 282.81 70.7572 282.638 70.7572Z" fill="#CCCCCC"/>
<path d="M282.638 91.0587H89.9819C89.8093 91.0587 89.6437 90.9958 89.5217 90.8838C89.3996 90.7718 89.3311 90.62 89.3311 90.4616C89.3311 90.3032 89.3996 90.1514 89.5217 90.0394C89.6437 89.9274 89.8093 89.8645 89.9819 89.8645H282.638C282.81 89.8645 282.976 89.9274 283.098 90.0394C283.22 90.1514 283.289 90.3032 283.289 90.4616C283.289 90.62 283.22 90.7718 283.098 90.8838C282.976 90.9958 282.81 91.0587 282.638 91.0587Z" fill="#CCCCCC"/>
<path d="M126.431 111.361H107.556C106.693 111.36 105.866 111.045 105.256 110.485C104.645 109.925 104.302 109.167 104.301 108.375V92.2531C104.302 91.4616 104.645 90.7027 105.256 90.143C105.866 89.5833 106.693 89.2685 107.556 89.2676H126.431C127.293 89.2685 128.121 89.5833 128.731 90.143C129.341 90.7027 129.684 91.4616 129.685 92.2531V108.375C129.684 109.167 129.341 109.925 128.731 110.485C128.121 111.045 127.293 111.36 126.431 111.361Z" fill="#CAAED1"/>
<path d="M168.736 111.36H149.861C148.998 111.36 148.171 111.045 147.561 110.485C146.951 109.925 146.608 109.166 146.607 108.375V71.9514C146.608 71.1598 146.951 70.401 147.561 69.8413C148.171 69.2816 148.998 68.9667 149.861 68.9658H168.736C169.599 68.9667 170.426 69.2816 171.036 69.8413C171.646 70.401 171.99 71.1598 171.991 71.9514V108.375C171.99 109.166 171.646 109.925 171.036 110.485C170.426 111.045 169.599 111.36 168.736 111.36Z" fill="#CAAED1"/>
<path d="M211.694 111.361H192.819C191.956 111.36 191.129 111.045 190.519 110.485C189.909 109.925 189.565 109.167 189.564 108.375V51.6498C189.565 50.8583 189.909 50.0995 190.519 49.5398C191.129 48.9801 191.956 48.6652 192.819 48.6643H211.694C212.557 48.6652 213.384 48.9801 213.994 49.5398C214.604 50.0995 214.947 50.8583 214.948 51.6498V108.375C214.947 109.167 214.604 109.925 213.994 110.485C213.384 111.045 212.557 111.36 211.694 111.361Z" fill="#E9CCEE"/>
<path d="M255.952 111.361H237.077C236.214 111.36 235.387 111.045 234.777 110.485C234.167 109.925 233.824 109.167 233.823 108.375V31.9453C233.824 31.1537 234.167 30.3949 234.777 29.8352C235.387 29.2755 236.214 28.9606 237.077 28.9597H255.952C256.815 28.9606 257.642 29.2755 258.252 29.8352C258.862 30.3949 259.205 31.1537 259.206 31.9453V108.375C259.205 109.167 258.862 109.925 258.252 110.485C257.642 111.045 256.815 111.36 255.952 111.361Z" fill="#254395"/>
<path d="M431.817 285.623C425.964 281.086 422.409 273.918 423.342 266.941C424.274 259.963 430.049 253.549 437.539 252.067C445.03 250.585 453.568 254.687 455.844 261.4C457.096 248.458 458.538 234.973 466.039 223.952C472.83 213.973 484.593 206.832 497.341 205.554C510.089 204.277 523.511 209.102 531.461 218.333C539.412 227.563 541.359 240.983 535.79 251.581C531.688 259.388 524.131 265.198 516.213 269.925C490.626 285.07 459.939 291.229 429.796 287.269L431.817 285.623Z" fill="#ABB6D5"/>
<path d="M518.855 209.369C508.336 217.229 498.686 226.02 490.045 235.614C476.521 250.578 465.578 267.356 457.596 285.362C457.012 286.675 459.337 287.247 459.914 285.948C472.974 256.684 493.824 230.892 520.555 210.929C521.756 210.032 520.046 208.48 518.855 209.369Z" fill="white"/>
<path d="M370.088 121.247C369.348 121.245 368.61 121.177 367.884 121.044C367.752 121.02 367.619 120.994 367.486 120.966L208.092 86.9193C206.36 86.5493 205.21 85.5501 205.416 84.5947C205.503 84.3134 205.673 84.0596 205.908 83.8613C206.142 83.663 206.431 83.5278 206.744 83.4707C207.513 83.2762 208.323 83.2597 209.101 83.4226L369.485 114.151C373.097 114.842 375.604 116.876 375.193 118.779C374.978 119.776 374.022 120.548 372.5 120.954C371.715 121.155 370.903 121.254 370.088 121.247Z" fill="#3F3D56"/>
<path d="M336.322 116.537C337.147 116.982 338.068 117.255 339.021 117.338C339.973 117.421 340.934 117.311 341.836 117.016C342.737 116.722 343.557 116.249 344.238 115.633C344.918 115.016 345.444 114.27 345.776 113.447L369.029 113.891L362.587 104.51L341.493 105.525C339.949 105.105 338.29 105.218 336.831 105.845C335.372 106.471 334.214 107.567 333.577 108.924C332.939 110.281 332.867 111.806 333.373 113.209C333.879 114.612 334.928 115.796 336.322 116.537Z" fill="#FFB8B8"/>
<path d="M346.422 113.129L346.301 106.59C346.293 105.915 346.559 105.262 347.049 104.758C347.539 104.255 348.217 103.938 348.949 103.87L390.735 100.171L425.55 89.6984C426.601 89.3823 427.71 89.261 428.812 89.3415C429.914 89.4221 430.988 89.7029 431.971 90.1676C432.954 90.6323 433.827 91.2717 434.538 92.0485C435.249 92.8253 435.785 93.7241 436.114 94.6926C436.444 95.6611 436.56 96.68 436.456 97.69C436.352 98.7001 436.031 99.6811 435.51 100.576C434.989 101.471 434.28 102.262 433.423 102.903C432.566 103.545 431.578 104.023 430.518 104.311L391.982 114.778L349.425 115.77C348.781 115.784 348.151 115.604 347.63 115.257C347.109 114.911 346.727 114.417 346.542 113.851C346.467 113.617 346.427 113.374 346.422 113.129Z" fill="#3F3D56"/>
<path d="M408.26 281.705L400.28 281.704L396.484 253.468L408.261 253.469L408.26 281.705Z" fill="#FFB8B8"/>
<path d="M410.294 288.8L384.565 288.8V288.501C384.565 287.294 384.824 286.1 385.328 284.985C385.831 283.87 386.569 282.858 387.499 282.005C388.429 281.151 389.533 280.475 390.748 280.013C391.963 279.551 393.265 279.314 394.58 279.314H394.581L410.295 279.314L410.294 288.8Z" fill="#2F2E41"/>
<path d="M431.691 281.705L423.711 281.704L419.916 253.468L431.692 253.469L431.691 281.705Z" fill="#FFB8B8"/>
<path d="M433.726 288.8L407.997 288.8V288.501C407.997 287.294 408.256 286.1 408.759 284.985C409.263 283.87 410 282.858 410.93 282.005C411.86 281.151 412.964 280.475 414.179 280.013C415.394 279.551 416.696 279.314 418.012 279.314H418.012L433.727 279.314L433.726 288.8Z" fill="#2F2E41"/>
<path d="M437.046 167.592L435.141 271.306C435.135 271.635 435.055 271.959 434.906 272.257C434.758 272.556 434.544 272.824 434.277 273.043C434.011 273.263 433.698 273.43 433.358 273.533C433.018 273.636 432.659 273.675 432.302 273.645L422.965 272.866C422.352 272.815 421.779 272.567 421.347 272.165C420.915 271.763 420.652 271.235 420.605 270.672L415.138 205.978C415.125 205.826 415.05 205.685 414.927 205.582C414.804 205.48 414.643 205.424 414.476 205.427C414.31 205.43 414.152 205.492 414.033 205.598C413.915 205.705 413.845 205.849 413.839 206.002L411.107 272.177C411.081 272.794 410.796 273.378 410.311 273.807C409.826 274.235 409.178 274.475 408.505 274.475H398.491C397.828 274.475 397.19 274.243 396.707 273.826C396.224 273.409 395.933 272.839 395.892 272.232L388.882 166.995L430.538 157.442L437.046 167.592Z" fill="#2F2E41"/>
<path d="M406.832 70.2064C415.661 70.2064 422.818 63.6404 422.818 55.5408C422.818 47.4412 415.661 40.8752 406.832 40.8752C398.003 40.8752 390.846 47.4412 390.846 55.5408C390.846 63.6404 398.003 70.2064 406.832 70.2064Z" fill="#FFB8B8"/>
<path d="M387.456 170.678C387.179 170.433 386.958 170.139 386.805 169.815C386.653 169.49 386.572 169.141 386.568 168.788L385.489 98.0653C385.424 94.4677 386.604 90.9437 388.859 87.9997C391.114 85.0557 394.328 82.8432 398.039 81.6798C399.537 75.4463 407.508 74.6655 412.155 74.7588C413.315 74.7817 414.451 75.0609 415.468 75.5726C416.486 76.0843 417.353 76.8135 417.998 77.6983L421.329 82.2822L428.671 86.2304C432.069 88.0498 434.749 90.8123 436.325 94.1195C437.9 97.4266 438.29 101.107 437.438 104.631L436.308 109.348C432.328 126.043 432.706 143.364 437.413 159.899L439.687 167.855C439.806 168.269 439.815 168.704 439.713 169.122C439.611 169.54 439.402 169.93 439.103 170.259C438.804 170.587 438.423 170.846 437.993 171.012C437.563 171.179 437.095 171.249 436.63 171.216L433.988 171.029C433.302 170.981 432.657 170.714 432.165 170.273C431.673 169.832 431.366 169.246 431.298 168.618L430.861 164.607C430.853 164.534 430.816 164.465 430.756 164.416C430.696 164.366 430.618 164.338 430.537 164.338C430.457 164.338 430.379 164.366 430.319 164.416C430.259 164.465 430.222 164.534 430.214 164.607L429.79 168.49C429.719 169.146 429.387 169.755 428.858 170.201C428.329 170.647 427.64 170.899 426.921 170.909L389.541 171.437C389.526 171.437 389.51 171.438 389.495 171.438C388.733 171.439 388.001 171.166 387.456 170.678Z" fill="#3F3D56"/>
<path d="M408.083 63.9942C408.148 66.0673 409.717 67.2667 411.643 68.3526C413.57 69.4385 415.821 69.9093 418.027 70.3635C418.323 70.5079 418.655 70.5797 418.99 70.5722C419.326 70.5646 419.653 70.4779 419.942 70.3204C420.23 70.1629 420.469 69.9399 420.636 69.6729C420.803 69.406 420.892 69.1041 420.894 68.7964L422.917 61.7366C423.633 59.4815 424.154 57.178 424.475 54.8478C424.962 50.364 423.804 45.5406 420.393 42.2988C416.981 39.0569 411.065 37.9053 406.977 40.4031C402.126 34.7188 379.951 47.2776 385.421 51.2303C386.394 51.9335 387.882 51.0437 389.117 50.9575C390.352 50.8712 391.736 51.0706 392.521 51.95C393.546 53.099 393.1 54.8104 393.522 56.2437C393.697 56.748 393.979 57.2156 394.351 57.6195C394.724 58.0234 395.18 58.3556 395.694 58.597C396.207 58.8383 396.767 58.9841 397.342 59.0258C397.917 59.0676 398.496 59.0045 399.044 58.8402C400.065 58.3785 401.026 57.8119 401.908 57.1512C402.855 56.5722 404.052 56.1444 405.119 56.5096C406.525 56.9909 407.024 58.5698 407.151 59.9415C407.365 61.3095 407.677 62.6633 408.083 63.9942Z" fill="#2F2E41"/>
<path d="M526.504 289H278.525C278.352 289 278.187 288.937 278.065 288.825C277.943 288.713 277.874 288.561 277.874 288.403C277.874 288.245 277.943 288.093 278.065 287.981C278.187 287.869 278.352 287.806 278.525 287.806H526.504C526.677 287.806 526.842 287.869 526.964 287.981C527.086 288.093 527.155 288.245 527.155 288.403C527.155 288.561 527.086 288.713 526.964 288.825C526.842 288.937 526.677 289 526.504 289Z" fill="#3F3D56"/>
<path opacity="0.2" d="M404.349 103.3L401.746 132.558L388.078 163.011L408.254 133.155L404.349 103.3Z" fill="black"/>
<path d="M384.881 174.351C385.628 173.801 386.233 173.108 386.656 172.321C387.078 171.533 387.308 170.67 387.327 169.792C387.347 168.915 387.157 168.044 386.77 167.241C386.383 166.438 385.809 165.723 385.088 165.146L393.796 145.36L381.949 147.555L375.496 166.007C374.519 167.182 374.046 168.645 374.166 170.119C374.287 171.593 374.992 172.975 376.149 174.003C377.306 175.032 378.834 175.635 380.443 175.699C382.053 175.763 383.632 175.283 384.881 174.351Z" fill="#FFB8B8"/>
<path d="M384.248 165.624L377.542 163.407C376.851 163.175 376.279 162.714 375.94 162.115C375.601 161.517 375.519 160.823 375.709 160.171L386.772 123.019L388.459 89.4425C388.51 88.429 388.78 87.4349 389.253 86.518C389.726 85.6011 390.394 84.7797 391.216 84.1015C392.039 83.4233 393 82.9019 394.044 82.5676C395.088 82.2333 396.194 82.0928 397.298 82.1542C398.402 82.2156 399.482 82.4777 400.474 82.9252C401.467 83.3728 402.352 83.9969 403.079 84.7613C403.807 85.5257 404.361 86.4151 404.71 87.3777C405.059 88.3404 405.196 89.3571 405.113 90.3688L402.101 127.135L388.005 163.987C387.791 164.544 387.384 165.021 386.845 165.344C386.307 165.668 385.668 165.82 385.026 165.778C384.76 165.759 384.498 165.708 384.248 165.624Z" fill="#3F3D56"/>
<path d="M282.638 111.36H89.9819C89.8093 111.36 89.6437 111.298 89.5217 111.186C89.3996 111.074 89.3311 110.922 89.3311 110.763C89.3311 110.605 89.3996 110.453 89.5217 110.341C89.6437 110.229 89.8093 110.166 89.9819 110.166H282.638C282.81 110.166 282.976 110.229 283.098 110.341C283.22 110.453 283.289 110.605 283.289 110.763C283.289 110.922 283.22 111.074 283.098 111.186C282.976 111.298 282.81 111.36 282.638 111.36Z" fill="#3F3D56"/>
</g>
<defs>
<clipPath id="clip0_318_2044">
<rect width="538.966" height="289" fill="white"/>
</clipPath>
</defs>
</svg>
