<svg width="595" height="474" viewBox="0 0 595 474" fill="none" xmlns="http://www.w3.org/2000/svg">
<g clip-path="url(#clip0_318_2228)">
<path d="M397.416 103.825C397.329 103.84 397.199 103.862 397.041 103.888C393.945 104.401 375.233 107.288 356.366 100.101C348.374 97.0565 351.1 96.2978 333.3 85.713C312.431 73.3036 307.075 73.3903 305.521 67.604C302.418 56.0498 318.988 37.8862 329.955 39.0821C332.843 39.397 335.935 41.1184 340.745 39.9512C341.802 39.6947 346.428 38.5721 348.683 34.7431C350.694 31.3274 348.991 28.8634 349.8 26.062C351.923 18.7087 369.626 15.039 385.146 17.6318C394.072 19.1232 401.016 23.1945 414.537 31.2763C438.072 45.343 449.84 52.3763 452.484 63.1521C454.991 73.3657 448.975 77.7666 453.35 88.6999C457.425 98.8801 463.896 98.2001 466.123 106.435C469.706 119.688 456.406 134.232 450.865 140.291C444.791 146.934 438.982 150.579 431.269 155.419C421.589 161.494 416.748 164.532 410.929 164.223C400.378 163.663 369.027 165.57 368.618 156.839C368.465 153.567 330.441 156.246 349.164 121.019C351.461 116.698 396.449 121.313 397.043 118.831" fill="#AA2774"/>
<path d="M415.625 126.368L447.963 174.604L355.136 193.376L361.049 132.986L415.625 126.368Z" fill="#FFB6B6"/>
<path opacity="0.1" d="M415.625 126.368L447.963 174.604L355.136 193.376L361.049 132.986L415.625 126.368Z" fill="black"/>
<path d="M348.183 162.089L448.303 157.917L492.8 182.251L490.714 338.686L537.298 426.984L302.295 382.487L320.373 315.742L312.029 175.299L348.183 162.089Z" fill="#9579B3"/>
<path d="M2.69632 465.99C-0.500058 460.952 -0.877542 454.727 1.68675 449.338L39.7925 369.275C42.6365 363.299 48.7502 359.438 55.3677 359.438H536.673C543.107 359.438 548.96 362.978 551.948 368.675L592.792 446.532C595.615 451.914 595.43 458.235 592.295 463.442C589.161 468.648 583.662 471.77 577.585 471.794L17.3298 474H17.2596C11.3204 474 5.87973 471.009 2.69632 465.99Z" fill="white"/>
<path d="M2.69632 465.99C-0.500058 460.952 -0.877542 454.727 1.68675 449.338L39.7925 369.275C42.6365 363.299 48.7502 359.438 55.3677 359.438H536.673C543.107 359.438 548.96 362.978 551.948 368.675L592.792 446.532C595.615 451.914 595.43 458.235 592.295 463.442C589.161 468.648 583.662 471.77 577.585 471.794L17.3298 474H17.2596C11.3204 474 5.87973 471.009 2.69632 465.99ZM55.3677 361.249C49.4447 361.249 43.9728 364.705 41.4274 370.053L3.32163 450.116C1.02638 454.939 1.36408 460.511 4.22511 465.021C7.07465 469.513 11.9436 472.189 17.2599 472.189H17.3227L577.578 469.984C583.017 469.963 587.939 467.167 590.744 462.507C593.549 457.847 593.716 452.19 591.189 447.374L550.345 369.515C547.67 364.417 542.432 361.249 536.673 361.249H55.3677Z" fill="#3F3D56"/>
<path d="M491.863 443.392L293.241 429.737C290.308 429.535 287.97 427.558 287.283 424.7C286.596 421.842 287.781 419.019 290.301 417.506L334.222 391.154C335.337 390.484 336.616 390.159 337.913 390.221L509.719 398.031C511.991 398.133 514.02 399.374 515.146 401.349C516.274 403.323 516.309 405.701 515.243 407.709L498.137 439.908C496.989 442.069 494.738 443.408 492.315 443.408C492.165 443.408 492.014 443.402 491.863 443.392Z" fill="#3F3D56"/>
<path d="M291.519 421.77L489.324 435.327L504.967 401.607L335.358 394.956L291.519 421.77Z" fill="white"/>
<path d="M388.857 142.616C421.685 142.616 448.297 116.004 448.297 83.1763C448.297 50.3488 421.685 23.7368 388.857 23.7368C356.029 23.7368 329.417 50.3488 329.417 83.1763C329.417 116.004 356.029 142.616 388.857 142.616Z" fill="#FFB6B6"/>
<path d="M408.002 87.0229C407.915 87.0378 407.785 87.0599 407.626 87.0861C404.531 87.5984 385.818 90.4855 366.952 83.2988C358.96 80.2543 361.686 79.4955 343.886 68.9108C323.017 56.5014 317.661 56.5881 316.107 50.8018C313.004 39.2475 329.574 21.084 340.541 22.2799C343.429 22.5947 346.521 24.3162 351.331 23.1489C352.388 22.8925 357.014 21.7699 359.269 17.9409C361.28 14.5251 359.576 12.0611 360.386 9.25974C362.509 1.90645 380.212 -1.76323 395.732 0.829599C404.658 2.32091 411.601 6.39225 425.123 14.4741C448.658 28.5407 460.425 35.5741 463.07 46.3499C465.577 56.5634 459.56 60.9643 463.936 71.8976C468.011 82.0778 474.482 81.3979 476.709 89.6332C480.292 102.885 466.992 117.43 461.451 123.489C455.377 130.131 449.567 133.777 441.855 138.617C432.174 144.692 427.334 147.73 421.515 147.421C410.964 146.86 400.47 137.299 400.061 128.568C399.908 125.296 401.273 124.315 404.651 113.066C406.059 108.38 407.035 104.511 407.629 102.029" fill="#C41C7C"/>
<path d="M448.743 405.485C452.567 405.637 455.477 409.063 455.688 412.775C455.907 416.628 453.228 420.177 450.009 422.012C446.239 424.161 441.533 424.506 437.288 424.136C433.469 423.803 429.314 422.615 426.857 419.462C424.789 416.809 424.028 412.8 425.787 409.789C427.531 406.803 431.238 405.978 434.34 407.176C437.622 408.444 439.686 411.43 439.707 414.957C439.73 418.868 437.472 422.481 434.302 424.643C430.884 426.975 426.582 427.725 422.514 427.715C418.081 427.705 413.667 426.775 409.588 425.047C405.768 423.428 401.95 421.094 399.218 417.922C396.657 414.949 395.123 410.823 396.545 406.966C397.711 403.803 400.657 401.864 404.031 402.132C407.12 402.377 410.244 404.17 411.615 407.024C413.162 410.244 412.467 414.107 410.499 416.986C408.226 420.31 404.633 422.178 400.643 422.448C396.397 422.736 392.192 421.227 388.698 418.894C385.464 416.734 382.621 413.969 379.149 412.173C377.477 411.308 375.659 410.758 373.767 410.76C371.357 410.763 369.041 411.555 366.698 412.014C364.712 412.403 362.665 412.63 360.705 411.995C359.028 411.452 357.459 410.457 356.402 409.029C355.403 407.679 355.052 405.987 355.618 404.384C356.062 403.127 358.078 403.668 357.63 404.939C356.594 407.87 360.145 410.024 362.631 410.293C364.517 410.497 366.462 409.952 368.281 409.527C370.177 409.083 372.116 408.63 374.077 408.678C381.022 408.849 385.613 414.785 391.213 418.006C397.1 421.393 405.721 421.629 409.327 414.899C410.636 412.455 410.906 409.207 409.107 406.923C407.609 405.021 404.947 403.883 402.534 404.252C399.504 404.714 397.994 407.6 398.105 410.47C398.239 413.981 400.687 416.834 403.297 418.937C409.107 423.618 416.812 426.003 424.244 425.584C427.73 425.388 431.436 424.48 434.145 422.159C436.485 420.153 438.082 416.891 437.52 413.767C437.033 411.063 434.766 409.012 432.025 408.739C429.222 408.461 427.031 410.451 426.906 413.251C426.766 416.4 428.637 419.029 431.348 420.463C434.42 422.088 438.142 422.29 441.546 422.113C445.16 421.925 448.926 420.972 451.455 418.22C453.613 415.873 454.43 412.39 452.443 409.674C451.565 408.475 450.246 407.631 448.743 407.571C447.405 407.518 447.398 405.432 448.743 405.485Z" fill="#6C63FF"/>
<path d="M353.68 403.251L354.743 396.675L413.753 283.89C414.731 282.022 417.046 281.297 418.914 282.274C420.783 283.252 421.507 285.567 420.53 287.435L361.545 400.171L356.723 404.843C356.153 405.393 355.33 405.511 354.628 405.144C353.926 404.776 353.554 404.033 353.68 403.251Z" fill="#3F3D56"/>
<path d="M393.903 331.494C400.561 332.748 406.822 335.577 412.161 339.746L412.462 339.811L412.523 339.512L476.837 349.585L472.177 264.043L520.919 237.347L509.398 381.943C506.903 391.177 497.32 396.57 488.131 393.911L406.262 370.362L406.467 369.355L406.181 369.278C399.638 371.043 392.767 371.214 386.144 369.779C369.53 366.416 357.797 355.118 359.938 344.545C362.08 333.972 377.283 328.129 393.903 331.494Z" fill="#FFB6B6"/>
<path d="M437.874 197.547L492.801 182.251C492.801 182.251 521.654 203.457 525.131 226.401C525.544 229.129 526.691 356.238 525.478 359.544C516.494 384.03 467.075 344.943 467.075 344.943L437.874 197.547Z" fill="#A176B1"/>
<path d="M199.629 426.003L193.934 421.123C193.087 420.396 192.056 419.914 190.953 419.73L64.0779 398.584C61.1821 398.102 59.0429 396.01 58.495 393.126C57.9474 390.242 59.1709 387.512 61.6886 386.001L106.952 358.844C108.465 357.936 110.245 357.65 111.967 358.039L272.835 394.383C275.962 395.089 278.049 397.616 278.152 400.821C278.255 404.026 276.333 406.681 273.257 407.586L205.995 427.369C205.357 427.557 204.706 427.648 204.061 427.648C202.456 427.648 200.884 427.08 199.629 426.003Z" fill="#07378E"/>
<path d="M138.528 268.29C144.817 270.809 150.412 274.797 154.843 279.921L155.125 280.042L155.243 279.761L216.39 302.094L281.678 196.385L317.771 218.754L242.071 340.143C237.836 348.72 227.389 352.156 218.89 347.768L143.128 308.816L143.524 307.867L143.258 307.736C136.497 308.2 129.724 307.039 123.504 304.348C107.855 297.833 98.5311 284.477 102.679 274.518C106.827 264.56 122.874 261.771 138.528 268.29Z" fill="#FFB6B6"/>
<path d="M351.715 215.468L322.838 172.286C322.838 172.286 288.474 179.087 274.319 197.475C272.549 199.774 211.769 287.922 211.378 291.769C208.637 318.697 278.492 331.314 278.492 331.314L351.715 215.468Z" fill="#A975B0"/>
<path d="M196.485 427.3L51.0471 407.199C46.1795 406.527 42.162 403.039 40.8116 398.314L7.40824 281.404C6.27638 277.441 7.12137 273.338 9.7266 270.146C12.3318 266.953 16.181 265.303 20.2912 265.617L166.82 276.843C172.121 277.249 176.571 280.982 177.894 286.131L210.207 411.917C211.238 415.931 210.207 420.174 207.448 423.267C205.073 425.93 201.704 427.418 198.193 427.418C197.627 427.418 197.056 427.379 196.485 427.3Z" fill="#07378E"/>
<path d="M164.067 187.836C164.917 188.772 168.002 187.819 174.138 185.875C178.801 184.398 179.52 183.861 179.963 183.475C181.523 182.12 181.932 180.695 183.476 174.4C186.249 163.102 186.335 161.98 187.759 159.583C188.249 158.757 189.487 156.788 189.185 156.544C188.875 156.293 187.535 158.344 185.058 159.119C182.643 159.875 181.557 158.665 179.496 158.973C176.831 159.371 175.247 161.902 172.762 165.999C170.562 169.626 170.285 171.086 167.2 178.293C166.326 180.335 165.622 181.915 165.082 183.164C159.025 188.818 153.017 194.546 147.064 200.323C147.179 200.148 147.287 199.982 147.381 199.838C150.017 195.79 150.376 193.619 150.338 191.993C150.276 189.358 149.017 187.351 146.503 183.445C144.039 179.617 141.705 177.091 138.892 174.077C135.205 170.126 133.361 168.151 132.627 168.281C127.384 169.209 125.981 204.912 132.579 211.298C131.653 211.959 130.886 212.652 130.331 213.334C124.684 207.063 115.009 200.058 104.292 199.196C97.6849 198.664 94.0383 200.737 92.9044 201.449C87.6637 204.741 84.5475 211.329 86.1126 213.188C87.5719 214.921 91.7866 210.981 100.047 211.198C105.811 211.349 110.313 213.44 112.986 214.682C118.593 217.286 120.644 219.846 124.778 221.6C122.84 223.197 121.305 225.19 120.341 227.049C120.007 227.393 119.674 227.739 119.34 228.084C115.075 225.68 110.271 223.917 105.236 223.511C98.6285 222.98 94.9819 225.053 93.848 225.765C90.316 227.984 87.7564 231.696 86.9372 234.452C86.4018 234.559 85.9063 234.682 85.4528 234.815C83.8516 231.196 79.0867 227.38 74.6562 225.457C67.0298 222.147 57.1231 223.024 56.0631 226.172C56.0293 226.273 56.0208 226.372 56.0059 226.471C56.8419 219.726 57.9769 213.028 59.3952 206.378C59.4432 206.568 59.5036 206.76 59.5841 206.962C61.4667 211.691 66.554 216.229 73.4884 218.584C78.9309 220.431 81.2105 219.474 81.7895 219.206C82.3427 218.95 84.7321 217.925 85.3175 215.886C86.4029 212.105 79.7562 200.932 75.5637 204.679C62.0933 216.721 60.2447 206.97 59.626 205.329C60.7713 200.072 62.0895 194.845 63.568 189.649C63.5935 189.68 63.6155 189.711 63.642 189.744C66.585 193.313 72.2487 195.827 78.9044 195.938C84.1281 196.025 85.8349 194.563 86.2618 194.171C86.6693 193.796 88.4523 192.244 88.3924 190.317C88.2814 186.743 81.924 183.833 76.8374 183.328C72.1501 182.863 67.1028 184.298 64.599 186.116C65.7631 182.224 67.0153 178.349 68.3511 174.491C71.7719 175.888 76.6176 175.7 81.3779 173.572C85.3036 171.817 86.0669 170.133 86.2484 169.691C86.4217 169.27 87.2108 167.492 86.4947 166.075C85.167 163.449 79.4124 163.493 75.4437 164.889C73.809 165.464 72.2555 166.348 70.924 167.348C73.2911 161.024 75.8714 154.746 78.6464 148.514L75.8653 147.818C72.3204 155.78 69.2296 163.845 66.5735 171.999C66.2432 169.608 65.4155 167.06 64.3257 164.99C61.1213 158.904 54.2769 154.338 51.9622 155.819C51.4992 156.116 51.3043 156.598 51.1281 157.173C49.7092 161.797 50.7778 168.186 54.5145 174.057C57.4472 178.665 59.706 179.311 60.2943 179.458C60.7911 179.581 62.7091 180.111 64.2855 179.429C63.2253 183.062 62.245 186.71 61.3511 190.375C60.2755 187.704 58.1557 184.859 55.9139 182.891C50.7443 178.354 42.7193 176.538 41.0877 178.75C40.7615 179.192 40.7521 179.712 40.7931 180.312C41.122 185.137 44.4056 190.722 49.9949 194.867C54.3819 198.121 56.7225 197.917 57.3243 197.843C57.6785 197.8 58.749 197.693 59.781 197.227C58.823 201.68 57.9856 206.154 57.2618 210.647C55.8143 205.621 50.8969 199.35 46.2561 201.345C38.021 204.885 28.3406 199.447 27.2751 201.825C26.9979 202.444 27.2274 203.082 27.4927 203.774C29.6263 209.345 35.5188 214.742 43.6096 217.609C49.9598 219.858 52.6463 218.771 53.329 218.466C53.7816 218.264 55.2748 217.64 56.3871 216.483C55.5875 222.257 54.9745 228.06 54.5429 233.888C52.8259 230.139 47.9897 226.19 43.4623 224.153C35.5206 220.582 25.1336 221.364 23.98 224.646C23.7494 225.303 23.9313 225.936 24.2034 226.647C26.3935 232.365 32.4413 237.905 40.7459 240.847C47.2637 243.156 50.021 242.04 50.7219 241.727C51.2339 241.498 53.0421 240.743 54.1952 239.308C54.0475 242.003 53.9335 244.702 53.8613 247.406C53.8408 248.176 53.8287 248.946 53.8138 249.716C53.7203 249.868 53.6386 250.022 53.5843 250.184C53.3618 250.845 53.5132 251.48 53.7744 252.175C53.7687 252.664 53.7656 253.153 53.7624 253.642C52.3094 252.325 50.5761 250.345 48.4913 247.523C46.6102 244.976 44.8238 246.845 43.6763 249.013C41.8774 248.612 40.1614 248.86 38.812 250.121C29.7624 258.574 19.6124 254.089 19.4688 256.61C19.4273 257.337 19.8169 257.915 20.308 258.543C24.2593 263.59 32.0163 267.273 41.2317 267.661C48.4643 267.965 50.88 266 51.4849 265.471C51.6974 265.286 52.1737 264.885 52.6896 264.321C53.1038 264.652 53.5069 264.952 53.9113 265.225C54.0703 270.064 54.355 274.898 54.7769 279.723C54.4339 279.753 54.1058 279.81 53.8614 279.835C50.358 280.192 49.1776 275.465 43.8853 273.738C42.1278 273.165 38.7419 272.539 36.9575 273.738C36.7005 273.911 35.8238 274.561 34.4635 275.124C33.6594 275.457 33.0451 275.611 32.8008 275.678C30.6295 276.272 28.6183 277.902 27.2587 279.003C24.7027 281.075 23.4248 282.11 22.8248 283.991C22.636 284.583 22.1049 286.249 22.8248 287.871C23.165 288.637 23.9544 289.777 26.9815 290.919C28.7806 291.598 34.0281 293.577 40.2828 291.473C41.7071 290.994 40.6199 291.166 46.1022 288.425C50.4154 286.269 52.9379 285.238 53.3071 283.16C53.437 282.43 53.3061 281.539 53.8613 281.22C54.1699 281.043 54.543 281.129 54.9155 281.263C55.2784 285.142 55.7316 289.015 56.2809 292.879H51.3454C44.7919 292.879 38.9126 296.527 36.0025 302.399L17.5414 339.642C16.3759 341.993 15.7598 344.623 15.7598 347.247V443.015C15.7598 452.457 23.4418 460.139 32.8843 460.139H75.9753C85.4178 460.139 93.0998 452.457 93.0998 443.015V354.831C93.0998 352.681 92.7016 350.577 91.916 348.575L74.3216 303.747C72.1876 298.311 67.5658 294.465 62.041 293.274C63.8131 291.174 65.588 289.075 67.3767 286.982C69.6289 288.069 72.1065 288.961 74.7703 289.587C81.8174 291.244 84.5589 289.767 85.2525 289.361C85.9148 288.974 88.7859 287.398 89.2726 284.771C89.3247 284.489 89.3449 284.204 89.3411 283.917C96.5597 289.785 100.325 292.678 103.076 291.713C105.442 290.884 106.792 288.167 107.565 285.729C108.373 285.841 109.229 285.956 110.142 286.078C120.028 287.398 125.01 288.01 126.916 285.668C129.553 282.428 127.05 276.179 126.36 274.457C124.86 270.713 122.553 268.436 121.12 267.05C119.259 265.251 113.955 260.123 105.605 259.439C103.79 259.29 102.159 259.404 100.498 259.752C99.9187 259.222 99.3078 258.703 98.6351 258.211C97.3534 257.272 96.0876 256.576 94.7253 256.033C96.8151 253.743 98.9108 251.461 101.016 249.188C101.35 249.339 101.666 249.486 101.957 249.621C108.855 252.824 110.37 255.961 117.004 257.613C120.013 258.362 123.42 259.21 124.263 257.935C125.762 255.669 119.402 246.348 109.573 240.041C110.236 239.339 110.9 238.64 111.564 237.94C112.463 238.317 113.255 238.684 113.93 238.997C120.828 242.201 122.343 245.338 128.977 246.99C131.986 247.739 135.393 248.587 136.237 247.312C137.573 245.29 132.654 237.649 124.597 231.545C126.81 230.843 129.745 230.064 133.545 230.164C139.309 230.315 143.811 232.406 146.484 233.647C153.382 236.851 154.897 239.988 161.531 241.64C164.54 242.389 167.947 243.237 168.791 241.962C171.018 238.594 155.888 219.618 137.79 218.161C136.385 218.048 135.122 218.058 133.981 218.142C133.823 217.881 133.652 217.613 133.471 217.34C139.595 217.537 151.554 215.786 161.733 222.932C164.668 224.993 170.369 229.84 179.912 233.822C182.961 235.095 184.495 235.721 184.917 235.198C186.429 233.328 173.858 217.93 156.171 210.344C149.158 207.337 144.826 207.052 141.744 207.508C142.219 206.966 142.682 206.408 143.127 205.846C150.014 199.092 156.988 192.408 164.025 185.814C163.684 186.867 163.696 187.428 164.067 187.836ZM75.6859 271.905C67.907 269.386 58.4875 270.739 56.0313 273.604C55.6851 271.065 55.3841 268.522 55.1361 265.974C58.68 267.953 62.3779 268.483 69.3926 269.42C72.3803 269.819 74.913 270.151 77.0554 270.359C77.3431 271.138 77.65 271.84 78.0061 272.512C78.0473 272.59 78.0916 272.664 78.1337 272.741L78.0716 272.812C77.2728 272.465 76.4725 272.159 75.6859 271.905ZM55.0183 237.788C55.2402 237.052 55.2447 236.268 55.0753 235.461C55.3174 232.533 55.6195 229.615 55.977 226.705C55.9679 227.15 56.1091 227.596 56.3016 228.079C58.4641 233.511 64.3074 238.724 72.2725 241.428C73.7582 241.932 75.0329 242.251 76.1308 242.445C75.6477 243.287 75.2776 244.107 75.0324 244.865C72.317 242.684 68.8216 241.098 64.8557 242.781C63.7764 243.239 63.1358 244.914 62.5794 246.917C58.9156 246.981 55.8541 247.745 54.396 249.038C54.4038 248.499 54.4011 247.961 54.4155 247.42C54.4977 244.341 54.6495 241.272 54.8633 238.212C54.9217 238.075 54.9743 237.934 55.0183 237.788ZM54.4064 253.627C54.5642 253.95 54.7372 254.272 54.9168 254.592C54.7538 254.472 54.587 254.343 54.4157 254.204C54.4111 254.011 54.4099 253.819 54.4064 253.627ZM60.6618 293.038C60.2352 292.982 59.8047 292.941 59.3702 292.917C58.3674 287.938 57.4412 282.962 56.6662 277.977C58.7045 281.212 62.0313 284.174 66.2689 286.42C64.3885 288.62 62.5237 290.828 60.6618 293.038ZM93.4939 255.592C90.8411 254.74 87.7282 254.332 83.4199 253.832C82.3281 252.314 81.2027 251.196 80.3708 250.392C79.9201 249.957 79.2284 249.092 78.3322 248.081C80.6544 247.336 84.1203 246.008 89.0177 246.137C93.4688 246.254 97.1628 247.526 99.8474 248.672C97.7209 250.97 95.6048 253.277 93.4939 255.592ZM108.528 239.389C105.922 237.813 103.094 236.465 100.118 235.517C100.408 235.514 100.691 235.506 100.991 235.514C104.681 235.611 107.851 236.503 110.358 237.458C109.748 238.101 109.137 238.744 108.528 239.389Z" fill="#E7B9D4"/>
</g>
<defs>
<clipPath id="clip0_318_2228">
<rect width="594.785" height="474" fill="white"/>
</clipPath>
</defs>
</svg>
