<svg width="497" height="254" viewBox="0 0 497 254" fill="none" xmlns="http://www.w3.org/2000/svg">
<g clip-path="url(#clip0_301_1217)">
<path d="M474.94 140.426L473.383 152.821L469.519 183.608H391.895C392.501 176.708 393.33 166.775 394.215 156.053C394.302 154.983 394.394 153.905 394.481 152.821C396.701 125.869 399.13 95.3691 399.13 95.3691L409.335 97.27L429.135 100.951L437.203 102.45L458.808 106.473C469.58 108.474 476.989 124.068 474.94 140.426Z" fill="#F2F2F2"/>
<path d="M416.224 45.4941L425.77 62.1959L407.423 75.1962L399.597 54.6666L416.224 45.4941Z" fill="#FFB6B6"/>
<path d="M404.072 61.2943C417.132 61.2943 427.72 50.7084 427.72 37.6501C427.72 24.5917 417.132 14.0059 404.072 14.0059C391.011 14.0059 380.424 24.5917 380.424 37.6501C380.424 50.7084 391.011 61.2943 404.072 61.2943Z" fill="#FFB6B6"/>
<path d="M402.374 42.9365C400.496 40.0792 401.233 38.5847 399.661 37.5346C399.661 37.5346 399.028 37.1121 394.501 36.8711C393.487 29.5769 392.222 28.6923 392.222 28.6923C390.764 27.6728 388.599 28.004 387.253 28.6276C384.405 29.9463 384.735 32.795 382.818 33.3401C380.169 34.0931 375.351 29.8479 374.876 24.9881C374.489 21.0238 377.043 17.1735 378.056 17.3772C379.061 17.5791 381.466 14.5091 382.765 14.5564C383.651 14.5888 387.275 13.014 388.25 13.1371C389.314 13.2716 392.824 15.103 392.971 14.6846C393.987 11.777 393.688 10.9702 394.551 10.1384C396.079 8.6644 398.579 9.69084 402.501 10.2419C410.571 11.3757 411.979 8.71528 416.115 10.5185C418.204 11.4294 419.952 13.8861 423.363 18.7621C428.133 25.5812 430.518 28.9908 430.533 32.9676C430.549 37.0231 428.585 36.7657 427.722 42.7696C426.762 49.453 428.802 52.5091 426.573 54.6804C424.85 56.3585 421.348 56.7569 419.508 55.2841C416.358 52.7625 420.48 46.6779 416.994 42.2324C414.854 39.5037 410.551 38.2895 408.579 39.6384C406.35 41.1635 407.578 45.6401 406.011 46.0647C404.668 46.4282 402.701 43.4344 402.374 42.9365Z" fill="#2F2E41"/>
<path d="M457.461 136.06C456.801 147.336 454.181 150.896 453.263 164.213C453.063 167.137 452.943 170.531 452.943 174.578C452.943 175.61 452.948 176.608 452.948 177.582C452.948 179.658 452.908 181.618 452.667 183.607C452.484 185.195 452.169 186.795 451.647 188.48H400.715C400.709 188.469 400.709 188.457 400.703 188.446C400.405 187.15 400.216 185.912 400.072 184.725C400.027 184.347 399.986 183.974 399.952 183.607C399.906 183.177 399.866 182.753 399.826 182.335C399.671 180.667 399.516 179.09 399.149 177.582C398.656 175.501 397.762 173.541 395.927 171.649C395.176 170.875 394.425 170.273 393.691 169.746C393.548 169.648 393.41 169.551 393.267 169.453C391.237 168.06 389.316 167.057 387.653 164.213C387.625 164.173 387.602 164.128 387.579 164.088C387.292 163.589 386.547 162.281 386.008 160.539C385.44 158.727 385.096 156.451 385.715 154.124C387.189 148.609 392.647 148.059 397.108 142.486C397.59 141.885 398.066 141.219 398.519 140.48C400.537 137.201 401.081 134.312 401.724 130.878C401.827 130.321 401.919 129.771 401.993 129.238C402.051 128.837 402.102 128.441 402.143 128.051C402.498 124.778 402.326 121.957 401.907 119.435C400.543 111.174 396.517 106.06 399.361 98.6479C400.256 96.3206 401.523 94.5719 402.802 93.0758C405.508 89.9054 408.289 87.8474 407.807 83.7544C407.32 79.6267 404.189 79.059 403.84 75.4531C403.662 73.6303 404.258 71.7098 405.376 69.8237V69.8181C408.954 63.7469 417.887 58.1574 423.563 58.3352C424.612 58.364 425.541 58.5989 426.315 59.0518C429.119 60.7027 427.95 64.3087 432.244 69.3651C435.438 73.12 439.05 74.622 440.42 75.3328C445.85 78.165 450.265 86.5175 453.263 97.1976C453.286 97.2779 453.309 97.358 453.332 97.4442C455.185 104.134 456.492 111.73 457.14 119.435C457.415 122.697 457.575 125.976 457.61 129.221C457.639 131.812 457.581 134.059 457.461 136.06Z" fill="#9B2683"/>
<path d="M419.321 174.693L418.283 177.582L417.629 179.394L416.115 183.607L414.361 188.48H403.083L404.975 183.607L405.852 181.337L407.309 177.582L409.751 171.276L419.321 174.693Z" fill="#FFB6B6"/>
<path d="M453.441 96.2115C453.413 96.5844 453.373 96.997 453.332 97.4443C452.885 101.996 451.83 110.142 450.288 119.435C449.474 124.336 448.522 129.559 447.45 134.747C445.145 145.943 442.278 156.968 439.038 164.214C438.459 165.521 437.863 166.702 437.255 167.745C436.791 168.542 436.303 169.327 435.793 170.101C434.142 172.641 432.29 175.049 430.369 177.296C430.295 177.393 430.208 177.485 430.123 177.583C429.813 177.949 429.492 178.311 429.171 178.672C427.6 180.443 425.994 182.094 424.441 183.608C422.549 185.454 420.725 187.088 419.091 188.48H400.777L400.703 188.446L398.066 187.276C398.066 187.276 398.817 186.394 400.072 184.726C400.331 184.387 400.606 184.015 400.904 183.608C401.271 183.109 401.667 182.558 402.09 181.962C402.973 180.713 403.977 179.245 405.055 177.583C407.142 174.366 409.521 170.411 411.924 165.83C412.199 165.297 412.48 164.758 412.761 164.214C412.767 164.196 412.778 164.179 412.784 164.162C413.26 163.233 413.73 162.276 414.2 161.301C418.185 153.012 419.326 146.132 419.653 143.903C420.112 140.75 420.748 136.341 420.576 131.491C420.461 128.292 419.997 124.91 418.891 121.55V121.545C418.661 120.84 418.403 120.135 418.111 119.435C417.589 118.18 416.969 116.941 416.235 115.72C412.996 110.343 410.365 110.119 408.271 104.26C407.652 102.523 406.247 98.6023 406.677 94.4631V94.4575C406.729 93.9472 406.815 93.4314 406.93 92.9152V92.9096C406.958 92.7663 406.999 92.6173 407.039 92.474C407.366 91.2071 407.905 89.9514 408.724 88.7589C410.324 86.4432 412.508 85.0671 414.464 84.2475L414.47 84.2416C416.729 83.3016 418.678 83.1009 419.057 83.0665C427.433 82.3213 433.93 89.361 437.479 93.2077C438.849 94.6924 440.105 95.9366 441.252 96.9511C450.179 104.92 452.627 99.8289 453.263 97.1977C453.361 96.7907 453.413 96.4411 453.441 96.2115Z" fill="#AE2180"/>
<path d="M453.47 95.9141C453.47 95.9426 453.464 96.04 453.441 96.2007C453.453 96.1145 453.459 96.0286 453.464 95.9482C453.464 95.9311 453.464 95.9197 453.47 95.9141Z" fill="#6C63FF"/>
<path d="M407.933 216.881H100.58C97.7246 216.881 95.397 219.203 95.397 222.058C95.397 224.918 97.7246 227.24 100.58 227.24H407.933C410.788 227.24 413.111 224.918 413.111 222.058C413.111 219.203 410.788 216.881 407.933 216.881Z" fill="#56378D"/>
<path d="M339.726 243.641H168.782C165.927 243.641 163.605 245.962 163.605 248.817C163.605 251.672 165.927 254 168.782 254H339.726C342.581 254 344.909 251.672 344.909 248.817C344.909 245.962 342.581 243.641 339.726 243.641Z" fill="#BE1D7D"/>
<path d="M134.781 46.5931L154.151 38.4424L162.46 55.4718L142.104 63.7788L134.781 46.5931Z" fill="#FFB6B6"/>
<path opacity="0.1" d="M134.781 46.5931L154.151 38.4424L162.46 55.4718L142.104 63.7788L134.781 46.5931Z" fill="black"/>
<path d="M137.535 40.1038L156.644 62.1174C156.644 62.1174 143.35 104.068 130.057 107.806C116.764 111.544 92.2541 129.82 92.2541 129.82L61.5132 109.883L76.4682 87.8692C76.4682 87.8692 112.61 38.4424 122.164 38.4424C131.719 38.4424 137.535 40.1038 137.535 40.1038Z" fill="#423C91"/>
<path d="M111.716 183.608H67.2336L64.4212 179.849L52.9391 164.502L50.297 160.971C50.297 160.971 40.327 142.696 42.4041 126.082C44.4812 109.468 66.0829 105.729 66.0829 105.729H66.9719L93.4173 128.964L91.8388 150.587L100.214 164.502L111.716 183.608Z" fill="#2F2E41"/>
<path d="M76.3436 183.608H64.4211V165.955L76.3436 183.608Z" fill="#2F2E41"/>
<path d="M333.495 156.809L332.012 164.501L328.332 183.608H254.392C254.969 179.325 255.758 173.162 256.602 166.508C256.685 165.843 256.772 165.174 256.855 164.501C258.97 147.775 261.283 128.848 261.283 128.848L271.004 130.027L289.864 132.312L297.549 133.242L318.129 135.738C328.39 136.98 335.448 146.658 333.495 156.809Z" fill="#F2F2F2"/>
<path d="M438.135 183.608H398.031C398.641 182.889 398.986 182.474 398.986 182.474L411.008 180.488L435.779 176.401C435.779 176.401 436.909 179.321 438.135 183.608Z" fill="#2F2E41"/>
<path d="M268.023 54.9004L285.464 79.5616L255.041 80.4699L251.776 57.2942L268.023 54.9004Z" fill="#A0616A"/>
<path opacity="0.1" d="M268.023 54.9004L285.464 79.5616L255.041 80.4699L251.776 57.2942L268.023 54.9004Z" fill="black"/>
<path d="M182.013 105.997C179.775 99.5422 174.63 95.4647 170.522 96.8893C166.414 98.3139 164.899 104.7 167.138 111.157C167.997 113.748 169.465 116.096 171.418 118.005L181.245 145.233L193.926 140.35L182.892 114.026C183.245 111.318 182.943 108.564 182.013 105.997Z" fill="#A0616A"/>
<path d="M300.07 93.4303L300.046 118.563L297.707 127.846L292.897 146.94L289.395 164.501L286.786 177.585L285.855 182.257C285.153 182.727 284.455 183.175 283.758 183.607H222.994C219.542 181.535 217.611 179.923 217.611 179.923C217.611 179.923 218.566 179.026 219.659 177.585C221.503 175.151 223.734 171.163 222.367 167.355C222.08 166.557 222.006 165.585 222.093 164.501C222.65 157.349 230.152 145.254 230.152 145.254L228.598 127.302L227.917 119.435L232.721 81.0775L248.378 71.9772L251.081 71.7157L277.763 70.2744L288.791 70.9099L289.294 71.047L300.07 93.4303Z" fill="#CCCCCC"/>
<path d="M301.255 183.607H287.961L287.376 177.585L287.363 177.464L291.127 177.207L300.918 176.538L301.089 180.143L301.222 182.91L301.255 183.607Z" fill="#FFB6B6"/>
<path d="M304.527 99.5067L310.112 132.266L305.555 164.501L304.844 169.518L303.59 178.378L303.203 181.103L303.216 181.397L303.311 183.607H287.525L286.944 177.585L286.894 177.045L285.706 164.709L285.685 164.501L283.164 138.342L288.107 119.435L288.473 118.044V118.04L290.623 85.6672L288.958 70.9555L288.941 70.8184C288.974 70.8391 289.003 70.8599 289.037 70.8807C289.124 70.9347 289.211 70.9887 289.294 71.0468C298.998 77.2024 304.781 88.0015 304.527 99.5067Z" fill="#CCCCCC"/>
<path d="M238.376 87.3549L232.305 81.0771C232.305 81.0771 219.31 86.9346 218.663 90.1843C218.015 93.434 195.071 141.163 195.071 141.163L185.088 114.507L172.095 123.18C172.095 123.18 182.521 164.566 192.271 166.509C202.022 168.452 234.701 117.525 234.701 117.525L238.376 87.3549Z" fill="#CCCCCC"/>
<path d="M484.862 164.214H12.1325C5.44139 164.214 0 169.66 0 176.35C0 183.04 5.44138 188.481 12.1325 188.481H484.862C491.553 188.481 497 183.04 497 176.35C497 169.66 491.553 164.214 484.862 164.214Z" fill="#E6E6E6"/>
<path d="M297.303 127.232L296.384 170.115C296.295 174.266 292.904 177.585 288.752 177.585H209.855C205.8 177.585 202.453 174.416 202.232 170.368L199.887 127.486C199.648 123.113 203.13 119.436 207.51 119.436H289.671C293.951 119.436 297.395 122.954 297.303 127.232Z" fill="#3F3D56"/>
<path d="M169.937 56.9438C180.362 56.9438 188.813 48.494 188.813 38.0706C188.813 27.6471 180.362 19.1973 169.937 19.1973C159.512 19.1973 151.061 27.6471 151.061 38.0706C151.061 48.494 159.512 56.9438 169.937 56.9438Z" fill="#FFB6B6"/>
<path d="M138.365 87.4537L140.443 109.883L154.567 166.786L142.364 171.062L121.749 109.052L118.901 84.1309L138.365 87.4537Z" fill="#FFB6B6"/>
<path d="M132.747 127.232L131.828 170.115C131.739 174.266 128.348 177.585 124.195 177.585H45.2984C41.2438 177.585 37.8965 174.416 37.6751 170.368L35.3305 127.486C35.0914 123.113 38.5735 119.436 42.9537 119.436H125.114C129.395 119.436 132.839 122.954 132.747 127.232Z" fill="#3F3D56"/>
<path d="M156.816 177.875C165.049 177.875 171.723 174.923 171.723 171.282C171.723 167.641 165.049 164.689 156.816 164.689C148.583 164.689 141.908 167.641 141.908 171.282C141.908 174.923 148.583 177.875 156.816 177.875Z" fill="#FFB6B6"/>
<path d="M109.079 90.8826L117.595 45.503C117.595 45.503 141.273 42.1802 142.104 50.0719C142.935 57.9636 141.511 96.5313 141.511 96.5313L109.079 90.8826Z" fill="#4E398F"/>
<path d="M162.317 41.0383C162.317 41.0383 173.994 36.8715 178.92 34.6296C183.845 32.3876 193.631 48.0249 193.848 39.7664C194.066 31.5078 190.685 28.0445 190.685 28.0445C190.685 28.0445 189.84 9.97766 171.636 12.2364C171.636 12.2364 175.64 3.19741 162.496 1.79969C149.351 0.401964 128.902 32.138 130.734 36.8808C132.565 41.6236 134.761 45.5446 129.565 50.6157C124.369 55.6868 114.64 84.3066 122.042 92.008C129.445 99.7094 129.93 103.051 124.859 107.843C119.787 112.634 107.798 123.052 120.761 124.86C133.723 126.669 119.575 125.318 129.238 116.819C138.902 108.321 153.003 108.668 147.738 95.0324C142.472 81.3969 151.62 61.8573 150.475 58.8931C149.331 55.9289 153.04 37.1058 153.04 37.1058C153.04 37.1058 161.672 35.8377 162.317 41.0383Z" fill="#2F2E41"/>
<path d="M258.698 63.8262C270.046 63.8262 279.246 54.6279 279.246 43.2813C279.246 31.9346 270.046 22.7363 258.698 22.7363C247.349 22.7363 238.15 31.9346 238.15 43.2813C238.15 54.6279 247.349 63.8262 258.698 63.8262Z" fill="#A0616A"/>
<path d="M260.338 15.6604C259.743 16.0075 258.947 15.4824 258.756 14.821C258.565 14.1595 258.788 13.4572 259.008 12.805L260.116 9.52181C260.903 7.19326 261.737 4.78334 263.44 3.01101C266.011 0.33597 270.095 -0.344548 273.772 0.148463C278.495 0.781589 283.154 3.3382 285.35 7.56589C287.545 11.7936 286.61 17.6927 282.643 20.3304C288.297 26.8103 290.269 34.032 289.957 42.626C289.646 51.2199 280.279 59.1292 274.171 65.1833C272.807 64.3565 271.567 60.4818 272.317 59.0743C273.067 57.6667 271.992 56.036 272.921 54.7395C273.85 53.443 274.627 55.5074 273.688 54.2182C273.096 53.4048 275.409 51.5333 274.528 51.0464C270.267 48.6914 268.85 43.3811 266.173 39.3145C262.945 34.4095 257.421 31.0878 251.574 30.5367C248.353 30.2331 244.952 30.783 242.312 32.6524C239.672 34.5219 237.963 37.8627 238.575 41.0387C236.989 39.4292 236.2 37.0705 236.498 34.8311C236.796 32.5918 238.174 30.521 240.124 29.3814C238.938 25.4594 239.954 20.9479 242.708 17.9129C245.461 14.8779 256.629 15.3949 260.649 16.1936L260.338 15.6604Z" fill="#2F2E41"/>
<path d="M260.962 30.6562C266.286 31.2308 270.129 35.8416 273.375 40.0996C275.246 42.5538 277.206 45.264 277.159 48.3494C277.111 51.4689 275.025 54.1444 274.028 57.1007C272.399 61.9328 273.987 67.6819 277.866 70.9928C274.033 71.7201 269.89 68.8467 269.228 65.0025C268.458 60.5275 271.85 56.2085 271.449 51.6855C271.095 47.7007 267.954 44.6339 265.284 41.6545C262.614 38.675 260.106 34.7214 261.335 30.9141L260.962 30.6562Z" fill="#2F2E41"/>
<path d="M340.55 166.81C335.276 169.809 332.55 174.96 334.459 178.315C336.368 181.67 342.19 181.958 347.464 178.958C349.588 177.788 351.4 176.127 352.75 174.113L374.932 161.125L368.614 150.848L347.417 164.743C344.996 164.874 342.641 165.583 340.55 166.81Z" fill="#FFB6B6"/>
<path d="M415.653 71.5682C414.991 71.3056 409.174 69.1033 403.864 72.0109C397.765 75.351 396.823 82.9756 396.492 85.6499C395.729 91.8275 397.978 93.2122 398.452 99.4663C399.34 111.167 401.682 97.8187 397.942 103.16C396.648 105.008 383.426 133.657 376.135 139.268C361.953 150.182 352.948 157.868 352.948 157.868L363.229 169.034C363.229 169.034 379.474 164.706 393.833 155.384C408.562 145.822 415.926 141.041 421.624 131.687C422.114 130.882 433.854 110.949 427.549 88.907C426.111 83.8794 423.476 74.6677 415.653 71.5682Z" fill="#A22481"/>
<path d="M468.74 127.232L467.821 170.115C467.732 174.266 464.341 177.585 460.188 177.585H381.291C377.237 177.585 373.889 174.416 373.668 170.368L371.323 127.486C371.084 123.113 374.566 119.436 378.947 119.436H461.107C465.388 119.436 468.832 122.954 468.74 127.232Z" fill="#3F3D56"/>
</g>
<defs>
<clipPath id="clip0_301_1217">
<rect width="497" height="254" fill="white"/>
</clipPath>
</defs>
</svg>
